<svg width="380" height="242" viewBox="0 0 380 242" fill="none" xmlns="http://www.w3.org/2000/svg">
<g clip-path="url(#clip0_201_2052)">
<path d="M67.587 239.895C71.2107 236.839 73.4118 232.011 72.8346 227.312C72.2573 222.612 68.6821 218.292 64.0445 217.294C59.4068 216.296 54.1203 219.058 52.7117 223.58C51.9365 214.863 51.0432 205.781 46.3995 198.358C42.1948 191.636 34.9122 186.827 27.0195 185.967C19.1268 185.106 10.8168 188.356 5.89442 194.573C0.972034 200.79 -0.233203 209.829 3.21431 216.967C5.75398 222.225 10.4329 226.138 15.3353 229.322C31.1767 239.522 50.1763 243.671 68.8384 241.003L67.587 239.895Z" fill="#F2F2F2"/>
<path d="M13.6994 188.536C20.2118 193.83 26.1863 199.751 31.5364 206.213C36.8874 212.668 41.5984 219.626 45.6031 226.99C47.8416 231.12 49.8525 235.369 51.6268 239.719C51.9885 240.603 50.549 240.989 50.1913 240.114C47.0485 232.446 43.1604 225.104 38.5826 218.193C34.027 211.308 28.8129 204.879 23.0136 198.998C19.7334 195.674 16.2726 192.532 12.6467 189.586C11.9035 188.982 12.9623 187.937 13.6994 188.536Z" fill="white"/>
<path d="M283.833 0H87.5871C86.8392 0.000828161 86.1222 0.297688 85.5934 0.825454C85.0646 1.35322 84.7672 2.06879 84.7663 2.81516V135.53C84.7672 136.276 85.0646 136.992 85.5934 137.52C86.1222 138.047 86.8392 138.344 87.5871 138.345H283.833C284.581 138.344 285.298 138.047 285.827 137.52C286.356 136.992 286.653 136.276 286.654 135.53V2.81516C286.653 2.06879 286.356 1.35322 285.827 0.825454C285.298 0.297688 284.581 0.000828161 283.833 0ZM285.848 135.53C285.848 136.063 285.635 136.575 285.258 136.952C284.88 137.329 284.367 137.541 283.833 137.541H87.5871C87.0528 137.541 86.5404 137.329 86.1626 136.952C85.7848 136.575 85.5725 136.063 85.5723 135.53V2.81516C85.5725 2.28192 85.7848 1.77059 86.1626 1.39353C86.5404 1.01647 87.0528 0.804545 87.5871 0.804332H283.833C284.367 0.804545 284.88 1.01647 285.258 1.39353C285.635 1.77059 285.848 2.28192 285.848 2.81516V135.53Z" fill="#3F3D56"/>
<path d="M286.251 11.2766H85.1693V12.0809H286.251V11.2766Z" fill="#3F3D56"/>
<path d="M92.0197 8.44538C93.3551 8.44538 94.4376 7.36504 94.4376 6.03238C94.4376 4.69972 93.3551 3.61938 92.0197 3.61938C90.6844 3.61938 89.6019 4.69972 89.6019 6.03238C89.6019 7.36504 90.6844 8.44538 92.0197 8.44538Z" fill="#3F3D56"/>
<path d="M98.971 8.44538C100.306 8.44538 101.389 7.36504 101.389 6.03238C101.389 4.69972 100.306 3.61938 98.971 3.61938C97.6357 3.61938 96.5532 4.69972 96.5532 6.03238C96.5532 7.36504 97.6357 8.44538 98.971 8.44538Z" fill="#3F3D56"/>
<path d="M105.922 8.44538C107.258 8.44538 108.34 7.36504 108.34 6.03238C108.34 4.69972 107.258 3.61938 105.922 3.61938C104.587 3.61938 103.504 4.69972 103.504 6.03238C103.504 7.36504 104.587 8.44538 105.922 8.44538Z" fill="#3F3D56"/>
<path d="M202.635 29.9614H168.785C168.037 29.9614 167.32 29.6648 166.791 29.1368C166.262 28.6089 165.965 27.8928 165.965 27.1462C165.965 26.3996 166.262 25.6835 166.791 25.1556C167.32 24.6276 168.037 24.3311 168.785 24.3311H202.635C203.383 24.3311 204.1 24.6276 204.629 25.1556C205.158 25.6835 205.456 26.3996 205.456 27.1462C205.456 27.8928 205.158 28.6089 204.629 29.1368C204.1 29.6648 203.383 29.9614 202.635 29.9614Z" fill="#CCCCCC"/>
<path d="M225.806 43.635H145.615C144.867 43.635 144.149 43.3384 143.62 42.8104C143.091 42.2825 142.794 41.5664 142.794 40.8198C142.794 40.0732 143.091 39.3571 143.62 38.8292C144.149 38.3012 144.867 38.0046 145.615 38.0046H225.806C226.554 38.0046 227.271 38.3012 227.8 38.8292C228.329 39.3571 228.626 40.0732 228.626 40.8198C228.626 41.5664 228.329 42.2825 227.8 42.8104C227.271 43.3384 226.554 43.635 225.806 43.635Z" fill="#CCCCCC"/>
<path d="M249.855 127.668C246.816 127.668 243.844 126.768 241.317 125.083C238.79 123.398 236.82 121.002 235.657 118.2C234.493 115.397 234.189 112.313 234.782 109.338C235.375 106.363 236.839 103.63 238.988 101.485C241.137 99.3397 243.876 97.879 246.857 97.2872C249.838 96.6953 252.928 96.9991 255.736 98.16C258.545 99.3208 260.945 101.287 262.634 103.809C264.322 106.331 265.224 109.297 265.224 112.33C265.219 116.397 263.598 120.295 260.717 123.171C257.836 126.046 253.93 127.663 249.855 127.668ZM249.855 98.0502C247.025 98.0502 244.259 98.8877 241.906 100.457C239.553 102.026 237.719 104.256 236.636 106.865C235.553 109.475 235.27 112.346 235.822 115.116C236.374 117.886 237.737 120.431 239.738 122.428C241.739 124.425 244.288 125.785 247.064 126.336C249.839 126.887 252.716 126.604 255.331 125.523C257.945 124.442 260.18 122.612 261.752 120.264C263.325 117.915 264.164 115.155 264.164 112.33C264.159 108.544 262.651 104.915 259.968 102.237C257.286 99.5604 253.649 98.0545 249.855 98.0502Z" fill="#3F3D56"/>
<path d="M121.011 86.5896C117.972 86.5896 115 85.6901 112.473 84.0047C109.946 82.3194 107.976 79.924 106.813 77.1214C105.65 74.3188 105.345 71.2348 105.938 68.2596C106.531 65.2844 107.995 62.5514 110.144 60.4064C112.294 58.2614 115.032 56.8006 118.013 56.2088C120.994 55.617 124.084 55.9207 126.893 57.0816C129.701 58.2425 132.101 60.2084 133.79 62.7306C135.478 65.2529 136.38 68.2183 136.38 71.2519C136.375 75.3183 134.755 79.2168 131.873 82.0922C128.992 84.9676 125.086 86.585 121.011 86.5896ZM121.011 56.9719C118.181 56.9719 115.415 57.8094 113.062 59.3785C110.709 60.9476 108.875 63.1778 107.792 65.7871C106.709 68.3965 106.426 71.2677 106.978 74.0377C107.53 76.8078 108.893 79.3522 110.894 81.3493C112.895 83.3464 115.444 84.7065 118.22 85.2575C120.995 85.8085 123.872 85.5257 126.487 84.4449C129.101 83.364 131.336 81.5337 132.908 79.1854C134.481 76.8371 135.32 74.0762 135.32 71.2519C135.316 67.4659 133.807 63.8362 131.124 61.1591C128.442 58.482 124.805 56.9761 121.011 56.9719Z" fill="#3F3D56"/>
<path d="M126.981 79.3824C126.579 79.3825 126.193 79.2232 125.908 78.9395C125.623 78.6557 125.463 78.2708 125.462 77.8692V69.2635C125.463 68.8623 125.623 68.4777 125.907 68.194C126.191 67.9103 126.576 67.7507 126.978 67.7503H126.981C127.383 67.7507 127.768 67.9103 128.053 68.194C128.337 68.4777 128.497 68.8623 128.497 69.2635V77.8692C128.497 78.2704 128.337 78.655 128.053 78.9387C127.768 79.2224 127.383 79.382 126.981 79.3824ZM123.022 79.3824C122.821 79.3844 122.622 79.3468 122.436 79.2718C122.25 79.1967 122.081 79.0856 121.938 78.945C121.795 78.8044 121.681 78.6369 121.603 78.4523C121.526 78.2677 121.485 78.0695 121.484 77.8692V73.2335C121.485 72.8324 121.645 72.4478 121.929 72.1641C122.213 71.8804 122.598 71.7209 123 71.7205H123.022C123.424 71.7209 123.81 71.8804 124.094 72.1641C124.378 72.4478 124.538 72.8324 124.538 73.2335V77.8692C124.538 78.2704 124.378 78.655 124.094 78.9387C123.81 79.2224 123.424 79.382 123.022 79.3824ZM119.025 79.3824C118.623 79.3825 118.237 79.2232 117.952 78.9395C117.667 78.6557 117.507 78.2708 117.506 77.8692V64.6343C117.507 64.2331 117.667 63.8485 117.951 63.5648C118.235 63.2811 118.62 63.1216 119.022 63.1211H119.025C119.427 63.1216 119.812 63.2811 120.097 63.5648C120.381 63.8485 120.541 64.2331 120.541 64.6343V77.8692C120.541 78.2704 120.381 78.655 120.097 78.9387C119.812 79.2224 119.427 79.382 119.025 79.3824ZM115.043 79.3824C114.844 79.3826 114.646 79.3436 114.462 79.2676C114.278 79.1916 114.111 79.08 113.97 78.9394C113.829 78.7987 113.717 78.6317 113.641 78.4479C113.564 78.2641 113.525 78.067 113.525 77.8681L113.527 75.8803C113.527 75.479 113.687 75.0942 113.972 74.8106C114.256 74.5269 114.642 74.3677 115.044 74.3678C115.446 74.368 115.832 74.5276 116.116 74.8115C116.4 75.0954 116.56 75.4803 116.559 75.8816V77.8692C116.559 78.2704 116.399 78.655 116.115 78.9387C115.831 79.2224 115.445 79.382 115.043 79.3824Z" fill="#6C63FF"/>
<path d="M354.146 241.021C351.107 241.021 348.136 240.122 345.608 238.436C343.081 236.751 341.111 234.356 339.948 231.553C338.785 228.75 338.48 225.666 339.073 222.691C339.666 219.716 341.13 216.983 343.279 214.838C345.429 212.693 348.167 211.232 351.148 210.64C354.129 210.049 357.219 210.352 360.028 211.513C362.836 212.674 365.236 214.64 366.925 217.162C368.614 219.685 369.515 222.65 369.515 225.683C369.51 229.75 367.89 233.648 365.008 236.524C362.127 239.399 358.221 241.017 354.146 241.021ZM354.146 211.403C351.317 211.403 348.55 212.241 346.197 213.81C343.844 215.379 342.01 217.609 340.927 220.219C339.844 222.828 339.561 225.699 340.113 228.469C340.665 231.239 342.028 233.784 344.029 235.781C346.03 237.778 348.579 239.138 351.355 239.689C354.131 240.24 357.008 239.957 359.622 238.876C362.237 237.796 364.471 235.965 366.044 233.617C367.616 231.269 368.455 228.508 368.455 225.683C368.451 221.898 366.942 218.268 364.259 215.591C361.577 212.914 357.94 211.408 354.146 211.403Z" fill="#3F3D56"/>
<path d="M358.383 223.022L355.387 227.594C355.627 227.886 355.758 228.252 355.757 228.63C355.756 229.066 355.582 229.483 355.273 229.791C354.964 230.099 354.545 230.272 354.108 230.272C353.672 230.272 353.253 230.099 352.944 229.791C352.635 229.483 352.461 229.066 352.46 228.63C352.461 228.524 352.47 228.418 352.489 228.314L350.511 227.165C350.256 227.411 349.927 227.569 349.575 227.613C349.222 227.657 348.864 227.586 348.556 227.411L346.452 229.378V231.339C346.453 231.727 346.607 232.098 346.882 232.373C347.156 232.647 347.528 232.802 347.917 232.804H360.373C360.762 232.802 361.134 232.648 361.409 232.373C361.684 232.099 361.84 231.727 361.841 231.339V224.067L359.829 222.731C359.627 222.888 359.391 222.996 359.14 223.046C358.889 223.097 358.63 223.088 358.383 223.022Z" fill="#6C63FF"/>
<path d="M349.369 224.348C349.806 224.348 350.225 224.521 350.534 224.83C350.844 225.138 351.017 225.557 351.017 225.993V226.204L353.08 227.357C353.375 227.116 353.744 226.984 354.124 226.984C354.244 226.985 354.364 226.998 354.482 227.022L357.484 222.384C357.334 222.173 357.236 221.931 357.198 221.675C357.16 221.42 357.183 221.16 357.265 220.915C357.346 220.67 357.485 220.448 357.669 220.266C357.853 220.085 358.078 219.95 358.324 219.872C358.571 219.793 358.832 219.774 359.087 219.816C359.342 219.857 359.584 219.959 359.793 220.111C360.002 220.264 360.171 220.463 360.288 220.693C360.405 220.924 360.465 221.178 360.465 221.436C360.465 221.567 360.45 221.697 360.421 221.825L361.841 222.772V220.028C361.839 219.64 361.684 219.268 361.409 218.994C361.134 218.72 360.762 218.565 360.373 218.563H347.917C347.528 218.565 347.156 218.72 346.881 218.994C346.607 219.269 346.453 219.64 346.452 220.028V227.888L347.825 226.574C347.733 226.326 347.703 226.059 347.737 225.796C347.77 225.534 347.867 225.284 348.019 225.067C348.17 224.849 348.372 224.672 348.607 224.55C348.842 224.427 349.104 224.363 349.369 224.364V224.348Z" fill="#6C63FF"/>
<path d="M186.32 86.5896C183.28 86.5896 180.309 85.6901 177.781 84.0047C175.254 82.3194 173.284 79.924 172.121 77.1214C170.958 74.3188 170.653 71.2348 171.246 68.2596C171.839 65.2844 173.303 62.5514 175.452 60.4064C177.602 58.2614 180.34 56.8006 183.321 56.2088C186.303 55.617 189.393 55.9207 192.201 57.0816C195.009 58.2425 197.409 60.2084 199.098 62.7306C200.787 65.2529 201.688 68.2183 201.688 71.2519C201.683 75.3183 200.063 79.2168 197.182 82.0922C194.3 84.9676 190.394 86.585 186.32 86.5896ZM186.32 56.9719C183.49 56.9719 180.723 57.8094 178.37 59.3785C176.017 60.9476 174.183 63.1778 173.1 65.7871C172.017 68.3965 171.734 71.2677 172.286 74.0377C172.838 76.8078 174.201 79.3522 176.202 81.3493C178.203 83.3464 180.753 84.7065 183.528 85.2575C186.304 85.8085 189.181 85.5257 191.795 84.4449C194.41 83.364 196.644 81.5337 198.217 79.1854C199.789 76.8371 200.628 74.0762 200.628 71.2519C200.624 67.4659 199.115 63.8362 196.432 61.1591C193.75 58.482 190.113 56.9761 186.32 56.9719Z" fill="#3F3D56"/>
<path d="M178.155 76.8115C177.934 76.8115 177.718 76.7461 177.534 76.6237C177.351 76.5013 177.207 76.3273 177.123 76.1237C177.038 75.9201 177.016 75.6961 177.059 75.4798C177.101 75.2636 177.208 75.0649 177.363 74.9087L183.042 69.2257C183.13 69.1367 183.236 69.0662 183.351 69.0182C183.467 68.9702 183.592 68.9456 183.717 68.9459H183.718C183.843 68.9455 183.967 68.97 184.083 69.0179C184.199 69.0657 184.304 69.136 184.393 69.2248L187.026 71.8531C187.079 71.9063 187.142 71.9486 187.212 71.9773C187.281 72.0061 187.356 72.0207 187.431 72.0205C187.506 72.0207 187.581 72.006 187.651 71.9773C187.72 71.9485 187.783 71.9062 187.836 71.8529L191.554 68.1359C191.572 68.1182 191.586 68.0972 191.596 68.074C191.605 68.0509 191.61 68.0261 191.61 68.0011C191.61 67.9761 191.605 67.9513 191.596 67.9282C191.586 67.9051 191.572 67.8841 191.554 67.8665L190.351 66.6679C190.271 66.588 190.216 66.4862 190.194 66.3753C190.172 66.2644 190.183 66.1494 190.227 66.0449C190.27 65.9404 190.343 65.8511 190.437 65.7883C190.532 65.7254 190.642 65.6919 190.756 65.6919H195.029C195.181 65.6921 195.326 65.7523 195.433 65.8595C195.541 65.9666 195.601 66.1119 195.601 66.2634V70.5252C195.601 70.6382 195.568 70.7487 195.505 70.8427C195.442 70.9367 195.353 71.01 195.248 71.0533C195.143 71.0966 195.028 71.1079 194.917 71.0858C194.806 71.0638 194.704 71.0094 194.624 70.9294L193.419 69.7269C193.401 69.7092 193.38 69.6951 193.357 69.6856C193.334 69.676 193.309 69.6711 193.284 69.6711C193.259 69.6711 193.234 69.676 193.211 69.6856C193.188 69.6951 193.167 69.7092 193.149 69.7269L188.114 74.7484C188.026 74.8371 187.92 74.9074 187.805 74.9553C187.689 75.0032 187.565 75.0276 187.439 75.0273C187.314 75.0276 187.19 75.0031 187.074 74.9552C186.958 74.9073 186.853 74.8369 186.764 74.7482L184.13 72.1186C184.02 72.0147 183.875 71.9567 183.725 71.9567C183.574 71.9567 183.429 72.0147 183.32 72.1186L178.945 76.4847C178.841 76.5886 178.718 76.671 178.583 76.7271C178.447 76.7833 178.301 76.8119 178.155 76.8115Z" fill="#6C63FF"/>
<path d="M186.32 126.806C183.28 126.806 180.309 125.907 177.781 124.221C175.254 122.536 173.284 120.141 172.121 117.338C170.958 114.535 170.653 111.451 171.246 108.476C171.839 105.501 173.303 102.768 175.452 100.623C177.602 98.4779 180.34 97.0171 183.321 96.4253C186.303 95.8335 189.393 96.1373 192.201 97.2981C195.009 98.459 197.409 100.425 199.098 102.947C200.787 105.469 201.688 108.435 201.688 111.468C201.683 115.535 200.063 119.433 197.182 122.309C194.3 125.184 190.394 126.802 186.32 126.806Z" fill="#E6E6E6"/>
<path d="M249.989 85.3831C246.949 85.3831 243.978 84.4835 241.45 82.7982C238.923 81.1129 236.953 78.7174 235.79 75.9148C234.627 73.1122 234.323 70.0283 234.916 67.0531C235.509 64.0778 236.972 61.3449 239.122 59.1999C241.271 57.0548 244.009 55.5941 246.99 55.0022C249.972 54.4104 253.062 54.7142 255.87 55.875C258.678 57.0359 261.078 59.0018 262.767 61.5241C264.456 64.0464 265.357 67.0118 265.357 70.0453C265.353 74.1117 263.732 78.0103 260.851 80.8857C257.97 83.7611 254.063 85.3785 249.989 85.3831Z" fill="#E6E6E6"/>
<path d="M121.012 96.1304C118.374 96.1337 115.781 96.8122 113.48 98.101C116.805 98.3942 119.922 99.8376 122.293 102.182C124.664 104.526 126.139 107.623 126.464 110.938C126.79 114.253 125.944 117.577 124.073 120.335C122.203 123.093 119.425 125.113 116.221 126.043C116.821 126.242 117.433 126.402 118.054 126.522C119.028 126.713 120.019 126.809 121.012 126.808C125.088 126.808 128.997 125.192 131.879 122.315C134.762 119.438 136.381 115.537 136.381 111.469C136.381 107.401 134.762 103.499 131.879 100.623C128.997 97.7464 125.088 96.1304 121.012 96.1304Z" fill="#E6E6E6"/>
<path d="M115.181 97.2806C114.207 97.0859 113.216 96.9889 112.223 96.991C108.271 96.9869 104.47 98.5005 101.606 101.218C98.742 103.935 97.0357 107.648 96.8405 111.587C96.6454 115.526 97.9763 119.389 100.558 122.375C103.139 125.361 106.772 127.242 110.705 127.627C114.638 128.012 118.568 126.872 121.682 124.443C124.795 122.015 126.853 118.483 127.428 114.582C128.004 110.68 127.053 106.707 124.773 103.486C122.493 100.265 119.058 98.0429 115.181 97.2806ZM116.221 126.043C114.252 126.615 112.184 126.758 110.156 126.462C108.128 126.166 106.187 125.439 104.464 124.33C102.742 123.221 101.279 121.755 100.173 120.033C99.0677 118.31 98.346 116.37 98.0568 114.345C97.7676 112.32 97.9177 110.256 98.497 108.294C99.0763 106.332 100.071 104.517 101.414 102.971C102.758 101.426 104.418 100.187 106.283 99.3377C108.147 98.4884 110.173 98.0488 112.223 98.0487C112.646 98.0487 113.065 98.0688 113.48 98.101C116.805 98.3942 119.922 99.8376 122.293 102.182C124.664 104.526 126.139 107.623 126.464 110.938C126.79 114.253 125.944 117.577 124.073 120.335C122.203 123.093 119.425 125.113 116.221 126.043Z" fill="#3F3D56"/>
<path d="M121.171 109.63C120.663 107.408 119.293 105.478 117.36 104.263C115.428 103.049 113.091 102.65 110.864 103.153C110.646 103.202 110.421 103.263 110.222 103.324L112.276 112.331L121.301 110.285C121.263 110.076 121.221 109.847 121.171 109.63Z" fill="#6C63FF"/>
<path d="M120.297 111.866L111.268 113.912L109.218 104.905C107.644 105.391 106.243 106.318 105.18 107.575C104.117 108.831 103.438 110.366 103.223 111.997C103.007 113.627 103.265 115.285 103.965 116.774C104.665 118.262 105.778 119.519 107.172 120.396C108.566 121.273 110.183 121.732 111.831 121.719C113.479 121.707 115.088 121.223 116.469 120.325C117.85 119.427 118.943 118.153 119.62 116.654C120.298 115.155 120.53 113.493 120.29 111.866H120.297Z" fill="#6C63FF"/>
<path d="M278.95 183.971C275.91 183.971 272.939 183.072 270.412 181.386C267.884 179.701 265.915 177.306 264.751 174.503C263.588 171.7 263.284 168.616 263.877 165.641C264.47 162.666 265.934 159.933 268.083 157.788C270.232 155.643 272.971 154.182 275.952 153.59C278.933 152.999 282.023 153.302 284.831 154.463C287.639 155.624 290.04 157.59 291.728 160.112C293.417 162.635 294.318 165.6 294.318 168.633C294.314 172.7 292.693 176.598 289.812 179.474C286.931 182.349 283.025 183.967 278.95 183.971ZM278.95 154.353C276.12 154.353 273.354 155.191 271.001 156.76C268.648 158.329 266.814 160.559 265.731 163.169C264.648 165.778 264.364 168.649 264.916 171.419C265.469 174.189 266.831 176.734 268.832 178.731C270.833 180.728 273.383 182.088 276.159 182.639C278.934 183.19 281.811 182.907 284.426 181.826C287.04 180.746 289.275 178.915 290.847 176.567C292.419 174.219 293.259 171.458 293.259 168.633C293.254 164.847 291.745 161.218 289.063 158.541C286.38 155.864 282.744 154.358 278.95 154.353Z" fill="#3F3D56"/>
<path d="M285.581 174.779C285.019 174.779 284.469 174.613 284.001 174.302C283.533 173.99 283.168 173.547 282.952 173.029C282.737 172.51 282.68 171.939 282.79 171.389C282.899 170.838 283.169 170.332 283.567 169.935C283.964 169.538 284.471 169.267 285.023 169.157C285.574 169.047 286.146 169.103 286.666 169.317C287.186 169.532 287.63 169.895 287.943 170.362C288.256 170.829 288.423 171.377 288.424 171.939C288.424 172.691 288.124 173.413 287.591 173.946C287.059 174.479 286.336 174.778 285.581 174.779ZM278.95 174.779C278.196 174.778 277.474 174.479 276.941 173.947C276.408 173.416 276.109 172.695 276.108 171.943V165.324C276.109 164.573 276.409 163.852 276.941 163.321C277.474 162.79 278.197 162.491 278.95 162.491C279.703 162.491 280.426 162.79 280.959 163.321C281.492 163.852 281.791 164.573 281.792 165.324V171.943C281.791 172.695 281.492 173.416 280.959 173.947C280.426 174.479 279.704 174.778 278.95 174.779ZM272.321 174.779C271.567 174.778 270.844 174.479 270.31 173.947C269.777 173.415 269.477 172.693 269.476 171.94V169.296C269.476 168.543 269.776 167.821 270.31 167.289C270.843 166.757 271.566 166.458 272.321 166.458C273.075 166.458 273.798 166.757 274.332 167.289C274.865 167.821 275.165 168.543 275.165 169.296V171.94C275.164 172.693 274.864 173.415 274.331 173.947C273.798 174.479 273.075 174.778 272.321 174.779Z" fill="#6C63FF"/>
<path d="M84.0715 237.446L88.756 236.915L88.9349 218.631L82.0211 219.414L84.0715 237.446Z" fill="#A0616A"/>
<path d="M98.2835 240.233L83.5614 241.9L82.9159 236.223L91.9499 235.2C93.4585 235.03 94.9733 235.464 96.1611 236.408C97.3488 237.351 98.1123 238.727 98.2835 240.233Z" fill="#2F2E41"/>
<path d="M35.8969 237.154L40.6112 237.153L42.8538 219.006L35.8961 219.006L35.8969 237.154Z" fill="#A0616A"/>
<path d="M49.7032 241.522L34.8867 241.523L34.8864 235.809L43.9784 235.809C45.4967 235.809 46.9528 236.411 48.0264 237.482C49.1 238.554 49.7032 240.007 49.7032 241.522Z" fill="#2F2E41"/>
<path d="M69.7212 155.998L72.413 164.736L87.0255 196.294L90.8709 226.229L82.0265 226.612L76.6429 198.981L58.1851 179.025L42.0345 231.218L34.7282 230.45C34.7282 230.45 40.8809 162.906 49.3407 155.998C49.3407 155.998 63.1841 149.474 69.7212 155.998Z" fill="#2F2E41"/>
<path d="M57.7809 118.294C62.997 118.294 67.2255 114.074 67.2255 108.868C67.2255 103.662 62.997 99.4424 57.7809 99.4424C52.5647 99.4424 48.3362 103.662 48.3362 108.868C48.3362 114.074 52.5647 118.294 57.7809 118.294Z" fill="#A0616A"/>
<path d="M70.6826 157.725C70.6826 157.725 71.8362 118.58 55.6856 121.267C39.535 123.953 46.2644 161.755 46.2644 161.755C46.2644 161.755 49.7252 168.663 58.1851 160.987C66.6449 153.312 70.6826 157.725 70.6826 157.725Z" fill="#6C63FF"/>
<path d="M104.118 125.143C103.815 125.619 103.411 126.023 102.935 126.326C102.458 126.63 101.921 126.825 101.36 126.899C100.8 126.973 100.23 126.923 99.6907 126.753C99.1516 126.583 98.6564 126.298 98.2399 125.916L86.1425 132.421L86.7759 125.322L98.1667 120.234C98.8553 119.578 99.7609 119.197 100.712 119.163C101.663 119.129 102.594 119.445 103.327 120.05C104.061 120.655 104.547 121.508 104.693 122.446C104.838 123.385 104.634 124.344 104.118 125.143Z" fill="#A0616A"/>
<path d="M57.6906 126.046L77.3277 129.359L94.9255 121.068L97.5972 126.77L78.3327 139.016C78.3327 139.016 57.9376 140.398 53.2222 135.03C51.454 133.017 51.2518 131.185 51.6899 129.681C52.0736 128.449 52.8955 127.399 54.0007 126.73C55.1059 126.06 56.4183 125.817 57.6906 126.046Z" fill="#6C63FF"/>
<path d="M56.6576 118.772C56.7027 118.732 56.7378 118.682 56.76 118.625C56.7822 118.569 56.791 118.509 56.7857 118.448C56.7803 118.388 56.761 118.33 56.7292 118.278C56.6974 118.227 56.654 118.184 56.6025 118.152C55.7638 117.633 55.0805 116.899 54.6243 116.026C54.1682 115.153 53.956 114.174 54.0102 113.191C54.0643 112.208 54.3827 111.257 54.932 110.44C55.4813 109.622 56.2411 108.967 57.1317 108.543C59.9085 107.222 63.6712 108.25 65.7239 105.711C66.1413 105.168 66.4365 104.541 66.5893 103.874C66.7421 103.206 66.7489 102.514 66.6093 101.843C66.1664 99.4453 64.36 97.6644 62.337 96.4439C59.8519 94.9446 56.9957 94.1699 54.092 94.2076C51.1884 94.2453 48.3533 95.0939 45.9081 96.6572C43.4629 98.2205 41.5053 100.436 40.2572 103.053C39.009 105.669 38.5201 108.583 38.8459 111.463C39.107 113.771 39.8206 116.359 38.4455 118.233C37.2352 119.882 34.9507 120.191 32.944 120.601C28.6398 121.48 24.4873 123.508 21.5664 126.783C18.6455 130.058 17.0873 134.653 17.968 138.949C18.8486 143.244 22.3817 147.02 26.7241 147.685C30.2587 148.227 33.9083 146.729 36.5039 144.274C39.0995 141.819 40.7402 138.504 41.775 135.088C43.0033 131.033 43.4878 126.664 45.7053 123.052C47.8753 119.518 52.5516 116.984 56.2166 118.825C56.2869 118.862 56.3666 118.876 56.4453 118.867C56.524 118.857 56.598 118.824 56.6576 118.772Z" fill="#2F2E41"/>
<path d="M330.358 188.542C330.869 188.288 331.318 187.926 331.673 187.48C332.029 187.034 332.282 186.516 332.415 185.962C332.548 185.408 332.558 184.831 332.444 184.273C332.33 183.715 332.094 183.188 331.754 182.731L340.854 132.47L332.362 132.358L326.043 182.06C325.31 182.681 324.832 183.549 324.698 184.499C324.564 185.448 324.783 186.414 325.315 187.213C325.847 188.012 326.654 188.589 327.583 188.834C328.513 189.079 329.5 188.975 330.358 188.542Z" fill="#FFB8B8"/>
<path d="M304.002 186.159L300.779 201.441L301.182 235.625H307.226L310.047 202.246L314.48 188.17L304.002 186.159Z" fill="#FFB8B8"/>
<path d="M323.979 187.306L320.755 202.588L321.158 236.772H327.203L330.024 203.392L334.456 189.316L323.979 187.306Z" fill="#FFB8B8"/>
<path d="M299.071 235.237L308.598 235.213L308.613 241.2L293.087 241.239C293.085 240.452 293.238 239.674 293.538 238.946C293.837 238.219 294.277 237.558 294.833 237.001C295.389 236.444 296.049 236.001 296.776 235.698C297.503 235.395 298.283 235.239 299.071 235.237Z" fill="#2F2E41"/>
<path d="M319.196 235.883L328.724 235.859L328.739 241.846L313.212 241.885C313.21 241.099 313.363 240.32 313.663 239.593C313.963 238.866 314.403 238.205 314.958 237.647C315.514 237.09 316.174 236.647 316.901 236.345C317.628 236.042 318.408 235.885 319.196 235.883Z" fill="#2F2E41"/>
<path d="M318.711 111.213C324.177 111.213 328.608 106.79 328.608 101.335C328.608 95.8799 324.177 91.4575 318.711 91.4575C313.245 91.4575 308.813 95.8799 308.813 101.335C308.813 106.79 313.245 111.213 318.711 111.213Z" fill="#FFB8B8"/>
<path d="M340.583 125.766C337.572 121.051 328.117 109.867 314.049 116.287C312.94 116.798 312.015 117.636 311.398 118.688C310.781 119.74 310.501 120.955 310.596 122.17C311.277 131.138 312.136 153.987 304.808 167.659C304.808 167.659 326.166 174.094 337.852 168.061C337.852 168.061 333.822 141.116 337.852 135.888C339.196 134.217 340.284 132.357 341.081 130.368C341.361 129.615 341.461 128.807 341.375 128.009C341.289 127.21 341.018 126.443 340.583 125.766Z" fill="#3F3D56"/>
<path d="M336.643 125.432L340.598 127.076C340.861 127.186 341.087 127.368 341.25 127.602C341.413 127.835 341.506 128.11 341.518 128.394L341.882 137.095L333.016 136.29L336.643 125.432Z" fill="#3F3D56"/>
<path d="M306.42 166.855C306.42 166.855 297.555 183.344 299.167 198.626L311.659 200.637L320.524 179.322L318.509 201.039L331.404 201.441C331.404 201.441 339.867 170.072 337.046 167.257L306.42 166.855Z" fill="#2F2E41"/>
<path d="M293.829 168.327C294.393 168.241 294.932 168.032 295.407 167.716C295.882 167.399 296.281 166.983 296.577 166.496C296.874 166.009 297.059 165.463 297.121 164.896C297.183 164.33 297.119 163.757 296.935 163.218L314.919 129.383L306.866 126.692L291.701 160.84C290.814 161.208 290.093 161.889 289.675 162.753C289.257 163.617 289.171 164.604 289.433 165.526C289.695 166.449 290.288 167.244 291.098 167.76C291.908 168.276 292.88 168.478 293.829 168.327Z" fill="#FFB8B8"/>
<path d="M317.374 120.224L314.044 118.737C314.044 118.737 311.219 116.989 308.716 120.834C306.212 124.679 303.508 133.105 303.508 133.105L314.376 136.157L317.374 120.224Z" fill="#3F3D56"/>
<path d="M320.296 106.09C320.652 104.859 320.549 103.193 319.353 102.727C318.73 102.484 318.034 102.676 317.369 102.744C316.066 102.872 314.763 102.513 313.709 101.739C312.472 100.821 311.708 99.4176 310.982 98.06L309.884 96.0067C309.64 95.5786 309.432 95.1311 309.262 94.6687C308.651 92.856 309.314 90.7574 310.672 89.4077C312.09 88.0905 313.957 87.3599 315.895 87.3638C317.818 87.3776 319.717 87.7837 321.477 88.5572C324.604 89.8294 327.437 91.7286 329.799 94.1372C331.344 95.7137 332.749 97.7675 332.427 99.9485C332.176 101.646 330.936 103.006 329.753 104.252L325.464 108.771C324.704 109.571 323.892 110.404 322.831 110.712C321.771 111.019 320.404 110.567 320.115 109.503C320.115 109.503 319.941 107.322 320.296 106.09Z" fill="#2F2E41"/>
<path d="M379.597 242H0.402969C0.296095 242 0.193598 241.958 0.118027 241.882C0.0424553 241.807 0 241.705 0 241.598C0 241.491 0.0424553 241.389 0.118027 241.314C0.193598 241.238 0.296095 241.196 0.402969 241.196H379.597C379.704 241.196 379.806 241.238 379.882 241.314C379.958 241.389 380 241.491 380 241.598C380 241.705 379.958 241.807 379.882 241.882C379.806 241.958 379.704 242 379.597 242Z" fill="#3F3D56"/>
<path d="M255.497 118.765H244.214C243.893 118.765 243.586 118.638 243.359 118.411C243.132 118.185 243.005 117.878 243.005 117.558C243.005 117.238 243.132 116.931 243.359 116.705C243.586 116.479 243.893 116.352 244.214 116.352H255.497C255.817 116.352 256.125 116.479 256.352 116.705C256.578 116.931 256.706 117.238 256.706 117.558C256.706 117.878 256.578 118.185 256.352 118.411C256.125 118.638 255.817 118.765 255.497 118.765Z" fill="#6C63FF"/>
<path d="M255.497 113.537H244.214C243.893 113.537 243.586 113.41 243.359 113.183C243.132 112.957 243.005 112.65 243.005 112.33C243.005 112.01 243.132 111.703 243.359 111.477C243.586 111.251 243.893 111.124 244.214 111.124H255.497C255.817 111.124 256.125 111.251 256.352 111.477C256.578 111.703 256.706 112.01 256.706 112.33C256.706 112.65 256.578 112.957 256.352 113.183C256.125 113.41 255.817 113.537 255.497 113.537Z" fill="#6C63FF"/>
<path d="M255.497 108.309H244.214C243.893 108.309 243.586 108.181 243.359 107.955C243.132 107.729 243.005 107.422 243.005 107.102C243.005 106.782 243.132 106.475 243.359 106.249C243.586 106.023 243.893 105.896 244.214 105.896H255.497C255.817 105.896 256.125 106.023 256.352 106.249C256.578 106.475 256.706 106.782 256.706 107.102C256.706 107.422 256.578 107.729 256.352 107.955C256.125 108.181 255.817 108.309 255.497 108.309Z" fill="#6C63FF"/>
</g>
<defs>
<clipPath id="clip0_201_2052">
<rect width="380" height="242" fill="white"/>
</clipPath>
</defs>
</svg>
