<svg width="414" height="489" viewBox="0 0 414 489" fill="none" xmlns="http://www.w3.org/2000/svg">
<g clip-path="url(#clip0)">
<path d="M352.888 222.845C332.917 161.261 312.953 99.6901 292.951 38.1685C291.844 34.7438 290.482 31.4307 288.868 28.2293C286.764 24.06 284.067 20.2382 280.924 16.9623C267.938 3.03993 247.145 -3.45594 228.572 1.8239C198.431 10.4851 182.017 41.2831 191.767 71.2187C207.08 118.489 222.392 165.747 237.704 213.017C245.177 236.073 234.864 256.547 211.856 264.221C173.034 277.219 134.219 290.217 95.4591 303.259C95.4529 303.259 95.4529 303.259 95.4468 303.259L95.3416 303.283C87.5896 305.914 79.9305 308.414 72.1848 311.045C68.5161 312.261 64.9092 313.806 61.457 315.531C60.2383 316.126 59.0318 316.834 57.8316 317.529C57.6831 317.615 57.4914 317.77 57.3429 317.857C56.5077 318.422 55.6353 319.061 54.7506 319.694C53.3463 320.717 52.0594 321.828 50.7355 323.007C49.7147 324.006 48.6815 325.011 47.6792 326.115C46.7018 327.331 45.7428 328.653 44.8952 329.956C36.1349 343.369 32.4971 360.146 36.8463 375.359C39.9644 386.055 45.3716 395.101 52.5667 401.975C55.7838 405.009 59.2422 407.658 62.9418 409.805C65.5588 411.337 68.281 412.566 71.0155 413.633C71.1887 413.651 71.3867 413.775 71.5599 413.794C81.737 416.673 93.0154 416.456 104.43 412.609C135.512 402.235 166.563 391.763 197.639 381.383C228.968 370.904 260.31 360.419 291.621 349.834C296.013 348.358 300.301 346.614 304.334 344.424C349.009 320.209 368.522 271.176 352.888 222.845Z" fill="#EB0064"/>
<path d="M366.944 143.101C310.787 104.002 254.692 64.884 198.48 25.8777C195.387 23.6628 192.052 21.7581 188.693 20.0954C166.025 8.87803 136.168 16.137 121.029 36.4002C116.166 43.0264 112.8 50.2481 111 57.6561C110.381 60.0509 109.948 62.5574 109.726 64.9337C109.571 65.9326 109.466 66.8384 109.46 67.8C109.336 68.9478 109.293 70.0832 109.324 71.1938C109.336 72.2361 109.324 73.1978 109.416 74.2153C110.276 91.3018 118.87 107.706 134.343 118.508C177.451 148.53 220.635 178.534 263.75 208.556C284.778 223.211 289.109 247.06 274.7 268.341C247.324 308.631 219.929 348.835 192.547 389.126L192.491 389.219C189.107 396.689 185.692 404.004 182.308 411.467C180.687 414.985 179.345 418.677 178.243 422.381C177.841 423.684 177.532 425.042 177.223 426.395C177.185 426.562 177.161 426.81 177.124 426.978C176.969 427.977 176.827 429.05 176.69 430.136C176.474 431.867 176.406 433.567 176.356 435.335C176.381 436.768 176.412 438.208 176.53 439.697C176.746 441.242 177.056 442.849 177.421 444.362C181.188 459.941 190.914 474.075 204.958 481.296C214.875 486.328 225.151 488.555 235.074 487.985C239.479 487.705 243.773 486.98 247.862 485.745C250.77 484.876 253.517 483.722 256.165 482.45C256.295 482.333 256.524 482.277 256.654 482.165C262.024 478.914 266.862 474.621 270.963 469.384C266.868 474.627 262.03 478.914 256.66 482.171C265.29 477.909 272.993 471.152 279.118 462.138C298.606 433.461 318.168 404.76 337.675 376.159C357.33 347.191 377.01 318.304 396.591 289.367C399.368 285.328 401.862 281.128 403.891 276.624C425.971 227.697 411.105 173.831 366.944 143.101Z" fill="#00DCD4"/>
<path d="M352.888 222.845C340.384 184.279 327.875 145.726 315.359 107.178C276.42 80.0533 237.481 52.9407 198.48 25.8776C198.078 25.586 197.657 25.3192 197.243 25.04C188.928 38.1745 186.422 54.8268 191.761 71.2247C203.924 108.767 216.087 146.315 228.251 183.857C240.086 192.09 251.921 200.323 263.75 208.562C284.778 223.217 289.109 247.066 274.7 268.347C249.094 306.032 223.474 343.648 197.861 381.32C229.117 370.866 260.384 360.406 291.627 349.846C296.02 348.37 300.307 346.626 304.341 344.436C349.009 320.208 368.522 271.176 352.888 222.845Z" fill="#000DF1"/>
<mask id="mask0" style="mask-type:alpha" maskUnits="userSpaceOnUse" x="-38" y="107" width="397" height="338">
<path d="M353.135 223.868C349.918 213.196 326.53 142.078 315.291 107.954H149.488H-37.3508L-6.41727 444.226L107.109 411.343C162.583 392.834 277.305 354.574 292.4 349.611C311.27 343.406 334.47 330.688 349.627 296.254C364.664 262.094 357.277 237.599 353.232 224.188L353.135 223.868Z" fill="#C4C4C4"/>
</mask>
<g mask="url(#mask0)">
<path d="M318.496 246.433C318.496 246.433 333.177 245.087 347.097 239.373C347.536 239.193 347.802 242.19 347.802 242.19C347.802 242.19 349.85 238.182 350.561 237.84C358.091 234.279 365.001 229.316 368.701 222.441C368.701 222.441 370.526 264.575 316.516 273.937L318.496 246.433Z" fill="#DCDCDC"/>
<path d="M336.456 294.498C336.456 294.498 354.28 303.972 389.142 305.622C389.142 305.622 365.428 327.325 311.171 319.855L312.953 295.137L336.456 294.498Z" fill="#DCDCDC"/>
<path d="M311.517 270.444C311.517 270.444 319.56 265.288 332.626 260.84C333.146 260.66 334.247 263.75 334.247 263.75C334.247 263.75 336.029 259.729 336.975 259.444C352.578 254.76 373.929 251.701 396.925 258.209C396.925 258.209 389.958 267.944 375.698 278.597C375.092 279.049 371.064 278.69 371.064 278.69C371.064 278.69 372.753 280.731 372.203 281.122C358.654 290.571 339.444 300.194 314.351 304.009L311.517 270.444Z" fill="#B4B4B4"/>
<path d="M396.924 258.209C390.2 262.558 383.134 266.355 375.933 269.873C368.738 273.397 361.339 276.499 353.847 279.335C350.11 280.774 346.28 281.978 342.488 283.268L336.734 284.999C335.775 285.284 334.816 285.582 333.851 285.849L330.937 286.581C323.204 288.678 315.303 290.093 307.391 291.222L313.262 290.006L316.194 289.41C317.172 289.193 318.137 288.939 319.108 288.703L324.93 287.313L330.696 285.713C334.55 284.683 338.337 283.417 342.154 282.257C345.921 280.941 349.714 279.707 353.432 278.243C360.93 275.507 368.292 272.404 375.543 269.06C379.175 267.398 382.769 265.66 386.333 263.855C389.915 262.062 393.441 260.182 396.924 258.209Z" fill="#DCDCDC"/>
<path d="M348.161 280.798C349.652 279.402 351.093 277.982 352.535 276.573C353.964 275.146 355.375 273.707 356.723 272.224C358.091 270.754 359.371 269.209 360.633 267.639C361.864 266.051 363.028 264.413 364.141 262.694C363.436 264.611 362.502 266.46 361.37 268.173C360.231 269.879 358.957 271.498 357.577 273.012C354.793 276.002 351.681 278.714 348.161 280.798Z" fill="#DCDCDC"/>
<path d="M326.576 287.294C328.19 286.24 329.663 285.036 331.073 283.777C332.472 282.511 333.795 281.158 334.971 279.694C336.171 278.249 337.26 276.71 338.207 275.072C339.19 273.453 339.982 271.728 340.793 269.966C340.415 271.852 339.889 273.757 339.005 275.5C338.194 277.281 337.093 278.919 335.862 280.439C334.618 281.953 333.202 283.317 331.642 284.484C330.096 285.657 328.394 286.643 326.576 287.294Z" fill="#DCDCDC"/>
<path d="M348.161 280.799C350.97 280.911 353.698 280.954 356.42 280.756C357.781 280.687 359.136 280.526 360.491 280.328C361.852 280.154 363.188 279.837 364.58 279.583C363.362 280.29 362.05 280.861 360.683 281.215C359.322 281.606 357.911 281.823 356.501 281.916C355.09 281.996 353.667 281.978 352.263 281.792C350.871 281.624 349.479 281.326 348.161 280.799Z" fill="#DCDCDC"/>
<path d="M327.015 287.325C328.691 287.53 330.356 287.685 332.014 287.859C333.672 288.008 335.324 288.15 336.975 288.219C338.627 288.299 340.279 288.293 341.931 288.25C343.583 288.163 345.229 288.008 346.905 287.753C345.365 288.448 343.707 288.914 342.018 289.156C340.329 289.391 338.621 289.447 336.926 289.385C333.536 289.193 330.158 288.597 327.015 287.325Z" fill="#DCDCDC"/>
<path opacity="0.5" d="M363.151 233.398C361.716 237.351 359.179 240.837 356.303 243.902C353.407 246.98 349.992 249.53 346.373 251.682L343.589 253.178C342.667 253.686 341.671 254.052 340.712 254.487C338.801 255.374 336.784 255.994 334.792 256.64C333.802 256.999 332.769 257.186 331.754 257.446L328.698 258.172C326.625 258.501 324.559 258.799 322.492 259.059C324.522 258.538 326.557 258.122 328.574 257.614L331.562 256.733C332.552 256.429 333.567 256.187 334.519 255.783C336.45 255.02 338.429 254.406 340.279 253.475C341.207 253.029 342.185 252.669 343.082 252.16L345.798 250.677C349.355 248.593 352.696 246.136 355.678 243.276C356.42 242.556 357.169 241.842 357.831 241.048C358.171 240.657 358.53 240.279 358.858 239.882L359.817 238.66C361.085 237.016 362.23 235.272 363.151 233.398Z" fill="#DCDCDC"/>
<path d="M377.752 308.6C375.308 309.071 372.84 309.363 370.365 309.654C367.89 309.896 365.41 310.076 362.922 310.2C357.948 310.442 352.956 310.331 347.982 309.989C345.495 309.778 343.014 309.493 340.551 309.096C338.083 308.718 335.627 308.265 333.214 307.619C328.388 306.366 323.643 304.617 319.393 302.011C321.632 303.084 323.928 304.033 326.279 304.79C328.623 305.578 331.005 306.223 333.418 306.745C338.238 307.806 343.144 308.463 348.074 308.829C352.999 309.263 357.948 309.363 362.898 309.307C367.847 309.245 372.803 309.022 377.752 308.6Z" fill="#DCDCDC"/>
<path d="M354.391 317.329C351.143 317.59 347.827 316.882 344.851 315.437C343.373 314.68 342.005 313.687 340.861 312.471C339.698 311.267 338.912 309.754 338.405 308.215C339.333 309.561 340.304 310.796 341.492 311.813C342.686 312.812 343.973 313.693 345.371 314.388C346.763 315.089 348.235 315.648 349.745 316.132C351.254 316.603 352.795 317.025 354.391 317.329Z" fill="#DCDCDC"/>
<path d="M341.393 318.104C338.17 317.651 335.082 316.243 332.484 314.183C331.203 313.122 330.084 311.857 329.23 310.423C328.358 308.997 327.918 307.346 327.751 305.739C328.364 307.253 329.05 308.668 329.991 309.927C330.944 311.162 332.008 312.297 333.22 313.284C334.433 314.27 335.744 315.139 337.112 315.933C338.491 316.715 339.908 317.459 341.393 318.104Z" fill="#DCDCDC"/>
<path d="M107.338 316.405C86.5503 318.607 83.228 320.407 78.2416 318.247C71.8878 315.493 65.2186 316.175 58.8153 313.545C52.4121 310.914 45.4582 308.904 38.6343 310.014C36.4751 310.368 34.0809 311.243 33.7777 313.787C33.654 314.804 33.9819 315.834 34.582 316.672C36.0854 318.775 38.5415 319.482 40.8924 320.134L48.7496 322.305C51.3047 323.012 51.1438 326.785 48.5206 327.163C48.4959 327.169 48.4773 327.169 48.4526 327.169C46.2501 327.467 44.0229 327.033 41.8514 326.549C37.1309 325.5 32.4043 324.228 27.5725 324.222C21.726 324.216 15.5208 326.332 12.6316 331.804C11.6046 333.746 11.221 335.998 11.586 338.163C12.6068 344.212 18.2491 346.229 23.248 345.776C26.7682 345.459 30.0905 344.094 33.4127 342.891C41.5235 339.95 48.4712 343.195 57.0954 343.418C80.8957 344.039 107.338 316.405 107.338 316.405Z" fill="#F0F0F0"/>
<path d="M42.0184 249.405C42.5133 249.79 43.0268 250.107 43.5651 250.367C46.1078 251.62 49.0156 251.8 51.0324 254.083C52.3811 255.523 53.1111 257.452 54.1196 259.165C54.3237 259.543 54.5588 259.903 54.8125 260.251C57.9368 264.55 61.0116 265.046 64.3029 264.972C65.6516 264.941 67.0498 264.811 68.4851 264.811C70.6814 264.804 73.02 265.09 75.5379 266.48C77.1279 267.336 78.7859 268.639 80.543 270.568C80.8585 270.909 81.4215 270.94 81.8731 270.655C82.2753 270.395 82.4794 269.923 82.3928 269.501C81.5143 265.537 79.7944 262.931 77.7218 260.976C71.9002 255.455 63.3068 255.014 62.781 243.604C62.6696 241.16 63.1893 239.429 62.7995 237.686C62.6015 236.811 62.1685 235.93 61.3085 234.949C59.5453 233.045 57.015 232.207 54.763 230.687C48.6567 226.319 51.5645 219.172 51.0262 212.372C50.6612 206.819 45.6871 203.208 41.6163 200.063C36.5308 196.309 36.537 189.534 33.1034 184.503C29.6759 179.465 21.1445 177.436 16.6034 184.205C11.784 190.961 14.4319 199.411 15.8177 206.267C16.1827 208.06 16.8076 209.648 17.6428 211.1C20.1855 215.549 24.541 218.719 28.3087 222.485C30.6287 224.799 32.5651 227.418 33.9138 230.377C34.7057 232.108 35.2996 233.944 35.6523 235.905C35.7327 236.364 35.8193 236.817 35.9121 237.264C36.7968 242.016 37.83 246.247 42.0184 249.405Z" fill="#F0F0F0"/>
<path opacity="0.37" d="M68.4851 264.811C70.6813 264.805 73.0199 265.09 75.5379 266.48C75.7606 262.981 76.9361 262.255 77.7218 260.971C71.9001 255.449 63.3068 255.008 62.7809 243.599C62.6696 241.154 63.1892 239.423 62.7995 237.68C61.061 241.34 57.9491 242.085 58.1904 245.82C58.4007 249.673 63.313 253.234 64.1977 258.098C64.9153 262.118 66.394 263.142 68.4851 264.811Z" fill="#5A4FD1"/>
<path d="M316.702 225.289C316.584 225.878 316.529 226.455 316.541 227.026C316.547 229.744 317.636 232.318 316.547 235.024C315.891 236.792 314.555 238.244 313.522 239.838C313.287 240.173 313.076 240.527 312.891 240.893C310.552 245.403 311.431 248.257 312.897 251.055C313.497 252.203 314.202 253.345 314.815 254.579C315.755 256.465 316.504 258.594 316.392 261.348C316.337 263.079 315.928 265.058 315.031 267.391C314.871 267.807 315.087 268.309 315.52 268.57C315.916 268.8 316.405 268.775 316.727 268.52C319.739 266.076 321.23 263.489 322.022 260.877C324.262 253.525 320.983 245.949 330.504 240.651C332.546 239.515 334.247 239.224 335.565 238.15C336.227 237.604 336.796 236.86 337.266 235.706C338.145 233.386 337.786 230.848 338.126 228.267C339.258 221.163 346.602 220.623 352.183 217.261C356.773 214.587 357.738 208.773 358.691 203.94C359.736 197.972 365.527 195.099 368.361 190.005C371.207 184.918 369.307 176.722 361.593 175.704C353.766 174.439 347.679 180.308 342.414 184.415C341.04 185.489 339.945 186.705 339.061 188.039C336.338 192.115 335.491 197.208 333.876 202.048C332.886 205.026 331.469 207.805 329.521 210.225C328.382 211.64 327.064 212.93 325.536 214.072C325.178 214.338 324.831 214.605 324.485 214.872C320.791 217.658 317.617 220.35 316.702 225.289Z" fill="#F0F0F0"/>
<path d="M293.997 334.056C299.979 337.444 302.423 345.572 307.385 347.613C313.534 350.206 315.761 343.276 325.815 345.689C334.26 347.712 336.221 357.515 350.685 355.474C355.103 354.853 358.239 351.348 356.891 346.806C355.956 342.314 350.085 339.125 346.627 336.637C343.552 334.621 340.787 333.461 339.11 329.974C339.091 329.937 339.073 329.9 339.06 329.862C337.965 327.046 338.634 324.638 335.788 322.442C329.149 316.871 319.937 324.415 312.025 323.658C306.444 323.124 306.982 317.305 300.369 315.177C293.817 313.067 295.611 319.191 281.994 312.838C281.506 312.608 280.924 312.825 280.695 313.315C280.54 313.657 280.59 314.066 280.831 314.352C289.95 325.265 285.193 329.074 293.997 334.056Z" fill="#4A84D8"/>
<path d="M293.997 334.056C299.979 337.444 302.423 345.572 307.385 347.613C313.534 350.206 315.761 343.276 325.815 345.689C334.26 347.712 336.221 357.515 350.685 355.474C355.103 354.853 358.239 351.348 356.891 346.806C355.956 342.314 350.085 339.125 346.627 336.637C343.552 334.621 340.787 333.461 339.11 329.974C339.091 329.937 339.073 329.9 339.06 329.862C337.965 327.046 338.634 324.638 335.788 322.442C329.149 316.871 319.937 324.415 312.025 323.658C306.444 323.124 306.982 317.305 300.369 315.177C293.817 313.067 295.611 319.191 281.994 312.838C281.506 312.608 280.924 312.825 280.695 313.315C280.54 313.657 280.59 314.066 280.831 314.352C289.95 325.265 285.193 329.074 293.997 334.056Z" fill="#B4B4B4"/>
<path d="M80.2213 317.621C80.2213 317.621 54.1319 311.901 34.0685 314.054C33.4374 314.122 34.2046 310.158 34.2046 310.158C34.2046 310.158 30.0719 314.557 29.0263 314.724C17.9892 316.492 7.24294 320.302 -0.0944824 327.772C-0.0944824 327.772 13.2564 272.777 86.3585 280.954L80.2213 317.621Z" fill="#DCDCDC"/>
<path d="M95.391 320.574C95.391 320.574 83.7043 315.313 69.1099 303.885C68.5284 303.432 71.1701 299.92 71.1701 299.92C71.1701 299.92 65.3546 300.869 64.3461 300.019C47.6235 285.905 28.488 264.128 18.8553 233.46C18.8553 233.46 34.8727 234.136 57.2871 242.351C58.2399 242.698 60.8012 247.494 60.8012 247.494C60.8012 247.494 61.8467 244.088 62.6881 244.429C83.2341 252.724 108.136 267.261 130.866 292.698L95.391 320.574Z" fill="#DCDCDC"/>
<path d="M47.3514 249.243C56.5881 254.746 65.5032 260.796 74.1893 267.136C78.5509 270.288 82.7146 273.707 86.9463 277.026L93.1144 282.231C94.1352 283.106 95.1808 283.956 96.1892 284.85L99.1526 287.592C107.195 294.752 114.582 302.606 121.672 310.672L115.993 304.958L113.165 302.091C112.207 301.154 111.211 300.255 110.233 299.337L104.393 293.809L98.3545 288.491C94.3641 284.912 90.1572 281.58 86.0554 278.137C81.8113 274.867 77.6353 271.504 73.2675 268.402C64.6865 261.981 55.8024 255.975 46.7265 250.273C42.1917 247.413 37.6011 244.64 32.9611 241.959C28.3273 239.254 23.6254 236.673 18.8616 234.204" fill="#DCDCDC"/>
<path d="M80.0171 272.46C77.363 271.808 74.7089 271.231 72.0672 270.648C69.4193 270.09 66.7776 269.562 64.1173 269.128C61.4632 268.669 58.7905 268.365 56.1117 268.098C53.4267 267.881 50.7355 267.775 47.9948 267.782C50.6612 267.167 53.4143 266.857 56.1612 266.876C58.9081 266.901 61.655 267.143 64.3647 267.583C69.7719 268.52 75.0925 270.034 80.0171 272.46Z" fill="#DCDCDC"/>
<path d="M54.3485 254.827C52.4554 254.716 50.5746 254.647 48.7062 254.573C46.8317 254.523 44.9633 254.486 43.0949 254.523C41.2265 254.542 39.3643 254.66 37.5083 254.809C35.6523 254.989 33.8025 255.255 31.9341 255.597C33.6787 254.846 35.5162 254.294 37.3969 253.965C39.2777 253.642 41.177 253.469 43.0825 253.431C46.875 253.413 50.6922 253.785 54.3485 254.827Z" fill="#DCDCDC"/>
<path d="M103.168 291.972C100.798 290.936 98.367 290.154 95.9232 289.496C93.4733 288.851 90.9924 288.355 88.4868 288.113C85.9874 287.827 83.457 287.734 80.9328 287.871C78.3963 287.951 75.8845 288.336 73.317 288.715C75.7051 287.753 78.2231 286.946 80.8215 286.655C83.4075 286.258 86.0554 286.289 88.6538 286.555C91.2584 286.841 93.8321 287.43 96.282 288.33C98.7443 289.217 101.095 290.408 103.168 291.972Z" fill="#DCDCDC"/>
<path d="M80.0171 272.46C78.0745 269.221 76.1133 266.119 73.8923 263.19C72.8096 261.708 71.6341 260.299 70.4154 258.922C69.2151 257.52 67.885 256.248 66.5734 254.864C68.2562 255.714 69.8709 256.769 71.2691 258.053C72.7106 259.3 73.9913 260.727 75.1358 262.247C76.268 263.78 77.295 265.387 78.1178 267.105C78.9468 268.805 79.6397 270.592 80.0171 272.46Z" fill="#DCDCDC"/>
<path d="M102.883 291.457C101.875 289.422 100.829 287.43 99.8085 285.439C98.7567 283.46 97.6988 281.499 96.5604 279.588C95.4345 277.665 94.2157 275.816 92.9474 273.992C91.6358 272.199 90.2562 270.455 88.7343 268.762C90.6459 269.984 92.3906 271.51 93.9001 273.229C95.4035 274.954 96.7275 276.833 97.9029 278.794C100.18 282.746 101.986 286.984 102.883 291.457Z" fill="#DCDCDC"/>
<path d="M11.1405 315.741C14.4689 311.187 19.0347 307.644 23.8851 304.771C28.7664 301.886 34.1179 299.882 39.587 298.462L43.7382 297.581C45.1179 297.27 46.5346 297.171 47.9328 296.973C50.7292 296.545 53.5565 296.501 56.3715 296.42C57.7759 296.327 59.1864 296.47 60.5908 296.52L64.8039 296.724C67.5941 297.078 70.372 297.463 73.1374 297.903C70.3287 297.816 67.5447 297.587 64.7606 297.488L60.5784 297.506C59.1864 297.531 57.7944 297.457 56.4086 297.618C53.6431 297.878 50.8591 297.922 48.1246 298.437C46.7573 298.666 45.3715 298.759 44.0228 299.076L39.9705 299.976C34.6067 301.334 29.3851 303.239 24.479 305.814C23.2541 306.465 22.0229 307.104 20.8722 307.88C20.2906 308.252 19.6905 308.606 19.1152 308.997L17.4262 310.213C15.1557 311.844 13.0274 313.662 11.1405 315.741Z" fill="#DCDCDC"/>
<path d="M56.2663 297.115C54.7444 299.547 53.2658 301.843 52.0284 304.275C51.3912 305.479 50.8777 306.732 50.389 308.004C49.925 309.288 49.6032 310.61 49.2754 312.018C48.601 309.183 49.3372 306.13 50.6426 303.561C51.3232 302.277 52.1212 301.061 53.0616 299.975C53.9958 298.89 55.0414 297.885 56.2663 297.115Z" fill="#DCDCDC"/>
<path d="M214.677 314.779H171.469V344.578H214.677V314.779Z" fill="#B4DEFF"/>
<path opacity="0.5" d="M214.677 314.779H171.469V325.581H214.677V314.779Z" fill="#6EC5FF"/>
<path d="M236.93 344.107H149.222C146.45 344.107 144.204 346.36 144.204 349.139C144.204 351.919 146.45 354.171 149.222 354.171H236.924C239.696 354.171 241.942 351.919 241.942 349.139C241.942 346.36 239.696 344.107 236.93 344.107Z" fill="#B4DEFF"/>
<path opacity="0.5" d="M241.942 349.145C241.942 351.918 239.696 354.171 236.924 354.171H149.228C146.456 354.171 144.21 351.918 144.21 349.145C144.21 348.723 144.26 348.314 144.371 347.923C144.903 350.113 146.883 351.732 149.228 351.732H236.93C239.281 351.732 241.255 350.113 241.787 347.923C241.898 348.308 241.942 348.717 241.942 349.145Z" fill="#6EC5FF"/>
<path d="M57.8811 318.936C56.1859 318.936 54.8063 317.552 54.8063 315.852V136.785C54.8063 135.085 56.1859 133.701 57.8811 133.701H328.271C329.966 133.701 331.346 135.085 331.346 136.785V315.852C331.346 317.552 329.966 318.936 328.271 318.936H57.8811Z" fill="white"/>
<path d="M328.271 135.904C328.753 135.904 329.149 136.301 329.149 136.785V315.853C329.149 316.337 328.753 316.734 328.271 316.734H57.881C57.3985 316.734 57.0025 316.337 57.0025 315.853V136.785C57.0025 136.301 57.3985 135.904 57.881 135.904H328.271ZM328.271 131.499H57.881C54.9671 131.499 52.61 133.863 52.61 136.785V315.853C52.61 318.775 54.9733 321.139 57.881 321.139H328.271C331.185 321.139 333.542 318.769 333.542 315.853V136.785C333.542 133.863 331.179 131.499 328.271 131.499Z" fill="#B4DEFF"/>
<path d="M333.542 315.487V297.979H52.61V315.487C52.61 318.788 55.2765 321.449 58.5554 321.449H327.59C330.876 321.449 333.542 318.788 333.542 315.487Z" fill="#B4DEFF"/>
<path d="M193.079 193.635C205.038 193.635 214.733 183.913 214.733 171.92C214.733 159.927 205.038 150.205 193.079 150.205C181.12 150.205 171.426 159.927 171.426 171.92C171.426 183.913 181.12 193.635 193.079 193.635Z" fill="#EFF7FF"/>
<path d="M201.444 166.963C201.444 171.597 197.694 175.357 193.073 175.357C188.451 175.357 184.702 171.597 184.702 166.963C184.702 162.328 188.451 158.568 193.073 158.568C197.701 158.568 201.444 162.328 201.444 166.963ZM205.706 202.929V184.453C205.706 180.532 202.532 177.349 198.622 177.349H187.536C183.626 177.349 180.452 180.532 180.452 184.453V202.929C180.452 204.015 181.331 204.896 182.413 204.896H203.745C204.828 204.896 205.706 204.015 205.706 202.929Z" fill="#B4DEFF"/>
<path d="M244.886 218.334H141.265C136.533 218.334 132.697 214.488 132.697 209.741C132.697 204.995 136.533 201.148 141.265 201.148H244.886C249.619 201.148 253.455 204.995 253.455 209.741C253.455 214.488 249.619 218.334 244.886 218.334Z" fill="#EFF7FF"/>
<path d="M241.292 211.987H144.86C143.623 211.987 142.62 210.982 142.62 209.741C142.62 208.5 143.623 207.495 144.86 207.495H241.286C242.523 207.495 243.525 208.5 243.525 209.741C243.525 210.982 242.523 211.987 241.292 211.987Z" fill="#B4DEFF"/>
<path d="M244.967 249.243H141.346C136.613 249.243 132.777 245.397 132.777 240.651C132.777 235.904 136.613 232.058 141.346 232.058H244.967C249.7 232.058 253.535 235.904 253.535 240.651C253.535 245.397 249.7 249.243 244.967 249.243Z" fill="#EFF7FF"/>
<path d="M144 243.046C142.763 243.046 141.76 242.041 141.76 240.8C141.76 239.559 142.763 238.554 144 238.554C145.237 238.554 146.24 239.559 146.24 240.8C146.24 242.041 145.237 243.046 144 243.046ZM152.89 240.8C152.89 239.559 151.888 238.554 150.651 238.554C149.413 238.554 148.411 239.559 148.411 240.8C148.411 242.041 149.413 243.046 150.651 243.046C151.888 243.046 152.89 242.041 152.89 240.8ZM159.547 240.8C159.547 239.559 158.545 238.554 157.308 238.554C156.07 238.554 155.068 239.559 155.068 240.8C155.068 242.041 156.07 243.046 157.308 243.046C158.545 243.046 159.547 242.041 159.547 240.8ZM166.198 240.8C166.198 239.559 165.196 238.554 163.958 238.554C162.721 238.554 161.719 239.559 161.719 240.8C161.719 242.041 162.721 243.046 163.958 243.046C165.196 243.046 166.198 242.041 166.198 240.8ZM172.855 240.8C172.855 239.559 171.852 238.554 170.615 238.554C169.378 238.554 168.376 239.559 168.376 240.8C168.376 242.041 169.378 243.046 170.615 243.046C171.852 243.046 172.855 242.041 172.855 240.8ZM179.505 240.8C179.505 239.559 178.503 238.554 177.266 238.554C176.028 238.554 175.026 239.559 175.026 240.8C175.026 242.041 176.028 243.046 177.266 243.046C178.503 243.046 179.505 242.041 179.505 240.8ZM186.156 240.8C186.156 239.559 185.154 238.554 183.917 238.554C182.679 238.554 181.677 239.559 181.677 240.8C181.677 242.041 182.679 243.046 183.917 243.046C185.154 243.046 186.156 242.041 186.156 240.8Z" fill="#B4DEFF"/>
<path d="M207.791 281.617H178.361C173.628 281.617 169.792 277.771 169.792 273.025C169.792 268.278 173.628 264.432 178.361 264.432H207.791C212.524 264.432 216.359 268.278 216.359 273.025C216.359 277.771 212.524 281.617 207.791 281.617Z" fill="#00A1FF"/>
<path d="M283.85 241.494C265.661 241.494 250.863 256.335 250.863 274.575V306.385H316.838V274.575C316.838 256.329 302.039 241.494 283.85 241.494ZM261.764 295.453V274.575C261.764 262.365 271.669 252.426 283.85 252.426C296.026 252.426 305.937 262.359 305.937 274.575V295.453H261.764Z" fill="#80FFCE"/>
<path d="M321.298 353.593H246.402C244.088 353.593 242.214 351.713 242.214 349.393V291.178C242.214 288.857 244.088 286.978 246.402 286.978H321.292C323.606 286.978 325.481 288.857 325.481 291.178V349.393C325.481 351.713 323.606 353.593 321.298 353.593Z" fill="#00E188"/>
<path d="M295.958 315.673C295.958 308.966 290.538 303.531 283.85 303.531C277.162 303.531 271.743 308.966 271.743 315.673C271.743 320.363 274.397 324.421 278.276 326.444V339.566H289.418V326.444C293.304 324.421 295.958 320.357 295.958 315.673Z" fill="#80FFCE"/>
<path d="M291.899 241.506C292.431 243.343 292.957 245.173 293.489 247.01C293.625 247.494 293.786 248.002 294.163 248.331C294.665 248.772 295.407 248.765 296.075 248.734C296.898 248.697 297.795 248.629 298.408 248.07C298.76 247.748 298.971 247.295 299.088 246.83C299.428 245.477 299.039 244.025 298.327 242.828C297.616 241.63 296.613 240.644 295.617 239.67" fill="#EFB39C"/>
<path d="M336.623 349.151C341.282 350.293 345.185 351.664 347.326 353.587H329.366L329.712 349.406L336.623 349.151Z" fill="#263238"/>
<path d="M314.66 349.151C310.002 350.293 306.098 351.664 303.957 353.587H321.917L321.571 349.406L314.66 349.151Z" fill="#263238"/>
<path d="M346.07 244.193L337.6 349.889C337.6 349.889 334.643 350.615 333.616 350.615C333.109 350.615 332.156 350.447 331.29 350.292C330.306 350.094 329.452 349.889 329.452 349.889L326.285 269.99H322.307L321.546 349.889C321.546 349.889 319.43 350.522 317.228 350.522C315.081 350.522 312.544 349.889 312.544 349.889L302.379 241.494L346.07 244.193Z" fill="#2E2C84"/>
<g opacity="0.3">
<path opacity="0.5" d="M329.83 243.188L314.914 242.264C314.734 261.733 317.654 331.295 317.951 350.497C319.869 350.386 321.546 349.889 321.546 349.889L322.307 269.991H326.285L329.452 349.889C329.452 349.889 330.306 350.088 331.29 350.293C331.581 350.342 331.871 350.398 332.162 350.441C332.162 328.683 330.207 252.135 329.83 243.188Z" fill="#2E2C84"/>
</g>
<path d="M317.593 168.278C317.611 168.327 317.642 168.365 317.648 168.42C318.292 171.913 321.595 173.707 325.27 174.724C328.259 175.549 328.951 175.915 331.352 174.178C336.326 170.573 340.756 165.784 339.32 159.189C339.258 158.903 339.32 158.661 339.438 158.456C338.021 155.913 335.41 154.697 332.515 152.06C322.777 143.212 311.202 155.503 315.588 160.566C316.306 161.391 317.599 164.965 317.593 168.278Z" fill="#001F64"/>
<path d="M350.809 210.597C350.809 190.507 342.519 178.012 326.638 178.012C310.756 178.012 302.423 194.813 302.423 214.902L299.979 273.421C299.979 273.421 337 280.786 351.075 273.893L350.809 210.597Z" fill="#8FC2FF"/>
<path d="M334.792 165.92C334.198 161.968 330.684 158.004 326.396 160.057C323.643 161.379 320.797 161.528 318.545 160.324C318.477 161.087 318.384 162.198 318.304 163.358C317.828 162.483 317.036 162.353 316.795 163.445C316.541 164.617 316.856 166.789 318.112 167.198C318.112 167.403 318.106 167.608 318.112 167.775C318.174 170.729 319.374 175.431 324.157 176.554C324.417 177.597 324.324 177.938 324.027 179.328C324.293 180.258 328.011 180.854 329.236 179.762C329.131 178.478 329.094 177.864 329.137 176.691C331.964 176.238 334.328 173.44 335.392 169.848C339.66 167.447 336.604 163.066 334.792 165.92Z" fill="#EFB39C"/>
<path d="M316.467 180.767C297.851 189.794 279.452 218.867 281.475 225.276C283.504 231.685 288.651 239.192 292.103 244.205L298.865 243.014C298.865 243.014 290.841 230.972 291.132 223.632C291.311 219.103 309.061 204.188 309.061 204.188L316.467 180.767Z" fill="#8FC2FF"/>
<path d="M339.401 181.79C342.315 183.894 366.635 198.505 380.01 185.6C389.668 176.281 390.645 174.476 390.645 174.476L393.961 180.357C393.961 180.357 378.847 207.11 360.559 204.014C342.271 200.918 341.814 199.969 341.814 199.969L339.401 181.79Z" fill="#8FC2FF"/>
<path d="M32.078 191.467H52.7787V176.856H32.078V191.467Z" fill="#80FFCE"/>
<path d="M32.078 209.557H52.7787V194.946H32.078V209.557Z" fill="#80FFCE"/>
<path d="M47.501 191.466H52.7783V176.855H47.501V191.466Z" fill="#00E188"/>
<path d="M47.501 209.557H52.7783V194.946H47.501V209.557Z" fill="#00E188"/>
<path d="M49.3331 301.876H65.4928L65.4928 174.874H49.3331L49.3331 301.876Z" fill="#80FFCE"/>
<path d="M56.6871 306.249H58.1409C58.4193 306.249 58.6482 306.019 58.6482 305.74V179.756C58.6482 179.477 58.4193 179.247 58.1409 179.247H56.6871C56.4087 179.247 56.1797 179.477 56.1797 179.756V305.74C56.1797 306.019 56.4087 306.249 56.6871 306.249Z" fill="#00E188"/>
<path d="M28.2592 324.353C28.2592 308.228 41.3378 295.112 57.4171 295.112C73.4963 295.112 86.575 308.228 86.575 324.353C86.575 340.478 73.4963 353.594 57.4171 353.594C41.3378 353.594 28.2592 340.478 28.2592 324.353ZM43.2928 324.353C43.2928 332.164 49.628 338.517 57.4171 338.517C65.2061 338.517 71.5413 332.164 71.5413 324.353C71.5413 316.542 65.2061 310.189 57.4171 310.189C49.628 310.189 43.2928 316.542 43.2928 324.353Z" fill="#80FFCE"/>
<path d="M41.9194 324.353C41.9194 332.921 48.8732 339.895 57.4171 339.895C65.9609 339.895 72.9148 332.921 72.9148 324.353C72.9148 315.785 65.9609 308.812 57.4171 308.812C48.8732 308.812 41.9194 315.785 41.9194 324.353ZM43.2928 324.353C43.2928 316.542 49.628 310.189 57.4171 310.189C65.2061 310.189 71.5413 316.542 71.5413 324.353C71.5413 332.164 65.2061 338.518 57.4171 338.518C49.628 338.518 43.2928 332.164 43.2928 324.353Z" fill="#00E188"/>
<path d="M118.529 182.561L117.75 188.541L124.023 189.23V182.92L118.529 182.561Z" fill="#FFC9B1"/>
<path d="M71.3743 225.122C71.3743 225.122 63.0717 221.02 62.8304 225.122C62.3726 232.889 71.3743 228.515 71.3743 228.515V225.122Z" fill="#FFC9B1"/>
<path d="M112.869 173.378C112.869 178.813 118.467 185.575 123.887 185.575C127.079 185.575 132.227 185.097 132.227 173.378C132.227 161.056 128.106 163.538 122.687 163.538C117.261 163.538 112.869 167.943 112.869 173.378Z" fill="#FFC9B1"/>
<path d="M130.148 166.795C129.282 166.925 128.354 166.509 127.537 166.838C126.232 167.365 126.145 169.357 124.945 170.095C123.441 171.007 121.183 169.425 119.872 170.604C119.098 171.299 119.191 172.515 119.272 173.557C119.482 176.306 119.179 179.092 118.375 181.728C118.189 182.343 118.993 183.435 118.511 183.856C117.713 184.551 115.399 183.943 114.533 183.335C113.667 182.727 113.116 181.766 112.627 180.816C110.79 177.249 109.392 173.334 109.422 169.307C109.453 165.281 111.093 161.124 114.335 158.791C117.904 156.229 122.897 157.004 126.696 158.71C128.255 159.412 130.606 160.708 131.503 162.203C132.387 163.661 132.245 166.478 130.148 166.795Z" fill="#303030"/>
<path d="M110.165 154.647C108.655 153.81 107.016 153.09 105.296 153.059C101.887 152.991 98.9236 155.64 97.3522 158.705C96.0777 161.187 95.4776 164.084 96.0035 166.832C96.5294 169.581 98.2678 172.137 100.767 173.322C101.503 173.669 102.32 173.905 103.124 173.794C104.195 173.645 105.092 172.919 105.84 172.131C107.659 170.214 107.969 167.924 109.305 165.852C110.388 164.177 112.757 164.866 114.341 163.767C118.362 160.988 112.64 156.025 110.165 154.647Z" fill="#303030"/>
<path d="M108.488 349.151C113.147 350.293 117.051 351.664 119.185 353.587H101.225L101.572 349.406L108.488 349.151Z" fill="#263238"/>
<path d="M124.586 349.151C129.245 350.293 133.148 351.664 135.289 353.587H117.329L117.675 349.406L124.586 349.151Z" fill="#263238"/>
<path d="M171.16 197.115C171.061 197.066 170.894 196.979 170.782 196.948C170.114 196.768 169.483 197.233 168.926 197.649C167.949 198.381 166.093 199.883 165.282 200.801H165.288C165.022 201.037 164.781 201.297 164.589 201.576C163.964 202.488 163.785 203.766 164.373 204.697C164.831 205.423 165.666 205.969 166.52 205.963C167.769 205.957 169.452 205.293 170.293 204.312C171.129 203.332 171.061 202.24 170.454 201.105C170.046 200.342 169.458 199.914 168.802 199.74C169.563 199.275 170.287 198.76 170.949 198.158C171.104 198.015 171.259 197.866 171.327 197.668C171.395 197.469 171.345 197.215 171.16 197.115Z" fill="#FFC9B1"/>
<path d="M145.745 216.163C152.408 211.72 157.685 206.955 163.717 201.583C164.101 201.241 164.688 201.279 165.016 201.676C166.124 202.997 167.93 204.958 167.738 205.789C167.633 206.248 167.305 206.62 166.99 206.974C161.36 213.234 155.724 219.494 150.094 225.754C148.986 226.989 147.854 228.236 146.456 229.13C145.058 230.023 143.332 230.526 141.723 230.128C139.014 229.458 137.498 226.66 136.019 224.278C128.744 212.558 129.938 208.32 130.829 204.71C131.447 202.197 132.227 199.721 132.678 197.171C132.821 196.365 130.897 191.879 131.992 191.823C135.277 195.676 140.208 207.402 143.567 215.493C143.926 216.336 144.978 216.671 145.745 216.163Z" fill="#B4DEFF"/>
<path d="M93.1762 253.636L101.646 349.951C101.646 349.951 104.603 350.615 105.63 350.615C106.137 350.615 107.09 350.46 107.956 350.317C108.94 350.137 109.794 349.951 109.794 349.951L109.88 277.144H116.884L117.706 349.951C117.706 349.951 119.822 350.528 122.025 350.528C124.172 350.528 126.708 349.951 126.708 349.951L136.873 251.173L93.1762 253.636Z" fill="#004CBE"/>
<path d="M114.96 260.858C115.009 264.121 114.786 267.062 115.919 270.028C116.803 272.342 118.82 273.856 121.697 273.794C125.891 273.707 128.799 271.417 128.818 267.168C128.818 266.622 129.09 260.864 129.362 260.852C129.356 260.852 114.96 260.858 114.96 260.858Z" fill="#568EDB"/>
<path d="M95.0755 260.857C95.125 264.121 94.9827 267.062 95.787 270.034C96.4118 272.354 97.8224 273.874 99.8269 273.824C102.747 273.756 104.374 270.505 104.758 267.235C104.82 266.696 104.919 260.932 105.11 260.926C105.104 260.919 95.0755 260.857 95.0755 260.857Z" fill="#568EDB"/>
<path d="M109.874 277.138C109.886 277.138 109.893 277.138 109.905 277.138C109.998 277.12 110.066 277.033 110.047 276.933C108.921 270.388 109.695 257.862 109.701 257.737C109.701 257.688 109.688 257.638 109.651 257.601C109.614 257.564 109.571 257.551 109.521 257.551C109.41 257.558 98.2183 258.079 93.5226 256.887C93.436 256.856 93.337 256.925 93.3122 257.018C93.2875 257.111 93.3432 257.21 93.4422 257.229C97.8347 258.345 107.826 257.973 109.348 257.911C109.255 259.537 108.655 270.859 109.707 276.996C109.713 277.076 109.787 277.138 109.874 277.138Z" fill="#5E9CE4"/>
<path d="M111.272 277.138C111.278 277.138 111.285 277.138 111.285 277.138C111.384 277.125 111.452 277.045 111.446 276.945C110.777 269.296 110.703 263.259 111.198 257.973C117.88 257.911 125.984 257.03 135.295 255.361C135.388 255.342 135.45 255.255 135.438 255.156C135.419 255.063 135.339 255.001 135.233 255.013C125.867 256.695 117.731 257.569 111.037 257.619C110.944 257.619 110.87 257.687 110.864 257.78C110.344 263.128 110.419 269.227 111.093 276.976C111.105 277.069 111.186 277.138 111.272 277.138Z" fill="#5E9CE4"/>
<g opacity="0.16">
<path opacity="0.16" d="M107.956 350.317C108.94 350.137 109.794 349.951 109.794 349.951L109.88 277.144H110.468C110.326 276.92 110.134 276.846 109.88 276.964C108.507 277.584 107.863 278.54 107.004 279.663C106.329 280.575 105.939 281.685 105.908 282.827C105.345 305.268 106.651 322.354 107.956 350.317Z" fill="#4E84D9"/>
</g>
<path d="M125.984 347.928C125.891 347.916 125.817 347.829 125.83 347.736L125.978 346.29C125.99 346.191 126.077 346.111 126.17 346.135C126.269 346.148 126.337 346.235 126.325 346.328L126.176 347.773C126.17 347.866 126.089 347.928 126.003 347.928C125.997 347.935 125.99 347.935 125.984 347.928ZM126.417 343.691C126.318 343.678 126.25 343.598 126.263 343.499L126.547 340.7C126.553 340.607 126.64 340.514 126.739 340.545C126.838 340.558 126.906 340.645 126.894 340.738L126.609 343.536C126.603 343.629 126.522 343.691 126.436 343.691C126.43 343.691 126.417 343.691 126.417 343.691ZM126.987 338.095C126.894 338.082 126.819 337.995 126.832 337.902L127.116 335.104C127.129 335.005 127.222 334.924 127.308 334.949C127.401 334.961 127.475 335.042 127.463 335.141L127.178 337.939C127.172 338.033 127.092 338.095 127.005 338.095C126.999 338.095 126.993 338.095 126.987 338.095ZM127.556 332.498C127.457 332.486 127.389 332.405 127.401 332.306L127.686 329.508C127.698 329.409 127.791 329.322 127.877 329.353C127.976 329.365 128.044 329.452 128.032 329.545L127.747 332.343C127.741 332.436 127.661 332.498 127.574 332.498C127.568 332.498 127.562 332.498 127.556 332.498ZM128.125 326.902C128.026 326.89 127.958 326.803 127.97 326.71L128.255 323.912C128.261 323.819 128.354 323.732 128.447 323.756C128.539 323.769 128.614 323.85 128.601 323.949L128.317 326.747C128.31 326.84 128.23 326.902 128.143 326.902C128.137 326.908 128.131 326.908 128.125 326.902ZM128.694 321.306C128.595 321.293 128.527 321.213 128.539 321.113L128.824 318.315C128.83 318.222 128.917 318.129 129.016 318.16C129.109 318.173 129.183 318.259 129.17 318.353L128.886 321.151C128.88 321.244 128.799 321.306 128.713 321.306C128.706 321.312 128.7 321.312 128.694 321.306ZM129.263 315.716C129.17 315.703 129.096 315.623 129.109 315.523L129.393 312.725C129.406 312.626 129.498 312.545 129.585 312.57C129.678 312.583 129.752 312.663 129.74 312.763L129.455 315.561C129.449 315.654 129.368 315.716 129.282 315.716C129.276 315.716 129.269 315.716 129.263 315.716ZM129.832 310.119C129.74 310.107 129.665 310.02 129.678 309.927L129.962 307.129C129.975 307.03 130.061 306.943 130.154 306.974C130.247 306.986 130.321 307.073 130.309 307.166L130.024 309.964C130.018 310.057 129.938 310.119 129.851 310.119C129.845 310.119 129.839 310.119 129.832 310.119ZM130.408 304.523C130.309 304.511 130.241 304.43 130.253 304.331L130.538 301.533C130.544 301.44 130.637 301.353 130.729 301.378C130.828 301.39 130.897 301.477 130.884 301.57L130.6 304.368C130.593 304.461 130.513 304.523 130.426 304.523C130.414 304.523 130.408 304.523 130.408 304.523ZM130.977 298.927C130.884 298.915 130.81 298.834 130.822 298.735L131.107 295.937C131.113 295.843 131.193 295.781 131.28 295.781C131.286 295.781 131.292 295.781 131.299 295.781C131.398 295.794 131.466 295.874 131.453 295.974L131.169 298.772C131.163 298.865 131.082 298.927 130.995 298.927C130.989 298.927 130.977 298.927 130.977 298.927ZM131.546 293.331C131.447 293.318 131.379 293.231 131.391 293.138L131.676 290.34C131.688 290.247 131.781 290.154 131.868 290.185C131.967 290.198 132.035 290.278 132.022 290.377L131.738 293.176C131.732 293.269 131.651 293.331 131.565 293.331C131.558 293.337 131.552 293.337 131.546 293.331ZM132.115 287.734C132.023 287.722 131.948 287.641 131.961 287.542L132.245 284.744C132.251 284.645 132.344 284.564 132.437 284.589C132.53 284.601 132.604 284.688 132.592 284.781L132.307 287.579C132.301 287.672 132.22 287.734 132.134 287.734C132.128 287.741 132.121 287.741 132.115 287.734ZM132.684 282.144C132.585 282.132 132.517 282.045 132.53 281.952L132.814 279.154C132.821 279.061 132.913 278.968 133.006 278.999C133.099 279.011 133.173 279.098 133.161 279.191L132.876 281.989C132.87 282.082 132.79 282.144 132.703 282.144C132.697 282.144 132.691 282.144 132.684 282.144ZM133.254 276.548C133.155 276.536 133.087 276.455 133.099 276.356L133.384 273.558C133.396 273.458 133.489 273.378 133.575 273.403C133.668 273.415 133.742 273.496 133.73 273.595L133.445 276.393C133.439 276.486 133.359 276.548 133.272 276.548C133.266 276.548 133.26 276.548 133.254 276.548ZM133.823 270.952C133.73 270.939 133.656 270.859 133.668 270.76L133.953 267.961C133.965 267.868 134.058 267.775 134.145 267.806C134.237 267.819 134.312 267.906 134.299 267.999L134.015 270.797C134.008 270.89 133.928 270.952 133.841 270.952C133.835 270.952 133.829 270.952 133.823 270.952ZM134.392 265.356C134.299 265.343 134.225 265.256 134.237 265.163L134.522 262.365C134.528 262.272 134.621 262.185 134.714 262.21C134.807 262.222 134.881 262.309 134.868 262.402L134.584 265.201C134.578 265.294 134.497 265.356 134.411 265.356C134.404 265.356 134.398 265.356 134.392 265.356ZM134.967 259.759C134.868 259.747 134.8 259.666 134.813 259.567L135.097 256.769C135.103 256.67 135.196 256.583 135.289 256.614C135.388 256.626 135.456 256.707 135.444 256.806L135.159 259.604C135.153 259.697 135.073 259.759 134.986 259.759C134.98 259.759 134.974 259.759 134.967 259.759Z" fill="#5E9CE4"/>
<path d="M110.53 188.622C96.6717 191.817 86.2224 225.935 67.687 223.676V229.744C76.3608 229.744 88.2083 226.965 97.9214 213.619C111.965 194.318 110.53 188.622 110.53 188.622Z" fill="#B4DEFF"/>
<path d="M131.998 191.811C140.504 201.589 139.799 251.173 140.764 281.965C125.427 285.191 108.989 285.055 91.7718 282.561C91.7718 282.561 89.093 232.945 97.7172 204.846C103.576 185.768 123.021 181.493 131.998 191.811Z" fill="#B4DEFF"/>
</g>
</g>
<defs>
<clipPath id="clip0">
<rect width="414" height="488.084" fill="white"/>
</clipPath>
</defs>
</svg>
