<svg height="1331.6" viewBox="0 0 1885.8 1331.6" width="1885.8" xmlns="http://www.w3.org/2000/svg"><g transform="translate(-14.383 -8.0499)"><path d="m1165.8 1214.9c-23.72 1.82-47.44 3.66-71.15 5.47-11.62.89-23.15 1.72-34.67.8-9.96-.8-18.9-1.86-28.77 1.43-3.76 1.26-3.66 6.03-1.13 7.33-3.55 28.23-5.19 56.43-4.89 84.64.04 3.85 67.05 28.26 129.81-.04 1.21-.55 2.3-.65 2.98-1.45 1.4-.49 2.64-1.62 2.94-3.41 5.84-34.82 6.71-57.13 11.23-92.06.47-3.77-3.92-4.66-6.35-2.71z" fill="#b05641"/><path d="m1208.6 1217.7c4.52 34.93 5.39 57.24 11.23 92.06.3 1.79 1.53 2.92 2.94 3.41.68.8 1.77.9 2.98 1.45 62.75 28.3 129.91 3.28 129.87-3.68-.14-28.2-1.41-52.69-4.96-80.91 2.52-1.3 2.63-6.07-1.13-7.33-9.86-3.29-18.81-2.23-28.77-1.43-11.53.92-23.05.09-34.67-.8-23.72-1.81-47.44-3.65-71.15-5.47-2.44-1.95-6.83-1.06-6.34 2.7z" fill="#b05641"/><path d="m1351.2 913.91c-.15-.83-.59-1.36-1.14-1.64 2.2-13.91 3.95-27.88 5.14-41.95.32-3.81-6.49-3.26-5.03 1.57-.19.3-.23.36-.41.66-54.72 3.89-109.43 7.78-164.15 11.66-26.61 1.89-53.54 2.74-80.01 6.13-10.84 1.39-21.49 3.64-31.64 7.77-10.25 4.16-19.45 9.96-30.28 11.86.65-3.79-4.98-3.92-5.2-.44-.02.36-.04.72-.07 1.09-2.87.41-2.98 4.65-.31 5.08-.86 14.05-1.72 28.09-2.58 42.14-.69 11.29-7.64 24.8-10.72 35.79-3.5 12.48-6.77 25.02-9.81 37.62-6.08 25.18-11.23 50.58-15.45 76.14-7.49 45.37-11.08 91.04-14.74 136.83-.38 4.78-.76 9.66.43 14.3 3.5 13.71 23.7 20.26 35.8 22.97 15.77 3.54 32.08 3.29 48.15 3.9 21.28.8 42.61-.27 63.68-3.37 12.39-1.82 29.08-2.96 42.09-8.57 1.93-.83 3.91-1.52 5.92-2.09 1.72-.49 3.11-1.79 3.69-3.49.61-1.79 1.26-3.58 1.97-5.34 1.51-3.74 2.69 6.44 5.01 6.5 3.55.09 10.97 1.04 14.45 1.96 25 6.65 52.43 7.34 77.53 5.77 16.95-1.06 33.8-3.47 50.45-6.8 4.15-.83 53.4-10.14 53.32-13.12-3.29-115.06-15.36-229.7-36.09-342.93z" fill="#ffbe5c"/><path d="m1285.3 514.38c-15.86-13.44-33.28-24.69-52.4-32.97-12.75-5.53-27.56-10.99-39.02-1.13-1.48-.69-3.8.03-4.02 2.22-2.58 25.29-8.86 49.61-18.81 72.98-1.4.49-2.52 2.05-1.64 3.77 8.13 15.9 23.32 24.7 39.86 30.07 17.19 5.58 36.74 7.96 53.94-.13.99-.46 1.33-1.25 1.3-2.06.5-.29.93-.73 1.16-1.43 7.61-23.82 17.68-44.31 23.76-68.57.64-2.62-2.46-3.99-4.13-2.75z" fill="#ff9e63"/><path d="m1561.8 436.17c-1.25-11.88-3.63-14.11-15.69-13.84-39.37.89-151.28 29.92-149.14 30.69-2.86 22.62 26.05 117.75 28.04 143.95.25 3.33 57.45-5.28 76.22-4.44 12.25.55 52.01 2.32 53.87-9.06 2.96-18.03 8.04-70.11 8.7-88.37.72-19.64.06-39.37-2-58.93z" fill="#f7ead7"/><path d="m1407.3 450.98c-51.52 9.81-101.52 25.58-153.68 34.02-42.86 6.93-86.08 13.55-129.38 17.01-44.16 3.52-84.15 17.38-110.27 50.93-28.5 36.6-36.5 86.02-48.61 130.29-.43 1.57.07 2.84.98 3.69.29.51.7.99 1.29 1.39 10.76 7.17 21.29 14.63 31.64 22.35 4.4 3.28 6.83 8.56 6.59 14.05-3.9 88.53.48 177.31 13.07 265.06.17 1.2.21 2.42.11 3.63-.45 5.55-.89 11.16-.48 16.6 3.02 39.83 178.11-28.2 201.17-38.71 10.2-4.65 20.83-9.81 32.02-11.49 14.79-2.23 51.05 8.1 65.79 7.46 10.45-.45 33.75.8 41.84-6.6 8.24-7.54 9.05-20.85 11.81-31.62 7.47-29.18 7.78-61.23 10.99-91.13 5.6-52.13.93-108.68 10.08-160.33 3.71-20.91 9.61-42.09 20.71-60.38 12.89-21.23 33.93-33.17 51.01-50.56 4.81-4.89 8.14-10.99 10.16-17.81 12.01-40.47-22.08-106.38-66.84-97.85z" fill="#f7ead7"/><path d="m1186.8 497.77c-3.52 18.09-7.82 35.98-12.84 53.69-1.13 3.97-1.05 8.21.33 12.1 7.72 21.65 20 39.45 46.6 42.7 14.22 1.74 27.17-1.67 38.04-8.54 4.17-2.64 7.34-6.61 9.1-11.22 7.89-20.7 14.4-41.83 19.52-63.42 1.02-1.11 1.51-2.86.99-4.41.22-2.69-2.22-4.39-4.44-4.25-13.26-10.21-27.01-22.26-43.57-25.89-16.94-3.72-36.16-.47-53.02 2.24-3.86.61-3.42 5.33-.71 7z" fill="#b05641"/><path d="m1044.5 745.11c-29.03-14.31-60.72-19.97-92.9-16.41-5.65.63-12.08 34.05-13.24 38.34-5.17 19.07-9.94 38.3-12.93 57.86-2.3 15.01-6.44 34.39 3.15 47.68 7.34 10.17 20.12 17.78 32.27 19.11 31.74 3.47 49.23-29.74 58.71-53.95 13.26-33.85 25.02-92.15 24.94-92.63.24-1.44 1.73.85 0 0z" fill="#b05641"/><path d="m1315.3 447.49c-4.8.72-10.99 6.44-12.88 8.96-3.82 5.1-5.55 11.57-6.06 17.84-.4 4.99-.81 11.58 1.6 16.34 6.81 13.42 17.71-9.12 20.26-14.58 2.27-4.85 8.29-30.23-2.92-28.56z" fill="#b05641"/><path d="m1280.1 354.08c-22.26-10.39-71.09 6.03-72.01 6.53-44.06 24.05-43.04 65.38-37.33 106.23 2.68 19.17 10.63 58.41 26.27 72.91 7.92 7.34 20.66 18.7 31.75 19.43 10.78.7 23.14.99 33.1-3.85 12.82-6.23 22.72-21.4 30.05-33.2 8.7-14.01 11.4-30.69 13.2-46.81 2.43-21.86 5.37-43.77 5.39-65.77.01-7.21.29-41.14-30.42-55.47z" fill="#b05641"/><path d="m1183.6 519.75c12.2 39.02 72.29 60.72 97.25 21.72.96-1.5-1.43-2.89-2.39-1.4-23.65 36.94-80.74 15.57-92.2-21.06-.52-1.69-3.19-.97-2.66.74z" fill="#753127"/><path d="m1093.9 509.32c-.06-.05-.13-.06-.2-.11-.57-.54-2.31-2.33-3.29-2.09-20.74 5.09-40.8 12-58.17 25.03-13.53 10.15-24.06 23.68-32.97 37.93-20.26 32.4-36.38 67.27-49.52 103.12-6.59 17.97-12.43 36.21-17.66 54.62-2.61 9.2-4.78 18.52-7.38 27.71-1.55 5.5-6.01 13.82-2.99 19.44 2.5 4.65 11.64 5.82 15.9 7.15 30.66 9.56 62.89 12.34 94.84 13.06 7.63.17 15.26.22 22.9.22 7.49 0 15.4 2.16 22.15-2.04 7.56-4.7 10.34-14.29 11.84-22.48 3.74-20.33 3.74-41.14 7.07-61.54 3.47-21.23 6.23-42.59 9.24-63.89 3.79-26.82 9.94-54.51 9.97-81.66.03-20.54-5.7-40.77-21.73-54.47z" fill="#f7ead7"/><path d="m1265.3 1037.5c-16.54 13.81-33.07 27.62-49.61 41.43-6.1 5.09-12.83 9.93-15.54 17.72-2.9 8.31-2.7 17.99-3.48 26.66-3.97 43.87-7.94 87.75-11.91 131.62-.16 1.77 2.61 1.76 2.76 0 3.72-41.13 7.44-82.26 11.16-123.39.9-9.9.98-20.32 3.03-30.06 2.17-10.34 10.36-15.94 18-22.31 15.85-13.23 31.69-26.47 47.54-39.7 1.38-1.16-.59-3.11-1.95-1.97z" fill="#2d0a0a"/><path d="m1279.8 901.34c-45.88 27.04-94.53 49.01-145.15 65.54-1.68.55-.96 3.22.74 2.67 50.84-16.6 99.73-38.66 145.81-65.82 1.52-.91.13-3.3-1.4-2.39z" fill="#2d0a0a"/><path d="m1206.2 920.18c-15.39 8.28-36.94 5.11-53.79 4.45-18.06-.7-36.08-2.16-54.03-4.27-1.76-.21-1.75 2.56 0 2.76 19.75 2.32 39.58 3.84 59.45 4.46 16.12.5 35.02 2.92 49.77-5.02 1.56-.83.16-3.22-1.4-2.38z" fill="#2d0a0a"/><path d="m1135 809.81c1.53-1.47-60.41 8.97-101.4 3.08-13.14-1.89-37.69-8.95-50.75-5.94-11.04 2.54-52.86 70.5-43.91 75.88 61.25 36.82 198.09-13.43 198.26-13.54 5.13-.01 6.27-38.79-2.2-59.48z" fill="#b05641"/><path d="m1218.9 771.14c-6.24-7.36-18.55-19.89-29.18-20.27-3.85-.14-7.3 1.62-10.28 4.27-2.56 2.27-6.06 3.26-9.5 2.94-8.39-.78-16.84.37-23.45 5.03-5.36 3.78-7.96 9.59-10.5 15.32-4.79 10.81-8.96 19.49-12.55 30.73-.2.63.19 3.72.42 4.17.1 16.77 2.59 59.93 2.93 59.83 27.27-8 68.62-22.43 99.21-72.89 6.45-10.65.6-20.06-7.1-29.13z" fill="#b05641"/><path d="m1024.4 810.25c-21.75-2.41-43.47-.44-64.43 5.82-1.7.51-.98 3.18.73 2.67 20.75-6.19 42.19-8.1 63.7-5.72 1.76.2 1.75-2.57 0-2.77z" fill="#753127"/><path d="m1172.5 759.07c-3.27 2.48-7.21 5.59-7.22 10.12-.01 3.51 2.21 6.56 5.77 6.93 1.77.18 1.76-2.58 0-2.76-2.94-.31-3.43-3.97-2.53-6.16 1.02-2.46 3.32-4.17 5.38-5.73 1.39-1.07.01-3.48-1.4-2.4z" fill="#753127"/><path d="m1100.5 651.55c-1.24 26.9-2.97 53.72-6.81 80.38-1.94 13.46-4.19 26.87-6.44 40.28-.59 3.51-.56 8.28-2.04 11.53-2.74 6.01-8.62 6.36-14.15 7.31-9.53 1.63-19.15 2.32-28.82 2.32-1.78 0-1.78 2.76 0 2.76 9.06 0 18.08-.62 27.03-2.01 5.74-.89 14.29-1.14 17.59-6.89 1.72-2.99 1.86-7.26 2.41-10.54.74-4.41 1.48-8.81 2.21-13.22 1.3-7.84 2.58-15.68 3.78-23.53 4.46-29.33 6.62-58.77 7.99-88.4.1-1.77-2.66-1.77-2.75.01z" fill="#2d0a0a"/><path d="m1417.2 567.89c-13.02 37.83-27.46 75.14-43.33 111.87-.7 1.62 1.68 3.03 2.39 1.4 15.96-36.95 30.51-74.47 43.61-112.53.58-1.69-2.09-2.42-2.67-.74z" fill="#2d0a0a"/><path d="m1290.4 479.57c-4.91-.2-10.47.36-15.35 2.08-1.74.62-6.37 1.98-7.31 3.71-.93 1.72-.38 4.77 2.56 4 .26.02.52.04.81-.02 6.66-1.55 13.32-3.09 19.98-4.64 2.96-.69 2.18-5.02-.69-5.13z" fill="#260505"/><path d="m1197.8 478.19c4.91-.2 10.47.36 15.35 2.08 1.74.62 6.37 1.98 7.31 3.71.93 1.72.38 4.77-2.56 4-.26.02-.52.04-.81-.02-6.66-1.55-13.32-3.09-19.98-4.64-2.96-.68-2.18-5.01.69-5.13z" fill="#260505"/><path d="m1253.9 486.8c1.94 3.23 3.17 7.13 2.37 10.92-1.01 4.81-5.06 5.6-9.26 6.07-1.75.19-1.77 2.96 0 2.76 4.35-.48 9.17-1.33 11.24-5.7 2.31-4.88.66-11.08-1.97-15.46-.91-1.5-3.3-.12-2.38 1.41z" fill="#753127"/><path d="m1244.4 499.67c-3.08-.66-6.12-.24-8.9 1.25-1.57.84-.17 3.23 1.4 2.39 2.11-1.13 4.43-1.47 6.77-.97 1.73.37 2.48-2.3.73-2.67z" fill="#753127"/><path d="m1260.6 514.14c-.49-.68-1.18-1.2-1.93-1.1-7.71 1.01-15.44 1.26-23.2.6-4.04-.35-9.87-1.74-13.59.34-4.16 2.32 4.91 13.43 6.96 15.07 3.31 2.66 7.27 2.58 11.29 2.64 10.92.14 20.99-5.33 21.25-15.51.01-.54-.29-1.37-.78-2.04z" fill="#fff"/><path d="m1293.9 452.3c-1.51-1.07-3.18-1.86-4.84-2.27-9.48-2.34-21.13.22-27.28 7.99-6.42 8.11.77 21.36 11.45 15.59 5.63-3.04 10.49-3.36 16.85-3.7 3.82-.2 8.2-.24 9.52-4.47 1.57-5.03-1.48-10.16-5.7-13.14z" fill="#3b140c"/><path d="m1190.2 461.55c1.32 4.23 5.69 4.26 9.52 4.47 6.35.34 11.21.66 16.85 3.7 10.68 5.76 17.87-7.48 11.45-15.59-6.15-7.76-17.8-10.32-27.28-7.99-1.66.41-3.32 1.2-4.84 2.27-4.22 2.97-7.26 8.1-5.7 13.14z" fill="#3b140c"/><path d="m1316.9 380.45c-3.88-11.47-12.9-19.87-23.17-26.2-13.45-8.29-28.12-6.38-43.19-6.54-11.03-.12-22.5-1.48-33.47-.57-17.63 1.46-34.41 8.23-45.17 22.81-8.2 11.11-9.54 18.9-10.82 32.27-2.07 21.61.08 39.06 8.58 58.96 1.55 3.63 5.94 6.67 9.91 4.6 1.78-.93 2.85-2.82 3.43-4.74 2.19-7.13-.63-5.56 1.71-12.65 2.23-6.72 4.96-14 8.41-20.2 9.53-17.14 31.15-16.79 48.44-16.84 14.3-.04 34.77-1.13 47.57 5.84 16.24 8.84 14.87 27.61 14.97 42.67.01 1.05.03 2.18.62 3.05 1.1 1.64 3.73 1.53 5.26.28s2.22-3.24 2.78-5.13c3.74-12.71 4.59-25.99 5.46-39.14.75-11.38 2.37-23.71-.36-35.16-.27-1.12-.59-2.23-.96-3.31z" fill="#3b140c"/><path d="m1173.1 447.82c-2.77-3.15-6.21-4.92-10.24-2.16-9.17 6.26-.73 24.6 2.88 31.88 3.1 6.25 11.58 20.43 16.94 7.77 5.02-11.85-1.54-28.34-9.58-37.49z" fill="#b05641"/><path d="m1310.5 445.3c.19-3.36-5.23-3.35-5.42 0-.82 14.21-3.25 28.44-5.88 42.41-2.81 14.97-5.85 30.84-13.61 44.17-5.95 10.23-14.46 15.44-26.37 14.81-10.67-.57-21.38-.12-32.03-.73-10.72-.61-21.77 1.48-27.42-9.58-6.15-12.03-8.15-26.25-10.09-39.48-2.24-15.26-4.06-30.59-5.62-45.94-.56-5.46-1.21-10.96-1.4-16.45-.01-.15-7.44 6.13-7.13 55.58 0 .56-.39 1.07-.24 1.76.03.14.07.3.1.45.89 23.46 2.31 45.17 12.82 64.94 10.09 18.98 38.28 21.51 58.39 21.17 9.11-.15 21.49.13 29.59-4.7 9.3-5.55 13.28-17.21 16.21-27 3.67-12.25 7.2-24.54 9.64-37.11 3.85-19.84 6.4-39.98 8.13-60.12.11-1.38.25-2.78.33-4.18z" fill="#3b140c"/><path d="m1286.9 474.28c1.45 1.06 2.47 2.53 3.02 4.23.54 1.69 3.21.97 2.67-.73-.78-2.43-2.23-4.38-4.29-5.88-1.45-1.05-2.83 1.34-1.4 2.38z" fill="#753127"/><path d="m1213.1 472.99c1.29 1.52 2.33 3.24 3.08 5.09.66 1.63 3.33.92 2.67-.73-.94-2.32-2.18-4.39-3.79-6.31-1.16-1.37-3.1.6-1.96 1.95z" fill="#753127"/><path d="m1165 452.73c2.57 4.36 4.47 8.95 5.75 13.85.45 1.72 3.12.99 2.67-.74-1.33-5.12-3.34-9.95-6.03-14.51-.91-1.53-3.3-.14-2.39 1.4z" fill="#753127"/><path d="m1184.2 373.55c-6.97 6.33-8.81 17.23-9.7 26.18-1.1 11.08.6 21.95 5.83 31.82.83 1.57 3.22.18 2.39-1.4-4.63-8.73-6.29-18.27-5.65-28.11.57-8.71 2.3-20.38 9.09-26.54 1.32-1.19-.64-3.14-1.96-1.95z" fill="#2d0a0a"/><path d="m1300.1 381.93c-.96 10.32-9.02 18.61-19.18 20.25-1.75.28-1.01 2.95.73 2.67 11.45-1.84 20.14-11.44 21.21-22.91.17-1.78-2.59-1.77-2.76-.01z" fill="#2d0a0a"/><path d="m1342.6 389.48c-6.28-4.69-13.64-8.29-21.5-11.01-3.67-14.55-8.62-29.17-16.1-42.33-9.91-17.43-33.04-13.45-52.56-13.7-18.32-.23-46.6-5.44-60.31 7.79-9.02 8.7-14.93 20.92-18.96 33.12-.82 2.5-2.92 4.37-5.49 4.95-17.71 3.95-36.15 11.17-39.76 24.76-7.14 26.92 39.14 44.99 63.68 49.66 25.8 4.91 52.58 5.66 78.67 2.88 24.54-2.62 55.7-8.01 75.75-23.61 12.18-9.47 7.53-24.34-3.42-32.51z" fill="#cac9cf"/><path d="m1315.6 383.34c-39.32 28.38-91.87 29.11-131.95 1.79-1.47-1-2.86 1.39-1.4 2.39 40.81 27.81 94.69 27.11 134.74-1.79 1.43-1.04.05-3.44-1.39-2.39z" fill="#2d0a0a"/><path d="m1208.4 333.24c-3.45 1-3.51 4.22-1.26 6.68 5.12 5.59 15.85 9.15 22.96 11.41 16.8 5.34 34.95 4.51 50.43-4.26 1.55-.88.16-3.27-1.4-2.39-11.39 6.45-24.3 8.52-37.21 6.57-6.02-.91-11.83-2.62-17.45-4.96-2.81-1.17-5.55-2.47-8.23-3.93-.32-.17-9.39-5.81-7.12-6.47 1.72-.48.99-3.15-.72-2.65z" fill="#2d0a0a"/><path d="m1645.1 440.94c-3.15-5.99-5.6-12.44-9.46-18.39-10.65-16.41-7-31.16-11.95-48.93-2.86-10.24-9.49-19.49-16.76-27.07-22.31-23.26-58.42-26.44-88.61-21.85-36.43 5.54-63.72 24.03-86.06 53.12-7.63 9.93-13.84 21.27-16.66 33.54-3.06 13.33-2.7 27.27-6.26 40.51-3.1 11.55-8.53 22.11-13.64 32.86-5.26 11.07-10.7 23.78-9.25 36.32.79 6.89 4.63 15.73 11.34 18.74 6.65 2.99 17.8-.77 23.92-3.92 7.64-3.94 14.03-10.22 22.44-12.64 10.39-2.98 19.03 3.71 29.24 2.53 9.68-1.12 18.6-8.63 26.57-13.62.25-.06.41-.03.57.03 10.96 4.17 22.51 5.38 34.26 2.9 18.22-3.85 31.57-23.03 51.22-16.97 14.95 4.61 25.98 21.32 42.46 21.12 8.94-.11 18.01-7.56 20.74-15.87 1.03-3.16 3.32-4.07 3.51-7.39 1.12-19.17 4.65-31.69-7.62-55.02z" fill="#873c25"/><path d="m1770 886.99c-14.33-15.98-36.39-20.57-57.05-19.72-27.76 1.15-54.77 10.93-80.67 20.16-28.43 10.13-56.37 21.49-83.54 34.64-2.16-.58-4.75.48-4.95 2.97-1.3 1.87-.76 4.58.82 5.79 1.97 12.32-9.55 45.62-6.21 57.58 1.27 4.55 1.24 9.35-.17 13.87-22.55 72.15-32.04 313.63-30.21 318.39.8 2.07 247.92 1.98 250.51-10.24 4.66-21.97 8.59-141.65 12.83-219.54 1.32-24.22-4.07-49.08-.07-73.06 3.52-21.04 12.12-40.73 14.15-62.03.85-.69 1.46-1.72 1.5-3.06.7-22.56-1.1-48.07-16.94-65.75z" fill="#cac9cf"/><path d="m1838.8 925.33c.73-19.35-.25-43.77-6.37-62.05-.14-.42-.34-.77-.56-1.07.02-1.66-.93-3.19-3.11-3.36-39.09-3-77.64-6.52-116.6.08-14.79 2.5-31.69 5.06-44.25 13.85-13.18 9.23-13.63 23.6-19.59 37.28-5.55 12.74-13.76 24.43-14.87 38.67-1.39 17.73 6.13 37.55 11.72 54.03 8.48 25.01 19.5 49 31.22 72.65-3.61 64.34 7.99 241.47 11.67 241.25 40.25-2.38 165.59 3.92 185 .28 7.56-1.42 17.6-2.86 22.95-9.43 7.19-8.83 3.26-31.7 2.22-41.73-1.45-14.01-2.93-28.02-4.51-42.02-3.17-27.99-8.8-105.91-13.38-133.71-4.57-27.77-10.52-56.36-17.59-84.01-3.68-14.37-7.69-28.66-12.05-42.85-3.18-10.36-6.85-20.39-10.72-30.53-.67-1.76-1.35-3.57-1.27-5.45.04-.62.07-1.25.09-1.88z" fill="#cac9cf"/><path d="m1804 983.44c24.39 31.1 29.4 72.93 55.46 103 1.17 1.35 3.12-.62 1.95-1.95-26.02-30.02-31.06-71.9-55.46-103-1.09-1.4-3.03.57-1.95 1.95z" fill="#2d0a0a"/><path d="m1868.3 997.41c-.08-10.51-.67-21.04-1.46-31.52-1.61-21.36-4.61-42.59-8.63-63.68-.43-2.27-2.35-3.11-4.27-2.91-.18-.01-.35-.03-.55-.03-51.63 2.18-103.58 15.86-154.1 25.13l-80.05 14.68c-16.01 2.94-33.95 4.49-47.93 12.5-2.54-1.39-6.9-.28-7.14 3.33-.04.6-.07 1.21-.11 1.81-.63.54-1.26 1.07-1.87 1.66-2.4 2.34-.97 5.39 1.4 6.54-.4 8.01-12.27 2.59-12.11 10.6.11 5.49 11.64 24.88 15.63 29.42 4.31 4.89 43.65 26.3 54.42 28.45 43.47 8.68 62.58 11.01 107.07 11.77 104.03 1.79 139.85-30.16 139.7-47.75z" fill="#f7ead7"/><path d="m1514.4 1011c.52 4.95 4.45 8.85 9.41 9.34 25.05 2.48 246 13.61 339.93-78.18 2.77-2.71 5.72-5.23 5.84-9.1.56-19.58.32-38.96.36-59.09.21-86.58-26.39-225.35-35.87-293.79-4.37-31.54-12.78-24.24-36.53-49.11-15.87-16.63-34.57-29.96-49.52-47.07-.66-.76-1.38-1.28-2.12-1.64-6.68-7.03-14.27-13.18-23.61-16.92-16.76-6.71-34.17-2.34-49.89 4.78-39.82 18.04-78.06 40.33-116.49 61.22-2.3 1.25-4.97 1.51-7.62 1.31-.88-.06-1.85.07-2.89.45-27.98 10.27-54.04 15.68-79.43 32.37-29.16 19.17-51 41.88-64.19 74.43-13.28 32.78-21.75 67.53-29.11 102.04-.96 4.52 2.92 7.65 6.66 8.12 1.27.58 2.79.8 4.51.46 23.83-4.8 36.88-2.48 60.71-7.28.3-.06.61-.12.91-.18 6.52-1.31 13.09 1.94 15.67 7.73 6.54 14.7 13.28 29.32 20.27 43.85 15.16 31.49 28.23 170.76 33 216.26z" fill="#ff9673"/><path d="m1595.4 552.96c10.56-10.67 19.2-25.01 21.73-40.11-2.25-5.29-4.68-3.71-6.85-9.03-5.81-14.24-11.12-35.48-16.42-49.92-2.09-5.7-3.16-11.73-3.23-17.8-.2-19.7-.59-38.96-11.14-56.63-1.65-2.76-6.69-2.44-8.23-.51-1.16.03-2.32.53-3.15 1.71-16.25 23.03-27.17 49.81-38.08 75.67-4.78 11.34-9.24 22.82-12.84 34.59-3.97 12.95-15.25 11.41-10.68 9.84 7.53-2.58 25.99 51.62 33.46 64.68 20.35 7.6 39.93 3.18 55.43-12.49z" fill="#ff9e63"/><path d="m1754.6 149.86c-4.4.22-48.65-55.29-53.56-69.73-4.86-14.29-9.16-28.35-16.86-41.47-6.56-11.2-15.49-23.55-27.54-29.41-7.37-3.59-16.23 1.77-23.06 4.38-11.07 4.23-22.3 8.2-33.25 12.73-6.28 2.6-13.21 6.01-16.37 12.43-3.18 6.47-1.32 13.15 1.4 19.41 5.02 11.58 11.69 22.71 17.51 33.92.22 6.95 1.8 13.43 6.77 18.23 3.79 3.66 6.56 7.14 11.87 8.62 3.2.89 6.52 1.18 9.8 1.72 7.63 1.25 15.04 3.87 21.77 7.68 6.38 3.62 10.36 10.34 14.74 16.01 10.2 13.2 19.96 26.73 29.29 40.56-.84 2.12.05 4.94 2.98 5.04h.43c.39.59.81 1.17 1.2 1.77 2.01 3.05 5.77.9 6.23-2.05 20.15-2.01 41.47-16.4 50.33-35.11 1.33-2.83-1.2-4.85-3.68-4.73z" fill="#ff9e63"/><path d="m1720.2 103.06c.44-.36.67-.95.3-1.59-2.58-4.41-4.41-11.74-9.96-12.64-5.86-.95-15.72 6.23-19.91 9.54-13.3 10.5-24.48 23.75-32.53 38.67-3.36 6.23-5.22 10.94-1.94 17.62 3.49 7.1 9.42 12.6 15.55 17.42 3.06 2.41 7.08 7.52 10.7 4.19 3.14-2.88 5.47-7.76 7.69-11.36 2.61-4.22 5.08-8.53 7.66-12.77 5.53-9.11 12.7-17 18.3-26.01 4.38-7.02 6.65-15.02 4.14-23.07z" fill="#f7ead7"/><path d="m1574 428.65c4.06-12.68 14.08-23.89 18.11-36.87 4.41-14.22 4.06-29.48-6.55-40.91-26.49-28.54-69.25-20.29-98.7-1.23-15.23 9.86-30.13 23.05-35.06 40.94-6.81 24.66-3.17 50.65 1.85 75.28 3.62 17.74 8.13 43.55 25.74 53.71 2.4 1.38 5.01 2.36 7.72 2.94 23.91 5.09 44.91-8.18 64.3-23.53 5.81-4.6 18.75-51.83 21.44-65.81.29-1.54.68-3.04 1.15-4.52z" fill="#ff9e63"/><path d="m1476.5 748.91c-9.55-17.58-25.33-32.13-41.91-42.92-15-9.75-24.51-18.22-41.33-11.64 1.54-4.9-6.02-12.76-7.04-7.84-12.09 57.88-42.8 115.45-45.2 171.49-.63 14.83-1.16 29.76.54 44.54.87 7.56 2.29 15.1 4.76 22.31 1.14 3.34 2.5 6.62 4.13 9.75.94 1.8 5.03 6.73 5.11 8.56.03.62.23 1.27.7 1.94 10.39 14.43 29 17.72 45.82 15.17 24.55-3.71 33.64-24.77 42.39-45.58 21.5-51.11 26.96-106.96 37.11-160.98.62-3.32-2.62-5.35-5.08-4.8z" fill="#ff9673"/><path d="m1851.4 276.94c-7.6-17.45-16.77-34.31-26.75-50.5-22.51-36.51-52.59-69.04-80.22-101.68-5.43-6.41-9.91-13.54-15.55-19.8-6.42-7.13-12.1-13.21-20.75-6.49-21.1 16.42-36.85 38.71-45.13 64.14-.31.96-.25 1.8.04 2.51-.44.97-.52 2.13.01 3.33 4.3 9.78 8.94 19.37 13.92 28.8 1.26 2.39 1.91 5.05 1.79 7.75-.45 10.4.02 20.82 3.05 30.81 4.15 13.68 13.43 23.29 22.33 34.03 18.71 22.59 30.32 49.86 34.44 78.58.86 6.04-.1 12.21-2.64 17.76-8.37 18.35-16.02 37.11-25.48 54.76-17.66 32.94-22.2 37.16-43.54 51.8-.32.56-4.64 50.49-4.67 51.14-.03.1-.06.2-.09.3-.75 2.68 1.2 4.5 3.33 4.79 16 17.14 31.73 34.6 48.29 51.19 15.62 15.64 35.09 27.49 48.12 45.54 5.78 8.01 15.78 27.57 28.46 21.91 12.75-5.69 37.56-27.32 38.1-29.19.02-.08-.02-.16-.01-.24 13.89-88.55 23.7-185.94 33-275.22 2.36-22.5-1.01-45.27-10.05-66.02z" fill="#ff9673"/><path d="m1815.2 551c-12.17 32.88-19.67 67.17-22.41 102.11-.14 1.77 2.63 1.76 2.76 0 2.72-34.7 10.24-68.73 22.32-101.37.61-1.68-2.06-2.4-2.67-.74z" fill="#2d0a0a"/><path d="m1437.1 697.89c3.23 13.81 8.11 27.14 14.82 39.64 7.27 13.53 16.69 25.77 23.13 39.77.74 1.61 3.13.21 2.39-1.4-6.1-13.27-14.89-24.94-21.97-37.66-7.18-12.9-12.34-26.73-15.7-41.09-.41-1.73-3.08-1-2.67.74z" fill="#2d0a0a"/><path d="m1786.5 782.84c-4.04 45.4-12.29 90.28-24.64 134.15-.48 1.72 2.18 2.45 2.67.73 12.42-44.11 20.68-89.24 24.74-134.89.15-1.76-2.62-1.75-2.77.01z" fill="#2d0a0a"/><path d="m1560.4 471.23c-1.11 9.93-4.47 20.8-11.16 28.41-7.32 8.33-19.04 12.56-28.53 17.81-1.56.86-.16 3.25 1.4 2.39 10.6-5.86 23.47-10.45 30.93-20.51 5.95-8.02 9.03-18.27 10.13-28.09.19-1.78-2.57-1.76-2.77-.01z" fill="#a5422f"/><path d="m1642 501.39c-.95-1.6-1.98-3.53-4.01-4.65-27.91-15.35-30.11-14.97-30.65-11.98-4.19 23.06-15.62 49.28-31.93 65.91-.16.17-.34.31-.54.43-12.58 7.19-44.54-10.77-53.26-19.91-.22-.23-.31 5.5-.27 6.08.3 4.53.78 9.06 1.28 13.57.82 7.34 1.49 14.82 4.1 21.8 2.38 6.38 6.59 11.78 10.78 17.07 1.7 2.15 18.03 22.77 21.33 16.58 6.46-12.12 7.43-26.36 12.18-39.14.63-1.69 2.9-1.91 3.87-.39 4.37 6.84 9.39 13.25 15.02 19.09 3.35 3.47 7.18 6.4 10.93 9.41 2.46 1.97 8.95 5.96 12.23 6.18 5.71.38 16.02-24.27 18.73-31.67 5.51-15.08 9.11-35.17 11.58-51.02 1.06-6.86 1.55-12.4-1.37-17.36z" fill="#fff"/><path d="m1746.8 310.09c-2.46 19.97-4.21 40-5.25 60.09-.09 1.78 2.67 1.77 2.76 0 1.04-20.09 2.79-40.12 5.25-60.09.22-1.77-2.55-1.75-2.76 0z" fill="#2d0a0a"/><path d="m1608.2 88.73c.37-5.34.74-10.68 1.11-16.02.13-1.83-.45-6.8.56-8.01 2.08-.92 4.16-1.85 6.23-2.77 1.52 1.27 2.52 2.83 3 4.69 2.6 6.59-.81 14.62 3.18 20.86 2.77 4.33 7.76 5.56 12.6 5.64 4.87.08 9.69-1 14.47.5 5.72 1.79 9.91 6.47 11.91 11.98.6 1.66 3.28.94 2.67-.74-2.81-7.75-9.19-13.62-17.54-14.71-5.45-.71-11.42 1.38-16.71-.49-8.8-3.1-6.03-12.88-6.96-19.99-.61-4.71-6.71-16.32-13.27-12.37-2.68 1.62-2.26 6.11-2.44 8.72-.52 7.57-1.05 15.13-1.57 22.7-.13 1.78 2.64 1.77 2.76.01z" fill="#a5422f"/><path d="m1603.6 33.25c-.65 8.95 1.74 17.48 6.97 24.78 1.03 1.43 3.43.06 2.39-1.4-4.98-6.95-7.21-14.85-6.59-23.38.13-1.78-2.64-1.77-2.77 0z" fill="#a5422f"/><path d="m1622.4 74.55c7.75 3.72 13.87-2.83 18.07-8.6 1.05-1.44-1.35-2.82-2.39-1.4-3.18 4.36-8.11 10.57-14.29 7.61-1.59-.76-2.99 1.62-1.39 2.39z" fill="#a5422f"/><path d="m1623 26.21c-2.66 6.18-.89 11.86 1.96 17.71 3.06 6.28 6.37 14.29 11.31 19.32 6.56 6.68 18.28 1.88 22.54-5.21.92-1.53-1.47-2.92-2.39-1.4-2.48 4.12-6.94 6.55-11.71 6.94-4.81.39-7.34-2.76-9.65-6.67-4.59-7.77-13.62-20.16-9.68-29.3.71-1.61-1.67-3.02-2.38-1.39z" fill="#a5422f"/><path d="m1644.6 19.09c-11.12 1.56-1.53 20.74 1.38 25.4 3.95 6.33 12.73 21.79 21.86 14.32 1.38-1.13-.59-3.07-1.96-1.96-6.62 5.41-14.73-9.3-17.52-13.76-2.02-3.24-11.18-20.2-3.03-21.34 1.76-.24 1.02-2.9-.73-2.66z" fill="#a5422f"/><path d="m1666.3 59.62c4.16-2.45 8.86-5.53 9.38-10.81.49-4.89-3.53-7.42-6.05-10.99-1.02-1.44-3.42-.06-2.39 1.4 1.68 2.38 4.75 4.48 5.55 7.34 1.45 5.16-4.26 8.54-7.89 10.67-1.53.9-.14 3.29 1.4 2.39z" fill="#a5422f"/><path d="m1280.7 746.3c-1.36-2.02-.62-4.67 1.52-5.91 3.68-2.14 19.33-15.32 16.39-47.38-.91-9.86 2.71-29.36-5.51-37.39-5.12-5-13.43-5.35-21.18-4.56-.04-1.6-.25-3.18-.75-4.71-2.5-7.57-11.34-10.89-18.2-13.8-16.13-6.85-36.97-7.88-46.2 9.72-7.34 13.98-6.28 23.52-4.79 38.44 2.96 29.59 3.74 58.98 18.35 85.87 9.28 17.09 19.08 33.94 28.63 50.89 1.94 3.44 6.76 1.53 7.1-1.59 16-7.4 57.28-21.36 50.25-36.56-2.38-5.14-18.95-23.11-25.61-33.02z" fill="#ff9e63"/><path d="m1299.2 770.66c.59-.32-.18-6.37-.64-7.1-1.84-2.94-12.4-19.55-16.34-19.31-2.44.15-38.6 15.67-60.43 38.63-.5.53-.78 1.18-.47 1.79 3.94 7.68 8.17 15.19 12.7 22.54.49.8 1.41.73 1.97.27 6.01 2.83 12.57 1.04 18.76-.89 7.83-2.44 15.48-5.82 21.9-11 13.2-10.67 25.57-9.01 22.55-24.93z" fill="#fff"/><path d="m1667.2 40.48c.38-2.11 2.6-2.88 4.1-1.25 1.2 1.32 3.15-.64 1.95-1.95-2.81-3.07-7.98-1.68-8.72 2.47-.31 1.74 2.36 2.48 2.67.73z" fill="#a5422f"/><path d="m1414.2 896.4c-10.18-26.67-27.54-49.2-49.09-67.76-11.69-10.07-55.96-54.45-67.19-70.68-2.02-2.92-5.49-3.23-7.18-1.19-10.35 9.7-21.42 18.58-32.64 27.24-5.62 4.34-11.28 8.62-16.92 12.92-2.98 2.28-11.27 6.53-12.25 10.39-.22.85-.15 1.8.4 2.78 27.96 50.67 52.05 107.68 102.25 139.9 18.44 11.83 64.99 19.32 84.76 5.4 17.77-12.51-1.42-57.11-2.14-59z" fill="#ff9673"/><path d="m1520.7 420.72c-1.17-4.33-3.73-8.13-7.09-8.7-9.2-1.55-7.28 13.79-4.94 17.91 1.73 3.05 5.45 5.94 9.19 3.92 3.65-1.97 4.25-7.92 2.84-13.13z" fill="#260505"/><path d="m1467.5 431.82c-1.16-4.22-3.7-7.94-7.03-8.49-9.11-1.51-7.21 13.46-4.89 17.49 1.71 2.98 5.4 5.8 9.1 3.83 3.62-1.93 4.22-7.75 2.82-12.83z" fill="#260505"/><path d="m1475 432.59c-2.09 4.72-4.24 10.16-1.69 15.15 2.44 4.77 8.21 7.92 13.23 8.98 1.74.37 2.48-2.3.74-2.67-3.91-.83-8.59-3.15-10.92-6.59-2.86-4.23-.82-9.3 1.03-13.48.71-1.61-1.67-3.01-2.39-1.39z" fill="#a5422f"/><path d="m1490.7 449.99c2.22-2.28 5.49-1.03 8.03-.04 1.66.65 2.38-2.02.74-2.67-3.56-1.39-7.74-2.31-10.72.75-1.25 1.28.71 3.23 1.95 1.96z" fill="#a5422f"/><path d="m1522.1 457.38c-.45-.75-1.35-1.36-2.26-1.29-5.87.44-11.85 3.09-17.55 4.58-5.21 1.36-10.48 2.5-15.8 3.27-3.4.49-8.78-.53-10.9 2.96-2.05 3.38 1.28 9.42 3.18 12.4 5.14 8.03 13.81 8.54 22.02 4.98 7.36-3.2 27.24-16.98 21.31-26.9z" fill="#ad4d37"/><path d="m1487 472.15c.61.15 1.24.23 1.85.26 5.92.32 11.76-.81 17.39-2.57 2.92-.91 5.78-1.99 8.6-3.18 1.09-.46 8.05-2.75 8.23-3.78.34-1.9.1-3.76-.94-5.5-.45-.75-1.35-1.36-2.26-1.29-5.87.44-11.85 3.09-17.55 4.58-5.21 1.36-10.48 2.5-15.8 3.27-.94.14-2.03.16-3.16.19-.18 0 .09 5.06.35 5.62.64 1.36 1.91 2.06 3.29 2.4z" fill="#fff"/><path d="m1649.4 1101.6c6.71 6.42 13.43 12.84 20.13 19.27 3.74 3.6 7.26 6.99 8.61 12.2 1.07 4.11.97 8.6 1.22 12.81.98 16.36 2.37 32.69 4.12 48.99 3.48 32.37 8.29 64.69 15.68 96.41.4 1.73 3.07 1 2.67-.74-8.06-34.62-13.08-69.93-16.57-105.27-.85-8.6-1.59-17.21-2.23-25.83-.6-8.11-.41-16.57-1.75-24.59-1-5.96-3.86-10.14-8.11-14.31-7.18-7.06-14.55-13.94-21.82-20.9-1.28-1.22-3.23.73-1.95 1.96z" fill="#2d0a0a"/><path d="m1521.3 385.58c-7.22-.25-19.83 1.41-21.93 10.9-1.7 7.68 4.69 11.28 10.74 10.27 3.75-.62 7.19-2.41 10.99-2.94 4.92-.68 15.83.79 17.55-6.19 2.44-9.88-11.81-11.84-17.35-12.04z" fill="#873c25"/><path d="m1705.6 684.54c-4.47-40.44-8.46-80.93-12.51-121.42-2.19-21.91-2.94-43.98-6.28-65.77-3.05-19.86-6.98-46.33-24.46-59.08-15.58-11.36-30.13-4.96-49.8-3.57-3.41.24-4.61 3.38-3.38 5.18-9.35 13.13-10.01 30-9.58 44.92.56 19.4 5.03 38.63 10.41 57.54 5.54 19.45 11.92 38.73 17.7 58.13 5.39 18.09 5.56 36.81 3.15 55.15-2.34 17.83-9.18 35.39-9.59 53.35-.06 2.62-.42 6.06 3.17 7.22 7.2 2.33 13.24-8.51 15.23-12.49 2.9-5.81 3.7-12.25 6.77-18.06.61-1.15 1.38-2.36 2.76-2.92 7.44-3.02 8.21 13.06 8.65 15.7 1.16 6.91 1.86 13.93.82 20.85-1.88 12.46-9.3 23.75-11.13 36.25-.11.74.6 1.09 1.31 1.05.65 5.41 9.91 5.04 14.09 1.17 3.03-2.8 5.17-6.59 7.08-10.28 5.89-3.74 11.69-7.63 16.24-12.2.32.03.65-.03.96-.23 7.69-5.1 15.77-10.64 18.89-18.65 3.86-9.89.62-21.68-.5-31.84z" fill="#b05641"/><path d="m1623.4 390.95c-.45-15.01-11.34-28.4-19.33-40.39-7.5-11.25-12.77-13.76-27.37-16.08-7.1-1.13-15.55-5.76-22.43-3.95-10.74 2.82-20.78 1.07-31.95 1.82-11.93.8-26.97 3.39-30.61 16.15-4.97 10.89-7.17 23.28-1.76 34.5 5.71 11.83 16.11 14.89 28.3 16 9.11.83 16.4 2.89 21.07 11.3 3.44 6.19 5.46 12.83 11.03 17.58 3.71 3.17 8.32 5.25 13.15 5.95 10.05 1.44 20.41-3.98 28.02 5.37 2.05 2.52 3.96 5.24 7.56 5.13 5.48-.18 11.31-6.52 14.28-10.54 8.72-11.78 10.47-28.59 10.04-42.84z" fill="#873c25"/><path d="m1643.9 438.05c-6.5-17.48-42.47-33.64-61.36-15.7-2.38 2.26-.87 5.37 1.48 6.33-3.58 25.74-22.8 60.9-7.43 84.78 4.22 6.56 11.12 9.53 18.44 6.18 4.45-2.04 7.11-5.89 10.04-9.62 5.67-7.22 11.56-12.56 19.91-16.57 11.51-5.53 29.57-16.1 27.18-29.55-2.69-15.05-3.38-12.73-8.26-25.85z" fill="#873c25"/><path d="m1473 404.05c-.87-7.63-7.53-9.35-13.7-7.91-7.06 1.64-11.34 10.8-10.56 17.98.32 2.98 2.5 4.11 5.07 3.17 2.99-1.09 4.85-3.01 8.23-3.34 2.93-.29 6.8.56 9.08-1.95 1.81-1.99 2.18-5.35 1.88-7.95z" fill="#873c25"/><path d="m1499.1 341.27c-13.09-4.88-32.78 8.21-42.46 15.42-34.2 25.46-31.91 67.32-23.16 104.79 1.21 4.9 8.7 2.83 7.56-2.08-2.59-10.53-2.65-20.87.7-31.25 3.12-9.69 9.25-15.18 14.25-23.46 5.05-8.37 3.9-18.56 12.64-24.8 8.41-6 18.64-9.57 28.51-12.2.73-.2 1.29-.54 1.73-.97.04-.04.09-.06.14-.1 8.18-7.16 13.67-20.28.09-25.35z" fill="#873c25"/><path d="m1550.4 357.11c20.9 20.32 30.94 49.47 27.12 78.35-.23 1.76 2.53 1.74 2.76 0 3.91-29.56-6.56-59.53-27.93-80.31-1.27-1.23-3.23.72-1.95 1.96z" fill="#2d0a0a"/><path d="m1436.5 442.7c-.1 11.42-3.7 22.02-10.77 31.03-5.01 6.38-10.44 11.89-13.11 19.75-4.32 12.71.05 26.99 12.89 32.38 1.64.69 2.35-1.99.73-2.67-8.55-3.59-13.01-12.25-12.56-21.31.51-10.23 7.05-17.72 13.2-25.24 8.01-9.8 12.26-21.27 12.37-33.94.03-1.78-2.74-1.78-2.75 0z" fill="#2d0a0a"/><path d="m1583.7 440.66c-.52 12.66-.12 26.36 7.81 36.93 6.26 8.35 16.49 12.63 26.67 9.63 1.7-.5.98-3.17-.73-2.67-11.22 3.31-21.48-3.27-26.54-13.19-4.84-9.48-4.87-20.32-4.44-30.7.07-1.78-2.69-1.78-2.77 0z" fill="#2d0a0a"/><path d="m1599 443.07c6.14 6.23 13.42 10.83 21.65 13.77 1.68.6 2.4-2.07.73-2.67-7.79-2.78-14.63-7.17-20.43-13.06-1.25-1.27-3.2.69-1.95 1.96z" fill="#2d0a0a"/><path d="m1581.3 406.74c-8.68-1.04-14.4 6.09-17.28 11.68-3.35 6.51-5.35 41.53 12.72 31.78 8.9-4.8 13.76-15.94 14.86-24.3.85-6.45-.03-17.92-10.3-19.16z" fill="#ff9e63"/><path d="m1578.5 413.81c-5.33 7.36-8.01 15.87-7.93 24.96.02 1.78 2.78 1.78 2.76 0-.08-8.65 2.49-16.56 7.55-23.56 1.05-1.45-1.35-2.83-2.38-1.4z" fill="#a5422f"/><path d="m1358.7 818.31c18.6 13.13 33.04 30.86 42.26 51.67.72 1.62 3.1.22 2.39-1.4-9.42-21.25-24.27-39.26-43.25-52.66-1.46-1.02-2.84 1.37-1.4 2.39z" fill="#2d0a0a"/><path d="m1727.4 122.34c-11.9 19.76-23.8 39.53-35.7 59.29-.92 1.53 1.47 2.92 2.39 1.4 11.9-19.76 23.8-39.53 35.7-59.29.92-1.54-1.47-2.93-2.39-1.4z" fill="#2d0a0a"/><path d="m1260.8 841.37c22.97-5.71 38.61-24.27 52.77-41.99 1.1-1.38-.84-3.35-1.95-1.95-13.85 17.34-29.06 35.7-51.55 41.28-1.73.42-1 3.09.73 2.66z" fill="#2d0a0a"/><path d="m1268.3 678.91c-.88-8.51-.3-20.87-9.92-24.36-13.24-4.81-28.5-1.31-41.47 2.4-1.71.49-.98 3.16.73 2.67 11.16-3.19 22.2-5.51 33.83-3.81 6.4.94 10.44 2.87 12.29 9.47 1.24 4.4 1.31 9.12 1.78 13.65.18 1.73 2.94 1.75 2.76-.02z" fill="#a5422f"/><path d="m1268.7 693.07c.01-6.85 1.02-18.58-6.77-21.67-5.68-2.25-13.19-1.3-19.1-.89-7.67.54-15.21 1.89-22.65 3.83-1.72.45-.99 3.12.73 2.67 10.86-2.83 21.99-4.31 33.22-3.96 6.45.2 10.28 2.54 11.23 9.06.53 3.63.58 7.31.57 10.98.01 1.76 2.77 1.76 2.77-.02z" fill="#a5422f"/><path d="m1222 697.49c6.17-2.48 12.5-4.4 19.07-5.46 6.88-1.12 16.53-2.81 22.51 1.36 4.51 3.15 3.23 6.84 2.46 11.7-.5 3.15-.99 6.31-1.52 9.46-.81 4.86-2.15 8.74-7.35 10.49-2.74.92-5.76 1.24-8.59 1.78-1.75.33-1.01 2.99.73 2.67 7.02-1.33 14.67-2.07 17.11-9.76 1.58-4.98 1.85-10.95 2.64-16.09.41-2.66 1.1-5.43.25-8.08-2.23-6.91-10.15-7.42-16.24-7.34-10.95.14-21.66 2.54-31.8 6.61-1.63.65-.92 3.33.73 2.66z" fill="#a5422f"/><path d="m1254.1 709.93c-5.94 1.07-15.3 4.84-16.22 11.83-1.01 7.63 8.13 8.53 13.37 7.13 1.72-.46.99-3.13-.74-2.67-2.48.66-5.39 1.26-7.73-.15-3.17-1.91-2.3-5.29-.15-7.58 3.14-3.33 7.8-5.11 12.2-5.9 1.75-.31 1.01-2.97-.73-2.66z" fill="#a5422f"/><path d="m1269.2 650.35c-4.41 2.83-7.61 8.08-5.51 13.37 2.84 7.16 12.22 7.44 16.28 13.46.99 1.47 3.39.09 2.39-1.4-2.26-3.35-5.43-5.08-8.94-6.93-2.23-1.18-4.52-2.39-6.07-4.44-3.22-4.24-.73-9.13 3.25-11.68 1.49-.95.11-3.34-1.4-2.38z" fill="#a5422f"/><path d="m1274.4 672.03c-4.42 1.35-7.81 4.94-8.79 9.47-.38 1.73 2.29 2.48 2.67.73.78-3.59 3.33-6.46 6.86-7.53 1.69-.52.97-3.19-.74-2.67z" fill="#a5422f"/><path d="m1679.6 668.41c6.34 20.16 5.51 41.33-2.32 60.95-.66 1.65 2.01 2.37 2.67.74 8-20.04 8.8-41.84 2.32-62.42-.54-1.7-3.21-.97-2.67.73z" fill="#753127"/><path d="m1695.8 680.44c3.16 13.56 2.41 27.01-2.15 40.16-.59 1.68 2.08 2.41 2.67.73 4.71-13.56 5.41-27.65 2.15-41.63-.41-1.73-3.07-1-2.67.74z" fill="#753127"/><path d="m1701.4 613.18c-.69-1.48-1.74-2.5-3.74-3.34-3.04-1.28-6.12-2.43-9.26-3.43-6.14-1.95-12.48-3.33-18.89-3.9-12.85-1.15-25.84 1.12-37.32 7.22-.96.51-1.92 1.05-2.86 1.61-1.18.7-1.69 2.14-1.38 3.49.45 1.97 1.14 10.03 1.44 13.42.08.87.79 1.57 1.65 1.54 1.33-.05 2.74-.47 4.16-1.42 9.94-6.61 21.93-9.14 33.67-8.22 5.89.46 11.72 1.76 17.3 3.75 2.79 1 5.53 2.17 8.18 3.52 2.41 1.22 4.77 3.23 7.27 4.18.21.08.5.17.73.18 2.38.09.35-13.72.03-15.27-.28-1.33-.56-2.42-.98-3.33z" fill="#3b140c"/><path d="m1161.5 212.89c6.28 33.1 12.57 66.2 18.85 99.31.33 1.75 3 1.01 2.67-.73-6.28-33.1-12.57-66.2-18.85-99.31-.33-1.75-3-1.01-2.67.73z" fill="#2d0a0a"/><path d="m1135.4 261.64c4.37 21.02 10.88 41.42 19.45 61.1.71 1.63 3.09.22 2.39-1.4-8.47-19.46-14.86-39.66-19.17-60.44-.37-1.74-3.03-1-2.67.74z" fill="#2d0a0a"/><path d="m578.87 652.61c19.34 7.71 56.24 9.32 77.66 7.19 23.07-2.29 41.43-13.15 62.49-21.64 18.79-7.57 35.91-6 55.61-5.35 20.25.67 37.65-2.75 54.02-13.93-.48-3.34-.87-6.71-1.01-10.12-.8-19.73.81-39.68-2.28-59.27-3.24-20.55-14.11-38.3-19.59-58.18-3.12-11.3-3.47-23.04-3.94-34.68-.3-7.53 1.62-26.86-3.54-32.9-11.13-13.04-27.19-21.04-44.5-20.94-20.14.11-35.69 12.06-51 23.66-5.22 3.95-10.77 8.1-17.21 9.78-7.32 1.91-14.63-.26-22-.1-8.57.19-16.83 2.99-23.75 8.06-12.92 9.46-18.8 4.53-18.1 19.95 2.37 52.2-3.67 63.93-6.45 74.57-5.1 19.53-25.21 37.41-23.52 58.33 1.56 19.71-5.97 37.57-12.89 55.57z" fill="#ffe1b5"/><path d="m802.35 399.05c-7.17-20.12-36.78-35.05-68.53-38.87-1.65-.2-2.07 3.72-.41 3.98.44.07.89.15 1.33.22 1.39 10.95-7.74 19.54-8.94 30.1-1.25 10.95 8.04 16.71 15.22 23.12 19.27 17.19 32.16 40.53 37.03 65.83.22 1.13 1.46 1.14 2.12.51.26 1.01 1.75 1.56 2.36.4 7.38-14 14.18-28.39 18.64-43.61 3.92-13.39 6.03-28.06 1.18-41.68z" fill="#ffe1b5"/><path d="m806.34 596.31c-3.86.51-8.71 2.06-9.73 2.2-7.96 1.08-16.05 1.12-24.01.08-11.33-1.48-17.86-10.45-19.89-21.41-2.89-15.62-1.97-33.1-2.62-49.14.46-.42.79-1 .83-1.79 1.58-32.84 2.58-71.78-23.18-96.54-11.49-11.04-54.48-28.76-57.9-1.08-3.25 2.55-7.08 4.78-8.76 8.48-2.09 4.61-.31 10.4.48 15.1 3.55 21.09 9.76 46.73 11.95 68 1.51 14.73 1.33 29.71 1.52 44.53.13 10.2-.39 23.42-8.04 31.26-5.42 5.55-13.23 7.82-20.63 9.26-3.23.63-17.76.3-18.43 4.69-.25 1.66 40.55 26.63 49.36 29.86 17.92 6.58 38.25 6.46 56.95 4.13 29.36-3.65 65.16-15.35 76.91-45.36.94-2.4-1.59-2.7-4.81-2.27z" fill="#ff9e63"/><path d="m976.99 554.34c-2.68-9.15-4.81-18.53-5.41-28.08-.53-8.48-1.16-22.97 5.7-29.37 3.77-3.53 9.47-2.89 12.24 1.85.96 1.65 1.41 3.62 1.98 5.43 1.48 4.72 2.78 9.49 3.93 14.3 2.28 9.5 3.07 19.28 4.93 28.87 6.34 32.67 9.61 41.16-6.09 66.98-8.75-13.07-12.96-45.21-17.28-59.98z" fill="#507046"/><path d="m1034.3 365.29c-2.45-15.39-5.42-30.73-7.7-45.79-4.85-32.1-10.31-64.12-17.05-95.88-.54-2.56-3.68-2.26-4.73-.47-16.04-4.52-43.01-7.5-55.31 5.44-1.53-.02-8.46-3.31-8.07-1.32 8.74 44.87 18.2 94.84 20.55 140.4 1.74 33.76-13.04 67.04-28.49 96.48-21.87 41.67-37.88 73.61-64.38 112.57-.12.08-.24.12-.35.21-1.56 1.34-2.76 3.08-3.5 5-1.59-.81-3.93-.12-3.8 2.16 1.88 33.37 9.91 65.46 23.91 95.81.69 1.49 3.05 1.7 4.1.53 34.72-38.77 66.08-80.68 92.46-125.58 13.34-22.72 25.4-46.2 35.88-70.37 10.21-23.55 21.51-47.97 21.04-74.12-.26-14.9-2.16-30.01-4.56-45.07z" fill="#ff9e63"/><path d="m782.41 394.09c-11.34-14.7-29.54-23.7-47.84-25.93-32.35-3.95-71.9 14.35-76.2 49.71-1.74 14.3 2.15 29.47 11.5 40.58 4.97 5.9 11.1 9.82 17.73 12.88 2.71 13.85 6.35 27.47 11.27 40.76 3.6 9.74 15.76 22.04 16.6 22.62 1.24.86 2.79 1.13 4.28 1.38 22.14 3.66 34.22 5.76 60.3-2.4 15.91-5.58 15.18-46.52 14.67-68.43-.51-21.98 3.5-46.21-8.65-65.85-1.12-1.86-2.35-3.63-3.66-5.32z" fill="#ff9e63"/><path d="m994.42 581.48c0-.31-3.11-6.71-7.94-16.69-3.79-7.91-8.7-18.07-13.97-29.25-5.48-11.65-11.34-24.37-16.77-36.77-3.87-8.72-7.52-17.29-10.68-25.2-2.19-5.48-4.15-10.66-5.8-15.33-.63-1.8-2.51-2.09-3.81-1.46-.97-.21-2.04.08-2.74 1.12-21.78 33.14-36.9 67.88-65.06 94.57-5.85 5.59-12.25 10.79-19.38 15.57-1.78 1.18-3.6 2.35-5.33 3.63-2.45 1.78-4.73 3.76-6.48 6.22-10.03 14.08 9.48 58.22 13.48 73.86 7.68 30.17 15.7 60.2 23.4 90.37-.08.16-.16.29-.23.44-3.63 2.09-.5 6.14 2.06 4.88.91.78 2.35.73 3.29.05.97-.68 1.46-1.93.63-3.53.03-.13.03-.21.03-.31 5.72-2.95 11.75-7.05 17.97-11.99 3.08-2.46 6.19-5.12 9.32-7.91 2.82-2.56 5.69-5.28 8.54-8.07 36.07-35.44 72.27-88.31 79.32-101.36 5.76-10.67 7.64-23.49.15-32.84z" fill="#507046"/><path d="m986.48 564.79c-5.25 18.96-11.52 37.64-19.67 55.68-13.89 30.72-37.98 62.94-51.87 95.2-6.01 5.9-12.01 11.31-17.86 15.98-3.84-3.37-6.48-9.3-4.52-15.23 11.78-35.65 35.57-64.67 52.16-97.94 13.06-26.2 21.1-54.46 27.79-82.95 5.27 11.19 10.18 21.35 13.97 29.26z" fill="#799967"/><path d="m941.76 1328c-.03-.4-.06-.79-.1-1.18 1.06-.56 1.68-1.64 1.62-3.28-7.23-186.4-24.51-285.06-32.1-316.36-7.91-32.62-1.55-65.92-8.98-98.36-.74-3.23-4.25-3.43-6.25-1.8-2.24 1.83-4.9 3.06-7.8 2.93-81.84-3.68-164.31 11.35-245.28 22.57-1.91.26-3.76-.28-5.52-1.07-2.17-.98-5.15-.13-5.5 2.58-.84.11-1.68.23-2.52.34-4.01.53-4.8 5.82-2.27 7.42 1.78 2.68 3.76 5.67 5.54 8.35.53 12 .72 24.01-.25 35.99-1.47 18.17-26.87 94.83-41.49 151.72-13.79 53.66-20.18 131.62-23.97 186.88-.4 5.82 3.77 11.01 9.55 11.85 34.02 4.89 352.87.55 365.32-8.58z" fill="#f7ead7"/><path d="m908.62 862.72-4.86-53.52c-.26-2.87-.18-5.8.23-8.65.44-3.29.89-6.56 1.31-9.85 2.66-21.16 4.15-42.18 1.57-63.47-.13-1.17-.29-2.35-.47-3.5-.97-7.29-2.32-14.47-3.89-21.57 2.04-20.11 3.32-40.3 2.77-60.57-.39-14.08-1.12-29.23-3.68-43.64-.42-2.46-.91-4.88-1.46-7.29-.84-3.55-2.98-12.04-5.9-20.55-3.87-11.26-9.09-22.51-14.31-22.36-.99.03-1.91.42-2.82.84-2.64 1.15-5.82 2.46-9.45 3.87-8.18 3.24-18.52 7.05-29.28 10.97-6.95 2.53-14.08 5.12-20.89 7.57-19.46 7.05-36.59 13.29-40.85 15.64-4.02 2.19-5.64 5.38-6.48 9.19-.44 2.04-.68 4.26-.91 6.61-2.43 7.21-8.02 11.52-14.97 13.87-13.95 4.78-33.38 1.83-43.57-.84-1.75-.44-3.5-.94-5.22-1.49-8.2-2.46-16.19-5.67-24.11-9.14-5.35-2.35-10.66-4.81-15.96-7.29-.24-1.31-4.26-1.65-10.03-1.44-3.42.13-7.47.47-11.7.91h-.21c-7.18.76-14.91 1.8-21.08 2.72-6.11.89-10.71 1.67-11.75 1.88-27.35 5.69-50.72 17.58-60.99 45.13-14.73 39.46-8.83 89.06 5.48 127.77 2.4 6.48 4.81 12.98 7.21 19.46 13.61 36.57 19.9 72.37 32.83 107.61 2.9 7.86 6.11 15.7 9.82 23.51 7.94 18.26 15.8 37.3 34.27 43.51 17.03 5.77 36.28 5.51 54.48 3.29.97.08 1.91.16 2.87.21 7.63.47 15.23-.08 22.8-1.23 14.99-2.3 29.91-6.97 44.82-10.87 8.07-2.12 16.14-3.32 24.19-3.97 7.16-.63 14.31-.78 21.47-.81 16.14-.03 32.31.73 48.55-.71 3.03-.26 6.06-.6 9.09-1.04 4.44-.65 8.96-1.57 13.32-2.87 15.72-4.75 29.59-14.6 31.45-35.36 1.51-17.01-2.15-35.55-3.69-52.53z" fill="#507046"/><path d="m809.89 955.26c-7.16.03-14.31.18-21.47.81 8.96-47.48 5.06-101.31 4.49-149.86-.97-82.59-16.49-132.85-38.66-189.89 6.95-2.35 12.54-6.66 14.97-13.87.23-2.35.47-4.57.91-6.61.13.34.23.72.37 1.07 29.32 76.45 46.96 127.67 46.96 209.29 0 48.09.74 101.73-7.57 149.06z" fill="#799967"/><path d="m632.33 862.33c-4.59-14.61-29.73-4.06-38.74-1.03-17.32 5.83-38.16 3.56-53.76 13.5-1.22-1.45-4.44-.9-4.76 1.68-3.48 28.4-5.19 57-5.47 85.59-.28 27.41 4.38 55.98 33.1 57.97 19.57 1.36 48.33-16.72 57.16-34.36 8.79-17.56 8.61-38.19 9.64-57.32l1.91-35.45c.47-8.97 3.63-21.97.92-30.58z" fill="#ff9e63"/><path d="m675.33 884.11c-6.63 3.26-13.53 6.01-20.61 8.25-.21.08-.42.13-.63.21-6.71 2.12-13.56 3.81-20.48 5.12-12.67 2.4-25.62 3.6-38.45 3.92-3.45.08-6.87.1-10.29.08-4.7-.05-9.43-.18-14.16-.47-6.97-.37-13.95-.99-20.89-1.91-5.85-.76-11.65-1.72-17.42-2.9-5.12-1.04-8.75-5.62-8.65-10.81 1.28-56.23 5.56-112.36 13.03-168.12 3.81-28.31 4.41-66.6 23.48-89.82.21-.26.42-.52.65-.76 8.62-10.19 19.69-17.21 32.96-21.86 8.78-3.11 18.52-5.2 29.17-6.48 6.48-.78 13.27-1.28 20.4-1.51h.18c.86 0 2.32 1.83 4.13 4.78 5.8 9.53 14.76 30.98 15.67 41.97 1.78 20.95-.55 41.97-1.88 62.87-2.69 42.83 7.47 83.47 11.54 125.84 1.68 16.89 2.93 34.41 2.25 51.6z" fill="#507046"/><path d="m1010 140.47c-6.82-6.43-18.39-11.85-27.49-10.44-.95.15-1.73-.7-1.52-1.64 3.33-14.72 6.62-32.5 8.67-47.12.77-5.51-.08-11.84-2.8-16.74-2.05-3.68-9.13-11.63-13.39-6.35-.79.99-1.02 2.3-1.22 3.55-1.86 11.73-4.11 23.35-6.97 34.89-2.73 11.01-3.26 23.52-8.61 33.69-.23.44-.46.75-.96.82-.86-1.64-.37-4.49-.35-6.35.04-3.25.12-6.49.2-9.74.13-4.84.24-9.69.47-14.53.36-7.34.86-15.33.39-22.94-.3-4.82-2.13-17.83-8.79-18.33-9.62-.72-10.09 11.74-10.55 18.37-1.53 21.74-4.1 43.47-6.38 65.15-1.08 12.72-4.03 27.97-1.3 40.65 5.19 24.1 14.5 50.5 21.48 74.48.64 2.2 69.52 27.17 70.63 29.1-2.11-13.6-10.47-56.66-13.4-71.29-.53-2.65-.38-5.38.44-7.95 2.32-7.34 3.07-14.08 5.03-22.01 1.93-7.75 8.59-33.81-3.58-45.27z" fill="#ff9e63"/><path d="m877.44 649.29c12.41 22.54 21.17 46.68 26.13 71.92.34 1.74 3.01 1.01 2.67-.74-5.01-25.47-13.89-49.84-26.41-72.58-.87-1.56-3.25-.16-2.39 1.4z" fill="#2d0a0a"/><path d="m828.82 776.66c-13.3 34.9-29.15 68.73-47.41 101.3-.87 1.55 1.52 2.95 2.39 1.4 18.38-32.78 34.3-66.84 47.69-101.96.63-1.66-2.04-2.38-2.67-.74z" fill="#2d0a0a"/><path d="m792.31 950.86c14.08-3.58 27.63-8.55 40.69-14.89 1.6-.78.2-3.16-1.4-2.39-12.85 6.24-26.18 11.1-40.03 14.61-1.71.45-.98 3.11.74 2.67z" fill="#2d0a0a"/><path d="m737.86 913.23c-5.67 19.42-11.2 38.81-18.44 57.67-7.57 1.15-15.17 1.7-22.8 1.23 8.02-20.32 15.23-40.93 20.5-62.14 8.96-35.96 15.1-71.42 9.36-107.99-5.67-36.15-8.16-65.55-14.98-101.49-5.62-29.8-21.44-66.64-30.13-95.66 7.91 3.47 15.91 6.69 24.11 9.14 13.54 24.17 22.17 51.96 27.6 79.07 7.25 36.31 25.22 150.14 4.78 220.17z" fill="#799967"/><path d="m882.6 875.31c-2.09-20.71-4.86-41.45-4.68-62.32.21-20.76 2.9-41.29.89-62.06-.1-1.15-.23-2.3-.37-3.45-3.46-32.74-10.98-65.28-17.75-97.63-.41-.16-10.56-54.43-10.21-54.79-1.82-8.16-4.18-16.18-7.56-23.4-1.33-2.9-2.85-5.64-4.57-8.23-6.95 2.53-14.08 5.12-20.89 7.57 6.76 7.08 9.48 17.37 11.68 27.24 3.81 17.11 6.82 34.4 10.19 51.58 7.13 36.33 17.47 73.6 19.3 110.66.86 17.53-1.41 35-1.59 52.5-.18 18.36 1.96 36.62 3.89 54.85 3.06 28.78 5.8 58.95-2.48 86.71 3.03-.26 6.06-.6 9.09-1.04 4.44-.65 8.96-1.57 13.32-2.87 5.3-24.42 4.3-50.04 1.74-75.32z" fill="#799967"/><path d="m945.05 473.56c-12.75 25.62-26.01 51.01-39.8 76.11-3.68 6.74-7.23 13.69-11.02 20.45-3.11 5.59-6.4 11.05-10.03 16.22-3.56 5.05-7.86 9.14-12.59 12.68-1.65 1.23-3.93 28.93 4.83 24.95 5.15-2.34 13.72-12.45 17.89-16.94 2.64-2.85 5.04-5.88 7.26-9.06 6.4-9.09 11.47-19.25 16.79-28.83 12.9-23.22 25.33-46.67 37.35-70.36-3.86-8.74-7.52-17.31-10.68-25.22z" fill="#799967"/><path d="m663.31 755.14c4.81 28.99 8.44 58.16 10.76 87.45.54 6.79 1.01 13.58 1.41 20.38.36 6.07 3.14 18.25-1.57 23.25-4.46 4.72-13.16 7-19.17 8.76-6.82 2-13.8 3.02-20.89 3.33-1.77.08-1.78 2.84 0 2.76 13.26-.59 27.56-3.59 38.99-10.67 3.82-2.37 5.76-5.44 6.13-9.93.64-7.92-.64-16.38-1.16-24.3-2.24-34.1-6.24-68.06-11.84-101.76-.29-1.76-2.95-1.02-2.66.73z" fill="#2d0a0a"/><path d="m720.06 896.04c-18.28 18.94-60.51 37.27-107.08 47.12-23.61 4.99-75.88 61.17-73.77 64.4 6.81 10.47 16.52 13.78 27.2 17.12 12.75 3.99 90.48-3.11 142.77-37.69 38.31-25.33 61.39-42.09 70.53-58.2 11.28-19.89-45.22-47.7-59.65-32.75z" fill="#ff9e63"/><path d="m778.56 823.93c-1.96-6.91-4.07-13.79-6.94-20.2-2.69-6.01-7.42-12.19-14.5-12.86-7.46-.71-15.74 5.21-20.93 10-3.97 3.67-5.69 7.5-6.06 11.91-.18 2.17-1.2 4.19-2.99 5.44-9.06 6.28-18.1 13.55-20.1 24.28-1.56 8.36.09 17.38.73 25.76.92 12.18 7.72 33.45-1.38 39-.64 1.08-.23 10.57 1.04 11.54 16.58 12.64 50.64 33.48 52.57 31.84 19.51-16.56 42.17-45.12 49.7-70.83 7.81-26.71-12.18-40.99-31.14-55.88z" fill="#ff9e63"/><path d="m891.69 971.48c-24.5 13.08-53.6 14.98-80.75 17.57-28.04 2.67-56.19 4-84.35 4.09-1.78.01-1.78 2.77 0 2.76 29.95-.1 59.89-1.59 89.69-4.61 26.02-2.64 53.35-4.9 76.81-17.42 1.56-.84.17-3.23-1.4-2.39z" fill="#2d0a0a"/><path d="m870.94 1005.9c16.72 62.38 28.51 125.97 35.23 190.2.18 1.75 2.95 1.77 2.76 0-6.74-64.47-18.54-128.32-35.32-190.93-.46-1.73-3.13-1-2.67.73z" fill="#2d0a0a"/><path d="m622.56 939.26c-20.07 2.11-39.12 8.43-56.42 18.82-1.52.91-.14 3.31 1.4 2.39 16.87-10.13 35.45-16.39 55.02-18.45 1.75-.18 1.77-2.94 0-2.76z" fill="#a5422f"/><path d="m730.27 819.78c-5.38 7.75-2.74 17.95 5.68 22.15 1.59.79 2.99-1.59 1.4-2.39-7.16-3.57-9.25-11.79-4.69-18.37 1.02-1.46-1.38-2.84-2.39-1.39z" fill="#a5422f"/><path d="m910.27 518.54c-13.15 16.77-26.98 32.97-41.47 48.6-1.21 1.3.74 3.26 1.95 1.95 14.49-15.62 28.32-31.83 41.47-48.59 1.09-1.39-.85-3.36-1.95-1.96z" fill="#2d0a0a"/><path d="m984.18 559.71c2.27 7.29 7.5 13.19 14.56 16.17 1.62.68 3.03-1.7 1.4-2.39-6.4-2.71-11.21-7.86-13.28-14.52-.54-1.69-3.21-.96-2.68.74z" fill="#2d0a0a"/><path d="m805.99 1014.5c1.93 89.25 3.86 178.5 5.8 267.76.04 1.78 2.8 1.78 2.76 0-1.93-89.25-3.87-178.5-5.8-267.76-.04-1.77-2.8-1.78-2.76 0z" fill="#2d0a0a"/><path d="m790.92 415.74c-3.72-2.76-9.13-4.23-13.02-.66-2.87 2.64-3.4 7.86-1.37 11.18 2.1 3.44 5.75 2.74 8.96 2.75 2.64 0 6.7 2.04 8.95-.29 3.89-4.02-.49-10.74-3.52-12.98z" fill="#ffe1b5"/><path d="m735.79 406.25c-5.5-.41-11.45.63-16.28 3.49-3.7 2.19-11.59 9.01-6.15 13.25 3.21 2.51 9.16-.06 12.61-.32 6.16-.46 11.98 1.79 17.97 1.61 3.06-.09 5.64-1.71 6.36-4.68 1.95-7.98-7.93-12.86-14.51-13.35z" fill="#ffe1b5"/><path d="m795.39 439.82c.12-2.43-4.63-5.42-6.35-5.49-3.28-.13-6.49 2.37-8.64 4.41-1.91 1.81.54 4.03 2.46 3.88 2.29-.18 4.41-1.26 6.69-1.48 1.47-.14 3.62 1.18 4.95.17.6-.44.86-.95.89-1.49z" fill="#260505"/><path d="m686.45 1037.4c-15.3 49.03-24.72 99.66-28.1 150.91-.12 1.78 2.65 1.77 2.76 0 3.37-51 12.77-101.38 28-150.17.53-1.71-2.13-2.43-2.66-.74z" fill="#2d0a0a"/><path d="m742.96 363.54c-1.56-1.53-3.64-2.59-6.33-2.98-26.69-3.84-52.29-4.02-76.2 10.42-18.08 10.91-29.92 27.42-35.21 48.17-9.26 36.34-3.03 73.13-6.45 106.8-.59 5.82 14.91 13.36 19.68 17.87 12.16 11.5 11.35-22.06 17.18-31.63 9.68-15.89 10.53-35.48 20.73-51.1 10.32-15.81 26.76-24.92 41.4-36.1 10.64-8.12 20.71-18.48 25.88-31.02 3.23-7.86 6.2-23.7-.68-30.43z" fill="#ffe1b5"/><path d="m693.7 379.21c-19.02 18.77-27.72 45.59-23.53 71.96.28 1.75 2.94 1.01 2.67-.73-4.04-25.38 4.55-51.24 22.82-69.27 1.27-1.26-.69-3.21-1.96-1.96z" fill="#cca976"/><path d="m654.85 409.47c-3.48 15.32-.6 30.84 8.25 43.83 1 1.46 3.39.08 2.39-1.4-8.42-12.37-11.28-27.11-7.97-41.7.39-1.72-2.27-2.46-2.67-.73z" fill="#cca976"/><path d="m683.65 465.81c-.28-1.46-.64-2.91-1.14-4.32-3.45-9.76-16.92-27.85-30.45-20.8-14.69 7.65-5.17 27.77 1.41 37.38 4.61 6.74 16.47 25.13 26.98 15.2 7.29-6.88 5.11-15.17 3.82-23.68-.18-1.26-.38-2.53-.62-3.78z" fill="#ff9e63"/><path d="m796.64 412.31c-3.36-13.26-10.19-25.58-20.73-34.46-9.05-7.63-20.83-12.93-32.84-12.72-12.15.21-4.42 16.76-3.02 17.05 14.2 2.92 45.67 22.78 54.23 34.7 8.62 12.02 2.64 39.07 3.01 37.92 4.18-12.96 2.65-29.46-.65-42.49z" fill="#ffe1b5"/><path d="m658.8 456.58c4.37-2.35 8.29 3.73 10.66 6.45 2.56 2.93 5.02 5.94 7.44 8.99 1.1 1.4 3.05-.57 1.95-1.95-3.72-4.7-7.48-9.76-11.87-13.87-2.75-2.57-6.08-3.88-9.58-2-1.56.83-.17 3.22 1.4 2.38z" fill="#a5422f"/><path d="m769.86 433.6c4.96 2.8 9.93 6.06 8.52 12.56-.92 4.23-3.44 7.85-6.54 10.77-1.3 1.22.66 3.17 1.95 1.95 4.08-3.84 7.73-9.43 7.66-15.26-.08-6.14-5.33-9.65-10.2-12.41-1.55-.87-2.94 1.52-1.39 2.39z" fill="#a5422f"/><path d="m768.24 447.76c-5.35-.36-10.27 2.12-13.34 6.47-1.03 1.46 1.37 2.84 2.39 1.4 2.52-3.58 6.62-5.4 10.95-5.1 1.78.11 1.77-2.65 0-2.77z" fill="#a5422f"/><path d="m783.52 472.26c-.05-.85-.85-1.22-1.56-1.14-.05-.01-.09-.03-.14-.04-7.11-.43-14.23-.86-21.34-1.29-6.61-.4-13.63-1.42-20.25-.87-12.5 1.03-5.88 12.88-2.33 18.77 5.6 9.3 15.15 13.34 27.52 12.65 17.62-.96 18.8-15.24 18.1-28.08z" fill="#ad4d37"/><path d="m758.31 481.76c3.94.32 8.76.8 12.57-.42 5.24-1.67 6.17-6 5.21-10.6-5.2-.31-10.41-.63-15.61-.94-6.61-.4-13.63-1.42-20.25-.87-4.66.39-6.66 2.28-7.15 4.8 7.36 5.67 15.97 7.28 25.23 8.03z" fill="#fff"/><path d="m744.38 438.19c.05-1.25-.67-2.86-1.17-3.71-1.56-2.66-4.2-4.31-6.91-5.21-6.06-2-13.17-1.26-18.91 1.54-.53.26-1.06.54-1.45 1.01-1.01 1.21-.21 2.74 1.05 3.19 3.06 1.1 7.98 1.18 11.15 1.36 2.95.17 5.93.38 8.8 1.19 1.8.5 4.15 2.67 6.06 2.31.98-.2 1.34-.86 1.38-1.68z" fill="#260505"/><path d="m696.87 509.44c4.23 7.42 8.19 18.27 16.1 22.64 8.64 4.77 20.3 6.29 29.88 8.16 1.74.34 2.48-2.32.74-2.67-8.55-1.67-17.39-3.43-25.59-6.41-9.83-3.57-13.87-14.58-18.74-23.12-.88-1.54-3.27-.15-2.39 1.4z" fill="#a5422f"/><path d="m791.72 526.57c6.74 11.59 10.66 24.06 11.72 37.43.14 1.76 2.91 1.78 2.76 0-1.09-13.82-5.13-26.83-12.09-38.82-.89-1.54-3.29-.15-2.39 1.39z" fill="#cca976"/><path d="m659.98 495.27c.56 14.42 1.09 28.91-.33 43.3-1.38 14.03-4.23 35.75-16.83 44.4-1.46 1-.08 3.4 1.4 2.39 11.81-8.11 15.26-25.9 17.25-39.11 2.54-16.87 1.94-33.99 1.27-50.98-.06-1.77-2.83-1.78-2.76 0z" fill="#cca976"/><path d="m936.69 178.65c7.69-8.9 14.54-18.41 20.43-28.6 2.25-3.89 5.95-13.43 10.23-15.23 9.83-4.12 9.81 9.97 8.84 16.09-.86 5.45-2.59 10.79-4.61 15.92-1.71 4.36-4.93 9.3-3.98 14.24.81 4.23 4.37 7.44 6.24 11.18 3.49 6.99 4.09 14.74 2.41 22.3-.38 1.73 2.28 2.47 2.67.73 1.33-5.98 1.43-12.05-.21-18-2.2-7.95-10.03-14.3-7.26-22.94 3.69-11.51 11.26-24.3 6.78-36.77-1.07-2.99-3.83-7.53-7.47-7.76-3.4-.22-6.58 4.17-8.33 6.41-4.54 5.79-7.64 12.61-11.55 18.82-4.81 7.63-10.25 14.82-16.14 21.64-1.16 1.35.79 3.31 1.95 1.97z" fill="#a5422f"/><path d="m997.61 142.89c1.38 7.81-1.26 15.11-5.43 21.64-1.83 2.87-4 6.16-7.04 7.92-4.64 2.69-9.2.82-13.59-1.07-1.62-.7-3.03 1.69-1.4 2.39 8.83 3.8 15.74 3.72 21.91-4.23 6.07-7.83 9.98-17.43 8.21-27.38-.3-1.76-2.97-1.02-2.66.73z" fill="#a5422f"/><path d="m987.02 172.6c2.23 11.77 18.33 7.69 25.67 4.24 1.61-.76.21-3.14-1.4-2.39-5.74 2.7-19.79 7.02-21.61-2.59-.33-1.74-2.99-1-2.66.74z" fill="#a5422f"/><path d="m1017.4 243.99c-.31-2.58-.5-5.18-.85-7.76-.41-3.01-.42-4.5-3.7-5.44-25.2-7.18-49.07 1.01-71.62 11.68-1.45 2.65-1.85 4.25-1.22 7.16.62 2.87.28 9 3.72 10.21 1.25.44 2.65.32 3.91-.09 5.08-1.64 9.9-4.5 14.95-6.36 5.46-2.02 11.07-3.72 16.78-4.96 11.11-2.41 23-3.17 34.04-.02.61.18 1.19.29 1.73.35 1.52.17 2.82-1.06 2.58-2.5-.11-.76-.23-1.51-.32-2.27z" fill="#3b140c"/><path d="m857.56 208.46c-9.95 37.49-19.81 74.95-31.92 111.81-.56 1.69 2.11 2.42 2.67.73 12.11-36.86 21.97-74.32 31.92-111.81.45-1.72-2.21-2.45-2.67-.73z" fill="#2d0a0a"/><path d="m873.06 268.6c-6.81 19.45-14.51 38.55-23.11 57.28-.74 1.61 1.65 3.01 2.39 1.4 8.69-18.95 16.49-38.26 23.38-57.94.6-1.69-2.07-2.41-2.66-.74z" fill="#2d0a0a"/><path d="m654.72 892.36c.13 1.31.23 2.64.34 3.94-6.71 2.12-14.34 3.37-21.44 1.38-4.7-59.08-11.49-117.92-19.67-176.61-3.71-26.72-7.13-53.7-3.55-80.63 1.75-13.03 4.88-28.39 11.99-40.69.21-.42.44-.81.68-1.2 6.48-.78 13.27-1.28 20.4-1.51h.18c4.26-.44 8.31-.78 11.73-.91-.84 1.41-2.19 2.66-4.13 3.6-1.23.6-2.38 1.31-3.47 2.09-17.32 12.38-18.2 46.18-18.05 64.64.21 26.38 4.96 52.5 8.49 78.54 6.42 47.75 12.53 99.18 16.5 147.36z" fill="#799967"/><path d="m593.89 605.04c-13.63 19.67-17.94 43.98-19.41 67.78-1.72 28.34-1.7 56.86-2.22 85.22-.89 47.72-1.38 95.46-1.54 143.18-6.97-.37-13.95-.99-20.89-1.91.16-52.21.78-104.39 1.83-156.6.76-37.14-1.88-79.22 9.27-115.81 8.62-10.19 19.7-17.21 32.96-21.86z" fill="#799967"/><path d="m707.65 904.25c.92 19.11 5.96 39.63 16.98 55.57 3.46 5.01 8.44 9.75 14.91 9.63 5.41-.1 10.11-3.21 11.27-8.6.38-1.73-2.29-2.48-2.67-.73-2.29 10.58-14.72 6.22-19.53.47-4.13-4.94-6.95-11.25-9.44-17.14-5.28-12.47-8.11-25.68-8.76-39.2-.08-1.77-2.85-1.78-2.76 0z" fill="#2d0a0a"/><path d="m707.83 905.81c7.27 16.25 16.54 31.78 28.02 45.43 4.22 5.01 17.26 19.24 18.85 4.82.19-1.77-2.57-1.75-2.76 0-.76 6.9-10.12-2.41-10.99-3.27-1.67-1.66-3.15-3.5-4.62-5.34-3.65-4.56-7.1-9.29-10.32-14.16-6.07-9.17-11.29-18.84-15.78-28.88-.73-1.61-3.12-.21-2.4 1.4z" fill="#2d0a0a"/><path d="m1562.4 161.28c-3.15 33.28-8.54 66.27-16.11 98.83-.4 1.73 2.26 2.47 2.67.74 7.63-32.8 13.03-66.04 16.21-99.56.17-1.78-2.6-1.77-2.77-.01z" fill="#2d0a0a"/><path d="m1591.8 205.21c-5.14 22.33-13.2 43.72-24.12 63.87-.85 1.56 1.54 2.96 2.39 1.4 11.03-20.35 19.21-41.97 24.4-64.53.4-1.74-2.27-2.48-2.67-.74z" fill="#2d0a0a"/><path d="m581.07 135.45c.02-.21.04-.43.06-.64 3.9-25.37-16.66-35.61-34.46-48.9-.51-.38-1.03-.59-1.54-.67-1.81-4.59-4.22-9.16-8.01-11.39-11.99-7.04-26.47 13.11-32.92 20.69-.2.23-.36.47-.48.7-.65 1.23-1.53 2.31-2.78 2.94-12.33 6.2-23.69 13.05-24.8 28.53-1.89 26.57-2.27 53.35-3.4 79.96-.11 2.7 2.24 4.04 4.28 3.79.41.07.84.08 1.33-.01 16.34-3.13 31.49 2.39 45.04 11.46 4.26 2.85 11.63 11.72 17.61 8.36 6.39-3.59 4.58-18.83 5.09-24.56.38-4.28.76-8.57 1.14-12.85.24-2.76 2.36-5.03 5.11-5.35 9.34-1.08 18.71-4.19 22.75-12.06 3.39-6.61 3.88-15.52 4.75-22.76.69-5.72 1.07-11.47 1.23-17.24z" fill="#ff9e63"/><path d="m301.72 1111.6c-4.32-3.92-12.13 1.77-16.11 3.73-6.98 3.44-13.7 7.32-20.25 11.51.43-2.47.82-4.94 1.29-7.4.31-1.64-2.2-2.35-2.52-.69-.63 3.33-1.18 6.68-1.74 10.03-.4.26-.81.51-1.2.78-1.16.77-.44 2.45.64 2.45-3.1-.02-5.59 58.21-5.69 63.74-.2 10.66-.2 21.4.51 32.04.46 6.96-.57 7.44 5.96 6.47 7.23-1.07 14.79-4.05 21.38-7.2 5.46-2.62 7.88-7.18 8.95-13 3.43-18.48 4.24-37.8 6.26-56.49 1.07-9.89 2.14-19.77 3.21-29.66.44-4.05 3.11-12.86-.69-16.31z" fill="#cac9cf"/><path d="m571.41 232.92c.31-1.47.01-3.07-1.3-4.49-9.9-10.75-37.65-34.93-51.38-40.16-17.26-6.58-30.22-8.64-47.78-1.66-.14.05.13-.06 0 0-2.62.12-11.6 221.49-12 334.88-.4 1.3 5.1 2.01 5.97 3.36.09.59.16 1.18.25 1.77.46 2.98 2.83 4.04 5.22 3.72 21.76 19.18 52.9 23.16 77.8 37.82 3.56 2.1 8.2-.62 8.22-4.51.34-115.26 15.69-212.45 15.96-327.71.01-1.24-.36-2.24-.96-3.02z" fill="#f7ead7"/><path d="m571.21 521.68c-.06-.43-.16-.86-.38-1.3-22.23-45.93-65.97-84.78-117.5-94.05-8.17-1.47-30.13 215.27-32.47 232.3-.26 1.92.44 4.44 2.74 4.82 23.95 3.93 47.98 7.33 72.09 10.1 15.69 1.8 32.37 3.88 45.4-5.86-.32 1.41-.61 2.82-.93 4.23-1.12 4.91 21.35-21.58 21.88-26.6 5.62-52.68 9.4-68.04 9.38-121.96 0-.64-.03-1.2-.21-1.68z" fill="#7e90e0"/><path d="m456.99 494.73c-4.98-16.58-1.02-34.57-12.02-49.21-8.94-11.89-23.07-18.2-37.42-20.61-32.01-5.39-69.79 1.51-94.09 24.06-15.36 14.26-25.95 35.63-21.81 56.66 2.92 14.8 9.28 28.62 16.89 41.56 6.91 11.74 16.43 22.37 21.94 34.82 6.83 15.44 15.5 29.84 25.78 43.27 2.79 3.65 8.78.61 7.29-3.03 36.31-35.62 42.83-97.18 91.02-120.96 1.57-.77 2.1-2.09 1.96-3.39.59-.81.85-1.89.46-3.17z" fill="#873c25"/><path d="m456.49 690.81c-.14-1.42-.88-2.42-1.84-3.03.67-2.19-.5-5.33-3.53-5.68-23.48-2.77-22.8-77.12-23.48-90.71-.14-2.72-.34-4.76-2.26-5.62-17.77-29.09-52.79-73.58-90.94-66.21-1.71.33-2.56 1.45-2.76 2.73-1.28.81-2.12 2.27-1.65 4.17 7.62 30.6 22.32 121.95 16.66 134.99-6.13 14.12-19.2 26.44-29.82 37.31-3.53 3.61 2.01 9.15 5.54 5.54.63-.64 1.27-1.3 1.9-1.95 32.76 10.98 60.6 38.34 96.6 38.77 31 .36 38.12-23.75 35.58-50.31z" fill="#ff9e63"/><path d="m151.52 248.4c-7.28-17.33-23.11-47.26-20.07-54.83 5.39-13.41 6.63-26.62 6.04-41.18.06-.16.09-.34.08-.56-.06-.77-.14-1.55-.21-2.32-.02-.4-.03-.78-.05-1.18-.08-1.25-.23-2.46-.43-3.66-1.34-11.88-3.81-24-8.57-34.82-3.78-8.59-11.15-8.18-18.82-6.64-1.83.37-3.74-.18-5.08-1.48-8.89-8.56-16.76-16.3-30.75-15.34-16.48 1.14-35.53 20.58-44.9 31.67-10.66 12.61-17.75 29.5-12.73 45.51 3.85 12.28 13.94 20.71 25.09 27.61 1.79 1.11 3.19 2.66 4 4.5 12.18 27.91 24.75 55.68 37.73 83.28.89 1.89.67 3.99 0 5.97-.9 2.65 2.53 6.28 6.34 4.77 20.54-8.11 45.35-21.45 60.66-36.42.38-.38.64-.77.83-1.18 1.03-.83 1.52-2.09.84-3.7z" fill="#ff9e63"/><path d="m472.27 560.52c-.58-10.65-2.47-21.19-4.39-30.41-5.86-28.02-9.53-52.42-30.75-73.93-20.85-21.14-55.27-26.19-84.3-17.78-12.38 3.59-23.95 10.21-31.76 19.91-14.24 17.69-9.26 39.01-1.78 58.57 7.02 18.36 15.33 36.38 25.58 53.39 8.15 13.53 17.49 30.92 33.17 37.43 20.57 8.53 58.19 11.55 77.87-.11 15.33-9.09 17.34-29.26 16.36-47.07z" fill="#ff9e63"/><path d="m643 1317.5c-11-83.75-19.55-176.78-48.47-249.61-1.79-19.23-3.63-38.45-5.56-57.66-.32-3.16-3.43-4.32-5.54-3.46-.47-.12-.99-.15-1.54-.06-50.32 8.12-100.64 16.25-150.96 24.37l-73.04 11.79c-20.84 3.37-41.81 6.16-60.51 16.93-1.35-1.22-3.71-1.1-5.17.27-1.24 1.17-.79 9.81-.96 11.75-.4 4.63-.82 9.27-1.26 13.9-.83 8.91-1.71 17.82-2.53 26.74-1.64 17.79-3.08 35.61-3.58 53.48-.86 30.84-10.12 172.01 1.05 172.44 28.71 1.11 194.68 1.88 198.36-.99 31.07 2.64 122.65 2.55 155.74 1.99 6.44-.12 4.85-15.16 3.97-21.88z" fill="#562217"/><path d="m503.29 1240c-3.11 29.95-6.96 59.82-11.57 89.58-.27 1.74 2.39 2.49 2.67.74 4.65-30 8.54-60.11 11.67-90.31.17-1.78-2.59-1.76-2.77-.01z" fill="#2d0a0a"/><path d="m637.99 1215.9c-3.75-32.41-10.23-64.48-19.5-95.76-3.06-10.32-5.56-26.58-13-34.88-8.31-9.27-26.4-10.94-37.86-12.66-31.64-4.76-64.34-2.6-96.2-1.97-37.44.74-76.06-.28-113.24 4.47-24.6 3.14-50.7 14.74-58.13 39.57-2.26-.48-4.81.71-4.54 3.64 1.35 15.07 3.04 30.1 5.14 45.09 1.14 8.13 2.4 16.24 3.77 24.34 1.26 7.4 1.56 17.86 5.2 24.56 4.64 8.55 14.78 5.48 22.84 5.47 17.82-.03 35.34 3.72 52.69 7.36 67.26 14.08 135.78 24.99 204.71 21.05 12.37-.71 29.01.11 40.66-4.76 11.06-4.65 8.6-15.67 7.46-25.52z" fill="#cac9cf"/><path d="m467.27 659.02c6.61 13.17-8.74 34.05-50.66 39.29-20.88 2.61-54.75-20.12-67.98-36.21-.37-.69-.85-1.25-1.4-1.69-1.91-2.24-4.4-2-6.2-.59-1.82.88-3 2.68-2.33 5.07.07.88.39 1.77.98 2.62 18.52 46.41 37.48 97.61 90.38 113.76 58.75 17.91 34.2-128.25 37.21-122.25z" fill="#f7ead7"/><path d="m632.09 1146.5c7.17-177.91-50.84-383.95-72.38-521.83 2.78-23-.51-37.13 1.24-60.23.26-3.37-3.7-4.3-6.09-2.83-.76-.09-1.58.05-2.42.54-23.93 13.95-47.88 27.86-71.78 41.84-17.94 10.5-35.46 21.46-46.77 38.62-1.3 1.98-.32 3.87 1.33 4.81 18.66 48.26 11.18 87.39-9.84 124.13-.55.96-.59 1.89-.34 2.71-2-.05-3.94 1.11-3.75 3.51 5.41 68.52 10.81 137.05 16.22 205.57-.05-.09-.11-.17-.17-.26-2.52-4.07 34.09 116.99 37.52 120.46 20.94 21.16 69.4 98.81 71.39 98.45 39.93-7.15 87.1-54.72 85.84-55.49z" fill="#7e90e0"/><path d="m295.41 552.87c-20.75-58.69-50.33-113.46-77.64-169.24-14.2-29-50.57-120.28-57.13-135.66-3.14-7.35-14.51-41.52-23.85-41.13-14.29.6-39.1 30.92-49.62 39.6-10.72 8.85-20.01 20.75-23.6 34.4-4.46 16.97 5.23 35.39 10.48 51.14.07.22.2.39.34.53 16.51 52.21 105.01 268.45 132.68 330.57.21.47.5.76.82.98-2.13 2.26 1.4 5.69 3.83 3.51 34.69-31.11 58.12-71.38 80.65-111.62 1.75.34 3.8-.93 3.04-3.08z" fill="#f7ead7"/><path d="m233.3 1151.5c1.48 4.68 3.94 9.03 8.4 11.58 13.72 7.85 136.56 52.49 225.95 42.81 14.82-1.61 12.32-129.41 11.11-146.84-3-43.03-5.98-86.06-9.24-129.08-4.2-55.35-30.78-164.23-31-164.51 1.29-1.58 1.45-4.13-.81-5.59-21.91-14.14-35.18-36.29-49.23-56.82-15.51-22.66-31.03-45.33-46.54-67.99-2.13-3.12-6.78-1.5-7.33 1.28-36.38-4.21-70.86 6.03-104.79 17.39-1.07-3.74-14.12 2.48-14.01 6.86 2.13 81.57-15.27 387.41 17.49 490.91z" fill="#7e90e0"/><path d="m353.21 665.95c-13.08-36.94-25.7-74.08-40.35-110.43-22.23-55.18-39.5-103.79-49-98.48-3.52 1.97-7.04 3.94-10.47 6.06-23.03 14.24-36.03 37.35-52.22 58.61-19.31 25.34-51 74-41.26 108.5 21.54 76.23 56.2 177.86 89.34 277.78.36 2.07 5.44-88.81 8.07-89.46 27.04-6.66 41.66-33.6 54.45-56.03 16.81-29.49 30.34-60.67 40.88-92.92.04-.11.04-.21.07-.31.69-.83.98-1.96.49-3.32z" fill="#7e90e0"/><path d="m430.22 630.73c-1.7-.18-1.13 2.75-.75 4.89 7.74 43.53 14 76.17 14.49 85.14.18 3.36.83 7.24 3.96 6.62 7.12-1.41 27.14 2.87 34.07-8.61 5.04-8.35-51.07-88.46-51.77-88.04z" fill="#562217"/><path d="m410.35 734.09c-18.67-26.66-48.21-68.14-62.95-97.16-1.04-2.04-3.42-1.44-4.38.08-.64.01-1.25.43-1.21 1.25.91 18.24 2.86 36.41 5.95 54.43 2.36 13.77 4.47 27.74 9.24 40.93.71 1.97 2.21 8.41 4.02 9.5 2.26 1.35 4.95-1.39 7.37-2.53 6.45-3.05 13.11-4.44 20.15-5.21 1.15-.13 22.54-.24 21.81-1.29z" fill="#562217"/><path d="m436.73 777.72c15.95 13.24 15.29 37.91 17.29 56.78 2.33 22.01 4.57 44.04 6.74 66.07 4.38 44.6 8.45 89.23 12.07 133.89 2 24.62 3.85 49.26 5.51 73.91.12 1.77 2.88 1.78 2.76 0-6.22-92.23-14.83-184.32-24.57-276.24-2.02-19.03-1.79-43.03-17.85-56.36-1.36-1.13-3.33.81-1.95 1.95z" fill="#2d0a0a"/><path d="m315.27 605.4c10.83 53.03 20.84 106.23 30.04 159.57.3 1.75 2.97 1.01 2.67-.73-9.19-53.34-19.21-106.53-30.04-159.57-.36-1.75-3.02-1.01-2.67.73z" fill="#2d0a0a"/><path d="m487.03 587.41c-9.85 19.67-19.69 39.34-29.54 59.02-.79 1.59 1.59 2.99 2.39 1.4 9.85-19.67 19.69-39.34 29.54-59.02.79-1.59-1.59-2.99-2.39-1.4z" fill="#2d0a0a"/><path d="m550.57 589.49c.55 42.66 1.09 85.32 1.64 127.97.02 1.78 2.79 1.78 2.76 0-.55-42.66-1.09-85.32-1.64-127.97-.01-1.78-2.78-1.78-2.76 0z" fill="#2d0a0a"/><path d="m176.15 349.98c13.89 12.68 26.97 26.17 39.2 40.45 1.16 1.35 3.11-.61 1.96-1.95-12.24-14.28-25.31-27.77-39.21-40.45-1.31-1.2-3.27.75-1.95 1.95z" fill="#2d0a0a"/><path d="m490.91 318.54c-4.19 19.93-6.96 40.07-8.32 60.38-.12 1.78 2.65 1.77 2.76 0 1.34-20.07 4.08-39.96 8.22-59.65.37-1.73-2.29-2.47-2.66-.73z" fill="#2d0a0a"/><path d="m594.04 784.91c-5.92-5.46-16.12-4.02-23.43-3.86-14.13.3-28.38.67-42.46 1.84-7.41.31-19.83 1.24-22.13 10.09-.47 1.82-.15 3.74.17 5.59 3.71 21.35 7.42 42.71 11.1 64.07 2.06 11.92 1.46 31.84 12.82 39.66 6.01 4.14 13.54 2.9 20.41 2.45 10.07-.66 20.15-1.35 30.22-2.1 10.11-.76 31.19-1.13 30.91-13.17-1.07-46.28-9.14-96.77-17.61-104.57z" fill="#562217"/><path d="m373.78 430.66c-16.01 2.15-32.8 5.85-46.2 15.1-13.06 9.02-19.75 21.62-22.59 37.06-5.43 29.59-7.76 64.16 20.9 80.13 4.8 2.67 15.16 3.38 20.15-.26 4.42-3.23 5.69-9.67 6.06-14.76 1.21-16.56.21-30.24-1.02-46.56-1.57-20.96 17.97-35.95 35.51-42.95 14.21-5.67 42.05-9.98 54.11 2.53.25.26 8.22 9.74 9.86 12.78 2.79 5.21.15-10.56-2.46-15.67-.05-.1-.11-.21-.16-.31-6.73-13.08-18.9-21.74-32.94-25.58-13.36-3.65-27.6-3.34-41.22-1.51z" fill="#873c25"/><path d="m357.71 554.24c-4.59-12.18-15.48-27.07-29.47-29.06-7.69-1.1-13.31 4.82-13.03 12.39.44 11.93 9.46 23.1 18.42 30.21 6.75 5.36 17.43 9.96 22.44.12 1.39-2.73 1.78-5.48 1.51-8.2.75-1.49.93-3.33.13-5.46z" fill="#ff9e63"/><path d="m437.2 511.96c4.16 1.7 7.11 5.62 7.08 10.21-.03 4.07-2.47 7.61-4.71 10.81-1.02 1.46 1.37 2.84 2.39 1.4 3.13-4.46 6.05-9.5 4.76-15.16-1.07-4.72-4.4-8.12-8.79-9.92-1.64-.68-2.36 2-.73 2.66z" fill="#a5422f"/><path d="m435.87 527.2c-3.82-.56-7.5.56-10.24 3.32-1.25 1.26.7 3.22 1.95 1.96 1.99-2 4.72-3.03 7.55-2.61 1.74.25 2.49-2.41.74-2.67z" fill="#a5422f"/><path d="m453.75 547.05c-.03-1.81-1.58-2.74-2.98-2.71-.44-.21-.94-.34-1.55-.22-14 2.73-28.07 4.91-42.24 6.55-2.26.26-2.52 2.68-1.44 4.11.03.47.16.96.54 1.42 8.51 10.58 15.36 17.94 30.17 16.99 16.94-1.1 17.77-12.19 17.5-26.14z" fill="#ad4d37"/><path d="m449.55 544.11c-.11.01-.21-.02-.33.01-14 2.73-28.07 4.91-42.24 6.55-2.13.25-2.47 2.39-1.6 3.83 13.47 3.41 45.19 8.38 44.17-10.39z" fill="#fff"/><path d="m397.44 499.39c-3.37-1.93-7.76-.76-9.92 3.19-2.64 4.84-1.89 15.59 4.81 18.02 5.23 1.9 8.89-2.49 9.53-6.4s.48-9.15-2.01-12.61c-.69-.95-1.51-1.68-2.41-2.2z" fill="#260505"/><path d="m454.01 494.45c-2.56-1.97-5.95-.84-7.66 3.09-2.09 4.81-1.67 15.57 3.44 18.07 3.99 1.96 6.86-2.4 7.41-6.3s.5-9.14-1.37-12.63c-.52-.96-1.14-1.71-1.82-2.23z" fill="#260505"/><path d="m403.09 479.66c-6.5-5.4-15.28-4.63-22.43-.89-4.39 2.3-16 10.65-14.54 16.54.64 2.57 5.31 4.75 7.8 3.83 5.11-1.87 10.28-3.48 15.61-4.68 3.88-.87 8.28-.91 11.96-2.4 5.82-2.36 6.17-8.6 1.6-12.4z" fill="#873c25"/><path d="m455.85 482.87c-.74-4.4-2.7-8.82-6.63-11.24-3.6-2.22-10.98-3.69-13.87.38-.95 1.34-1.31 3.04-1.28 4.68.05 2.84.72 6.03 2.53 8.3 4.02 5.04 9.97 0 15.02 1.07 2.36.49 4.74-.16 4.23-3.19z" fill="#873c25"/><path d="m367 581.27c8.06 23.79 31.97 34.62 55.73 34.78 1.78.01 1.78-2.75 0-2.76-22.45-.16-45.4-10.16-53.06-32.75-.57-1.68-3.24-.96-2.67.73z" fill="#a5422f"/><path d="m325.28 543.08c9.1-4.96 17.67 5.5 22.8 11.69 1.14 1.37 3.08-.59 1.95-1.95-6.12-7.39-15.65-17.85-26.15-12.13-1.56.85-.16 3.24 1.4 2.39z" fill="#a5422f"/><path d="m313.71 483.25c-.44 12.08 1.86 23.63 6.78 34.66.72 1.62 3.11.22 2.39-1.4-4.72-10.57-6.83-21.69-6.4-33.26.06-1.78-2.71-1.78-2.77 0z" fill="#2d0a0a"/><g fill="#a5422f"><path d="m102.96 105.95c-8.11 2.07-16.89 3.43-24.74 6.31-3.58 1.31-4.73 3.13-4.66 7.06.18 10.08 8.97 16.45 18.34 16.64 3 .06 6.01-.32 9.01-.11 7.83.55 11.81 7.74 8.13 14.83-3.48 6.69-11.05 10.24-16.54 15.07-9.25 8.14-15.44 19.74-11.66 32.14.52 1.7 3.19.97 2.67-.73-4.98-16.33 7.97-27.1 19.37-35.97 6.24-4.85 13.18-12.7 9.56-21.25-4.01-9.48-15.44-5.84-23.31-6.95-4.66-.66-8.64-3.11-10.97-7.28-.9-1.6-2.11-4.49-1.84-6.38.44-3.06 2.84-4.07 5.11-5.02 6.81-2.85 15.09-3.85 22.27-5.68 1.72-.45.99-3.12-.74-2.68z"/><path d="m59.71 103.03c.07 15.14 4.13 30.27 12.59 42.94 8.88 13.31 19.75-.33 26.99-8.51 1.18-1.33-.77-3.29-1.95-1.95-3.26 3.69-7.18 8.92-11.51 11.4-8.62 4.94-13.27-5.14-16.19-11.31-4.84-10.22-7.1-21.3-7.16-32.57-.02-1.78-2.78-1.78-2.77 0z"/><path d="m37.92 117.87c1 9.06 2.97 17.93 6.27 26.45 2.59 6.7 5.66 14.54 10.86 19.67 11.12 10.96 22.52-3 27.44-12.52.82-1.58-1.57-2.98-2.39-1.4-2.62 5.06-5.5 10.92-10.86 13.6-8.99 4.49-14.36-3.44-17.99-10.41-5.77-11.05-9.2-23.03-10.57-35.39-.19-1.75-2.96-1.77-2.76 0z"/><path d="m24.53 141.74c1.54 12.67 6.43 29.07 16.64 37.66 9.18 7.72 19.03-4.71 23.3-12.02.9-1.54-1.49-2.93-2.39-1.4-2.26 3.87-5 8.01-8.8 10.53-8.36 5.55-12.42-.88-16.33-7.07-5.32-8.4-8.46-17.86-9.65-27.7-.22-1.74-2.99-1.76-2.77 0z"/><path d="m49.28 181.28c.42 2.16-.1 4.4-1.48 6.12-1.1 1.38.84 3.34 1.95 1.96 2.04-2.55 2.82-5.59 2.19-8.81-.33-1.75-3-1.01-2.66.73z"/><path d="m515.67 100.15c3.26 4.08 6.98 7.64 11.36 10.51 3.1 2.02 17.22 6.25 10.4 13.01-7.97 7.9-22.21-4.72-28.78 5.2-3.73 5.63.13 11 4.79 14.43 11.22 8.24 23.86 16.8 21.21 32.87-.29 1.74 2.38 2.49 2.67.74 1.66-10.01-2.31-19.17-9.42-26.2-3.71-3.67-8.03-6.26-12.26-9.25-3.48-2.46-3.4-2.47-3.67-7.39-1.79-4.38-.41-6.13 4.15-5.24 1.88-.73 3.75-.85 5.59-.35 2.77.16 5.28.75 8.13.43 5.27-.59 16.15-4.47 13.22-11.95-1.5-3.82-6.7-4.46-9.92-6.01-6.16-2.95-11.28-7.45-15.52-12.75-1.11-1.4-3.05.57-1.95 1.95z"/><path d="m543.92 88.93c.47 6.46 4.79 24.98-4.56 26.45-1.75.28-1.01 2.94.73 2.67 12.13-1.91 7.16-21.27 6.59-29.11-.13-1.77-2.89-1.79-2.76-.01z"/><path d="m532.03 127.02c-2.28 2.64-4.4 6.18-8.04 7-3.7.84-7.44-.94-9.34-4.13-.91-1.53-3.3-.14-2.39 1.4 2.15 3.59 5.95 5.76 10.16 5.69 5.42-.09 8.32-4.25 11.56-8 1.16-1.35-.78-3.31-1.95-1.96z"/><path d="m561.97 106.03c8.85 9-4.05 21.24-9.52 28.12-3.57 4.49-6.37 8.91-12.96 8.26-5.28-.52-10.54-4.8-14.08-8.4-1.25-1.27-3.2.68-1.95 1.95 4.24 4.32 9.71 8.31 15.82 9.38 7.43 1.3 10.97-4 15.13-9.24 6.6-8.31 19.87-21.51 9.52-32.03-1.26-1.26-3.21.69-1.96 1.96z"/><path d="m543.92 146.87c4.23 4.59 5.84 10.73 13.34 9.79 7.47-.93 14.47-7.11 20-11.79 1.36-1.15-.6-3.1-1.95-1.95-4.04 3.42-8.5 6.98-13.32 9.29-4.45 2.14-9.95 1.39-12.76-2.75-1.11-1.63-2.02-3.11-3.35-4.55-1.21-1.3-3.16.66-1.96 1.96z"/><path d="m552.62 158.71c-3.31 6.89.33 15.43 7.66 17.7 1.7.53 2.43-2.14.74-2.67-5.53-1.71-8.54-8.38-6.01-13.64.76-1.59-1.62-3-2.39-1.39z"/></g><path d="m231.64 860.19c13.58 59.71 32.64 118.02 56.89 174.25.7 1.63 3.09.22 2.39-1.4-24.15-56-43.08-114.12-56.61-173.59-.4-1.73-3.06-1-2.67.74z" fill="#2d0a0a"/><path d="m221.26 747.58c1.58 24.68 4.73 49.18 9.44 73.46.34 1.75 3 1.01 2.67-.73-4.66-24.03-7.77-48.29-9.34-72.72-.12-1.78-2.89-1.79-2.77-.01z" fill="#2d0a0a"/><path d="m275.26 238.99c8.3 37.24 16.6 74.47 24.9 111.71.39 1.74 3.05 1 2.67-.73-8.3-37.24-16.6-74.47-24.9-111.71-.39-1.74-3.05-1-2.67.73z" fill="#2d0a0a"/><path d="m322.53 270c2.06 24.98 4.12 49.96 6.18 74.94.15 1.76 2.91 1.78 2.76 0-2.06-24.98-4.12-49.96-6.18-74.94-.14-1.76-2.9-1.77-2.76 0z" fill="#2d0a0a"/></g></svg>