<svg height="1496.4" viewBox="0 0 3083.9 1496.4" width="3083.9" xmlns="http://www.w3.org/2000/svg"><g transform="translate(-399.58 -248.36)"><path d="m3373.4 1038.5c-1.78-19.42-.51-63.64-27.85-68.08-26.07-4.23-26.81 38.91-20.64 84.28-4.31-4.75-8.74-9.39-13.48-13.73-4.96-4.54-11.67-12.01-18.29-14.03-13.09-3.99-15.78 11.01-16.37 20.3-1.95 30.27 30.68 41.5 55.2 48.29 5.41 26.47 11.32 48.47 13.29 55.09.41 1.38 1.14 2.4 2.02 3.15-1.54 3.39-.61 7.96 4.03 9.18 5.6 1.47 10.98 1.12 16.28-.56.17 4.02.37 8.04.54 12.05.37 8.53 13.67 8.57 13.3 0-1.95-45.34-3.89-90.72-8.03-135.94z" fill="#4d967d"/><path d="m3443.9 1045.8c-3.14-18.69-21.66-25.89-33.44-7.99-8.45 12.83-8.56 30.91-10.38 45.62-2.77 22.46-11.66 40.16-17.89 61.35-.08.26-.1.51-.14.76-1.47 1.41-2.16 3.51-1.17 6.1 9.38 24.48 30.42.3 38.52-11.56 17.91-26.25 29.9-62.17 24.5-94.28z" fill="#4d967d"/><path d="m3430.3 1322.7h-99.74c-2.05 0-3.72-1.66-3.72-3.72v-172.91c0-2.05 1.66-3.71 3.72-3.71h99.74c2.05 0 3.72 1.66 3.72 3.71v172.91c-.01 2.06-1.67 3.72-3.72 3.72z" fill="#e8c4ba"/><path d="m491.09 758.96c-1.91-4.26-3.99-8.47-6.3-12.55-11.09-19.51-35.7-50.15-60.71-43.68h-.04c-1.37.36-2.7.84-4.08 1.46-2.53 1.02-5.06 2.53-7.54 4.43-9.05 7.05-11.88 19.42-12.51 30.86-1.64 29.31 2.84 59.11 14.37 86.16 8.65 20.4 26.39 56.45 52.46 58 3.95.22 7.85-.58 11.44-2.17 1.37-.62 2.66-1.33 3.95-2.13 3.9-2.48 7.32-5.81 9.93-9.62 5.72-8.29 8.16-18.4 9.58-28.38 3.91-27.7.67-56.66-10.55-82.38z" fill="#4d967d"/><path d="m502.89 1028.7c-1.6-16.5-6.34-32.64-13.84-47.45-4.57-9.09-10.2-17.65-16.76-25.5-12.99-15.48-29.76-17.29-42.35-8.96-1.24.8-2.39 1.69-3.55 2.71-5.5 4.79-9.89 11.75-12.37 20.49-9.31 32.73 17.56 68.47 43.5 85.23 11.13 7.18 26.52 11.88 36.85 3.68l.04-.04c1.24-.98 2.31-2.08 3.24-3.28 5.55-7.1 6.17-17.56 5.24-26.88z" fill="#4d967d"/><path d="m591.23 816.3c-3.64-2.97-7.32-4.57-11.04-5.06-1.46-.22-2.97-.27-4.43-.13-15.96 1.33-31.26 20.66-37.38 33.52-10.91 22.88-11.97 50.6-1.73 73.88 6.56 15.03 18.54 23.64 30.69 24.12 1.46.04 2.97 0 4.43-.18 9.49-1.15 18.71-7.49 25.01-19.87 13.78-26.81 20.65-84.55-5.55-106.28z" fill="#4d967d"/><path d="m728.43 704.33c-5.77-12.82-14.94-22.66-25.63-28.91-7.41-4.3-15.57-6.56-23.68-7.01-1.55-.13-3.06-.13-4.61-.04h-.04c-15.52.49-30.69 7.67-40.62 20.62-9.05 11.75-14.5 25.94-18.18 40.35-5.23 20.58-6.83 43.37 3.19 62.08 4.39 8.2 11.09 14.99 18.98 19.82 1.29.84 2.66 1.6 4.04 2.26 14.32 7.45 31.75 9 46.7 2.79 17.65-7.32 30.42-23.5 38-41.06 9.61-22.34 11.83-48.68 1.85-70.9z" fill="#4d967d"/><path d="m531.67 1135.4-4.26 1.33c-.09-.35-9.27-29.4-33.04-77.83-3.24-6.61-6.74-13.57-10.55-20.84-19.38-37.16-42.39-69.22-57.43-88.56 1.15-1.02 2.31-1.91 3.55-2.71 15.12 19.51 38.27 51.8 57.78 89.22 3.55 6.83 6.87 13.35 9.93 19.56 24.49 49.58 33.89 79.52 34.02 79.83z" fill="#30775f"/><path d="m563.38 1165.9-4.43.4c-.04-.58-5.63-60.31-14.37-102.57-6.12-29.71-27.54-83.59-46.43-131.13-7.27-18.45-14.23-35.96-19.96-51.09-.75-2.08-1.51-4.12-2.26-6.12-9.22-25.01-22.97-68.29-35.12-106.47-7.45-23.5-15.08-47.45-20.84-64.7 1.38-.62 2.71-1.11 4.08-1.46h.04c5.23 15.57 12.28 37.56 20.93 64.79 12.15 38.14 25.9 81.37 35.08 106.34.67 1.77 1.33 3.59 2.04 5.5 5.72 15.21 12.73 32.95 20.13 51.57 18.98 47.72 40.44 101.77 46.65 131.84 8.78 42.57 14.41 102.48 14.46 103.1z" fill="#30775f"/><path d="m571.49 971.69c.75 68.25-.05 173.52-.05 174.54h-4.43c0-1.06.8-106.29.04-174.5-.09-9.05 0-18.85.27-29.09 1.24-46.56 5.76-101.73 8.43-131.53 1.46-.13 2.97-.09 4.43.13-2.66 29.62-7.18 84.7-8.43 131.22-.26 10.29-.35 20.14-.26 29.23z" fill="#30775f"/><path d="m679.12 668.41c-10.07 31.66-26.12 86.34-37.25 145.1-1.64 8.69-3.19 17.47-4.61 26.3-16.05 101.37-34.9 294.54-35.08 296.49l-4.43-.44c.18-1.95 19.07-195.25 35.17-296.76 1.46-9.36 3.1-18.62 4.92-27.85 10.95-57.65 26.56-111.17 36.63-142.88h.04c1.55-.09 3.05-.09 4.61.04z" fill="#30775f"/><path d="m3241.8 1249.7h-454.4c-2.62 0-4.75-2.13-4.75-4.75v-363.88c0-2.62 2.13-4.75 4.75-4.75h454.4c2.62 0 4.75 2.13 4.75 4.75v363.88c0 2.62-2.13 4.75-4.75 4.75z" fill="#faefeb"/><path d="m3217 1226.8h-429.67c-2.62 0-4.75-2.13-4.75-4.75v-318.13c0-2.62 2.13-4.75 4.75-4.75h429.67c2.62 0 4.75 2.13 4.75 4.75v318.12c0 2.63-2.12 4.76-4.75 4.76z" fill="#fff"/><path d="m2565.3 1249.7h454.4c2.62 0 4.75-2.13 4.75-4.75v-363.88c0-2.62-2.13-4.75-4.75-4.75h-454.4c-2.62 0-4.75 2.13-4.75 4.75v363.88c0 2.62 2.13 4.75 4.75 4.75z" fill="#faefeb"/><path d="m2590 1226.8h429.67c2.62 0 4.75-2.13 4.75-4.75v-318.13c0-2.62-2.13-4.75-4.75-4.75h-429.67c-2.62 0-4.75 2.13-4.75 4.75v318.12c0 2.63 2.12 4.76 4.75 4.76z" fill="#fff"/><path d="m436.99 1322h1210.6v37.71h-1210.6z" fill="#e8c4ba"/><path d="m436.99 1359.7h14.41v385.05h-14.41z" fill="#41414f"/><path d="m1633.1 1359.7h14.41v385.05h-14.41z" fill="#41414f"/><path d="m1909.2 1322h1574.2v37.71h-1574.2z" fill="#e8c4ba"/><path d="m3469.1 1359.7h14.41v385.05h-14.41z" fill="#41414f"/><path d="m778.54 1165v37.25c0 66.12-53.61 119.73-119.73 119.73h-53.3c-66.12 0-119.73-53.61-119.73-119.73v-37.25c0-7.72.75-15.3 2.17-22.62 1.06-5.85 2.62-11.53 4.61-17.03 3.28-9.49 7.72-18.4 13.21-26.61h252.77c12.64 18.98 20 41.78 20 66.26z" fill="#f0ded8"/><path d="m667.59 1125.3v17.03h-179.64c1.06-5.85 2.62-11.53 4.61-17.03z" fill="#fff"/><path d="m3342.4 1589.4 17.6 155.3h9.9l-17.7-156z" fill="#e8c4ba"/><path d="m3248.2 1589.4 17.6 155.3h9.9l-17.7-156z" fill="#cc988b"/><path d="m3024.3 1588.6-20.2 156.1h9.9l20.1-155.1z" fill="#cc988b"/><path d="m3118.5 1588.6-20.2 156.1h9.9l20.1-155.1z" fill="#e8c4ba"/><path d="m3405.1 1186h-223.61c-24 0-44.44 17.42-48.25 41.11l-34.09 219.07c-3.57 22.19-21.81 39.09-44.21 40.95l-41.07 3.4c-36.88 3.06-67.72 29.27-76.67 65.17-5.33 21.38 10.33 42.26 32.35 43.07 95.85 3.54 324.4 10.91 383.56 3.23 54.24-7.04 63.06-24.14 70.07-60 4.99-25.55 24.78-226.02 30.65-303.46 2.14-28.35-20.29-52.54-48.73-52.54z" fill="#f0ded8"/><path d="m3410.2 1203.6h-230.59c-1.23 0-2.22-.99-2.22-2.22s.99-2.22 2.22-2.22h230.59c1.23 0 2.22.99 2.22 2.22-.01 1.22-1 2.22-2.22 2.22z" fill="#e8c4ba"/><path d="m2630.6 786.86s-5.52 10.35-4.7 12.38 28.72 12.19 30.2 11.83c1.48-.37 9.24-21.99 8.31-23.1-.92-1.11-33.81-1.11-33.81-1.11z" fill="#fff"/><path d="m2593 937.27-4.51-104.95s-52.84-7.39-53.95-7.39-31.41 34.37-31.78 36.58c-.37 2.22 20.32 27.35 33.63 35.48 13.3 8.13 56.61 40.28 56.61 40.28z" fill="#ff9169"/><path d="m2477.1 492.93c-.67-5.33-2.96-10.27-3.94-15.53-1.2-6.43-.81-12.71-.17-19.15.91-9.28 2.7-18.5 1.52-27.85-1.14-9.02-5-17.21-7.68-25.8-3.1-9.95-2.55-18.58-1.79-28.7 1.11-14.73-10.1-25.55-20.67-35.99-23.38-23.1-56.93-25.24-87.03-19.72-15.96 2.93-36.82 8.67-53.21 18.93-20.67 11.17-35.03 31.62-37.16 55.55-.28 3.2-.35 6.41-.35 9.62.71 7.88 2.42 15.57 3.43 23.42 1.91 14.84-7.87 25.11-7.89 39.37-.02 15.99 10.82 28.66 8.49 44.92-.94 6.56-1.75 7.66-.47 14.22.55 2.79 1.55 6.22 4.7 6.93 4.91 1.11 11.75-.02 16.8-.45 7.04-.6 18.23-1.69 25.16-3.14 8.91-1.87 13.69 1.07 22.24-2.21 11.24-4.31 18.23-10.61 19.66-22.88 2.27-19.47-2.8-38.45-7.65-57.1-2.46-9.45-4-18.6-4.85-27.74 17.71 6.48 34.47 13.44 43.96 32.45 9.71 19.45 11.46 45 26.6 61.56 5.85 6.4 14.74 4.08 22.8 4.2 8.92.13 17.49-.39 24.27-5.76 9.85-.26 14.38-10.01 13.23-19.15z" fill="#7a3f3a"/><path d="m2330.1 520.25 1.21 7.73 2.68 17 1.83 11.83 2.81 18.07 5.55 35.4s12.13 27.38 39 26.63c26.82-.71 54.98-37.32 54.98-37.32l-23.1-139.98z" fill="#ff9169"/><path d="m2539.9 698.08c-1.02 13.04-2.17 26.83-3.46 40.8-1.46 16.59-3.02 33.39-4.43 49.4-.84 10.11-1.69 19.87-2.35 29.14-.84 10.82-1.46 20.89-1.86 29.84-.53 11.93-.58 21.86.04 28.91 1.11 12.82.98 24.26.04 34.37-.13 1.51-.27 2.97-.44 4.39-3.15 26.92-11.53 43.64-13.66 51.49-2.93 11.09-2.93 34.01-2.93 34.01l-279.06-2.66s-1.24-23.95-3.1-59.78c-.53-10.95-1.15-23.02-1.82-35.83-1.15-22.75-2.44-47.85-3.68-73.44-.53-10.33-1.06-20.75-1.55-31.04-.93-18.54-1.82-36.9-2.62-54.37-.71-14.72-1.33-28.82-1.95-41.86-1.86-42.44-3.02-73.52-2.62-78.27.4-4.35 8.65-10.15 20.71-16.36 14.94-7.67 35.65-15.96 54.54-22.93 25.54-9.45 47.72-16.54 47.72-16.54s17.96 13.7 43.59 10.73 50.07-21.29 50.07-21.29 41.55 19.07 73.44 35.79c15.43 8.12 28.6 15.65 33.66 20.22 2.66 2.44 4.04 10.47 4.39 22.35.43 15.66-.77 37.96-2.67 62.93z" fill="#f0ded8"/><path d="m2331.3 527.99 2.68 17 1.83 11.83c7.03-3.98 14.17-9.19 18.57-14.61 9.44-11.6 18.63-32.41 19.16-33.73-.69.53-7.41 5.69-18.78 11.37-8.46 4.3-18.39 6.96-23.46 8.14z" fill="#e06234"/><path d="m2429.3 442.36c.27 28.38-13.13 36.05-25.05 50.73-11.09 13.57-12.24 13.57-33.17 28.87-10.55 7.72-23.28 12.9-36.05 15.48-10.82 2.17-24.03 3.02-33.7-3.33-4.48-2.97-7.45-7.41-8.74-12.55-1.95-7.98-2.66-16.45-3.55-24.7-.18-1.82-.4-3.64-.62-5.41-.13-1.24-.31-2.48-.44-3.73-2.57-21.24-4.57-42.57-5.28-63.99-.04-1.55-.09-3.1-.13-4.61-.09-2.26-.13-4.39-.13-6.56-.04-1.42-.09-2.79-.09-4.17-.4-20.98 0-36.01 0-36.01s23.33-28.96 59.64-22.13 86.82 37.39 87.31 92.11z" fill="#ff9169"/><path d="m2285.6 437.36-16.17 32.85c-1.67 3.4.87 7.21 5.23 7.84l26.55 3.83z" fill="#ff9169"/><path d="m2291.1 433.97c.79-1.97 2.22-3.44 4.42-3.76 2.43-.35 4.22 1.43 4.89 3.59 1.17 3.77 1.68 10.14-1.82 12.91-6.06 4.78-9.99-6.48-7.49-12.74z" fill="#292a38"/><path d="m2319.5 421.06c-.36-1.29-1.76-2.38-3.04-3.08-8.97-4.88-20.58-7.39-30.4-3.15-4.33 1.87-3.85 6.56.37 8.27 1.7.69 3.6.74 5.43.59 7.45-.64 14.42-1.26 21.85.22 1.07.21 2.17.46 3.25.31s2.17-.79 2.51-1.83c.15-.46.15-.9.03-1.33z" fill="#7a3f3a"/><path d="m2316.8 483.91s-6.34 12.59-21.24 13.39c-2.48.13-4.66-.04-6.52-.44-.18-1.82-.4-3.64-.62-5.41-.13-1.24-.31-2.48-.44-3.73 1.64-.09 3.5-.22 5.54-.4 12.42-1.06 23.28-3.41 23.28-3.41z" fill="#fff"/><path d="m2448.2 499.73c-.76-8.85-.65-17.74-.55-26.62.36-30.81-1.41-64-18.4-90.88-16.6-26.25-52.56-28.54-80.42-33.94-26.06-5.05-50.54-3.78-67.18 18.49-1.39-.27-3.16.84-2.79 2.7 3.77 18.89 35.33 22.51 50.39 25.46 6.45 1.27 12.19 1.31 16.58 6.44 2.71 3.17 4.12 7.28 7.21 10.04 5.71 5.08 13.9 3.53 20.25 6.97 13.63 7.4 2.18 24.58 5.72 36.37 1.4 4.65 4.46 8.57 6.82 12.73 4.46 7.88 6.78 14.63 7.58 23.55.48 5.28.87 9.53 2.59 14.59 1.72 5.05 2.63 12.64 5.21 17.05 2.66 4.55 7.42 3.84 11.85 2.53.52-.15.86-.45 1.11-.8 8.81-.04 29.91.29 34.74-8.54 2.36-4.3-.37-12.12-.71-16.14z" fill="#7a3f3a"/><path d="m2356.3 433.45s.41-26.28 20.86-23.3 20.01 31.89 14.51 49.88c-3.55 11.63-20.37 22.37-20.37 22.37z" fill="#ff9169"/><path d="m2374.5 431.91c-2.12-1.9-5.26 1.22-3.14 3.14 6.08 5.46 6.23 13.34 3.59 20.6-.98 2.69 3.31 3.84 4.28 1.18 3.16-8.7 2.47-18.46-4.73-24.92z" fill="#e06234"/><path d="m2223.4 613.61s-25.16 12.85-45.12 32.26c-19.96 19.42-43.24 59.79-43.24 59.79l75.76 23.22s86.47-36.33 84.99-38.87c-1.47-2.55-72.39-76.4-72.39-76.4z" fill="#f0ded8"/><path d="m2360.8 1744.7c-1.66-28.41-5.19-102.42.72-137.82 4.43-26.56 3.55-144.39 2.13-234.59 1.37 9.58 2.66 18 3.77 24.7 10.38 60.58 8.87 69.44 17.74 128.6 7.48 49.87 25.51 179.73 30.96 219.11h156.8v-10.69c0-8.87-11.84-240.97-10.38-313.39 1.51-72.42 8.87-149.31-6.61-274.94-9.45-76.72-31.44-126.6-36.76-153.79-3.41-17.34-5.41-25.5-5.41-25.5l-175.87 7.67-114.94-.4s-1.69 10.64-4.08 27.54c-4.79 33.35-21.29 95.43-24.39 143.37-4.29 65.96-10.81 521.91-11.9 600.12h178.22z" fill="#373e73"/><path d="m2360.5 1363.5c-1.15 0-2.13-.9-2.21-2.07-.06-.94-6.62-94.52-13.74-121.72-.31-1.19.4-2.4 1.58-2.71 1.18-.33 2.39.39 2.71 1.58 7.23 27.6 13.61 118.67 13.88 122.54.08 1.22-.84 2.28-2.06 2.36-.06.02-.11.02-.16.02z" fill="#1d2347"/><path d="m2519.2 991.91c-12.42 3.33-29.8 6.08-50.38 8.34-1.46.13-2.93.31-4.43.44-31.4 3.28-69.8 5.41-109.49 6.7-32.33 1.06-69.18 1.55-105.85-2.13-1.51-.13-2.97-.27-4.43-.44-8.6-.93-17.21-2.13-25.72-3.59 2.39-16.9 4.08-27.54 4.08-27.54l24.12.09h4.43l86.38.31 122.48-5.32 4.48-.22 48.91-2.13c.01-.01 2 8.15 5.42 25.49z" fill="#292a38"/><path d="m2246.8 1033.4-4.4-.4 2.2-28.2 2.5-31.03h4.5l-2.5 31.53z" fill="#373e73"/><path d="m2464.4 1000.7-4-31.94 4.5-.22 3.9 31.66 3.2 25.5-4.4.5z" fill="#373e73"/><path d="m2611.6 860.25-83.81-12.99-77.56-12.06h-.04l-15.48-2.39 8.82-35.7 13.97-56.67h.04l1.55-6.39 16.36-25.1 49.75-76.27 12.95-19.87s12.82 7.58 26.3 24.97c9.76 12.55 19.87 30.2 25.63 53.79 1.11 4.48 2.08 9.18 2.84 14.1 1.37 8.91 2.75 18.18 4.04 27.58 2.08 15.03 3.99 30.33 5.76 44.88 1.51 12.59 2.84 24.57 4.04 35.3 3.02 27.44 4.84 46.82 4.84 46.82z" fill="#f0ded8"/><path d="m2538.2 612.8c-5.05-4.57-18.23-12.11-33.66-20.22-41.55 10.02-82.7 29.18-125.54 19.73-15.65-3.41-30.38-10.07-45.28-15.7-14.32-5.37-29-9.71-43.99-12.73-18.89 6.96-39.6 15.25-54.54 22.93 3.64 1.64 7.27 3.19 10.91 4.66 36.27 14.55 74.32 25.32 113.39 28.6 41.33 3.5 80-6.65 120.84-9.89 15.08-1.2 30.02.4 44.92 2.48 5.81.8 11.57 1.64 17.34 2.48 7.32 1.06 14.59 2 21.91 2.62-13.49-17.38-26.3-24.96-26.3-24.96z" fill="#e8c4ba"/><path d="m2593 705.66c-.75-4.92-1.73-9.62-2.84-14.1-4.75.49-9.53 1.02-14.28 1.6-12.02 1.46-23.95 3.1-35.92 4.92-6.12.93-12.28 1.95-18.4 2.97-15.3 2.57-30.55 6.08-46.03 7.89-3.86.49-7.72.84-11.62 1.06-34.85 1.95-66.69-14.32-101.11-16.27-19.42-1.11-38.71 1.82-57.96 4.26-18.71 2.35-37.38 3.64-56.23 3.77-10.51.09-20.98-.09-31.49-.31-8.38-.18-16.81-.4-25.19-.49-9.4-.13-18.85-.13-28.29.09-5.19.13-11.62-.62-16.54 1.46-9.58 4.04-2.97 12.77.4 19.02 6.21 11.49 11.04 22.75 25.41 24.26 14.86 1.6 31-1.24 46.16-2.48 1.91-.18 3.81-.31 5.68-.4 18.49-.93 37.07-1.37 55.61-1.11 18.49.31 37.03 1.33 55.43 3.37 17.03 1.91 32.9 3.95 49.98 1.42 24.03-3.5 47.85-5.28 71.79-6.16h.04c18.27-.75 36.58-.98 55.12-1.15 7.94-.04 15.88-.18 23.77-.4 13.48-.31 26.96-.98 40.35-2.31 6.39-.62 13.21-2 20.18-3.33-1.27-9.4-2.64-18.67-4.02-27.58z" fill="#e8c4ba"/><path d="m2602.8 778.12c-16.23-.31-32.59 1.95-48.56 5.23-7.41 1.51-14.81 3.24-22.17 4.92-11 2.53-22 5.1-33.13 6.96-18.76 3.19-36.63 2.71-55.34 1.86-1.06-.04-2.17-.09-3.24-.13-16.98-.71-31.97 2.53-47.89 8.16-18.05 6.43-34.9 11.8-54.32 9.53-18.94-2.22-37.21-8.47-55.92-11.84-16.63-2.97-33.44-4.66-50.33-5.1-3.37-.09-6.79-.09-10.2-.04-4.92 0-9.89.18-14.81.4-4.39.22-14.41-.98-18.18 1.95-6.03 4.7-2.31 15.17 1.6 19.78 8.12 9.62 21.64 7.98 32.95 8.91.53.04 1.02.09 1.51.13 16.23 1.73 30.82 9.76 45.85 15.43 11.8 4.43 24.17 7.41 36.76 5.01 7.72-1.42 14.86-4.7 22.31-7.05 9.93-3.19 20.27-4.48 30.69-4.74 17.52-.44 34.94 1.77 52.42 1.69 12.64-.04 25.1-1.6 37.47-3.99h.04c4.48-.84 8.96-1.82 13.39-2.84 22.31-5.14 43.99-10.91 66.03-14.94 18.14-3.33 36.45-5.45 55.48-5.19 7.27.13 14.46.53 21.64 1.2-1.21-10.73-2.54-22.71-4.05-35.3z" fill="#e8c4ba"/><path d="m2541.8 912.49c-4.66-.8-9.27-1.42-13.92-1.95-5.45-.58-10.95-.98-16.41-1.24-2.17-7.18-4.35-14.41-6.52-21.64-.8-2.7-5.1-1.55-4.26 1.2 2.04 6.78 4.04 13.53 6.08 20.31-41.91-1.24-84.26 6.03-126.12 6.7-51.62.84-103.15-3.81-153.79-13.7-4.04-.75-8.07-1.6-12.06-2.44-1.24-.27-3.02.62-2.84 2.13 1.15 9.14 1.15 19.64 3.59 28.51.84 3.06.89 5.94 4.08 7.63 2.44 1.29 5.94.75 9.05 0 1.6-.35 3.1-.75 4.3-1.02 10.33-2.13 20.13-4.26 30.78-3.64 18.23 1.06 36.32 5.28 54.5 7.09 19.16 1.91 38.4 2.88 57.65 3.28 38 .8 76.05-.58 114.01-1.6 6.52-.18 18.89 1.73 24.79-.93 2.88-1.24 3.59-2.04 4.17-5.06 1.11-5.54-3.86-14.99-5.41-20.09-.22-.75-.44-1.55-.67-2.31 4.88.27 9.76.66 14.63 1.2 4.39.49 8.78 1.11 13.17 1.86 2.8.5 4-3.81 1.2-4.29z" fill="#e8c4ba"/><path d="m2416.3 763.46s1.16-32.48-10.95-54.79c-12.11-22.32-38.13-40.43-49.13-50.8s-21.39-23.23-29.55-21.21-11.23 12.13-4.32 24.94 23.12 32.27 23.12 32.27-16.47-5.27-25.48-10.33c-6.81-3.83-47.04-26.18-58.19-27.24-11.15-1.07-13.38 7.93-13.09 11.12.28 3.19 3.06 8.81 3.06 8.81s-10.89-2.12-17.36 3.69c-6.48 5.81-1.17 17.54 4.18 23.5 5.36 5.95 12.05 11.03 12.05 11.03s-10.95 10.94-.36 22.08 38.19 25.4 63.75 37.5 64.38 20.68 64.38 20.68z" fill="#ff9169"/><path d="m2404.5 731.01s97.66 86.22 125.34 110.33c27.68 24.1 50.19 46.17 58.59 72.12 8.4 25.96 11.45 75.15-49.62 64.89s-94.82-67.55-126.91-115.27c-33.38-49.65-65.27-91.27-65.27-91.27z" fill="#ff9169"/><path d="m2587.3 912.52c-.83 0-1.62-.47-2-1.26-.07-.14-6.61-13.8-14.24-25.2-7.57-11.32-29.7-31.48-29.92-31.68-.91-.82-.97-2.23-.15-3.13.83-.9 2.23-.97 3.13-.15.92.84 22.75 20.73 30.62 32.49 7.81 11.68 14.49 25.62 14.55 25.76.53 1.11.06 2.43-1.05 2.96-.29.14-.62.21-.94.21z" fill="#e06234"/><path d="m2316.5 717.79c-.29 0-.59-.06-.88-.18-.16-.07-15.8-6.82-30.15-14.91-14.39-8.12-32.98-22.58-33.17-22.73-.97-.75-1.14-2.15-.38-3.11.74-.97 2.14-1.14 3.11-.38.18.14 18.52 14.41 32.62 22.36 14.14 7.97 29.56 14.63 29.72 14.7 1.12.49 1.64 1.79 1.16 2.91-.36.84-1.18 1.34-2.03 1.34z" fill="#e06234"/><path d="m2300.2 741.42c-.13 0-.26-.01-.4-.04-.35-.06-8.58-1.6-18.66-6.87-9.86-5.16-27.93-16.58-28.7-17.07-1.03-.65-1.34-2.02-.69-3.06.66-1.04 2.02-1.35 3.06-.69.19.12 18.68 11.81 28.38 16.88 9.49 4.96 17.32 6.42 17.4 6.44 1.21.22 2.01 1.37 1.78 2.58-.19 1.08-1.12 1.83-2.17 1.83z" fill="#e06234"/><path d="m2354 395.31c-5.27-7.63-11.97-13.55-20.77-16.82-13.32-4.95-31.58.18-41.07-12.76-1.67-2.28-5.52-.07-3.83 2.24 4.73 6.44 11.02 9.47 18.84 10.89 17.48 3.19 31.85 2.55 43 18.68 1.61 2.34 5.46.12 3.83-2.23z" fill="#4d221e"/><path d="m2382.9 406.71c-3.68-5.44-6.56-11.37-10.96-16.31-4.44-4.99-9.95-8.93-15.33-12.84-2.31-1.68-4.52 2.16-2.24 3.83 5.07 3.69 10.24 7.43 14.43 12.15 4.12 4.65 6.81 10.3 10.27 15.41 1.59 2.34 5.44.13 3.83-2.24z" fill="#4d221e"/><path d="m2459.6 481.98c-2.89-8.81-.18-15.27 1.76-23.75 2.7-11.77.1-22.92-3.06-34.32-.76-2.75-5.04-1.58-4.28 1.18 1.95 7.04 4.16 14.34 4.21 21.69.05 7.21-2.45 13.44-3.89 20.33-2.29 10.99 5.09 19.16 3.82 29.6-.34 2.83 4.09 2.8 4.43 0 .7-5.57-1.26-9.48-2.99-14.73z" fill="#4d221e"/><path d="m2378.5 1008.4h-62.39c-1.23 0-2.22-.99-2.22-2.22v-32.42c0-1.23.99-2.22 2.22-2.22h62.39c1.23 0 2.22.99 2.22 2.22v32.42c-.01 1.23-1 2.22-2.22 2.22zm-60.18-4.43h57.96v-27.98h-57.96z" fill="#fff"/><path d="m2531.3 624.39c1.61-2.37-2.23-4.59-3.83-2.24-15.62 23-27.16 51.91-34.8 78.55-8.02 27.97-7.32 58.44-9.19 87.29-.18 2.85 4.25 2.84 4.43 0 1.48-22.88 1.39-46.88 5.39-69.73.6-.06 1.2-.33 1.63-.94 10.98-15.17 21.96-30.34 32.95-45.52 1.68-2.32-2.17-4.53-3.83-2.24-9.68 13.37-19.36 26.74-29.03 40.11.6-2.61 1.19-5.23 1.93-7.8 7.58-26.43 18.86-54.67 34.35-77.48z" fill="#cc988b"/><path d="m2300.6 969.41c-21.47-24.67-33.17-55.61-33.48-88.3-.03-2.85-4.46-2.86-4.43 0 .33 33.91 12.53 65.87 34.78 91.44 1.87 2.15 4.99-1 3.13-3.14z" fill="#cc988b"/><path d="m2219.4 626.22c-2.08 12.97-3.79 25.98-5.1 39.06-.29 2.84 4.15 2.82 4.43 0 1.28-12.68 2.92-25.3 4.94-37.88.46-2.79-3.81-4-4.27-1.18z" fill="#cc988b"/><path d="m1797.8 807.03-28.29 96.5s-127.36 14.06-233.21-14.15c-96.41-25.68-117.2-39.33-117.2-39.33l-81.37-266.34-14.86-48.69s33.84 15.92 67.09 34.77c22.31 12.64 44.39 26.56 55.7 37.87 28.25 28.07 117.11 142.97 159.55 157.87s192.59 41.5 192.59 41.5z" fill="#f0ded8"/><path d="m1569.6 956.94-15.3-3.22-15.3-66.37 23.4-2.32 26.4-2.6 21.4-2.1 8.6 87.06-22.2-4.74z" fill="#ff9169"/><path d="m1872.3 620.95s-41.76 18.66-81.3 96.08c-21.35 41.8-65.78 110.86-67.26 115.3-1.48 4.43-34.74 1.48-47.3 17.74s-22.17 11.83-41.39 15.52c-19.22 3.7-46.24 16.85-46.24 16.85s21.93 91.31 30.02 97.83 46.53-8.26 68.7-3.08c22.17 5.17 62.82-13.39 99.78-23.33 36.95-9.93 54.69-36.28 54.69-36.28z" fill="#292a38"/><path d="m1872.3 620.95s-23.29 17-42.29 40.5c-14.8 18.31-12.41 317.22-18.32 395.56s-39.91 514.4-25.13 518.84c14.78 4.43 55.43 0 55.43 0l100.54-741.18z" fill="#292a38"/><path d="m2041.2 1583.2h-77.33l31.95-305.98s95.21 152.58 98.17 170.16c2.96 17.57-52.79 135.82-52.79 135.82z" fill="#292a38"/><path d="m1322.9 535.02s78.32 43.8 93.65 65.6 40.08 148.78 34.19 245.29c-5.9 96.51 24.28 414.73 24.28 419.89s-70.75 5.17-82.29 6.28-90-365.67-91.46-368.53 21.63-368.53 21.63-368.53z" fill="#f0ded8"/><path d="m1415.9 632.98c0 2.22-39.64 0-39.64 0s-19.2-24.48-38.54-49.27l-14.86-48.69s33.84 15.92 67.09 34.77c12.6 24.03 25.95 61.46 25.95 63.19z" fill="#d4b9b0"/><path d="m1222.9 1744.7c.33-2.69.67-5.55 1.04-8.56.18-1.42.35-2.93.53-4.43 2.44-20.18 5.63-46.47 9.22-76.18.18-1.42.35-2.88.53-4.35 3.24-27.01 6.83-56.67 10.51-87.05.13-1.51.35-3.02.53-4.48 2.39-20.27 4.88-40.8 7.32-61.02.18-1.69.4-3.37.58-5.01 3.15-26.43 6.25-52.28 9.09-76.27.18-1.46.35-2.93.53-4.39.89-7.45 1.73-14.63 2.57-21.68v-.09c3.15-26.96 5.9-50.46 7.89-68.29.18-1.55.36-3.06.49-4.48.8-6.74 1.42-12.51 1.91-17.21 1.91-17.87 1.37-42.75-.62-70.6-.09-1.42-.18-2.88-.27-4.35-2.17-27.98-5.63-58.71-9.53-88.16-.18-1.46-.4-2.93-.58-4.35-4.43-33.08-9.27-64.3-13.17-87.98-1.33-8.12-2.53-15.34-3.55-21.46-2.35-13.7-3.86-21.82-3.86-21.82l-3.06.62-127 26.47s-11.57 55.79-20.53 110.95c-.27 1.46-.49 2.93-.71 4.39-3.59 22.53-6.74 44.7-8.34 62.66-.13 1.55-.27 3.06-.4 4.52-.31 3.81-.53 7.41-.67 10.73-.49 11.31-.89 39.56-1.29 77.56 0 1.46-.04 2.97-.04 4.43-.27 27.23-.53 59.11-.75 93.26 0 1.46 0 2.93-.04 4.39-.09 20.13-.22 40.97-.35 62.08v4.48c-.18 28.82-.31 58.05-.44 86.34v4.43c-.09 23.55-.18 46.38-.27 67.85 0 1.46 0 2.93-.04 4.39-.09 36.45-.18 68.6-.31 92.72.04 1.51.04 3.02 0 4.48-.01 5.67-.02 10.81-.03 15.43h143.11z" fill="#292a38"/><path d="m1240.8 1168.5v.09.09.09c0 2.39-.04 4.79-.04 7.1-.13 14.86.84 32.86 2.57 52.55.13 1.46.27 2.93.4 4.39 2.44 26.43 6.08 55.74 10.16 84.43.22 1.51.44 2.97.66 4.48 3.5 24.43 7.27 48.29 10.78 69.44v.09c1.24 7.54 2.44 14.68 3.59 21.42.22 1.51.49 2.97.71 4.39 3.02 17.38 5.5 31.57 7.14 40.8 1.24 7.1 3.59 20 6.61 36.67.27 1.55.58 3.15.84 4.74 3.06 16.94 6.78 37.25 10.73 59.11.31 1.51.58 3.02.8 4.52h.04c4.61 25.37 9.58 52.55 14.32 78.76h.04c.27 1.51.53 2.97.8 4.48 4.92 26.96 9.62 52.64 13.48 73.92.31 1.55.58 3.06.89 4.57 1.33 7.31 2.56 14.03 3.65 20.04h148.02c-.52-6.3-1.08-13.24-1.7-20.75-.13-1.55-.27-3.1-.35-4.66-2.13-25.5-4.66-56.41-7.18-87.14-.13-1.51-.27-2.97-.35-4.48-2.53-30.64-5.01-60.8-6.96-84.92-.18-1.46-.27-2.93-.4-4.35-1.42-17.29-2.57-31.04-3.28-39.07-.13-1.77-.27-3.28-.4-4.48v-.22c-1.77-20.31-5.9-59.2-10.95-103.55-.18-1.55-.35-3.1-.53-4.66-2.62-23.19-5.45-47.72-8.34-71.75-.18-1.51-.36-2.97-.53-4.48-3.81-31.93-7.63-62.79-10.95-88.2-.18-1.55-.4-3.1-.58-4.61-3.02-22.79-5.54-40.8-7.27-50.64-2.17-12.51-4.7-29.53-7.14-47.67h-.04c-.18-1.42-.4-2.88-.58-4.35-6.39-46.96-12.42-99.47-12.42-99.47s-16.98-5.19-39.64-12.02c-1.15-.31-2.31-.67-3.5-1.02-43.5-13.13-104.88-31.4-109.13-31.48-2.08 0-3.19 12.64-3.77 32.37-.93 32.77-.31 85.23-.18 131.57.03 11.87.03 23.27-.02 33.86z" fill="#292a38"/><path d="m1065.4 1206.2c6.16 2.08 12.37 4.08 18.58 5.94 18.94 5.63 38.14 10.11 57.56 13.48-4.08 31.26-6.34 62.62-7.58 94.06-3.19-1.02-6.43-2.39-9.84-4.12-7.05-3.59-13.84-7.49-21.37-10.11-6.74-2.35-13.66-3.9-20.71-5.01 0 1.46-.04 2.97-.04 4.43 9.13 1.51 18.05 3.81 26.47 7.58 9.14 4.08 16.94 8.69 25.28 11.57-.98 26.7-1.29 53.44-1.33 80.18-.09-.04-.22-.04-.31-.04-16.94-2-33.92-4.04-50.86-6.03 0 1.46 0 2.93-.04 4.39 15.52 1.86 31.04 3.68 46.56 5.54 1.55.18 3.1.4 4.66.58-.04 15.08 0 30.2.04 45.32 0 5.28.04 10.55.09 15.83-17.29-1.64-34.5-2.79-51.71-5.19v4.48c9.14 1.37 18.31 2.48 27.49 3.41 8.12.8 16.23 1.11 24.21 1.82.18 28.38.49 56.76.27 85.1-16.98-.53-35.52-.13-52.42-3.99v4.43c16.98 3.59 35.12 3.41 52.37 3.99-.04 4.79-.04 9.53-.13 14.32-.36 19.51-5.06 36.67-10.24 54.9-10.95-3.02-22.08-4.97-33.88-5.28-2.75-.09-5.59-.09-8.38-.09 0 1.46 0 2.93-.04 4.39 11.31.09 22.66.49 33.75 3.02 2.48.53 4.97 1.24 7.41 1.95-.27.84-.49 1.73-.75 2.62-5.23 18.54-7.32 37.74-8.91 56.89-1.06 12.24-2 24.48-2.97 36.72-3.99-.98-7.89-2.22-11.75-3.41-5.72-1.82-11.4-3.68-17.07-5.06.04 1.51.04 3.02 0 4.48 9.49 2.48 18.85 6.21 28.43 8.51-.19 2.3-.36 4.61-.55 6.92h4.49c.16-2.03.32-4.05.49-6.08 14.72 2.48 27.23-1.06 42.04-3.59 2.66-.44 5.37-.8 8.07-1.02l-.88 10.69h4.42c.3-3.65.61-7.3.9-10.95 16.32-.75 32.64 1.69 48.96 2.26 2.62.09 5.19.13 7.76.13.18-1.42.35-2.93.53-4.43-2.79 0-5.5-.04-8.29-.13-16.19-.58-32.37-2.97-48.56-2.26 1.6-19.78 3.24-39.56 4.83-59.38.4-4.7.8-9.4 1.15-14.15 9.4 2.79 19.02 4.61 29.09 4.57 10.55-.09 20.8-2.35 31-4.83.18-1.42.35-2.88.53-4.35-10.42 2.48-20.89 4.66-31.53 4.74-9.84.04-19.38-1.86-28.74-4.7 2.26-28.82 4.35-57.69 7.05-86.47 21.24.09 42.48-.13 63.72-.62.13-1.51.35-3.02.53-4.48-21.29.49-42.57.75-63.86.67 1.73-18.09 3.73-36.1 6.21-54.06.58-4.43 1.33-8.78 2.04-13.17 5.23 1.29 10.6 2.17 16.19 2.75 15.43 1.55 31.09 2.31 46.74 2.79.18-1.69.4-3.37.58-5.01-18.67-.4-37.74-.27-56.05-3.37-2.31-.4-4.52-.93-6.74-1.51 3.55-20.89 8.12-41.51 12.59-62.26.8-3.55 1.46-7.05 2.04-10.55 13.53.98 27.05 1.6 40.62 1.69 5.54.04 11.09-.04 16.63-.27.18-1.46.35-2.93.53-4.39-2.79.09-5.59.13-8.43.18-16.27.18-32.46-.44-48.65-1.6 3.19-20.62 3.99-41.11 3.68-62.26-.13-9.84 0-19.56.44-29.18 2-.04 3.99-.09 5.99-.09 12.99.18 25.9.93 38.76 1.73 6.25.4 12.46.8 18.67 1.15 16.76 1.02 33.48 1.69 50.38.93.53 3.55 1.06 7.1 1.6 10.69 3.33 23.73 5.41 47.67 5.01 71.62-20.31 3.19-40.71 5.63-61.29 6.56.22 1.51.49 2.97.71 4.39 20.27-1.02 40.4-3.33 60.44-6.43-.09 2.26-.13 4.52-.27 6.78-.67 12.9-1.91 25.85-.67 38.76 1.2 11.97 4.43 23.59 7.49 35.21.4 1.6.8 3.19 1.15 4.74-18.14-.4-36.27-.98-54.41-1.6.27 1.55.58 3.15.84 4.74 8.74.18 17.47.35 26.16.62 9.49.27 18.98.53 28.47.75 4.08 18.49 5.99 37.12 7.23 55.96-17.03 1.02-34.15 1.42-51.13 1.77.31 1.51.58 3.02.8 4.52h.04c16.85-.35 33.75-.71 50.6-1.73.22 3.95.49 7.85.66 11.84 1.2 22.26 2.79 44.48 4.61 66.74-6.83.4-13.66.89-20.49 1.2-7.01.31-14.01.53-21.02.71.27 1.51.53 2.97.8 4.48 13.7-.53 27.36-1.2 41.06-2.04.31 3.86.58 7.67.93 11.53 1.77 20.04 3.9 40.04 6.21 60.04-11.57 1.2-23.19 2.7-34.72 4.39.31 1.55.58 3.06.89 4.57 11.44-1.64 22.93-3.15 34.37-4.35.94 8.13 1.94 16.26 2.97 24.39h4.41c-1.04-8.28-2.07-16.55-3.03-24.83 19.33-1.91 38.67-2.97 57.91-2.39.66 9.08 1.33 18.15 2 27.23h4.42c-.67-9.01-1.33-18.03-1.99-27.05 16.41.71 32.68 2.62 48.91 6.3-.13-1.55-.27-3.1-.35-4.66-16.19-3.59-32.51-5.5-48.91-6.21-1.82-24.92-3.64-49.84-5.5-74.77 15.79-1.77 31.53-3.81 47.23-6.16-.13-1.51-.27-2.97-.35-4.48-15.7 2.31-31.44 4.39-47.18 6.16l-6.08-82.17c15.34-3.5 30.86-7.32 46.3-8.91-.18-1.46-.27-2.93-.4-4.35-15.48 1.69-30.95 5.41-46.21 8.82-.62-8.29-1.2-16.54-1.82-24.79-.53-7.18-1.06-14.32-1.6-21.51 3.55-.04 7.1-.04 10.64-.13 11.88-.31 23.81-.75 35.7-1.46-.13-1.77-.27-3.28-.4-4.48-15.43.84-30.82 1.37-46.25 1.64-2.44-33.08-4.88-66.16-7.32-99.24 2.57-.49 5.1-1.02 7.67-1.51 11.44-2.17 23.28-4.66 34.94-4.66-.18-1.55-.35-3.1-.53-4.66-13.92-.27-28.51 2.48-42.48 5.63-1.02-13.97-2.04-27.98-3.06-41.95-.84-11.49-1.64-22.97-2.44-34.46 13.21-1.24 26.43-1.82 39.64-.98-.18-1.51-.36-2.97-.53-4.48-13.13-.71-26.25-.09-39.42 1.11-2.17-31.04-4.3-62.08-7.23-93.04 11.93.62 23.81 2 35.7 3.72-.18-1.55-.4-3.1-.58-4.61-11.84-1.77-23.68-3.19-35.61-3.81-.84-9.05-1.77-18.05-2.79-27.09-2.39-21.02-5.41-42.04-9.4-62.84 11.13-1.51 22.22-3.06 33.35-4.57-.18-1.42-.4-2.88-.58-4.35-11.22 1.55-22.39 3.06-33.61 4.61-1.37-7.01-2.88-13.97-4.52-20.89-7.41-31.22-17.87-62.13-13.88-94.63.04-.22.04-.4-.04-.58-.18-1.64-2.26-2-3.5-1.02-.44.36-.8.89-.89 1.6-3.24 26.38 2.88 51.88 9.4 77.34 3.33 12.86 6.3 25.81 8.91 38.8-21.46 2.93-42.97 5.81-64.48 8.56-.49-10.2-1.11-20.44-2.13-30.6-2.97-30.64-8.16-61.02-13.3-91.35-.44-2.79-4.74-1.64-4.26 1.15 4.97 29.27 9.93 58.49 12.9 88.02 1.15 11.09 1.82 22.22 2.35 33.35-12.59 1.6-25.19 3.15-37.78 4.66-1.02.13-2.08.22-3.1.36-5.5.62-10.95 1.24-16.45 1.82 3.33-29.93 5.1-60.04 6.39-90.15.44-10.02.8-20.04 1.2-30.07.09-2.84-4.35-2.84-4.43 0-.09 2.88-.22 5.72-.31 8.6-1.46 36.81-3.02 73.75-7.1 110.37-.04.58-.13 1.15-.18 1.73-48.91 5.14-98.05 7.85-147.18 4.12-1.02-.04-2.08-.13-3.1-.22-2.84-.22-2.84 4.21 0 4.43.8.04 1.6.13 2.39.18 49.18 3.81 98.4 1.06 147.36-4.03-1.46 12.46-3.19 24.92-5.37 37.34-2.97 17.03-7.32 33.75-11.75 50.42-25.63-.27-51.22-2.53-76.5-6.74.62-4.61 1.29-9.27 2-13.88.44-2.79-3.81-3.99-4.26-1.15-.75 4.74-1.42 9.53-2.08 14.32-19.47-3.41-38.76-7.94-57.74-13.61-5.99-1.77-11.88-3.68-17.78-5.68-2.72-.87-3.87 3.44-1.21 4.32zm97.69 523.41c-1.82.13-3.68.31-5.5.53-10.15 1.37-19.91 5.06-30.15 5.5-4.92.22-9.71-.35-14.46-1.33.44-6.08.93-12.19 1.42-18.27 1.73-21.73 2.93-43.72 7.76-65.01.98-4.26 2.13-8.47 3.37-12.68 14.72 4.7 29.05 11.4 43.72 16.14zm6.56-79.69c-8.96-2.97-17.74-6.56-26.47-9.89-5.5-2.13-10.95-4.04-16.41-5.68 3.59-11.8 7.49-23.46 9.05-35.74 1.37-11.44 1.6-23.06 1.55-34.63 13.04.44 26.12.66 39.2.75-2.62 28.38-4.61 56.81-6.92 85.19zm15.48-157.56c-3.46 22.53-5.99 45.23-8.16 67.94-13.21-.09-26.43-.31-39.64-.75-.09-7.27-.27-14.46-.27-21.64l-.13-62.44v-.71c10.07 1.2 19.87 3.46 29 8.82 6.21 3.68 12.64 6.39 19.29 8.34-.05.18-.05.31-.09.44zm.8-4.88c-6.7-2.17-12.99-5.06-19.38-8.69-7.45-4.26-14.23-7.01-22.79-7.94-2.31-.27-4.57-.44-6.83-.67-.04-20.35-.18-40.71-.13-61.06 21.24 2.53 42.48 4.92 63.81 6.56-4.53 24-10.65 47.68-14.68 71.8zm18.84-159.68c-.31 28.03 1.46 55.74-3.37 83.46-21.55-1.6-43.1-3.99-64.61-6.56.04-17.52.18-35.03.49-52.59.18-8.91.44-17.83.75-26.78 5.37 1.42 11.09 2.04 17.56 1.29 16.81-1.95 32.73-5.28 49.4-6.25-.08 2.46-.22 4.94-.22 7.43zm213.53 340.43c1.11 14.9 2.17 29.84 3.28 44.74-19.29-.58-38.71.44-58.14 2.35-1.77-15.52-3.41-31.09-4.92-46.65-.75-8.25-1.42-16.5-2.08-24.79 19.91-1.24 39.82-2.88 59.69-5.06.7 9.81 1.46 19.61 2.17 29.41zm-2.49-33.92c-5.54.62-11.04 1.29-16.54 1.82-14.37 1.42-28.78 2.48-43.24 3.41-1.51-18.54-2.88-37.07-3.95-55.61-.44-7.67-.8-15.34-1.2-23.02 12.77-.89 25.5-2.13 38.05-4.12 6.87-1.11 13.84-2.57 20.84-4.12 2.01 27.23 4 54.41 6.04 81.64zm-6.34-86.07c-2.17.49-4.3.93-6.43 1.37-17.16 3.59-34.72 5.59-52.37 6.79-.89-15.7-2.13-31.4-5.14-46.83-.58-2.97-1.24-5.9-1.95-8.82 20.8.44 41.6.58 62.39.31 1.15 15.69 2.3 31.43 3.5 47.18zm-3.81-51.67c-21.06.31-42.17.13-63.24-.31-1.82-7.09-3.81-14.15-5.5-21.29-3.5-14.86-4.26-29.4-3.46-44.61.36-6.79.62-13.61.75-20.35 7.36-1.2 14.77-2.44 22.13-3.81 14.06-2.57 28.03-5.32 42.04-8.07 2.44 32.81 4.84 65.63 7.28 98.44zm-12.42-168.51c1.6 21.68 3.19 43.37 4.79 65.01-7.63 1.77-15.03 3.55-22.04 4.92-13.88 2.66-27.8 5.23-41.73 7.49.22-18.31-.49-36.5-2.62-54.94-1.02-9-2.31-18-3.68-26.96 4.12-.27 8.25-.58 12.37-1.02 17.29-1.91 34.68-4.66 52.06-6.43.27 4 .54 7.94.85 11.93zm-1.15-16.27c-15.88 1.6-31.75 3.99-47.63 5.85-5.72.67-11.44 1.11-17.16 1.42-4.83-31.26-10.91-62.35-14.77-93.74 10.47-1.73 20.93-3.5 31.53-5.1 13.7-2.08 27.32-2.62 40.89-2.13 2.88 31.17 4.92 62.48 7.14 93.7zm-19.96-187.49c2.44 12.46 4.61 25.01 6.39 37.65 2.39 17.12 4.3 34.28 5.99 51.48-9.49-.31-18.98-.18-28.47.8-14.81 1.51-29.45 3.99-44.03 6.47-1.2-10.16-2.17-20.35-2.75-30.6-1.06-19.02-1.37-38.14-2.22-57.16 21.72-2.79 43.41-5.67 65.09-8.64zm-135.03 65.45c1.37-6.92 2.57-14.01 3.68-20.93v-.09-.09-.09c1.46-9.36 2.71-18.67 3.77-28.07 6.87-.75 13.79-1.55 20.62-2.35.22-.04.4-.04.62-.09 12.28-1.46 24.57-3.02 36.81-4.57.62 14.59 1.02 29.22 1.64 43.81.58 14.81 1.95 29.49 3.68 44.08-11.04 1.86-22.08 3.68-33.21 4.92-4.97.58-9.89 1.06-14.9 1.37-5.5.35-11 .62-16.5.8-5.19.13-10.38.22-15.57.22 3.51-12.84 6.83-25.75 9.36-38.92zm-10.55 43.37c5.72.04 11.44-.04 17.16-.27 2.66-.04 5.32-.18 7.98-.31 7.8-.4 15.57-1.06 23.28-1.91 11.22-1.24 22.39-2.93 33.53-4.7 3.9 31.22 9.58 62.17 14.37 93.35-16.45.67-32.82.04-49.18-.84-6.56-.35-13.21-.8-19.82-1.15-11.26-.71-22.53-1.33-33.92-1.6-3.37-.09-6.65-.04-9.93.04 1.02-16.9 3.28-33.57 7.72-50.46 2.82-10.73 5.84-21.42 8.81-32.15zm-80.67-6.7c25.05 4.12 50.46 6.34 75.92 6.65-7.32 27.27-14.63 54.5-16.54 82.79-14.32.62-28.2 2.62-42.62 5.14-9.09 1.6-16.72 1.69-24.43-.13 1.24-31.56 3.55-63.14 7.67-94.45z" fill="#41414f"/><path d="m1370.2 300.65c-1.97-1.25-4.05-1.41-6.29-1.55-7.26-.47-11.86-1.21-18.24-4.99-7.22-4.28-13.69-8.42-22.45-7.98-3.79.19-7 1.42-10.52 2.64-6.14 2.13-10.32 2.2-16.68 1.68-9.61-.79-18.75 3.17-26.68 8.25-2.89 1.85-5.74 3.8-8.34 6.01-9.84-.63-20.17-1.04-28.22 5.1-3.34 2.54-5.37 5.52-6.75 9.43-1.73 4.92-2.02 9.3-4.82 13.94-1.61 2.67-3.76 5-5.45 7.62-9.66 14.99-6.42 40.2 7.97 52.01.08.69.13 1.35.21 2.04 3.35 26.58 44.88 21.51 67.83 17.6 17.97-3.06 33.03-12.66 48.35-21.96 12.08-7.34 28.64-14.11 32.5-28.82 1.05-.04 3.56-8.35 3.59-9.7.05-2.13.07-3.97.05-5.71 3.56-13.83 7.55-36.97-6.06-45.61z" fill="#f2cea2"/><path d="m1333.5 487.08-2.39 16.79-3.41 23.98-.34 2.55v.05l-4.82 34.2-.68 4.69s-10.69 25.09-35.21 24.81c-24.42-.33-53.69-33.89-53.69-33.89l4.49-30.71v-.05l2.1-14.39 10.54-72.16z" fill="#ff9169"/><path d="m1397 1015.3s-36.19 14.5-102.13 17.61c-114.23 5.37-172.28 4.04-172.28 4.04s66.25-140.04 67.09-176.89c.84-36.81-2.31-304.83-2.7-310.15-.4-5.37 40.35-20.4 40.35-20.4l12.24-14.37s51.84 27.54 58.23 28.25c6.34.67 28.91-8.34 28.91-8.34l14.19 16.76s30.15 27.41 37.29 44.03c4.35 10.16 7.89 28.6 10.64 50.64.18 1.46.35 2.93.53 4.43.44 3.73.84 7.54 1.29 11.44.13 1.46.27 2.97.4 4.43 1.82 18.8 3.15 38.98 3.95 58.27.09 1.86.18 3.77.27 5.63 1.11 27.76 1.2 53.21.31 69.4-3.81 69.68 1.42 215.22 1.42 215.22z" fill="#7a3f3a"/><path d="m1395.3 730.67-4.17 3.55c-.4.36-.93.53-1.46.53-.36 0-.71-.09-1.06-.27-5.32-2.97-31.97-18.27-33.97-26.61-1.2-5.1-2.97-27.23-4.08-42.88-.04-.13-.04-.27-.04-.44-.62-8.51-1.06-15.03-1.11-15.74-.04-.62.18-1.2.62-1.69.4-.44.98-.67 1.6-.67h37.25c.18 1.46.35 2.93.53 4.43h-35.43c.18 2.44.44 6.52.8 11.44.13 1.42.22 2.93.35 4.43 1.11 15.34 2.75 35.52 3.81 40.09 1.11 4.57 18.05 15.92 30.47 23.02l5.63-4.83c.08 1.87.17 3.78.26 5.64z" fill="#4d221e"/><path d="m1391.1 666.77h-38.36c-1.06 0-1.95-.75-2.17-1.77-.04-.13-.04-.27-.04-.44 0-1.24.98-2.22 2.22-2.22h37.96c.12 1.46.25 2.97.39 4.43z" fill="#4d221e"/><path d="m1299.5 1029.8c-.57 0-1.14-.22-1.57-.65-.86-.87-.86-2.27 0-3.14.07-.06 6.53-6.67 6.26-17.42-.68-27.83-2.7-97.75-6.91-146.48-2.91-33.73.39-88.14 3.31-136.14 1.8-29.58 3.49-57.51 3.59-77.65.25-52.41-6.81-98.59-6.88-99.06-.19-1.21.64-2.34 1.85-2.53 1.22-.19 2.34.64 2.53 1.85.07.46 7.19 46.98 6.94 99.76-.1 20.26-1.8 48.26-3.6 77.9-2.91 47.85-6.2 102.09-3.32 135.5 4.21 48.86 6.24 118.88 6.92 146.72.31 12.76-7.25 20.38-7.57 20.7-.43.42-.99.64-1.55.64z" fill="#4d221e"/><path d="m1376.5 394.56c-.03 1.37-.1 2.66-.14 4.03l-.08 3.37c-.52 20.86-1.95 44.58-5.21 63.33-.96 5.29-2.01 10.23-3.3 14.55-1.35 4.71-2.9 8.75-4.7 11.9-8.76 15.13-20.44 21.91-33.45 23.34h-.04c-12.26 1.36-25.7-2.09-38.81-7.8-9.87-4.26-18.94-10.8-26.44-19.83-6.81-8.18-12.34-18.4-16.05-30.85-.04-.09-.08-.18-.08-.27-2.84-9.46-4.64-20.18-5.11-32.24-.08-2.26-.16-4.57-.15-6.96-.02-7.09.89-13.76 2.58-19.97 5.19-19.47 17.8-34.6 32.72-45.47.14-.13.23-.22.32-.26s.18-.13.31-.17c9.82-7.13 20.58-12.38 30.84-15.74 4.11-1.41 8.12-2.47 11.99-3.23 32.22-6.35 53.42 18.28 54.54 19.63l.04.05s.53 13.75.31 32.84c.02 1.24-.01 2.53-.04 3.81l-.01.53c-.02.75.01 1.55-.01 2.3.02 1.03-.01 2.04-.03 3.11z" fill="#ff9169"/><path d="m1333.8 456.34c-.93-1.71-2.9-2.61-4.73-3.05-5.37-1.29-11.73-.69-17.1.32-5.56 1.05-17.84 3.21-22.72 6.08-3.81 2.24-6.92 7.33-3.01 12.88 3.96 5.63 6.88 3.15 10.86-.23 7-5.95 14.21-10.25 14.21-10.25s21.62 6.56 23.63 3.67c.44-.64-.78-8.75-1.14-9.42z" fill="#f2cea2"/><path d="m1365 461.07c-5.37-3.49-11.43-5.89-17.69-7.09-3.49-.66-16.81-1.18-20.36-1.08-3.01.06 2.34.45.59 3.29-.37.66-1.97 8.73-1.54 9.36 1.88 3.01 22.23-1.44 22.23-1.44s11.51 8.02 15.6 13.43c1.29 1.71 2.56 2.45 3.89 2.3 1.29-4.31 2.34-9.25 3.3-14.55-2.14-1.78-4.54-3.26-6.02-4.22z" fill="#f2cea2"/><path d="m1361.5 416.19c-.71-1.84-1.98-3.21-3.89-3.5-2.11-.32-3.64 1.35-4.19 3.36-.96 3.52-1.3 9.47 1.78 12.04 5.33 4.45 8.57-6.07 6.3-11.9z" fill="#292a38"/><path d="m1316.6 415.12c-.75-1.83-2.1-3.19-4.16-3.47-2.27-.3-3.93 1.38-4.53 3.4-1.06 3.53-1.48 9.49 1.82 12.04 5.69 4.41 9.26-6.15 6.87-11.97z" fill="#292a38"/><path d="m1376.3 351.98s-77.45-3.1-86.54-.37-13.51 16.69-17.19 33.52c-3.67 16.83-1.31 13.61-8.44 20.67-7.13 7.07-16.3 52.95-16.3 52.95s-11.19-17.85-11.23-22.17 2.53-36.25 7.6-56.69c5.08-20.44 15.74-34.46 29.12-39.87s58.34-20.48 59.77-20.98c1.43-.49 26.72 9.08 29.39 11.94s13.82 21 13.82 21z" fill="#f2cea2"/><path d="m1237.8 440.54s-14.64-22.74-13.72-50.96 4.12-44.81 37.07-60.72c32.95-15.92 71.88-9.82 71.88-9.82s-15.69 14.79-18.81 14.82-33.27 16.07-35.73 17.58c-2.47 1.51-24.19 37.08-24.19 37.08z" fill="#f2cea2"/><path d="m1344 427.82c-1.67-4.48-3.16-9.03-4.53-13.61-.79-2.61-4.92-1.6-4.13 1.04 1.72 5.73 3.64 11.39 5.82 16.96 1.2 3.07 3.48 9.98.46 13.37-1.48 1.66-5.85 2.82-7.88 3.8-2.47 1.19-.4 4.91 2.06 3.72 4.58-2.21 13.02-4.25 12.49-10.66-.28-3.54-3.09-11.41-4.29-14.62z" fill="#e06234"/><path d="m1295.7 400.24c8.35-.53 16.8 1.69 25.06.34 1.56-.26 3.16-.66 4.38-1.66 1.23-1 1.98-2.72 1.43-4.2-2.1-5.69-15.09-5.24-19.87-5.22-5.17.03-10.49.76-14.93 3.41-1.02.61-2.05 1.48-2.62 2.5-2.5 4.46 4.15 4.98 6.55 4.83z" fill="#f2cea2"/><path d="m1376.5 394.56c-.03 1.37-.1 2.66-.14 4.03l-.08 3.37c-6.29.03-12.69.77-18.86-.52-1.54-.35-3.13-.82-4.3-1.87s-1.84-2.83-1.23-4.28c2.34-5.57 15.3-4.53 20.08-4.28 1.5.08 3.05.2 4.55.46.03 1.01 0 2.02-.02 3.09z" fill="#f2cea2"/><path d="m1272.5 385.12s8.78 55 12.31 69.11 15.75 20.88 23.15 25.45c10.94 6.76 23.95 4.7 33.52 6.03s28.01-12.76 28.01-12.76-4.26 34.17-8.85 41.45c-4.6 7.28-21.02 13.87-34.79 13.61-26.52-.51-40.2-9.92-45-18.2s-11.8-37.18-11.91-48.4c-.11-11.23-1.37-60.98-1.37-60.98l-3.11-19.02z" fill="#f2cea2"/><path d="m1348.3 464.08s-2.11 10.19-15.95 10.33c-16.45.16-21.04-12.32-21.04-12.32s1.43.11 4.29.34c3.49.26 9.13.71 17.09 1.3 6.61.48 11.61.48 14.01.41 1.06-.01 1.6-.06 1.6-.06z" fill="#fff"/><path d="m1315.1 436.81h-.34c-8.86-.2-15.9-8.16-15.68-17.73s7.68-17.09 16.47-17c8.86.2 15.9 8.16 15.68 17.73-.22 9.45-7.42 17-16.13 17zm.11-31.64c-7.03 0-12.85 6.21-13.02 13.97-.18 7.86 5.49 14.39 12.64 14.56 7.09.08 13.12-6.1 13.29-13.96.18-7.86-5.49-14.39-12.64-14.56-.09 0-.18-.01-.27-.01z" fill="#fff"/><path d="m1360.7 437.85h-.34c-8.87-.2-15.9-8.16-15.68-17.73.11-4.61 1.86-8.92 4.94-12.13 3.12-3.24 7.17-4.95 11.53-4.87 4.32.1 8.33 2.01 11.29 5.39 2.93 3.34 4.49 7.72 4.38 12.34-.21 9.45-7.42 17-16.12 17zm.1-31.64c-3.34 0-6.5 1.39-8.94 3.92-2.54 2.64-3.99 6.21-4.08 10.04-.18 7.86 5.49 14.39 12.64 14.56 7.15.06 13.12-6.1 13.29-13.96.09-3.83-1.2-7.47-3.61-10.22-2.39-2.72-5.59-4.26-9.03-4.33-.09 0-.18-.01-.27-.01z" fill="#fff"/><path d="m1336.4 411.7h3.11v16.51h-3.11z" fill="#fff" transform="matrix(.0228 -.9997 .9997 .0228 887.54 1748)"/><path d="m1300.7 418.86c-.21 0-.43-.04-.63-.14l-35.49-15.88c-.78-.35-1.13-1.27-.78-2.05s1.27-1.13 2.05-.78l35.49 15.88c.78.35 1.13 1.27.78 2.05-.27.58-.83.92-1.42.92z" fill="#fff"/><path d="m1252.7 397.48c-12.88 6.25-11.74 33.18-4.78 46.66 5.09 9.86 14.8 17.44 14.8 17.44l6.71-56.8s-2.91-14-16.73-7.3z" fill="#ff9169"/><path d="m1259.7 415.64c-3.94 5.85-4.89 14.9.25 20.32 1.64 1.73 4.21-.91 2.58-2.63-4-4.22-2.58-11.47.37-15.86 1.33-1.97-1.88-3.79-3.2-1.83z" fill="#e06234"/><path d="m1276.2 350.41c-2.07 6.91-4.26 13.97-8.1 20.14-4.72 7.57-11.47 11.58-19.49 15.07-2.51 1.09-.43 4.81 2.06 3.72 7.98-3.47 14.83-7.43 19.86-14.73 4.75-6.89 7.36-15.04 9.74-22.98.8-2.62-3.28-3.84-4.07-1.22z" fill="#e0b682"/><path d="m1256 369.97c-5.13 6.97-12.27 11.86-20.58 14.22-2.63.74-1.61 4.88 1.04 4.13 9.43-2.67 17.36-8.23 23.17-16.11 1.62-2.22-2.02-4.43-3.63-2.24z" fill="#e0b682"/><path d="m1287.8 340.45c-3.33-1.91-6.95-4.96-9.24-8.12-2.57-3.56-2.52-8.08-5.4-11.41-4.42-5.1-11.45-5.52-17.71-5.62-2.74-.05-2.84 4.21-.1 4.25 3.97.07 8.39.02 11.95 2.03 4.25 2.4 4.27 7.05 6.31 10.93 2.46 4.68 7.41 8.94 11.95 11.56 2.39 1.37 4.62-2.25 2.24-3.62z" fill="#e0b682"/><path d="m1368.7 312.38c-2.98 12.03-8.11 25.24-21.47 28.41-2.66.63-1.63 4.76 1.04 4.13 14.87-3.53 21.15-17.77 24.51-31.31.66-2.66-3.42-3.89-4.08-1.23z" fill="#e0b682"/><path d="m1346 330.34c-7.07 5.7-14.31 11.26-23.52 12.68-2.7.42-1.65 4.55 1.04 4.13 9.91-1.53 17.82-7.6 25.42-13.73 2.14-1.72-.82-4.79-2.94-3.08z" fill="#e0b682"/><path d="m1220.3 532.23s-1.46 38.09-3.5 92.68c-3.81 105.63-9.62 272.94-10.33 345.32-.04 2.66-.04 5.32-.09 8.07-.09 7.72-.22 15.7-.36 23.9-1.91 109.62-8.16 258.8-11.8 262.74-4.04 4.35-19.96-9.31-54.37-6.7-34.37 2.57-109.62-6.96-113.08-10.69-1.91-2.04 3.02-107.67 7.94-207.85 2.04-40.97 4.04-81.06 5.63-112.77 1.51-31.13 2.62-54.15 2.79-62.04.84-35.65 22.79-259.55 27.89-274.23 3.73-10.82 83.28-37.52 124.7-50.77 14.7-4.65 24.58-7.66 24.58-7.66z" fill="#f0ded8"/><path d="m1223.4 996.43s-6.74 2.39-17.34 5.77c-26.16 8.38-75.65 23.01-104.61 23.55-40.49.71-27.89 3.77-66.7 13.97 2.04-40.97 4.04-81.06 5.63-112.77 20.09-.49 46.03.75 63.28 6.74 26.39 9.14 85.59 36.58 102.75 44.61 3.06 1.46 4.79 2.26 4.79 2.26z" fill="#d4b9b0"/><path d="m1220.3 532.23s-1.46 38.09-3.5 92.68c-15.96-1.73-38.18-4.08-39.24-3.95-1.33.13 12.11-55.96 18.18-81.06 14.68-4.66 24.56-7.67 24.56-7.67z" fill="#d4b9b0"/><path d="m1520.4 876.67s21.06 1.47 29.81 8.29c8.74 6.83 15.49 70.36 15.49 70.36l-30.37 24.95s-58.38-34.72-58.55-37.45 28.97-52.17 28.97-52.17z" fill="#ff9169"/><path d="m1430.4 925.24s-4.93-.96-13.21-2.57c-6.76-1.31-15.74-3.06-26.06-5.1-42.24-8.34-106.69-21.44-131.05-28.19-14.66 28.28-29.4 56.52-44.17 84.74 42.1 6.8 114.24 13.35 161.98 17.27 10.14.84 19.17 1.57 26.57 2.12 13.2 1 21.27 1.6 21.27 1.6z" fill="#ff9169"/><path d="m1423.2 924.23s30.39-41.82 40.69-45.28c10.29-3.46 22.6 3.18 22.6 3.18s1.17 19.56 10.1 25.83 54.22 53.82 59.05 61.36c4.82 7.54-.99 15.8-3.63 17.14s-3.91 1.66-3.91 1.66 1.9 3.94-3.82 13.19c-5.71 9.25-15.64 8.35-15.64 8.35s-2.08 6.08-8.39 9.12-20.53 1.28-35.75-2.08-58.75-21.58-58.75-21.58z" fill="#ff9169"/><path d="m1417.2 922.67c-3.43 23.79-7.74 47.41-12.73 70.85-7.4-.55-16.43-1.28-26.57-2.12 5.31-24.42 9.71-49.06 13.24-73.82 10.33 2.03 19.31 3.78 26.06 5.09z" fill="#151521"/><path d="m1416.3 944.04c6.78 10.3 3.94 24.14-6.36 30.93-10.3 6.78-24.14 3.94-30.93-6.36-6.78-10.3-3.94-24.14 6.36-30.93 10.3-6.78 24.15-3.93 30.93 6.36z" fill="#fff"/><path d="m1431.6 978.01s-12.86 16.61-5.2 25.83 22.31 5.68 22.31 5.68.33 5.64 8.75 9.44 17.59 1.63 17.59 1.63 4.33 6.37 13.58 6.92 16.33-6.26 18.03-20.95c1.69-14.69-37.81-31.49-52.34-34.29-14.53-2.81-22.72 5.74-22.72 5.74z" fill="#ff9169"/><path d="m1520.4 876.67s-22.87-3.29-33.89 5.46-27.29 47.51-27.75 50.81c-.46 3.29 7.76 9.67 14.11 9.07s24.11-26.09 35.24-28.26 27.69-5.81 28.21-6.86c.5-1.04-15.92-30.22-15.92-30.22z" fill="#ff9169"/><path d="m1476.8 1017.6 9.37-19.88c.26-.58 2.37-6.08-5.87-11.27-8.86-5.58-17.71 1.13-17.8 1.2l-3.81 2.96.23-4.83c0-.03.12-2.85-1.12-5.57-1.01-2.23-4.29-7.18-12.79-5.02-7.02 1.78-14.62 13.62-16.95 18.03-.57 1.08-1.91 1.49-3 .92-1.08-.57-1.5-1.91-.92-2.99.38-.72 9.41-17.63 19.78-20.26 12.07-3.05 16.77 4.95 17.92 7.48.6 1.32.96 2.63 1.19 3.8 4.16-2.08 11.77-4.43 19.63.53 5.59 3.52 7.73 7.66 8.23 11.13 3.07-1.36 7.32-1.67 12.37 1.23 4.51 2.6 6.41 7.27 5.35 13.16-.74 4.13-2.68 7.51-2.76 7.65-.61 1.06-1.98 1.42-3.02.81-1.06-.61-1.43-1.96-.82-3.02.25-.44 6.03-10.72-.96-14.75s-10.69.54-11.09 1.08z" fill="#e06234"/><path d="m1449.6 1008.5c-.26-.04-.52-.12-.76-.25-1.07-.59-1.46-1.94-.87-3.01l11.26-20.4c.59-1.07 1.95-1.46 3.01-.87 1.07.59 1.46 1.94.87 3.01l-11.26 20.41c-.45.82-1.36 1.24-2.25 1.11z" fill="#e06234"/><path d="m1477 1021.4c-.25-.03-.49-.11-.73-.24-1.08-.57-1.5-1.91-.93-3l10.87-20.58c.57-1.08 1.92-1.5 2.99-.92 1.08.57 1.5 1.91.93 3l-10.87 20.58c-.44.85-1.36 1.29-2.26 1.16z" fill="#e06234"/><path d="m1451.8 948.83c-2.79-.39-5.36-1.7-7.56-4.31-8.19-9.7 10.94-36.42 11.14-36.68 2.79-3.6 24.69-22.84 27.18-25.02.92-.81 2.32-.71 3.13.21s.71 2.32-.21 3.13c-9.65 8.45-24.69 21.93-26.6 24.4-4.18 5.4-15.86 25.65-11.26 31.1 4.14 4.9 11.35 3.43 23.42-4.74 9.35-6.33 32.84-27.62 33.08-27.83.91-.82 2.31-.75 3.13.15.82.91.76 2.31-.15 3.13-.98.88-23.96 21.72-33.57 28.22-6.85 4.65-14.92 9.2-21.73 8.24z" fill="#e06234"/><path d="m1551.4 960.72.02-.02s-35.07-35.29-40.76-40.95c-5.6-5.57-7.15-7.21-7.17-7.24-.84-.89-2.24-.93-3.13-.09s-.93 2.24-.09 3.13c0 0 1.54 1.64 7.27 7.33 5.69 5.66 40.74 40.93 40.74 40.93l.03-.03c.3.3.67.55 1.21.62 2.24.34 3.06-2.36 1.88-3.68z" fill="#e06234"/><path d="m1546.2 988.88c-.31-.04-.62-.16-.9-.35-.82-.54-11.16-8.59-14.32-11.05-.97-.75-1.14-2.15-.39-3.11s2.15-1.14 3.11-.39c5.06 3.95 13.36 10.38 14.05 10.86 1 .69 1.28 2.06.6 3.07-.5.74-1.34 1.09-2.15.97z" fill="#e06234"/><path d="m1527.4 1010c-.77-.11-2.25-.78-14.42-11.01-.94-.79-1.06-2.19-.27-3.12.79-.94 2.19-1.06 3.12-.27 5.3 4.46 11.39 9.38 12.66 10.12.95.33 1.59 1.28 1.48 2.32-.12 1.22-1.21 2.11-2.43 1.98-.05-.01-.09-.02-.14-.02z" fill="#e06234"/><path d="m1072.8 588.31s-32.77 22.29-57.14 95.46-41.97 223.27-37.78 240.09 23.07 41.02 61.87 56.41 177.37 23.32 191.42 19.36c14.04-3.96 83-96.83 83-96.83s-71.31-19.86-90.96-24.84-49.13-16.07-49.13-16.07z" fill="#f0ded8"/><path d="m1115.1 751.77c-1.02 0-1.94-.71-2.17-1.76-.08-.4-8.62-40.43-19.57-87.17-10.73-45.79-28.96-60.7-29.15-60.85-.96-.76-1.12-2.15-.36-3.11s2.14-1.13 3.11-.38c.79.62 19.59 15.81 30.72 63.32 10.97 46.79 19.51 86.86 19.6 87.26.25 1.2-.51 2.38-1.71 2.63-.16.04-.32.06-.47.06z" fill="#d4b9b0"/><path d="m1284.4 581.04c-.49 0-.97-.16-1.37-.47l-55.89-43.8c-.96-.76-1.13-2.15-.38-3.11s2.15-1.13 3.11-.38l53.76 42.13 13.88-27.52c.37-.73 1.1-1.2 1.91-1.22.81-.07 1.58.4 1.98 1.11l14.59 25.19 17.24-22.83c.73-.98 2.13-1.17 3.1-.43.98.74 1.17 2.13.43 3.1l-19.25 25.5c-.45.59-1.18.91-1.9.88-.74-.05-1.41-.46-1.78-1.1l-14.21-24.54-13.25 26.27c-.3.59-.85 1.02-1.5 1.17-.15.03-.31.05-.47.05z" fill="#4d221e"/><path d="m2079.9 395.68c-4.08-11.44-9.05-24.56-18.8-32.35-2.1-1.68-4.47-3.19-6.96-4.61-3.23-7.02-7.95-12.95-15.77-16.22-6.78-2.84-14.16-3.35-21.34-4.5-10.34-1.67-16.85-5.8-25.23-11.85-10.09-7.29-24.43-8.82-36.38-5.28-4.08 1.21-5.55 3.04-8.21 6.09-4.07 4.66-6.23 6.57-11.95 7.89-3.23.75-6.4 1.71-9.46 2.99-11.21 4.7-19.51 13.02-21.01 25.38-1.18 9.75.53 19.22-3.66 28.52-3 6.65-8.25 11.5-8.77 19.14-.91 13.36 8.99 23.56 18.81 31.01 11.55 8.77 21.99 14.91 36.36 9.36 8.3-3.21 16.42-7.12 24.33-11.55 5.87 4.49 11.38 8.9 15.99 12.96 5.44 4.78 11.45 9.47 15.63 15.47 3.83 5.51 5.8 12.04 8.92 17.93 5.75 10.86 15.03 18.8 24.48 26.37-.21.21-.42.44-.63.65-2.01 2.03 1.12 5.16 3.14 3.14 20.44-20.59 35.56-46.27 42.37-74.58 3.8-15.8 3.63-30.57-1.86-45.96z" fill="#292a38"/><path d="m1962.8 529.51 1.09 17.44 1.74 27.52v.04l2.51 40.32s5.38 26.86 30.53 28.53c25.11 1.66 57.8-30.4 57.8-30.4l-8.1-121.71z" fill="#ff9169"/><path d="m1963.9 546.94 1.74 27.52v.04s9.66 3.66 36.61-9.1c26.94-12.77 38.98-55.98 38.98-55.98s-61.31 27.71-67.4 31.86c-2.8 1.9-6.49 3.81-9.93 5.66z" fill="#e06234"/><path d="m2055.4 461.33c.49 51.35-21.16 72.68-48.83 84.97-27.63 12.42-57.11 19.2-74.8-10.91-9.53-16.27-12.46-53.04-13.66-86.52-.04-1.69-.13-3.37-.18-5.01 0-.31 0-.62-.04-.93v-.09c0-1.11-.04-2.26-.09-3.28-.09-1.86-.13-3.64-.13-5.45v-.67c-.04-1.37-.09-2.66-.09-3.9-.4-19.69 0-33.79 0-33.79s21.82-27.18 55.92-20.8c34.09 6.43 81.45 35.03 81.9 86.38z" fill="#ff9169"/><path d="m2017.5 440.19s17.81 50.87 20.4 64.35c2.59 13.49 12.32 14.76 12.32 14.76s7-33.23 7-33.79c0-.55 6.1-32.68 6.1-33.99 0-1.3-45.82-11.33-45.82-11.33z" fill="#292a38"/><path d="m1932.3 457.1c.79-1.97 2.22-3.44 4.42-3.76 2.43-.35 4.22 1.43 4.89 3.59 1.17 3.77 1.68 10.14-1.82 12.91-6.05 4.77-9.99-6.49-7.49-12.74z" fill="#292a38"/><path d="m1977.8 455.32c.79-1.97 2.22-3.44 4.42-3.76 2.43-.35 4.22 1.43 4.89 3.59 1.17 3.77 1.68 10.14-1.82 12.91-6.05 4.78-9.99-6.48-7.49-12.74z" fill="#292a38"/><path d="m1985.1 506.04s-10.99 1.56-23.49 1.72c-11.43.14-16.13-.75-16.13-.75s2.54 10.6 17.47 10.88c14.93.27 22.15-11.85 22.15-11.85z" fill="#fff"/><path d="m2017.5 443.5s10.18-18.05 28.31-11.18c23.42 8.87 10.28 45.08 3.36 54.15s-19.41 13.32-19.41 13.32z" fill="#ff9169"/><path d="m2041.2 452.56c-1.26-2.57-5.13-.39-3.87 2.16 2.55 5.18 3.18 14.74-2.55 18.34-2.41 1.52-.26 5.39 2.16 3.87 7.91-4.97 7.97-16.84 4.26-24.37z" fill="#e06234"/><path d="m2000.1 441.08c-2.84-2.77-7.96-4.7-11.8-5.47-4.74-.94-9.67-.8-14.41.05-1.6.29-3.24.67-4.59 1.58-1.35.92-2.36 2.49-2.18 4.11.2 1.81 1.83 3.2 3.58 3.71s3.61.34 5.43.19c6.87-.54 13.78-.53 20.64.03 1.18.1 2.49.17 3.42-.57 1.47-1.16 1.14-2.43-.09-3.63z" fill="#292a38"/><path d="m1948.6 441.96c-.04 1.82-1.51 3.33-3.19 4.04-1.73.67-3.59.67-5.41.71-6.87.13-13.75.8-20.53 2-.49.09-.93.18-1.42.18-.04-1.69-.13-3.37-.18-5.01 0-.31 0-.62-.04-.93v-.09c2.66-2.08 6.25-3.73 9.14-4.61 4.61-1.37 9.58-1.69 14.37-1.33 1.6.13 3.28.35 4.7 1.15 1.41.78 2.56 2.25 2.56 3.89z" fill="#292a38"/><path d="m2001.4 376.23c-26.27-6.56-79.44-27.29-84.03 12.18-.41 3.49 0 13.21 0 13.21s18.67-8.47 27.9-11.97c2.31 4.71 5.39 8.99 9.49 12.58 8.76 7.65 23.94 7.77 30.29 17.02 9.13 13.31 19.96 24.43 35.45 24.37 3.48 5.04 7.94 9.37 13.33 11.37 6.29 2.33 17.46 5.54 23.21.57 1.11 0 2.32-.7 2.51-2.1 4.65-35.27-24.94-68.94-58.15-77.23z" fill="#292a38"/><path d="m1919.4 353.2c-2.76-.74-3.94 3.53-1.18 4.28 10.53 2.83 21.46 16.15 21.63 27.33.04 2.85 4.48 2.86 4.43 0-.19-13.21-12.3-28.23-24.88-31.61z" fill="#41414f"/><path d="m1928.6 370.33c-1.53-2.4-5.37-.18-3.83 2.24 2.17 3.4 3.45 7.09 3.7 11.13.18 2.83 4.61 2.85 4.43 0-.29-4.8-1.7-9.31-4.3-13.37z" fill="#41414f"/><path d="m2027.5 427.97c-4.1.54-8.55.77-12.52-.76-9.68-3.72-8.67-7.9-12.49-14.3-2.22-3.72-5.16-6.66-8.71-9.15-10.25-7.18-23.74-9.24-31.54-19.76-1.68-2.27-5.53-.06-3.83 2.24 8.62 11.62 22.91 13.57 33.9 21.99 6.94 5.32 7.74 14.59 14.54 19.75 5.9 4.47 13.54 5.35 20.64 4.42 2.8-.36 2.84-4.8.01-4.43z" fill="#41414f"/><path d="m2061.8 412.14c-11.84 5.49-24.89 8.9-37.25 2.87-2.56-1.25-4.81 2.58-2.24 3.83 13.92 6.79 28.28 3.37 41.73-2.87 2.59-1.2.34-5.02-2.24-3.83z" fill="#41414f"/><path d="m2045.3 362.32c-16.48-3.5-31.08-1.85-47.06 2.91-8 2.38-15.75.83-23.86 2.11-8.09 1.28-15.04 4.63-21.52 9.54-2.25 1.7-.04 5.55 2.24 3.83 7.44-5.64 15.79-9.2 25.21-9.53 5.73-.2 10.77.8 16.37-.74 16.4-4.52 30.36-7.47 47.45-3.84 2.78.59 3.97-3.68 1.17-4.28z" fill="#41414f"/><path d="m2048.4 487.45c-.66.84-1.76 1.89-2.44 2.58 1.46 2.5 2.29 6.81 1.9 10.36-.74 6.68-3.65 11-7.43 11-3.97 0-7.32-5.32-7.32-11.61 0-7.44 4.8-11.08 5.6-11.41.83-.21 1.33-1.06 1.12-1.89s-1.05-1.34-1.89-1.12c-1.68.43-7.94 5.13-7.94 14.42 0 8.25 4.58 14.72 10.42 14.72 5.55 0 9.58-5.27 10.52-13.76.51-4.62-.42-10.29-2.54-13.29z" fill="#fff"/><path d="m1961.7 494.54c-2.14-.15-6.34.17-8.18-1.15-3.25-2.32-1-6.68-.2-9.36 1.42-4.77 2.85-9.54 4.27-14.31.82-2.74-3.46-3.91-4.28-1.18-1.33 4.45-2.66 8.91-3.99 13.36-.93 3.12-2.76 6.97-2.3 10.34.89 6.42 9.83 6.39 14.67 6.74 2.85.2 2.84-4.24.01-4.44z" fill="#e06234"/><path d="m1982.6 578.08s-91.04 36.22-104.34 43.61-15.89 164.64-15.89 192.73 19.22 111.2 19.22 111.2l243.53 2.17s41.3-301.57 40.56-306.74-125.07-42.96-125.07-42.96h-58.01z" fill="#ff9169"/><path d="m2129.9 953.86c-50.33 15.03-32.11 67.54-48.47 69.13-33.79 3.33-69.62 4.26-117.38 5.99-40.35 1.46-90.29-61.06-90.29-61.06s-17.78.4-16.27-47.63c2.22-70.95-19.73-94.19-14.77-144.21.71-7.23 2.44-15.83 4.83-25.23.71-2.75 1.46-5.59 2.26-8.47v-.04c4.61-16.19 10.82-34.15 17.29-51.44 0-.04 0-.04.04-.09 15.52-41.42 32.59-78.89 32.59-78.89l21.82-9.14s1.6 54.94 67.05 58.45c62.48 3.33 87.54-74.06 87.54-74.06l18.89 4.97s-1.77 115.08 9.84 161.64c11.66 46.56 43.28 49.93 43.28 49.93s9.42 141.9-18.25 150.15z" fill="#fff"/><g fill="#faefeb"><path d="m1904.4 684.42c-.57 0-1.13-.22-1.57-.65-.87-.86-.87-2.27 0-3.14l12.92-12.93c.87-.87 2.27-.87 3.14 0 .87.86.87 2.27 0 3.14l-12.92 12.93c-.43.43-1 .65-1.57.65z"/><path d="m1976.9 744.28c-.57 0-1.13-.22-1.57-.65-.87-.86-.87-2.27 0-3.14l12.92-12.93c.87-.87 2.27-.87 3.14 0 .87.86.87 2.27 0 3.14l-12.92 12.93c-.44.44-1.01.65-1.57.65z"/><path d="m2047.1 741.24c-.57 0-1.13-.22-1.57-.65-.87-.86-.87-2.27 0-3.13l12.92-12.93c.87-.87 2.27-.87 3.14 0 .87.86.87 2.27 0 3.14l-12.92 12.93c-.44.43-1 .64-1.57.64z"/><path d="m2002.4 880.6c-.57 0-1.13-.22-1.57-.65-.87-.86-.87-2.27 0-3.14l12.92-12.93c.87-.87 2.27-.87 3.14 0 .87.86.87 2.27 0 3.13l-12.92 12.93c-.44.45-1 .66-1.57.66z"/><path d="m2031.8 688.26c-.57 0-1.13-.22-1.57-.65-.87-.86-.87-2.27 0-3.14l12.92-12.93c.87-.87 2.27-.87 3.14 0 .87.86.87 2.27 0 3.14l-12.92 12.93c-.44.43-1.01.65-1.57.65z"/><path d="m1991.6 810.14c-.57 0-1.13-.22-1.57-.65-.87-.86-.87-2.27 0-3.13l12.92-12.93c.87-.87 2.27-.87 3.14 0 .87.86.87 2.27 0 3.14l-12.92 12.93c-.43.42-1 .64-1.57.64z"/><path d="m1846.3 812.77c-.57 0-1.13-.22-1.57-.65-.87-.86-.87-2.27 0-3.14l12.92-12.93c.87-.87 2.27-.87 3.14 0 .87.86.87 2.27 0 3.13l-12.92 12.93c-.44.45-1.01.66-1.57.66z"/><path d="m2064.4 880.6c-.57 0-1.13-.22-1.57-.65-.87-.86-.87-2.27 0-3.14l12.92-12.93c.87-.87 2.27-.87 3.14 0 .87.86.87 2.27 0 3.13l-12.92 12.94c-.43.44-1 .65-1.57.65z"/><path d="m1959.8 684.42c-.57 0-1.13-.22-1.57-.65-.87-.86-.87-2.27 0-3.14l12.92-12.93c.87-.87 2.27-.87 3.14 0 .87.86.87 2.27 0 3.14l-12.92 12.93c-.43.43-1 .65-1.57.65z"/><path d="m1910.7 744.24c-.57 0-1.13-.22-1.57-.65-.87-.86-.87-2.27 0-3.14l12.92-12.93c.87-.87 2.27-.87 3.14 0 .87.86.87 2.27 0 3.14l-12.92 12.93c-.43.43-1 .65-1.57.65z"/><path d="m1860.8 737.68-12.9 12.95c-.09.09-.22.18-.31.22.71-2.75 1.46-5.59 2.26-8.47v-.04l7.8-7.8c.89-.84 2.26-.84 3.15 0 .84.88.84 2.29 0 3.14z"/><path d="m1936.8 699.93c-.05-.57.12-1.15.52-1.61.79-.93 2.19-1.05 3.13-.25l13.93 11.84c.93.79 1.05 2.19.25 3.13-.79.93-2.19 1.05-3.12.25l-13.93-11.84c-.47-.41-.73-.96-.78-1.52z"/><path d="m1867 691.79c-.05-.57.12-1.15.52-1.62.79-.93 2.19-1.05 3.13-.25l13.93 11.84c.93.79 1.05 2.19.25 3.13-.79.93-2.19 1.05-3.13.25l-13.93-11.84c-.47-.4-.73-.95-.77-1.51z"/><path d="m1876.2 763.86c-.05-.57.12-1.15.52-1.61.79-.93 2.19-1.05 3.13-.25l13.93 11.84c.93.79 1.05 2.19.25 3.13-.79.93-2.19 1.05-3.13.25l-13.93-11.84c-.46-.41-.73-.96-.77-1.52z"/><path d="m2014.4 761.38c-.05-.57.12-1.15.52-1.61.79-.93 2.19-1.05 3.13-.25l13.93 11.84c.93.79 1.05 2.19.25 3.13-.79.93-2.19 1.05-3.12.25l-13.93-11.84c-.47-.41-.73-.96-.78-1.52z"/><path d="m2003.8 699.93c-.05-.57.12-1.15.52-1.61.79-.93 2.19-1.05 3.13-.25l13.93 11.84c.93.79 1.05 2.19.25 3.13-.79.93-2.19 1.05-3.13.25l-13.93-11.84c-.46-.41-.72-.96-.77-1.52z"/><path d="m1959.4 829.27c-.05-.57.12-1.15.52-1.62.79-.93 2.19-1.05 3.13-.25l13.93 11.84c.93.79 1.05 2.19.25 3.13-.79.93-2.19 1.05-3.12.25l-13.93-11.84c-.48-.4-.74-.95-.78-1.51z"/><path d="m1943.7 761.38c-.05-.57.12-1.15.52-1.61.79-.93 2.19-1.05 3.13-.25l13.93 11.84c.93.79 1.05 2.19.25 3.13-.79.93-2.19 1.05-3.12.25l-13.93-11.84c-.48-.41-.74-.96-.78-1.52z"/><path d="m2026.8 832.03c-.05-.57.12-1.15.52-1.61.79-.93 2.19-1.05 3.13-.25l13.93 11.84c.93.79 1.05 2.19.25 3.13-.79.93-2.19 1.05-3.13.25l-13.93-11.84c-.46-.41-.72-.96-.77-1.52z"/></g><path d="m1959.4 761.2c-19.31 0-36.87-116.5-40.19-139.85-.17-1.21.67-2.33 1.88-2.51 1.22-.19 2.33.67 2.51 1.88 9.52 66.87 25.51 136.04 35.8 136.04 12.5 0 71.26-83.99 105.37-136.93.66-1.02 2.03-1.32 3.07-.66 1.03.66 1.33 2.04.66 3.07-9.16 14.22-90.08 138.96-109.1 138.96z" fill="#e8c4ba"/><path d="m1972.2 761.09c-.35-.84-.71-1.68-1.1-2.5-1.2-2.52-2.7-4.9-4.9-6.57-13.38-10.14-22.46 18.97-24.98 27.21-2.41 7.86-1.15 17.88 6.68 21.83 11.53 5.82 30.16 1.46 30.05-14.81-.06-8.66-2.45-17.16-5.75-25.16zm-7.02 30.09c-.19.15-.38.28-.58.41-3.32 2.13-7.85 1.34-11.18-.78-11-6.99 3.36-27.69 13.7-16.96 3.13 3.25 3.14 8.54 1.38 12.7-.75 1.77-1.82 3.46-3.32 4.63z" fill="#f0ded8"/><path d="m2004.4 1744.7c4.15-98.6 4.76-429.04 4.76-429.04l27.21 429.04h166.79c-1.14-57.12-6.24-313.57-8.64-439.37-2.22-117.34-13.04-201.11-23.64-246.87-16.63-71.88-40.97-104.61-40.97-104.61s-44.97 16.14-127.36 17.43c-38.27.58-128.78-3.37-128.78-3.37s-36.58 83.28-45.1 218.8c-5.47 87.29 6.37 485.17 8.6 557.99z" fill="#d4492f"/><path d="m2171.5 974.12c-51.78 7.98-104.69 7.48-156.96 8.67-25.35.58-50.71 1.05-76.07 1.24-25.87.2-52.46 1.62-78.11-2.29-2.79-.43-4 3.85-1.18 4.28 23.98 3.66 48.58 2.63 72.76 2.49 27.53-.16 55.07-.66 82.59-1.28 52.68-1.2 105.94-.79 158.13-8.83 2.83-.44 1.64-4.71-1.16-4.28z" fill="#b02d15"/><path d="m2055.4 582.63s-6.44 138.46 7.97 249.32 27.72 309.31 45.45 412.41c17.74 103.1 12.17 338.05 17.18 342.57 11.09 9.98 21.62-5.54 51.55 0s60.97 5.54 62.08-3.33-34.51-490.14-33.26-581.04c1.25-90.91 1.5-338.68-9.14-356.69-14.74-24.93-64.83-46.82-89.8-53.38-17.93-4.71-52.03-9.86-52.03-9.86z" fill="#292a38"/><path d="m1966.3 584.6s-60.72 65.17-83.63 99.91-29.9 48.05-29.9 48.05 9.94-105.7 19.55-111.61c9.61-5.92 93.98-36.35 93.98-36.35z" fill="#292a38"/><path d="m2033.6 976.89-15.2-3.22-15.3-66.36 23.3-2.32 26.4-2.6 21.4-2.11 8.7 87.07-22.3-4.74z" fill="#ff9169"/><path d="m2197.2 645.87s22.82 22.25 39.08 98.36 15.96 184.09 10.72 209.62c-7.37 35.89-78.34 62.5-111.6 53.63s-81.47-11.83-81.47-11.83-.91-88.69 0-93.86 34.54-19.72 40.45-21.2c5.9-1.47 102.82-234.72 102.82-234.72z" fill="#292a38"/><path d="m1773.9 857.64c28.37-19.64 57.85-38.29 90.06-51.26 24.13-9.71 72.35-19.71 72.36-19.69 0 0 4.45 82.58 9.98 113.63 5.52 31.04 19.95 113.63 19.96 113.64.01.08-37.43 10.25-41.03 11.46-14.15 4.75-28.02 10.54-40.84 18.21-20.61 12.33-38.98 29.59-56.15 46.27 0 0-16.31-45.37-37.13-131.58-13.09-54.12-17.21-100.68-17.21-100.68z" fill="#f0ded8"/><path d="m1968.6 1469.4c-2.84 28.82-2.08 60.97 9.18 94.23 8.96 26.44-2.1 136.77-7.03 181.06h33.62c4.15-98.6 4.76-429.04 4.76-429.04l-40.53-115.65s-14.9 118.67 0 160.75c14.9 42.13 2.84 79.82 0 108.65z" fill="#b02d15"/><path d="m1969.8 1212.2c-1.01 0-1.92-.69-2.16-1.72l-10.99-47.95c-.27-1.19.47-2.38 1.67-2.65 1.18-.29 2.38.47 2.66 1.67l10.99 47.95c.27 1.19-.47 2.38-1.66 2.65-.18.04-.34.05-.51.05z" fill="#b02d15"/><path d="m2021.2 907.9s-55.22-34.28-78.81-33.63c-23.59.66-46.32 5.31-57.68 10.3s-14.42 16.35-6.55 18.98c7.86 2.62 34.44-.64 34.44-.64s-35.96 3.92-43.51 8.04c-9.15 4.99-8.85 19.25-.11 21.87s14.09 2.73 14.09 2.73-4.92 11.8 6.55 17.04 45.22 9.18 59.97 10.81c14.75 1.64 70.03 10.27 70.03 10.27s10.26-41.4 9.94-42.71c-.33-1.31-8.36-23.06-8.36-23.06z" fill="#ff9169"/><path d="m1910.4 905.37c-1.14 0-2.11-.88-2.21-2.04-.1-1.22.81-2.29 2.03-2.39 1.06-.09 26.08-2.09 34.13-1.35 1.22.11 2.12 1.2 2 2.41-.11 1.22-1.22 2.11-2.41 2-7.65-.72-33.1 1.33-33.36 1.36-.06.01-.12.01-.18.01z" fill="#e06234"/><path d="m1885.2 937.09c-1.23 0-2.22-.99-2.22-2.22 0-1.18.92-2.14 2.09-2.21.17-.02.56-.08 1.13-.17 3.95-.6 15.96-2.42 28.01-2.42 14.15 0 31.69 1.29 31.86 1.3 1.22.09 2.14 1.15 2.05 2.38-.09 1.22-1.13 2.12-2.38 2.05-.17-.01-17.56-1.29-31.54-1.29-11.71 0-23.48 1.79-27.35 2.38-.95.13-1.54.2-1.65.2z" fill="#e06234"/><path d="m1945.7 728.54c-3.7-1.02-8.03.68-9.78 4.15-1.31 2.59-.97 5.64.87 7.73.98 2.52 3.12 4.45 6.33 4.54 3.9.11 7.52-2.61 8.36-6.49.93-4.27-1.44-8.74-5.78-9.93z" fill="#f0ded8"/><path d="m1984.2 742.19c-3.51-6-11.53-4.92-14.96.4-1.86 2.89-.71 6.93 2.01 8.83.83 1.28 2.05 2.28 3.67 2.68 6.9 1.7 13.04-5.49 9.28-11.91z" fill="#f0ded8"/><path d="m1997.5 724.1c-4.16-5.65-14.31-2.47-13.62 4.88 0 .03.01.05.01.08-.03.27-.08.54-.06.81.17 3.89 2.93 6.29 6.65 6.65 6.66.65 10.93-7.11 7.02-12.42z" fill="#f0ded8"/><path d="m1837.6 753.06c-.1 0-.19-.01-.29-.02-1.21-.16-2.07-1.28-1.91-2.49.06-.42 5.61-41.91 10.03-62.76 4.46-20.96 10.74-36.49 10.81-36.65.46-1.13 1.76-1.68 2.89-1.21 1.13.46 1.68 1.76 1.22 2.89-.06.15-6.2 15.34-10.57 35.89-4.4 20.69-9.92 62.01-9.98 62.42-.15 1.12-1.1 1.93-2.2 1.93z" fill="#41414f"/><path d="m2201.8 997.62c-10.23 2.76-20.68 5.63-31.37 5.31-7.92-.23-15.68-2.09-23.59-2.49-18.08-.9-35.9 3.97-53.44-2.48-2.68-.99-3.84 3.3-1.18 4.28 17.89 6.58 36.15 1.72 54.62 2.64 9.27.46 18.33 2.79 27.65 2.46 9.71-.34 19.18-2.93 28.49-5.45 2.75-.73 1.58-5.01-1.18-4.27z" fill="#41414f"/><path d="m2191.9 863.77c-8.89-2.31-17.87-3.22-27.03-1.98-8.27 1.11-15.59 4.61-23.31 7.18 2.77-7.93 15.08-15.36 20.9-19.25 6.95-4.65 14.27-8.73 21.57-12.8 2.49-1.39.26-5.22-2.24-3.83-10.29 5.74-20.6 11.53-29.9 18.81-6.16 4.83-13.85 10.41-15.14 18.5-.26.07-.52.15-.78.22-9.49 2.3-19.38.98-28.93 3.37-10.26 2.57-19.89 7.28-29.37 11.87-2.57 1.24-.32 5.07 2.24 3.83 9.15-4.43 18.4-8.94 28.31-11.42 8.47-2.12 16.82-1.22 25.29-2.62 8.67-1.43 16.38-5.93 24.85-8.1 10.84-2.78 21.6-2.3 32.37.49 2.75.73 3.93-3.55 1.17-4.27z" fill="#41414f"/><path d="m2178.1 654.33c-4.48 19.98-11.06 39.14-19.76 57.68-6.81 14.51-12.24 27.76-12.65 44-.26 10.44-.31 20.17-3.52 30.3-2.72 8.6-6.32 16.86-8.54 25.63-4.42 17.51-5.32 35.67-6.2 53.63-.14 2.85 4.3 2.85 4.43 0 1-20.31 2.07-40.83 8.31-60.34 5-15.66 9.7-28.6 9.92-45.21.27-20.08 7.36-34.93 15.36-52.88 7.4-16.62 12.94-33.89 16.92-51.63.63-2.78-3.65-3.97-4.27-1.18z" fill="#41414f"/><path d="m1449.4 858.65c-1.17 0-2.15-.92-2.21-2.1-.26-5.03-6.3-123.53-3.82-151.91 2.44-27.97-4.08-75.54-4.15-76.01-.17-1.21.68-2.33 1.89-2.5 1.2-.18 2.33.68 2.5 1.89.27 1.97 6.66 48.54 4.17 77.01-2.45 28.07 3.77 150.07 3.83 151.3.06 1.22-.88 2.27-2.1 2.33-.03-.01-.07-.01-.11-.01z" fill="#d4b9b0"/><path d="m1446.1 781.71c-.18 0-.37-.02-.56-.07-1.18-.31-1.9-1.52-1.59-2.7l23.61-91.58c.31-1.18 1.52-1.89 2.7-1.59 1.18.31 1.9 1.52 1.59 2.7l-23.61 91.58c-.25 1-1.15 1.66-2.14 1.66z" fill="#d4b9b0"/><path d="m1204.7 874.76c-.21 0-.42-.03-.63-.09l-49.66-14.72c-1.17-.35-1.84-1.58-1.5-2.76.35-1.17 1.58-1.84 2.76-1.5l49.66 14.72c1.17.35 1.84 1.58 1.5 2.76-.29.97-1.17 1.59-2.13 1.59z" fill="#d4b9b0"/><path d="m1935.4 580.58c-3.93-3.81-6.29-4.68-11.34-4.72-6.65-.06-10.39 2.81-15.27 7.58-10.3-2.71-21.9-2.32-29.98 4.82-2.8 2.48-4.67 5.42-5.95 8.59-16.24-5.09-24.46 21.09-22.54 31.81 1.21 6.77 6.34 15.78 14.95 16.28 4.88.29 8.4-2.06 10.77-5.31 4.02 4.32 10.11 6.41 16.66 2.8 5.15-2.84 9-7.09 11.63-11.92 3.73 2.4 8.52 3.7 12.62 3 10.09-1.72 14.76-16.63 17.39-23.88 2.79-7.71 8.4-21.92 1.06-29.05z" fill="#ff9169"/><path d="m1902.2 629.81c-.84 0-1.64-.48-2.01-1.29-.19-.4-4.51-10.03-2.02-24.22 2.48-14.13 7.53-19.89 7.74-20.13.82-.91 2.22-.99 3.13-.17.91.81.99 2.21.18 3.12-.08.09-4.46 5.27-6.68 17.94-2.24 12.75 1.64 21.52 1.68 21.61.5 1.11.01 2.43-1.1 2.93-.3.15-.61.21-.92.21z" fill="#e06234"/><path d="m1875 639.61c-.84 0-1.64-.48-2.01-1.28-.15-.33-3.77-8.24-5.05-20.52-1.3-12.57 2.21-19.56 2.36-19.86.56-1.08 1.89-1.52 2.99-.96 1.09.56 1.52 1.89.96 2.98-.03.06-3.05 6.24-1.89 17.39 1.19 11.5 4.62 19.04 4.66 19.11.51 1.11.03 2.43-1.08 2.94-.31.13-.63.2-.94.2z" fill="#e06234"/><path d="m1184.8 760.25s-82.46 114.23-148.48 165.43c-19.63 15.22-37.8 25.69-51.92 27.26-23.42 2.59-46.04-13.99-67.72-30.09-57.49-42.7-96.74-93.12-96.74-93.12l73.36-111.78 85.65 119.54 154.36-115.37z" fill="#e06234"/><path d="m1127.3 733.27c-14.38-30.09 8.12-61.72 32.13-78.64 11.31-7.97 46.72-29.16 61.14-21.53 8.83 4.68 5.46 14.29 1.3 17.67s-25.5 15.8-25.5 15.8 16.93-6.31 35.64-15.41c7.03-3.42 24.92-15.66 33-17.15 12.73-2.34 16.89 5.46 16.89 5.46s10.49-.6 14.29 4.42c6.5 8.57 2.08 16.11-2.34 22.87s-14.03 16.63-14.03 16.63 8.06 5.46-1.04 18.19c-9.09 12.73-64.96 49.11-76.39 55.09s-28.19 12.83-28.19 12.83-25.59 5.62-26.37 5.36c-.78-.27-20.36-41.22-20.53-41.59z" fill="#e06234"/><path d="m915.57 362.61c-10.2-8.43-13.61-12.33-26.25-15.88-13.21-3.73-18.49-4.92-38.98-4.43-11 .27-22.97-1.38-33.08 2.57-9.84 3.86-18.49.4-31.8 10.73-15.65 12.19-27.45 36.72-27.49 46.56-.09 14.06 1.15 27.14 3.06 38.89 5.76 35.74 17.87 59.47 18.85 61.33.04.09.04.13.04.13s21.68-61.68 31.62-65.5c11.09-4.21 21.68-10.15 32.15-16.19 5.1-2.88 10.2-5.81 15.26-8.56 8.74-4.74 17.47-9.49 26.16-14.23 4.35-2.35 9.14-5.68 13.97-6.87 7.54-1.91 13.48 1.42 19.47 5.41.35.22.66.31.98.35v.13c-.89 2.71 3.37 3.86 4.26 1.15.18-.58.35-1.15.49-1.73 2.68-10.85.15-26.5-8.71-33.86z" fill="#bf5641"/><path d="m766.95 400.77c-3.25-6.7-15.38-9.51-21.6-10.55-7.31-1.22-14.98-.86-18.61 6.47-.09.17-.09.34-.14.51-5.27 1.84-8.75 5.52-7.95 12.46.22 1.9.99 3.53 1.63 5.29 1.65 4.54 2.05 7.68 1.31 12.37-.45 2.88-1.41 5.2.22 7.99 2.71 4.63 9.56 5.22 14.33 3.67 1.22-.4 6.36 2.56 8.61 2.32 3.68-.38 7.12-2.64 9.77-5.1 5.2-4.84 8.41-12.1 9.42-19.07.22-1.56.35-3.15.9-4.62.55-1.48 1.51-2.77 2.1-4.23 1.17-2.94 1.02-5.42.01-7.51z" fill="#bf5641"/><path d="m864.22 550.53-1.92 7.59-4.25 16.68-2.92 11.61-4.48 17.73-8.82 34.73s-14.62 26.14-41.31 22.89c-26.64-3.2-51.27-42.27-51.27-42.27l36.01-137.23z" fill="#ff9169"/><path d="m862.3 558.11-4.25 16.68-2.92 11.61c-6.63-4.62-13.25-10.46-17.14-16.27-8.32-12.43-15.54-34-15.95-35.37.64.59 6.85 6.35 17.64 13.07 8.04 5.07 17.69 8.64 22.62 10.28z" fill="#e06234"/><path d="m766.51 553.7 4.97-18.94s81.55 30.84 86.57 40.03 9.32 25.08 9.32 25.08-80.05-1.48-80.79-2.59-20.07-43.58-20.07-43.58z" fill="#fff"/><path d="m923.72 433.29c0 1.37-.04 2.75-.09 4.17 0 2.17-.04 4.3-.13 6.56-.04 1.51-.09 3.06-.13 4.61-.49 14.23-3.15 41.73-5.5 63.5-.31 2.79-.62 5.5-.93 8.07v.09c-.18 1.86-.4 3.64-.58 5.32-.18 1.33-.31 2.66-.44 3.86-.09.71-.18 1.37-.27 2-.84 6.34-1.46 10.69-1.64 12.02-3.9 30.78-52.9 22.31-79.02 3.37-20.93-15.3-22.08-15.3-33.17-28.87-11.93-14.68-25.32-22.35-25.06-50.73.49-54.72 51-85.28 87.32-92.1 36.32-6.83 59.64 22.13 59.64 22.13s.4 15.03 0 36z" fill="#ff9169"/><path d="m920.44 462.28 16.17 32.85c1.67 3.4-.87 7.21-5.23 7.84l-26.55 3.83z" fill="#ff9169"/><path d="m917.87 512.14c-.31 2.79-.62 5.5-.93 8.07v.09c-.18 1.86-.4 3.64-.58 5.32-.18 1.33-.31 2.66-.44 3.86-15.12-6.87-19.47-19.56-19.47-19.56s1.82.27 4.74.62c4.13.49 10.38 1.15 16.68 1.6z" fill="#d4492f"/><path d="m916.64 462.47c-5.28-2.77-11.31-2.72-16.52.2-2.12 1.19-1.19 4.62 1.24 4.58 4.47-.08 8.94-.15 13.41-.22.1 0 .16-.05.25-.06 2.4.31 4.13-3.19 1.62-4.5z" fill="#292a38"/><path d="m864.92 368.73c-13.21 1.95-30.24 5.81-39.33 16.59-12.24 2.44-24.43 6.21-34.19 13.48-11.71 8.82-15.48 20-16.36 34.1 0 .13 0 .31-.04.44-1.24 20.75.89 28.03 2.53 48.91.09 1.24 2.17 18.4 2.35 20.13.04.09.04.13.04.13s20-15.92 28.03-26.03c5.54-7.05 13.84-17.83 22.57-21.29 10.24-4.08 18.58 3.46 27.98 7.85 1.6.75 3.24-.13 3.37-1.91.89-11.62 3.55-34.81 16.94-39.2.75-.27 1.37-.44 1.91-.53 7.23-2.04 14.72-2.53 21.91-5.5 10.55-4.39 21.2-14.32 21.2-14.32l.44-5.1.8-9.58c-.01.01-48.26-19.9-60.15-18.17z" fill="#bf5641"/><path d="m843.68 420.83c-.84-.35-1.68-.66-2.57-.89-10.29-2.44-20.67-3.33-30.07 2.08-8.82 5.01-15.3 7.76-25.5 8.47-3.19.22-5.23.49-8.2 1.73-.8.35-1.55.71-2.35 1.11-4.43 2.08-9.14 4.88-13.97 7.72 5.76 35.74 17.87 59.47 18.85 61.33.04.09.04.13.04.13s20-15.92 28.03-26.03c5.54-7.05 13.84-17.83 22.57-21.29 10.24-4.08 18.58 3.46 27.98 7.85 1.6.75 3.24-.13 3.37-1.91.89-11.62 3.55-34.81 16.94-39.2-22.17 7.28-29.09 1.56-35.12-1.1z" fill="#963a28"/><path d="m849.83 458.36s-.41-26.28-20.86-23.3-20.01 31.89-14.51 49.88c3.55 11.63 20.37 22.37 20.37 22.37z" fill="#ff9169"/><path d="m840.06 459.02c-8.33 2.43-11.3 15.89-10.46 23.33.33 2.89 4.9 2.92 4.57 0-.57-5.03 1.15-17.19 7.1-18.92 2.82-.82 1.63-5.23-1.21-4.41z" fill="#e06234"/><path d="m919.58 441.49c-7.48-3.36-15.78-2.44-23.08.91-1.46.67-2.87 1.44-4.23 2.28-1.12.69-2.65 1.66-2.93 3.06-.2 1.05.6 2.09 1.59 2.49s2.1.31 3.16.16c5.42-.8 11.03-1.27 16.54-.82 3.44.28 9.23 2.23 11.81-1.22.27-.36.47-.76.61-1.18.48-1.42-.11-3.04-1.15-4.12-.65-.68-1.45-1.17-2.32-1.56z" fill="#bf5641"/><path d="m895.88 368.12c-10.35 20.72-22.46 43.43-47.11 48.66-2.79.59-1.61 4.87 1.18 4.28 25.78-5.47 38.89-28.92 49.76-50.7 1.27-2.55-2.55-4.79-3.83-2.24z" fill="#963a28"/><path d="m863.59 385.3c-4.81 4.93-9.97 9.42-15.35 13.72-5.73 4.59-11.49 9.93-18.66 12.07-2.73.81-1.57 5.09 1.18 4.28 6.5-1.93 11.55-6.08 16.81-10.2 6.69-5.24 13.21-10.64 19.15-16.73 2-2.05-1.13-5.19-3.13-3.14z" fill="#963a28"/><path d="m757.75 397.22c-1.94 7.2-2.67 14.5-2.17 21.94.19 2.83 4.63 2.85 4.43 0-.48-7.05.17-13.93 2.01-20.76.75-2.76-3.53-3.94-4.27-1.18z" fill="#963a28"/><path d="m720.32 1744.7c8.27-88.48 29.84-317.65 31.91-324.79 2.57-8.85-106.81-203.23-106.81-203.23s-4.73 76.92-15.42 176.81c-6.15 57.49-2.32 113.65-15.62 178.69-9.18 44.88-16.53 126.32-20.21 172.52z" fill="#cc988b"/><path d="m635.39 1245.6c.53 15.21 2.88 30.29 6.34 45.54.31 1.55.67 3.1 1.02 4.7 11.71 49.58 33.35 102.04 38.14 171.39 3.28 47.23 19.86 206.65 27.31 277.47h185.67c.29-61.02 1.21-194.12 3.95-324.78 4.43-210.73-1.64-250.06-.4-302.26.4-18.09.66-28.25.66-28.25l-199.2-37.56-35.17-6.61s-1.24 4.74-3.19 12.86c-1.91 8.12-4.57 19.56-7.45 32.99-1.64 7.8-3.37 16.27-5.06 25.14-.27 1.42-.53 2.88-.84 4.35v.04c-5.9 31.4-11.26 67.18-11.97 96.05-.18 8.2-.18 16.23.04 24.26.06 1.56.11 3.11.15 4.67z" fill="#e8c4ba"/><path d="m803.68 1446.4c7.23 51.04 9.93 100.8 4.83 152.19-4.84 48.96-10.71 96.96-6.76 146.16h4.48c-1.28-15.68-2.12-31.4-1.8-47.18.53-25.19 3.28-50.29 6.03-75.3 5.54-50.95 7.23-100.31.93-151.31-6.08-49.49-14.68-98.49-17.29-148.42-3.02-58-.93-116.1 1.11-174.14.09-2.84-4.35-2.84-4.43 0-1.82 50.78-3.59 101.64-2 152.41 1.56 49 8.07 97.12 14.9 145.59z" fill="#cc988b"/><path d="m680.36 1217c-1.86 16.54-5.06 32.82-10.11 48.69-3.41 10.78-7.41 21.33-18.05 26.74-2.93 1.46-6.12 2.62-9.45 3.41-.36-1.6-.71-3.15-1.02-4.7 15.57-3.9 21.02-15.61 25.45-30.55 4.26-14.23 7.05-28.82 8.74-43.59.32-2.79 4.75-2.84 4.44 0z" fill="#cc988b"/><path d="m838.01 1261.7c-2.93 19.42-11.13 38.23-18.18 56.41-6.16 16.01-12.33 32.11-15.39 49-1.64 8.87-2.62 17.87-3.77 26.83-.53 4.21-1.11 8.43-1.82 12.64l-26.61-5.19s.13-4.79 1.11-13.04c1.15-9.58 3.37-23.86 7.76-40.89 8.12-31.8 27.32-68.73 32.5-93.12 5.19-24.39 0-67.27 0-67.27l27.36 3.68c.02 0 1.48 41.42-2.96 70.95z" fill="#292a38"/><path d="m800.68 1393.9c-.53 4.21-1.11 8.43-1.82 12.64l-26.61-5.19s.13-4.79 1.11-13.04z" fill="#fff"/><path d="m935.12 857.05c-.31 12.15-.75 29.27-1.24 48.51-.71 23.77-1.51 50.78-2.39 75.74-1.2 32.19-2.48 61.02-3.73 75.3-1.91 21.68-10.29 154.85-12.86 184.65-.27 2.97-2.84 5.14-5.81 5.01l-300.08-17.83c-3.1-.22-5.45-2.93-5.14-6.03 3.46-34.9 22.17-220.48 31.22-278.13 9.98-63.77 34.54-250.11 63.37-299.99 19.42-33.61 68.07-90.6 68.07-90.6s71.26 23.64 93.44 38.05c22.17 14.41 46.96 73.92 57.91 110.11 16.71 55.44 18.97 87.72 17.24 155.21z" fill="#373e73"/><path d="m933.88 905.57c-.71 23.77-1.51 50.78-2.39 75.74-16.27-4.7-39.25-12.77-57.69-24.83-32.15-21.06-47.67 3.86-91.44-21.6-12.24-7.14-34.94-32.73-50.47-60.27-15.52-27.54-23.28-85.01-23.28-85.01s9.45 19.42 22.17 31.62c12.73 12.2 9.98 17.16 30.47 42.13 20.53 24.97 46.03 34.37 45.5 32.68-.53-1.64 29.45-29.36 29.45-29.36s60.39 23.6 97.68 38.9z" fill="#1d2347"/><path d="m1201.1 797.19s-5.94 8.2-15.88 21.2c-4.66 6.08-10.2 13.21-16.36 21.06-30.11 37.87-76.23 92.1-116.27 123.19-19.6 15.21-37.78 25.68-51.93 27.27-23.41 2.57-46.03-14.01-67.72-30.11-57.47-42.7-96.72-93.13-96.72-93.13l78.62-104.39 80.4 112.15 117.87-88.11 21.37-16.01 15.08-11.26z" fill="#ff9169"/><path d="m917.87 512.14c-.31 2.79-.62 5.5-.93 8.07-2.62-.89-5.72-2.08-8.56-3.73-3.28-1.86-5.59-4.12-7.18-5.94 4.12.49 10.37 1.15 16.67 1.6z" fill="#fff"/><path d="m909.09 1246.2s-86.3 17.32-160.95 8.45-139.15-26.27-139.15-26.27 108.1-25.47 121.41-21.77c13.31 3.69 178.69 39.59 178.69 39.59z" fill="#373e73"/><path d="m1143.6 770.23s-5.2-18.19 0-36.9 21.83-37.68 38.98-48.85c14.22-9.26 42.61-25.46 51.45-20.79 8.83 4.68 5.46 14.29 1.3 17.67s-22.09 18.45-22.09 18.45 16.37-2.6 35.08-11.69c7.03-3.42 24.92-15.67 33-17.15 12.73-2.34 16.89 5.46 16.89 5.46s10.49-.6 14.29 4.42c6.5 8.57 2.08 16.11-2.34 22.87s-14.03 16.63-14.03 16.63 8.06 5.46-1.04 18.19c-9.09 12.73-64.96 49.11-76.39 55.09s-28.19 12.83-28.19 12.83-25.59 5.62-26.37 5.36c-.79-.28-20.54-41.59-20.54-41.59z" fill="#ff9169"/><path d="m1237.7 726.16c-.81 0-1.59-.45-1.98-1.22-.55-1.09-.11-2.42.98-2.98.29-.15 29.16-14.76 46.02-26.45 14.74-10.23 14.61-15 14.61-15.05-.36-1.17.32-2.29 1.49-2.65 1.17-.37 2.44.42 2.8 1.58.5 1.62.81 7.84-16.37 19.76-17.11 11.87-46.26 26.62-46.55 26.77-.32.16-.66.24-1 .24z" fill="#e06234"/><path d="m1255.4 749.02c-.84 0-1.65-.48-2.02-1.29-.51-1.11-.02-2.43 1.09-2.94.11-.05 10.81-4.96 18.22-9.36 11.66-6.92 19.59-14.66 19.67-14.73.87-.85 2.27-.84 3.13.03s.85 2.28-.03 3.13c-.34.33-8.37 8.17-20.52 15.38-7.62 4.53-18.2 9.38-18.64 9.58-.28.14-.59.2-.9.2z" fill="#e06234"/><path d="m1185.2 818.39c-4.66 6.08-10.2 13.21-16.36 21.06-20.09-15.74-38.4-33.97-55.74-53.13l21.37-16.01c15.79 17.39 32.46 33.93 50.73 48.08z" fill="#7a3f3a"/><path d="m1173.4 826.9c-6.3 7.42-17.42 8.33-24.85 2.03-7.42-6.3-8.33-17.42-2.03-24.85 6.3-7.42 17.42-8.33 24.85-2.03 7.42 6.3 8.33 17.43 2.03 24.85z" fill="#fff"/><path d="m712.13 805.79c-17.59-39.05-20.37-81.54-8.25-126.32 6.74-24.9 27.15-46.08 54.59-56.65 20.63-7.94 41.31-7.83 53.96.3 27.67 17.78 100.06 126.11 103.12 130.71l-3.69 2.46c-.75-1.12-74.94-112.16-101.83-129.45-11.48-7.38-30.63-7.34-49.96.11-26.13 10.06-45.53 30.13-51.9 53.67-11.84 43.75-9.15 85.25 8.01 123.33z" fill="#1d2347"/><path d="m878.1 1090c-19.52 57.71-53.56 109.29-98.86 150.02-2.13 1.91 1.02 5.04 3.14 3.14 45.86-41.24 80.24-93.56 100-151.98.91-2.71-3.37-3.87-4.28-1.18z" fill="#1d2347"/><path d="m2642.8 774.38-36.04 100.87s52.99-5.94 56.32-18.72c3.33-12.77 15.52-79.93 15.52-79.93z" fill="#a1412f"/><path d="m2687.9 645.76s-8.97 4.57-18.42 28.62c-9.44 24.05-49.13 102.63-41.02 105.85s64.37 24.27 67.33 24.36c2.95.1 21.77-75.39 19.26-79.21-2.53-3.8-27.15-79.62-27.15-79.62z" fill="#ffb469"/><path d="m2884.4 1545.5c2.78 32.2 9.41 165.52 11.06 199.18h165.71c.89-47.93 5.69-302.97 8.5-348.49 1.2-19.6 1.06-59.51.44-100.89-.04-1.82-.09-3.64-.09-5.45-.98-62.88-2.97-127.18-2.97-127.18l-160.13-48.78-41.24 103.46s-3.9 73.48 6.47 118.27c10.44 44.74 9.11 172.94 12.25 209.88z" fill="#292a38"/><path d="m2867.2 1744.7c1.54-50.38 10.49-331 20.65-378.03 11.13-51.75 3.33-167.31 3.33-167.31l-188.82-36.67s.35 35.83.44 84.34c0 2.79.04 5.59 0 8.47.09 43.41-.04 95.39-.75 140.71-1.43 90.14 8.62 305.03 10.71 348.49z" fill="#292a38"/><path d="m2872.2 1318.6c-.97 0-1.86-.64-2.13-1.62-.33-1.18.36-2.4 1.54-2.73.08-.02 8.36-2.42 11.19-8.75 1.83-4.09 1.2-12.09.54-20.56-.42-5.42-.86-11.02-.73-16.28.34-13.48 0-59.7 0-60.16-.01-1.23.98-2.23 2.2-2.23h.02c1.22 0 2.21.98 2.22 2.2 0 .47.34 46.76 0 60.31-.13 5.04.3 10.52.72 15.83.74 9.44 1.38 17.59-.91 22.71-3.68 8.25-13.63 11.09-14.05 11.21-.22.04-.41.07-.61.07z" fill="#41414f"/><path d="m2740.4 1194.7-37.65 60.8c.04-2.88 0-5.68 0-8.47l33.84-54.68c.67-1.02 2.04-1.37 3.06-.71 1.06.67 1.37 2 .75 3.06z" fill="#41414f"/><path d="m3070.1 1295.3c-17.07-11.17-41.6-29.71-48.16-47.23-10.02-26.65-11.71-71.97-11.8-73.88-.04-1.24.93-2.26 2.13-2.31 1.2.04 2.26.93 2.31 2.13 0 .49 1.77 46.52 11.49 72.46 5.81 15.43 27.54 32.37 43.95 43.37-.01 1.83.04 3.65.08 5.46z" fill="#41414f"/><path d="m2874.2 1393.1c-1.15 0-2.12-.88-2.21-2.05-.03-.43-3.34-43.47-3.88-59.96-.23-6.75.52-14.29 1.31-22.27 1.2-12.14 2.45-24.7.65-36.79-3.04-20.46-2.05-73.12-2-75.35.02-1.21 1.01-2.17 2.22-2.17h.04c1.23.03 2.2 1.03 2.17 2.26-.01.54-1.03 54.52 1.96 74.61 1.88 12.64.55 26.05-.62 37.88-.78 7.83-1.51 15.23-1.29 21.68.55 16.39 3.84 59.34 3.88 59.77.09 1.22-.82 2.29-2.04 2.38-.08.01-.13.01-.19.01z" fill="#41414f"/><path d="m2949 374.74c-2.55-7.45-2.54-11.56-3.04-19.15-.62-9.35-5.4-17.1-13.52-20.98-2.34-9.08-6.68-17.02-16.19-21.27-3.19-1.43-6.05-1.64-9.36-2.34-4.39-.93-6.45-2.49-10.23-4.45-4.74-2.46-8.01-1.58-12.86-.54-4.24.91-7.26.95-11.64.8-2.91-.1-5.27-.41-8.2.04-1.12.17-2.2.4-3.27.66-4.77-.57-9.56-.8-14.36-.3-9.52.99-17.29 5.97-26.79 6.65-7.26.52-14.46 2.58-20.07 7.39-7.41 6.36-6.93 13.51-9.85 22.08-1.69 4.96-4.78 10.76-2.14 16.22 2.89 5.99 10.3 3.58 15.68 3.08 14.64-1.36 32.68-.69 47.99-5.07 4.41 10.5 7.5 21.7 12.07 32.05 9.33 21.15 23.16 60.31 52.87 57.98 22.86-1.79 30.97-37.8 33.91-55.44 1.01-5.96.98-11.62-1-17.41z" fill="#292a38"/><path d="m2954.1 288.42c-1.55-2.57-4.18-3.85-6.2-5.93-4.11-4.22-4.36-9.01-6.45-14.12-1.75-4.27-3.93-7.51-8.47-8.98-11.54-3.74-23.1 7.11-29 15.65-9.16 13.27-12.71 29.91-6.51 45.09.69 1.69 2.72 1.79 3.78.94.28 1.34 1.72 2.48 3.24 1.56.33-.2.69-.42 1.03-.62 10.21 2.63 27.68-5.24 34.67-8.48 9.09-4.22 20.65-13.93 13.91-25.11z" fill="#292a38"/><path d="m2874.9 260.65c-4 17.78 5.66 35.88 13.09 51.39.35.73.92 1.07 1.53 1.16 1.35 2 3.09 3.52 5.64 3.4 4.21-.2 5.63-4.01 5.68-7.89.12-8.76-4.32-17.72-5.12-26.51-.83-9.12.12-19.66-4.29-28.02-6.46-12.24-14.45-2.8-16.53 6.47z" fill="#292a38"/><path d="m2955 319.38c-4.36-7.2-18.89-6.4-27.52-5.93-.12-.02-.22-.07-.35-.08-5.91-.11-13.8 3.67-9.75 10.86 4.48 7.94 18.97 6.56 26.31 5.71 5-.57 15.94-2.91 11.31-10.56z" fill="#292a38"/><path d="m2786.3 366.82s-3.22-17.32 12.09-33.41 48.69-24.02 82.95-18.48 48.97 29.1 56.13 47.66c7.17 18.57.79 55.06.79 55.06z" fill="#292a38"/><path d="m2830.4 501.64 2.55 16.78 3.65 23.97.36 2.55v.05l5.16 34.19.73 4.69s10.94 25.02 35.49 24.49c24.44-.57 53.42-34.45 53.42-34.45l-4.79-30.7v-.05l-2.24-14.38-11.26-72.13z" fill="#ca5f49"/><path d="m2833 518.42 4.05 26.53v.04s13.1 2.17 38.13-12.51 33-57.61 33-57.61-60.49 32.66-66.03 37.21c-2.56 2.09-5.98 4.26-9.15 6.34z" fill="#a1412f"/><path d="m2920.5 430.71c.44 49.93-20.13 78.76-47.01 90.73-26.96 12.06-55.25 14.46-72.55-14.86-9.76-16.63-13.17-59.11-14.23-92.9v-.22c0-.22 0-.44-.04-.67 0-1.15-.04-2.22-.09-3.33-.09-1.91-.13-3.68-.13-5.45v-.49c0-.35-.04-.71-.04-1.02 0-.98-.04-1.86-.04-2.79-.35-19.16 0-32.9 0-32.9s21.24-26.43 54.46-20.22c33.11 6.25 79.23 34.14 79.67 84.12z" fill="#ca5f49"/><path d="m2799 426.45c.73-1.92 2.03-3.36 4.02-3.68 2.2-.36 3.81 1.37 4.4 3.46 1.04 3.66 1.46 9.85-1.73 12.56-5.51 4.68-8.99-6.25-6.69-12.34z" fill="#292a38"/><path d="m2848.7 425.09c.77-1.92 2.16-3.35 4.3-3.66 2.36-.34 4.11 1.39 4.76 3.49 1.14 3.67 1.64 9.87-1.77 12.56-5.9 4.66-9.73-6.31-7.29-12.39z" fill="#292a38"/><path d="m2786.3 366.82s77.5-3.86 86.63-1.22 13.69 16.57 17.53 33.38 1.44 13.61 8.65 20.61c7.2 7 16.83 52.84 16.83 52.84s11.03-17.98 11.03-22.3-2.88-36.26-8.17-56.68c-5.28-20.41-16.09-34.34-29.54-39.62s-58.6-19.93-60.04-20.41-26.66 9.35-29.3 12.24-13.62 21.16-13.62 21.16z" fill="#292a38"/><path d="m2925.8 454.11s14.43-22.9 13.23-51.15c-1.2-28.24-4.56-44.81-37.7-60.42s-72.05-9.13-72.05-9.13 15.85 14.65 18.97 14.65 33.46 15.76 35.94 17.25c2.48 1.48 24.58 36.88 24.58 36.88z" fill="#292a38"/><path d="m2887.4 430.74s.38-23.99 19.04-21.27 13.38 38.02 9.3 48.35-14.65 17.61-14.65 17.61z" fill="#ca5f49"/><path d="m2816.5 479.26s2.5 11.38 18.16 11.38c18.61 0 23.66-14.01 23.66-14.01s-1.62.14-4.85.42c-3.95.33-10.32.89-19.31 1.65-7.47.61-13.13.66-15.84.61-1.2-.01-1.82-.05-1.82-.05z" fill="#fff"/><path d="m2899.5 428.33c8.28 5.14 6.82 19.36 2.04 26.26-1.61 2.33-5.46.12-3.83-2.24 2.24-3.23 3.4-6.72 3.18-10.68-.17-3.04-.8-7.75-3.62-9.51-2.42-1.5-.2-5.34 2.23-3.83z" fill="#a1412f"/><path d="m2837.5 463.74c-3.08.24-8.89 1.22-11.71-.14-4.74-2.29-2.97-7.96-2.62-11.73.65-7.1 1.3-14.19 1.95-21.29.26-2.84-4.18-2.82-4.43 0-.57 6.21-1.14 12.42-1.71 18.63-.38 4.1-1.62 8.97-.51 12.99 2.14 7.75 12.92 6.44 19.04 5.97 2.82-.21 2.84-4.65-.01-4.43z" fill="#a1412f"/><path d="m2875.3 404.97c-3.97-3.98-8.9-5.6-14.47-5.72-6.3-.15-12.59.52-18.66 2.27-3.3.95-5.61 4.14-4.37 7.66.24.69.77 1.41 1.55 1.55 4.86.87 10.52-.29 15.44-.64 6.31-.44 12.63-.89 18.94-1.33 1.86-.13 2.99-2.36 1.57-3.79z" fill="#292a38"/><path d="m2811.3 410.44c-.18.71-.66 1.46-1.42 1.64-4.79 1.29-10.51.58-15.43.62-2.62 0-5.19.04-7.8.09 0-1.15-.04-2.22-.09-3.33-.09-1.91-.13-3.68-.13-5.45v-.49c0-.35-.04-.71-.04-1.02.35-.04.75-.09 1.15-.13 6.3-.67 12.59-.49 18.8.75 3.37.72 5.89 3.69 4.96 7.32z" fill="#292a38"/><path d="m3076.4 1198.2s-5.41.93-14.59 2.44c-3.5-10.64-9.45-28.03-11.75-29.8-2.62-2.04-9.67 22.97-12.46 33.48-47.36 6.92-127 16.54-174.1 11.62-70.29-7.41-170.77-7.54-170.77-7.54s3.2-155.9 9.18-297.05c6.56-154.45 16.01-295.62 18.89-302.94 5.54-14.06 117.25-56.58 117.25-56.58s18.67 17.38 43.1 14.46c24.43-2.97 45.85-23.02 45.85-23.02s132.28 69.98 144.12 91.93c11.84 22-11.84 341.55 0 381.32 11.84 39.78-.58 82.61 3.41 103.32 4 20.71 1.87 78.36 1.87 78.36z" fill="#ffb469"/><path d="m3049.5 1168h-.12c-1.22-.07-2.16-1.11-2.1-2.33.05-.94 4.96-94.3 2.78-114.95-.48-4.54-1.21-9.82-2.02-15.63-2.92-20.95-6.91-49.65-2.95-74.74 4.89-30.95-1.59-92.49-1.66-93.1-.13-1.22.75-2.31 1.97-2.44 1.24-.11 2.31.75 2.44 1.97.27 2.55 6.6 62.74 1.63 94.27-3.86 24.44.08 52.76 2.96 73.44.82 5.87 1.56 11.2 2.04 15.78 2.21 21-2.56 111.79-2.76 115.65-.07 1.16-1.04 2.08-2.21 2.08z" fill="#de8026"/><path d="m2978.4 949.31c-17.12 13.67-52.04 5.24-66.86-4.92-46.58-31.92-77.31-83.78-110.11-128.72-2.36-3.23-40.35-55.04-40.35-55.04l43.28-45.89s94.56 78.95 117.66 98.91c15.88 13.69 56.64 58.34 58.6 60.86 17.2 22.01 22.72 54.88-2.22 74.8z" fill="#ca5f49"/><path d="m2689.5 776.5s-.26-24.38-10.54-42.72c-11.55-20.6-39.01-80.89-35.84-89.12 3.17-8.22 6.2-10 6.2-10s-6.1-14.57-3.01-23.16 9.14-12.13 9.14-12.13l26.02 19.43s65.03 94.58 67.24 111.44-3.22 34.99-25.71 41.68c-19.67 5.85-33.5 4.58-33.5 4.58z" fill="#ca5f49"/><path d="m2804.3 714.75s-29.58-61.57-35.33-68.57c-11.32-13.78-37.98-41.15-60.82-52.71s-37.35-7.55-37.35-7.55-14.77-2.72-19.16 9.15c-2.29 6.21 1.24 13.9 4.34 19.2 2.95 5.04 13.07 16 13.07 16s-13.63 1.9-12.16 13.74c.91 7.36 11.33 18.75 22.38 28.13 7.86 6.67 27.53 31.36 35.93 43.82 9.24 13.69 19.18 27 30.82 38.76 22.57 22.8 52.98-1.29 52.98-1.29l13.85-30.97z" fill="#ca5f49"/><path d="m2742.5 755.92s-3.77 14.28-9.76 35.43c-2.22 7.8-4.74 16.5-7.49 25.81-4.35 14.72-9.27 30.82-14.5 46.83-11.09 34.1-18.09 78.98-49.22 97.43-22.39 13.3-92.1-4.97-54.77-86.16 7.01-15.3 32.19-59.24 53.13-95.25 5.37-9.22 10.42-17.92 14.86-25.45 9.45-16.1 15.96-27.05 15.96-27.05z" fill="#ca5f49"/><path d="m2738.4 748.15c-.75.16-1.57-.08-2.11-.69-3.04-3.4-13.46-16.87-22.87-30.23-9.93-14.1-23.9-30.94-30.87-38.82-1.93-2.18-4.79-4.86-7.82-7.69-9-8.43-20.2-18.91-20.12-28.32.06-8.16 5.51-12.05 10.28-13.57-2.27-2.62-5.69-6.62-8.67-10.33-5.28-6.56-6.42-12.48-6.47-12.73-.22-1.2.49-2.34 1.77-2.58 1.2-.23 2.36.56 2.59 1.76.01.05 1.03 5.14 5.56 10.77 4.9 6.08 11.01 13 11.07 13.07.56.63.71 1.53.38 2.31-.32.78-1.07 1.32-1.91 1.37-1.03.06-10.1.92-10.18 9.96-.06 7.46 10.8 17.63 18.72 25.05 3.1 2.91 6.04 5.65 8.11 7.99 7.03 7.95 21.13 24.95 31.17 39.2 10.02 14.23 20.01 26.98 22.55 29.83.82.91.74 2.31-.18 3.13-.28.27-.63.44-1 .52z" fill="#a1412f"/><path d="m2730.2 675.62c-.8.17-1.67-.12-2.21-.81-.1-.14-10.64-13.55-28.4-26.32-17.31-12.45-23.35-13.98-23.41-13.99-1.18-.28-1.93-1.46-1.67-2.64s1.39-1.94 2.6-1.7c.66.14 6.95 1.69 25.08 14.73 18.31 13.17 28.87 26.63 29.31 27.2.75.97.58 2.36-.39 3.11-.28.22-.59.36-.91.42z" fill="#a1412f"/><path d="m2740.2 646.42c-.92.2-1.91-.22-2.39-1.09-.02-.04-3.21-5.46-16.78-18.92-13.76-13.65-50.22-35.12-50.58-35.33-1.06-.62-1.41-1.98-.79-3.04s1.98-1.41 3.04-.79c1.52.89 37.3 21.96 51.46 36.01 14.18 14.07 17.4 19.67 17.53 19.9.6 1.07.22 2.42-.85 3.02-.22.12-.43.2-.64.24z" fill="#a1412f"/><path d="m2726.6 765.34c-1.3.27-2.73.49-4.32.62-14.24 1.2-22.25-6.67-22.58-7.01-.86-.87-.86-2.27.01-3.14.86-.86 2.26-.86 3.13 0 .28.27 6.97 6.74 19.07 5.72 8.89-.75 11.89-4.49 11.92-4.53.74-.95 2.13-1.16 3.09-.43.97.73 1.18 2.08.48 3.06-.34.49-3.17 4.1-10.8 5.71z" fill="#a1412f"/><path d="m2939.3 865.83 46.02-117.63s96.83 73.67 97.94 75.99-67.54 132.81-110.23 136.25c-42.68 3.44-71.81-23.59-71.81-23.59z" fill="#ca5f49"/><path d="m2957.7 808.01s-12.61 16.48-9.89 20.05c2.73 3.57 39.82 30.95 50.63 39.82s37.75 36.12 37.75 36.12.5 5.45 7.71-4.25 10.53-15.24 10.81-16.63 2.49-14.97-2.22-18.85c-4.71-3.87-94.79-56.26-94.79-56.26z" fill="#fff"/><path d="m2950.6 810.41 114.56 93.59s18.47-57.01 36.95-96.08c12.94-27.35 12.73-73.95 12.93-94.67.18-18.96-2.7-41.31-14.08-57.1-8.44-11.72-22.58-20.52-34.09-28.98-4.44-3.27-61.75-39.96-61.75-39.96s-11.03 36.54-12.09 41.78c-1.04 5.25-42.43 181.42-42.43 181.42z" fill="#ffb469"/><path d="m2873.8 566.53s12.19 36.39 17.18 37.22 27.48-18.85 36.05-28.55 17.49-22.54 17.49-22.54l-17.49-9.44s-14.85 11.87-26.17 16.37c-12.1 4.8-27.06 6.94-27.06 6.94z" fill="#fff"/><path d="m2838 551.79-19.9 7.81s4.83 11.33 10.73 20.32c7.45 11.34 17.94 23.86 21.82 23.1s23.1-36.48 23.1-36.48-14.14-2.69-21.9-7.13-13.85-7.62-13.85-7.62z" fill="#fff"/><path d="m2920.8 683.22c.44-2.45 2.73-4.09 5.18-3.71 12.64 1.94 49.04 7.56 50.87 8.48 1.36.68 1.48 2.45.83 6.19-.41 2.37-2.55 4.04-4.94 3.8-12.7-1.23-50.58-5.11-51.73-7.65-.82-1.81-.87-3.47-.21-7.11z" fill="#fff"/><path d="m2909.4 452.79c-5.71 0-5.72 8.87 0 8.87 5.7 0 5.71-8.87 0-8.87z" fill="#fff"/><path d="m2732.8 791.35c-2.22 7.8-4.74 16.5-7.49 25.81-12.55-1.46-24.79-4.79-36.23-11.04-11.97-6.56-21.42-15.65-29.13-26.12 5.37-9.22 10.42-17.92 14.86-25.45 6.7 11.53 15.25 21.68 27.36 28.29 9.57 5.23 19.95 7.67 30.63 8.51z" fill="#292a38"/><path d="m2957.7 810.23c-.31 0-.63-.07-.93-.21-1.11-.51-1.6-1.83-1.08-2.94 1.39-3.01 34.21-73.8 43.97-87.13 10.04-13.7 32.93-39.06 55.05-47.16 22.01-8.06 39.33-4.85 40.06-4.71 1.2.23 1.99 1.39 1.75 2.59-.23 1.2-1.39 1.99-2.59 1.76-.17-.03-16.9-3.09-37.69 4.52-21.13 7.73-43.25 32.31-52.99 45.61-9.5 12.97-43.18 85.64-43.52 86.37-.39.83-1.19 1.3-2.03 1.3z" fill="#de8026"/><path d="m3001.5 720.87c-.26 0-.52-.05-.78-.14-1.15-.43-1.73-1.71-1.3-2.85l24.57-65.76c.43-1.15 1.71-1.72 2.85-1.3 1.15.43 1.73 1.71 1.3 2.85l-24.57 65.76c-.33.89-1.17 1.44-2.07 1.44z" fill="#de8026"/><path d="m2930.2 326.21c-2.25-6.22-7.03-10.59-13.68-11.73-3.69-.63-5.99.01-9.97-1.81-2.3-1.05-4.1-2.97-6.48-3.97-3.53-1.49-6.94-1.75-10.72-1.35-2.81.29-2.84 4.73 0 4.43 7.89-.82 11.19 3.86 17.79 6.06 7.55 2.51 15.29-.1 18.78 9.55.96 2.67 5.25 1.52 4.28-1.18z" fill="#41414f"/><path d="m2938.5 282.43c-3.24 5.01-6.2 10.55-10.12 15.07-3.84 4.43-9.04 7.09-14.18 9.7-2.55 1.29-.3 5.12 2.24 3.83 5.47-2.78 10.99-5.7 15.08-10.4 4.18-4.81 7.36-10.63 10.81-15.97 1.55-2.4-2.28-4.62-3.83-2.23z" fill="#41414f"/><path d="m2923.1 336.87c-16.27 1.06-31.28 6.38-44.48 15.99-2.28 1.66-.07 5.51 2.24 3.83 12.56-9.14 26.72-14.37 42.24-15.38 2.83-.19 2.85-4.63 0-4.44z" fill="#41414f"/><path d="m2881.4 337.25c-7.82 3.85-15.78 8.24-19.59 16.5-1.19 2.57 2.63 4.83 3.83 2.24 3.5-7.59 10.84-11.39 18-14.91 2.56-1.26.32-5.08-2.24-3.83z" fill="#41414f"/><path d="m2984.6 878.5c-.57 0-1.14-.22-1.57-.65l-34-34.23c-.87-.87-.86-2.27.01-3.14s2.27-.85 3.14.01l34 34.23c.87.87.86 2.27-.01 3.14-.44.43-1.01.64-1.57.64z" fill="#a1412f"/></g></svg>