<svg width="384" height="540" viewBox="0 0 384 540" fill="none" xmlns="http://www.w3.org/2000/svg">
<g clip-path="url(#clip0_4141_8684)">
<g style="mix-blend-mode:multiply">
<path d="M328.35 540C352.927 540 372.85 530.504 372.85 518.79C372.85 507.076 352.927 497.58 328.35 497.58C303.773 497.58 283.85 507.076 283.85 518.79C283.85 530.504 303.773 540 328.35 540Z" fill="#E8E8E8"/>
</g>
<path d="M24.9902 526.6L207.07 421.48C208.92 420.41 208.92 418.67 207.07 417.6L190.23 407.86C189.191 407.332 188.041 407.057 186.875 407.057C185.709 407.057 184.56 407.332 183.52 407.86L1.39006 512.99C-0.459936 514.06 -0.459936 515.79 1.39006 516.86L18.28 526.61C19.3203 527.136 20.4702 527.41 21.6362 527.408C22.8021 527.406 23.9514 527.129 24.9902 526.6Z" fill="#E0E0E0"/>
<path d="M202.04 15.6001L37.88 110.4C33.25 113.08 29.4999 119.58 29.4999 124.93V514.31C29.4999 519.65 33.25 521.82 37.88 519.15L202.04 424.37C206.67 421.7 210.42 415.2 210.42 409.85V20.4701C210.42 15.1201 206.67 12.9601 202.04 15.6001Z" fill="#FFB092"/>
<path d="M37.88 110.4L202.04 15.6C206.18 13.21 209.61 14.7 210.29 18.86C209.66 13.86 206.22 8.33003 202.04 5.92003L195.21 1.97003C190.58 -0.699971 183.07 -0.699971 178.44 1.97003L14.2799 96.75C11.8043 98.3 9.76376 100.454 8.34998 103.01L31.9501 116.63C33.3679 114.085 35.4082 111.942 37.88 110.4Z" fill="#FF8759"/>
<path d="M5.90002 500.68C5.90002 506.03 9.65992 512.53 14.2899 515.2L21.11 519.15C25.3 521.56 31.8201 521.77 36.4601 519.82C32.4601 521.32 29.4601 519.09 29.4601 514.31V124.93C29.562 122.01 30.405 119.164 31.91 116.66L8.30994 103.04C6.80614 105.541 5.96311 108.384 5.85999 111.3L5.90002 500.68Z" fill="#FF662A"/>
<path d="M42.4 162.3L197.52 72.73C200.3 71.13 202.52 72.43 202.52 75.64V363.76C202.428 365.504 201.928 367.201 201.059 368.716C200.191 370.231 198.978 371.52 197.52 372.48L42.39 462.04C39.61 463.65 37.39 462.35 37.39 459.14V171.01C37.4821 169.267 37.9837 167.57 38.8541 166.056C39.7246 164.543 40.9393 163.256 42.4 162.3Z" fill="#FFFAF8"/>
<path d="M119.96 77.79C119.092 78.3442 118.368 79.0963 117.846 79.9845C117.325 80.8727 117.021 81.8718 116.96 82.9C116.96 84.78 118.28 85.54 119.96 84.6C120.819 84.0401 121.533 83.2856 122.046 82.3978C122.559 81.5099 122.855 80.5137 122.91 79.49C122.91 77.6 121.62 76.85 119.96 77.79Z" fill="#EFF7FF"/>
<path d="M119.96 431.1C113.53 434.81 108.32 443.84 108.32 451.27C108.32 458.7 113.53 461.71 119.96 457.99C126.39 454.27 131.61 445.25 131.61 437.82C131.61 430.39 126.4 427.38 119.96 431.1Z" fill="#EFF7FF"/>
<path d="M92.1 107.76C90.3801 108.877 88.9489 110.386 87.9235 112.162C86.898 113.938 86.3076 115.932 86.2001 117.98C86.2001 121.74 88.84 123.27 92.1 121.38C93.8186 120.264 95.2489 118.757 96.2743 116.983C97.2996 115.208 97.8908 113.216 97.9999 111.17C97.9999 107.4 95.36 105.88 92.1 107.76Z" fill="#EFF7FF"/>
<path d="M106.52 106.48C106.52 108.99 108.4 109.94 110.72 108.6L149.53 86.2C150.73 85.4457 151.736 84.4185 152.464 83.202C153.192 81.9856 153.622 80.6144 153.72 79.2C153.72 76.7 151.84 75.75 149.53 77.08L110.72 99.49C109.519 100.242 108.513 101.267 107.783 102.482C107.053 103.697 106.62 105.067 106.52 106.48Z" fill="#EFF7FF"/>
<path d="M18.9601 174.77C20.3322 175.666 21.4737 176.872 22.2921 178.292C23.1105 179.711 23.5826 181.304 23.67 182.94C23.67 185.94 21.5601 187.17 18.9601 185.67C17.5846 184.774 16.4393 183.566 15.6176 182.145C14.7958 180.724 14.3206 179.129 14.2301 177.49C14.2301 174.48 16.3501 173.26 18.9601 174.77Z" fill="#9DD2EC"/>
<path d="M18.9601 211.13C20.3322 212.026 21.4737 213.232 22.2921 214.652C23.1105 216.071 23.5826 217.664 23.67 219.3C23.67 222.3 21.5601 223.53 18.9601 222.03C17.5846 221.134 16.4393 219.926 15.6176 218.505C14.7958 217.084 14.3206 215.489 14.2301 213.85C14.2301 210.84 16.3501 209.6 18.9601 211.13Z" fill="#9DD2EC"/>
<path d="M17.4999 175.49C18.8724 176.388 20.0147 177.597 20.8346 179.018C21.6545 180.439 22.1292 182.032 22.2201 183.67C22.2201 186.67 20.0999 187.9 17.4999 186.39C16.1253 185.496 14.9815 184.29 14.1613 182.871C13.341 181.451 12.8676 179.857 12.7799 178.22C12.7799 175.21 14.8899 173.99 17.4999 175.49Z" fill="#EFF7FF"/>
<path d="M17.4999 211.86C18.8733 212.755 20.0167 213.961 20.8368 215.381C21.6569 216.8 22.1308 218.393 22.2201 220.03C22.2201 223.03 20.0999 224.26 17.4999 222.76C16.1257 221.863 14.9823 220.655 14.1622 219.234C13.3422 217.813 12.8685 216.218 12.7799 214.58C12.7799 211.6 14.8899 210.35 17.4999 211.86Z" fill="#EFF7FF"/>
<path d="M234.02 84.75C234.02 81.54 231.77 80.24 229.02 81.84L210.42 92.6L73.86 171.45C72.4006 172.407 71.1872 173.694 70.3185 175.207C69.4497 176.721 68.9501 178.417 68.86 180.16V468.25C68.86 471.46 71.12 472.76 73.86 471.15L210.47 392.28L228.99 381.59C230.449 380.633 231.662 379.345 232.53 377.832C233.399 376.319 233.899 374.622 233.99 372.88L234.02 84.75Z" fill="#FFF0EA"/>
<path d="M235.96 84.75C236.034 83.7834 235.847 82.8146 235.417 81.9454C234.988 81.0762 234.333 80.3386 233.52 79.81C232.656 79.3695 231.689 79.1704 230.721 79.2338C229.753 79.2972 228.819 79.6206 228.02 80.17L72.89 169.73C71.123 170.846 69.6536 172.375 68.6085 174.185C67.5633 175.995 66.9736 178.032 66.89 180.12V468.25C66.8122 469.216 66.9981 470.184 67.4278 471.053C67.8575 471.921 68.5149 472.656 69.3299 473.18C70.0192 473.58 70.8032 473.787 71.5999 473.78C72.7384 473.754 73.8496 473.426 74.8199 472.83L229.95 383.27C231.707 382.143 233.168 380.611 234.211 378.803C235.255 376.996 235.851 374.965 235.95 372.88L235.96 84.75ZM71.2698 469.83C71.0198 469.68 70.7698 469.14 70.7698 468.25V180.12C70.8719 178.722 71.2906 177.365 71.994 176.152C72.6973 174.94 73.667 173.903 74.8299 173.12L229.96 83.55C230.345 83.3053 230.785 83.1609 231.24 83.13C231.358 83.1216 231.475 83.1458 231.58 83.2C231.83 83.34 232.09 83.89 232.09 84.78V372.88C231.983 374.278 231.562 375.634 230.857 376.846C230.152 378.058 229.182 379.095 228.02 379.88L72.9 469.44C72.12 469.92 71.5298 469.97 71.2698 469.83Z" fill="#FF662A"/>
<path d="M151.43 151.71C168.8 141.71 182.89 149.81 182.89 169.87C182.89 189.93 168.8 214.34 151.43 224.37C134.06 234.4 119.96 226.27 119.96 206.2C119.96 186.13 134.05 161.74 151.43 151.71Z" fill="#FFD3C1"/>
<path d="M151.43 167.5C157.06 164.24 161.64 166.88 161.64 173.39C161.64 179.9 157.06 187.82 151.43 191.07C145.8 194.32 141.22 191.69 141.22 185.18C141.22 178.67 145.79 170.75 151.43 167.5Z" fill="#FF662A"/>
<path d="M171.32 202.21C171.32 191.51 163.81 187.21 154.55 192.53L148.76 195.87C139.5 201.22 131.99 214.22 131.99 224.87V227.75C137.35 229.52 144.09 228.56 151.43 224.32C158.98 219.96 165.9 212.89 171.32 204.64V202.21Z" fill="#FF662A"/>
<path d="M90.5499 268.6L131.03 245.23C132.89 244.16 134.39 245.02 134.39 247.16V248.5C134.327 249.665 133.991 250.798 133.407 251.808C132.823 252.818 132.008 253.675 131.03 254.31L90.5499 277.69C88.6899 278.76 87.1901 277.89 87.1901 275.75V274.41C87.2526 273.245 87.5895 272.112 88.1735 271.102C88.7574 270.093 89.5716 269.235 90.5499 268.6Z" fill="#00DFBF"/>
<path d="M90.5499 268.6L131.03 245.23C132.89 244.16 134.39 245.02 134.39 247.16V248.5C134.327 249.665 133.991 250.798 133.407 251.808C132.823 252.818 132.008 253.675 131.03 254.31L90.5499 277.69C88.6899 278.76 87.1901 277.89 87.1901 275.75V274.41C87.2526 273.245 87.5895 272.112 88.1735 271.102C88.7574 270.093 89.5716 269.235 90.5499 268.6Z" fill="#FF8759"/>
<path d="M88.87 296.84L211.37 226.11C212.3 225.58 213.05 226.01 213.05 227.11V241.4C213.018 241.983 212.849 242.55 212.557 243.055C212.265 243.561 211.859 243.991 211.37 244.31L88.87 315.04C87.94 315.57 87.1901 315.14 87.1901 314.04V299.75C87.2221 299.167 87.3909 298.6 87.6827 298.095C87.9746 297.589 88.3813 297.159 88.87 296.84Z" fill="#00DFBF"/>
<path d="M88.87 296.84L211.37 226.11C212.3 225.58 213.05 226.01 213.05 227.11V241.4C213.018 241.983 212.849 242.55 212.557 243.055C212.265 243.561 211.859 243.991 211.37 244.31L88.87 315.04C87.94 315.57 87.1901 315.14 87.1901 314.04V299.75C87.2221 299.167 87.3909 298.6 87.6827 298.095C87.9746 297.589 88.3813 297.159 88.87 296.84Z" fill="#FFB092"/>
<path d="M90.5499 332.21L131.03 308.83C132.89 307.76 134.39 308.63 134.39 310.77V312.1C134.327 313.265 133.991 314.398 133.407 315.408C132.823 316.418 132.008 317.275 131.03 317.91L90.5499 341.29C88.6899 342.36 87.1901 341.49 87.1901 339.35V338.01C87.2541 336.847 87.5918 335.716 88.1757 334.708C88.7595 333.7 89.5729 332.844 90.5499 332.21Z" fill="#00DFBF"/>
<path d="M90.5499 332.21L131.03 308.83C132.89 307.76 134.39 308.63 134.39 310.77V312.1C134.327 313.265 133.991 314.398 133.407 315.408C132.823 316.418 132.008 317.275 131.03 317.91L90.5499 341.29C88.6899 342.36 87.1901 341.49 87.1901 339.35V338.01C87.2541 336.847 87.5918 335.716 88.1757 334.708C88.7595 333.7 89.5729 332.844 90.5499 332.21Z" fill="#FF8759"/>
<path d="M88.87 360.42L211.37 289.69C212.3 289.16 213.05 289.59 213.05 290.69V304.99C213.019 305.572 212.851 306.138 212.559 306.642C212.267 307.147 211.86 307.574 211.37 307.89L88.87 378.6C87.94 379.13 87.1901 378.7 87.1901 377.6V363.33C87.2221 362.747 87.3909 362.18 87.6827 361.675C87.9746 361.169 88.3813 360.739 88.87 360.42Z" fill="#00DFBF"/>
<path d="M88.87 360.42L211.37 289.69C212.3 289.16 213.05 289.59 213.05 290.69V304.99C213.019 305.572 212.851 306.138 212.559 306.642C212.267 307.147 211.86 307.574 211.37 307.89L88.87 378.6C87.94 379.13 87.1901 378.7 87.1901 377.6V363.33C87.2221 362.747 87.3909 362.18 87.6827 361.675C87.9746 361.169 88.3813 360.739 88.87 360.42Z" fill="#FFB092"/>
<path d="M137.74 368.54L186.1 340.62C187.95 339.55 189.45 340.42 189.45 342.56V357.56C189.387 358.723 189.051 359.856 188.469 360.865C187.887 361.874 187.075 362.733 186.1 363.37L137.74 391.29C135.89 392.36 134.39 391.49 134.39 389.35V374.35C134.453 373.187 134.789 372.054 135.371 371.045C135.953 370.036 136.765 369.177 137.74 368.54Z" fill="#00DFBF"/>
<path d="M137.74 368.54L186.1 340.62C187.95 339.55 189.45 340.42 189.45 342.56V357.56C189.387 358.723 189.051 359.856 188.469 360.865C187.887 361.874 187.075 362.733 186.1 363.37L137.74 391.29C135.89 392.36 134.39 391.49 134.39 389.35V374.35C134.453 373.187 134.789 372.054 135.371 371.045C135.953 370.036 136.765 369.177 137.74 368.54Z" fill="#FF662A"/>
<path d="M245.85 260.88C245.85 260.88 217.29 221.49 215.55 216.8C214.24 213.27 215.64 208.01 215.97 205.57C216.3 203.13 216.77 197.69 217.17 196.17C217.88 193.53 214.46 194.07 212.54 196.47C210.62 198.87 209.94 203.74 208.97 204.53C208 205.32 200.36 194.23 196.37 189.1C192.38 183.97 189.9 180.88 187.48 182.78C185.74 184.15 187.04 187.14 189.92 191.51C191.582 193.87 193.117 196.317 194.52 198.84C194.96 199.78 192.59 199.84 191.31 201.84C190.31 203.38 191.24 205.84 189.91 207.06C188.58 208.28 187.35 210.38 188.81 212.79C191.384 216.862 194.722 220.397 198.64 223.2C202.91 226.2 204.64 227.2 207.16 231.2C209.68 235.2 232.43 276.31 233.96 278.78C235.49 281.25 238.45 286.26 242.96 286.41C247.47 286.56 284.17 254.93 286.06 253.35C292.12 248.35 294.06 247.56 295.06 252.11C295.39 253.53 295.6 255.16 295.83 256.99C296.56 262.75 300.48 283.35 300.48 283.35C300.48 283.35 319.05 292.35 334.34 287.91C349.63 283.47 354.77 277.09 354.77 277.09L347.12 264.62C349.2 259.47 358.82 238.62 361.84 224.07L313.95 216.34C312.95 216.12 311.4 215.73 309.39 215.2C306.76 214.51 300.15 212.2 295.06 216.62C278.58 230.95 245.86 260.88 245.86 260.88" fill="#FFC9B1"/>
<path d="M340.8 502.51L332.21 514.44C332.21 514.44 336.21 516.77 344.68 517.09C352.36 517.38 354.47 514.86 354.76 514.26C356.05 511.47 354.03 506.46 353.48 502.14L340.8 502.51Z" fill="#1F216D"/>
<path d="M332.69 508.71C332.69 508.71 322.29 508.05 315.1 507.14C307.91 506.23 302.21 509.74 303.91 512.71C305.61 515.68 309.55 518.13 315.72 520.2C321 521.98 327.33 523.27 332.84 524.92C338.35 526.57 342.11 528.55 345.31 527.45C348.88 526.22 350.42 524.79 350.11 522.19C349.8 519.59 347.22 511.19 347.22 511.19L332.69 508.71Z" fill="#1F216D"/>
<path d="M354.76 490.52C354.76 490.52 353.46 501.36 353.36 503.68C353.26 506 342.78 506.75 340.8 502.51L340.47 489.26L354.76 490.52Z" fill="#EFB39C"/>
<path d="M344.19 497.19L347.94 513.63C347.94 513.63 348.3 515.63 339.73 516.91C331.16 518.19 317.73 512.43 315.46 511.26C313.19 510.09 312.9 507.76 321.31 508.26C329.72 508.76 332.69 508.74 332.69 508.74L329.97 501.45L344.19 497.19Z" fill="#FFC9B1"/>
<path d="M361.83 224.07L367.75 222.43C367.75 222.43 380.15 261.64 381.52 265.43C382.89 269.22 384.44 273.23 381.77 277.91C378.59 283.47 361.83 305.86 361.83 305.86L351.19 295.44L363.26 273.32L352.62 251.68L361.83 224.07Z" fill="#EFB39C"/>
<path d="M300.88 173.1C299.488 170.492 298.781 167.574 298.825 164.618C298.869 161.662 299.662 158.766 301.13 156.2C307.02 145.2 320.19 139.89 335.87 141.94C343.11 142.89 351.66 148.84 356.35 157.94C361.5 167.94 361.98 188 363.26 195.6L300.88 173.1Z" fill="#2B454E"/>
<path d="M300.52 177.39C300.52 177.39 296.8 184.48 297.44 185.13C298.08 185.78 300.57 186.29 300.57 186.29L300.52 177.39Z" fill="#FFC9B1"/>
<path d="M311.82 154.97C307.82 157.61 300.82 162.44 300.5 178.37C300.18 194.73 302.5 200 304.91 201.9C306.54 203.18 316.09 202.53 320.19 201.57C324.29 200.61 336.08 194.78 340.32 185.93C345.32 175.51 344.32 160.25 336.88 155.82C326.43 149.6 315.25 152.74 311.82 154.97Z" fill="#FFC9B1"/>
<path d="M354.76 277.09C361.93 288.24 368.76 298.09 370.19 310.61C373.26 337.08 363.19 367.35 361.05 386.93C361.05 386.93 367.82 395.73 367.81 406.06C367.81 414.15 354.76 490.52 354.76 490.52C354.76 490.52 345.27 493.41 340.47 489.26L331.47 348.77L336.2 331.67L354.76 277.09Z" fill="#8182BB"/>
<path d="M331.5 348.77L336.23 331.67C345.141 329.324 353.736 325.913 361.83 321.51C361.83 321.51 356.98 330.31 343.1 335.14L335.87 357.14L335.25 407.45L331.5 348.77Z" fill="#00DFBF"/>
<path d="M331.5 348.77L336.23 331.67C345.141 329.324 353.736 325.913 361.83 321.51C361.83 321.51 356.98 330.31 343.1 335.14L335.87 357.14L335.25 407.45L331.5 348.77Z" fill="#585992"/>
<path d="M354.76 277.09C358.59 283.35 367.76 294.09 365.81 304.34C363.45 316.8 356.74 325.56 336.23 331.67L316.98 401.35C316.98 401.35 326.98 410.72 330.07 419.64C333.16 428.56 344.19 497.19 344.19 497.19C344.19 497.19 340.77 502.78 329.97 501.42C329.97 501.42 292.28 415.35 289.62 409.81C286.96 404.27 285.23 400.13 286.43 391.1C287.63 382.07 300.43 283.35 300.43 283.35L354.76 277.09Z" fill="#8182BB"/>
<path d="M361.83 224.07L313.94 216.34C312.94 216.12 311.38 215.72 309.38 215.2C309.38 215.2 307.38 245.2 295.06 252.11C295.35 253.54 295.6 255.11 295.83 256.99C296.56 262.75 300.48 283.35 300.48 283.35C300.48 283.35 319.05 292.35 334.34 287.91C349.63 283.47 354.77 277.09 354.77 277.09L347.12 264.62C349.19 259.47 358.81 238.65 361.83 224.07Z" fill="#D7D7F3"/>
<path d="M349.19 259.71C349 260.16 333.8 268.31 329.28 269.56C336.4 269.2 342.28 267.56 347.11 264.62L349.19 259.71Z" fill="#AEAFE1"/>
<path d="M310.62 155.78C310.62 155.78 308.39 170.89 313.79 179.78C313.79 179.78 315.79 173.78 320.94 174.91C326.09 176.04 326.3 182.75 322.72 186.54C321.818 187.614 320.63 188.411 319.294 188.84C317.958 189.268 316.529 189.31 315.17 188.96C315.17 188.96 314.37 199.89 313.94 209.05C313.52 217.88 311.06 238.17 321.37 246.34C331.68 254.51 357.51 257.25 369.62 240.34C376.36 230.93 367.41 214.28 363.25 195.61C359.42 178.45 357.25 153.01 339.05 148.93C320.85 144.85 310.62 155.78 310.62 155.78Z" fill="#2B454E"/>
</g>
<defs>
<clipPath id="clip0_4141_8684">
<rect width="383.23" height="540" fill="white"/>
</clipPath>
</defs>
</svg>
