<?xml version="1.0" encoding="utf-8"?>
<!-- Generator: Adobe Illustrator 27.5.0, SVG Export Plug-In . SVG Version: 6.00 Build 0)  -->
<svg version="1.1" xmlns="http://www.w3.org/2000/svg" xmlns:xlink="http://www.w3.org/1999/xlink" x="0px" y="0px"
	 viewBox="0 0 500 500" style="enable-background:new 0 0 500 500;" xml:space="preserve">
<g id="Background_Complete">
	<g>
		<rect y="382.398" style="fill:#EBEBEB;" width="500" height="0.25"/>
		<rect x="416.779" y="398.494" style="fill:#EBEBEB;" width="33.122" height="0.25"/>
		<rect x="322.527" y="401.208" style="fill:#EBEBEB;" width="8.693" height="0.25"/>
		<rect x="396.586" y="389.208" style="fill:#EBEBEB;" width="19.192" height="0.25"/>
		<rect x="52.459" y="390.888" style="fill:#EBEBEB;" width="43.193" height="0.25"/>
		<rect x="104.556" y="390.888" style="fill:#EBEBEB;" width="6.333" height="0.25"/>
		<rect x="131.471" y="395.111" style="fill:#EBEBEB;" width="93.676" height="0.25"/>
		<path style="fill:#EBEBEB;" d="M237.014,337.8H43.915c-3.147,0-5.708-2.561-5.708-5.708V60.66c0-3.147,2.561-5.708,5.708-5.708
			h193.099c3.146,0,5.707,2.561,5.707,5.708v271.432C242.721,335.239,240.16,337.8,237.014,337.8z M43.915,55.203
			c-3.01,0-5.458,2.448-5.458,5.458v271.432c0,3.01,2.448,5.458,5.458,5.458h193.099c3.009,0,5.457-2.448,5.457-5.458V60.66
			c0-3.009-2.448-5.458-5.457-5.458H43.915z"/>
		<path style="fill:#EBEBEB;" d="M453.31,337.8H260.212c-3.147,0-5.707-2.561-5.707-5.708V60.66c0-3.147,2.561-5.708,5.707-5.708
			H453.31c3.148,0,5.708,2.561,5.708,5.708v271.432C459.019,335.239,456.458,337.8,453.31,337.8z M260.212,55.203
			c-3.009,0-5.457,2.448-5.457,5.458v271.432c0,3.01,2.448,5.458,5.457,5.458H453.31c3.01,0,5.458-2.448,5.458-5.458V60.66
			c0-3.009-2.448-5.458-5.458-5.458H260.212z"/>
	</g>
	<g>
		<g>
			<path style="fill:#EBEBEB;" d="M55.907,260.811H164.37c4.879,0,8.833,3.955,8.833,8.833l12.008,76.462H59.081l-12.008-76.462
				C47.074,264.766,51.029,260.811,55.907,260.811z"/>
			<path style="fill:#E0E0E0;" d="M184.887,290.382l-0.135-0.396h42v93h-52v-81.849C174.751,295.34,179.15,290.625,184.887,290.382z
				"/>
			<path style="fill:#F0F0F0;" d="M227.195,290.358L227.195,290.358c5.952,0,10.778,4.825,10.778,10.778v81.849h-21.555v-81.849
				C216.418,295.184,221.243,290.358,227.195,290.358z"/>
			<path style="fill:#E0E0E0;" d="M63.887,290.382l-0.135-0.396h42v93h-52v-81.849C53.751,295.34,58.15,290.625,63.887,290.382z"/>
			
				<rect x="116.973" y="317.485" transform="matrix(-1 -1.224647e-16 1.224647e-16 -1 326.3533 700.4706)" style="fill:#E0E0E0;" width="92.407" height="65.5"/>
			<path style="fill:#F5F5F5;" d="M99.411,333.485h103.953c6.272,0,11.356-5.084,11.356-11.356v0
				c0-6.272-5.084-11.356-11.356-11.356H99.411V333.485z"/>
			<path style="fill:#F0F0F0;" d="M106.195,290.358L106.195,290.358c5.952,0,10.778,4.825,10.778,10.778v81.849H95.418v-81.849
				C95.418,295.184,100.243,290.358,106.195,290.358z"/>
			<path style="fill:#E0E0E0;" d="M76.748,347.238H59.081l-12.008-77.594c0-4.879,3.955-8.833,8.833-8.833h0
				c4.879,0,8.833,3.955,8.833,8.833L76.748,347.238z"/>
		</g>
		<g>
			<polygon style="fill:#E9E9E9;" points="391.688,382.985 414.036,234.491 414.036,382.985 420.036,382.985 420.036,233.564 
				442.408,382.985 448.837,382.985 420.835,195.949 420.036,196.068 420.036,189.985 414.036,189.985 414.036,196.047 
				413.215,195.949 385.137,382.985 			"/>
			<g>
				<polygon style="fill:#F4F4F4;" points="447.784,216.693 385.966,216.693 390.969,165.037 442.78,165.037 				"/>
			</g>
		</g>
		<g>
			
				<ellipse transform="matrix(0.9095 -0.4157 0.4157 0.9095 -34.0196 51.9314)" style="fill:#E0E0E0;" cx="102.275" cy="104.108" rx="23.554" ry="23.554"/>
			
				<ellipse transform="matrix(0.9312 -0.3644 0.3644 0.9312 -30.907 44.4325)" style="fill:#F0F0F0;" cx="102.275" cy="104.108" rx="20.027" ry="20.027"/>
			
				<polyline style="fill:#F0F0F0;stroke:#E0E0E0;stroke-width:2;stroke-linecap:round;stroke-linejoin:round;stroke-miterlimit:10;" points="
				103.22,90.369 103.22,104.369 112.498,99.119 			"/>
		</g>
	</g>
</g>
<g id="Backgorund_Simple" style="display:none;">
	<g style="display:inline;">
		<path style="fill:#407BFF;" d="M114.251,54.248c7.528-4.971,16.089-8.028,25.201-8.165c20.443-0.308,38.527,13.794,50.728,30.199
			c12.201,16.405,20.314,35.531,32.274,52.113c23.79,32.986,64.283,54.516,104.833,51.403c23.569-1.809,45.762-11.365,68.75-16.87
			c9.103-2.18,19.111-3.631,27.489,0.553c18.852,9.418,18.944,35.27,14.867,53.064c-5.192,22.66-21.747,44.537-42.526,55.976
			c-22.266,12.257-48.089,13.928-72.941,15.223c-22.055,1.149-44.646,2.79-65.51,10.601c-17.36,6.499-31.115,19.003-43.513,32.403
			c-12.331,13.328-24.021,29.77-43.077,33.353c-22.486,4.228-44.757-14.049-51.204-36.002c-6.446-21.953-0.289-45.791,9.773-66.339
			c5.693-11.626,12.829-24.479,8.676-36.739c-2.657-7.843-9.407-13.435-15.427-19.121c-16.144-15.25-29.017-34.26-35.48-55.507
			c-6.463-21.246-6.251-44.758,2.239-65.278C94.486,72.829,103.269,61.5,114.251,54.248z"/>
		<path style="opacity:0.9;fill:#FFFFFF;enable-background:new    ;" d="M114.251,54.248c7.528-4.971,16.089-8.028,25.201-8.165
			c20.443-0.308,38.527,13.794,50.728,30.199c12.201,16.405,20.314,35.531,32.274,52.113c23.79,32.986,64.283,54.516,104.833,51.403
			c23.569-1.809,45.762-11.365,68.75-16.87c9.103-2.18,19.111-3.631,27.489,0.553c18.852,9.418,18.944,35.27,14.867,53.064
			c-5.192,22.66-21.747,44.537-42.526,55.976c-22.266,12.257-48.089,13.928-72.941,15.223c-22.055,1.149-44.646,2.79-65.51,10.601
			c-17.36,6.499-31.115,19.003-43.513,32.403c-12.331,13.328-24.021,29.77-43.077,33.353c-22.486,4.228-44.757-14.049-51.204-36.002
			c-6.446-21.953-0.289-45.791,9.773-66.339c5.693-11.626,12.829-24.479,8.676-36.739c-2.657-7.843-9.407-13.435-15.427-19.121
			c-16.144-15.25-29.017-34.26-35.48-55.507c-6.463-21.246-6.251-44.758,2.239-65.278C94.486,72.829,103.269,61.5,114.251,54.248z"
			/>
	</g>
</g>
<g id="Shadow_1_">
	<ellipse id="_x3C_Path_x3E__359_" style="fill:#F5F5F5;" cx="250" cy="416.238" rx="193.889" ry="11.323"/>
</g>
<g id="Plant_1_">
	<g>
		<g>
			<path style="fill:#407BFF;" d="M91.265,384.645c-0.152-1.024-3.652-25.172,3.359-33.509c1.552-1.845,3.51-2.81,5.821-2.867
				c14.153-0.331,16.089,11.036,16.106,11.152l-1.669,0.257c-0.065-0.407-1.743-10.027-14.396-9.721
				c-1.831,0.045-3.326,0.786-4.57,2.265c-6.527,7.761-3.018,31.93-2.981,32.173L91.265,384.645z"/>
		</g>
		<g>
			<path style="fill:#407BFF;" d="M90.409,383.544l-1.688-0.053c0.007-0.222,0.561-22.25-10.293-26.801
				c-10.637-4.456-15.422,4.706-15.62,5.099l-1.509-0.759c0.055-0.11,5.67-10.976,17.782-5.897
				C91.004,360.132,90.439,382.591,90.409,383.544z"/>
		</g>
		<g>
			<path style="fill:#407BFF;" d="M90.458,385.275c0-0.351-0.101-35.19-6.894-45.38c-6.522-9.783-17.043-5.177-17.487-4.975
				l-0.698-1.538c0.122-0.055,12.263-5.415,19.59,5.576c7.075,10.613,7.177,44.862,7.178,46.315L90.458,385.275z"/>
		</g>
		<path style="fill:#407BFF;" d="M102.471,349.106c0,0-6.179,2.278-4.342,7.656c1.837,5.378,21.377,14.23,21.377,14.23
			s8.184-7.501,0.668-19.7C112.659,339.093,102.638,345.257,102.471,349.106z"/>
		<path style="fill:#407BFF;" d="M83.258,338.061c0,0,4.387-0.471,4.034-3.143s-17.054-9.55-26.908,1.572
			c0,0,6.309,10.838,15.43,10.98C84.935,347.611,83.258,338.061,83.258,338.061z"/>
		<path style="fill:#407BFF;" d="M78.755,355.912c0,0,3.028-2.445-0.24-3.638c-3.268-1.193-19.301-0.854-19.468,15.028
			c0,0,18.673,3.103,20.985-2.946C82.344,358.306,78.755,355.912,78.755,355.912z"/>
		<path style="opacity:0.2;fill:#FFFFFF;enable-background:new    ;" d="M102.471,349.106c0,0-6.179,2.278-4.342,7.656
			c1.837,5.378,21.377,14.23,21.377,14.23s8.184-7.501,0.668-19.7C112.659,339.093,102.638,345.257,102.471,349.106z"/>
		<path style="opacity:0.2;fill:#FFFFFF;enable-background:new    ;" d="M83.258,338.061c0,0,4.387-0.471,4.034-3.143
			s-17.054-9.55-26.908,1.572c0,0,6.309,10.838,15.43,10.98C84.935,347.611,83.258,338.061,83.258,338.061z"/>
		<path style="opacity:0.2;fill:#FFFFFF;enable-background:new    ;" d="M78.755,355.912c0,0,3.028-2.445-0.24-3.638
			c-3.268-1.193-19.301-0.854-19.468,15.028c0,0,18.673,3.103,20.985-2.946C82.344,358.306,78.755,355.912,78.755,355.912z"/>
		<polygon style="fill:#407BFF;" points="105.791,417 76.814,417 73.688,385.274 108.918,385.274 		"/>
		<polygon style="opacity:0.5;fill:#FFFFFF;enable-background:new    ;" points="105.791,417 76.814,417 73.688,385.274 
			108.918,385.274 		"/>
		<rect x="72.141" y="381.773" style="fill:#407BFF;" width="38.324" height="7.001"/>
		<rect x="72.141" y="381.773" style="opacity:0.2;fill:#FFFFFF;enable-background:new    ;" width="38.324" height="7.001"/>
	</g>
</g>
<g id="Device">
	<g>
		<path style="fill:#263238;" d="M390.656,417H222.722c-5.745,0-10.402-4.657-10.402-10.402V87.93
			c0-5.745,4.657-10.402,10.402-10.402h167.934c5.745,0,10.402,4.657,10.402,10.402v318.667
			C401.059,412.343,396.401,417,390.656,417z"/>
		<path style="fill:#407BFF;" d="M394.75,88.9v316.12c0,2.6-2.09,4.62-4.69,4.62H222.94c-2.39,0-4.19-1.85-4.19-4.24V88.52
			c0-2.07,1.52-3.88,3.59-3.88h41.78c1.18,0,2.25,0.77,2.69,1.88l1.73,4.26c0.44,1.1,1.51,1.86,2.69,1.86h71.13
			c1.18,0,2.25-0.73,2.69-1.83l1.73-4.28c0.44-1.11,1.51-1.89,2.69-1.89h41.18C392.93,84.64,394.75,86.62,394.75,88.9z"/>
		<rect x="218.75" y="104.39" style="opacity:0.3;fill:#FFFFFF;enable-background:new    ;" width="176" height="257.25"/>
		<circle style="opacity:0.6;fill:#FFFFFF;enable-background:new    ;" cx="302.763" cy="85.056" r="2.416"/>
		<path style="opacity:0.6;fill:#FFFFFF;enable-background:new    ;" d="M310.068,85.056c0,0.855-0.693,1.548-1.548,1.548
			s-1.548-0.693-1.548-1.548c0-0.855,0.693-1.548,1.548-1.548S310.068,84.202,310.068,85.056z"/>
		<g>
			
				<rect x="238.6" y="94.481" transform="matrix(-1 -1.224647e-16 1.224647e-16 -1 479.374 191.8608)" style="opacity:0.6;fill:#FFFFFF;enable-background:new    ;" width="2.174" height="2.898"/>
			
				<rect x="235.057" y="93.515" transform="matrix(-1 -1.224647e-16 1.224647e-16 -1 472.2882 190.894)" style="opacity:0.6;fill:#FFFFFF;enable-background:new    ;" width="2.174" height="3.865"/>
			
				<rect x="231.514" y="92.548" transform="matrix(-1 -1.224647e-16 1.224647e-16 -1 465.2025 189.9272)" style="opacity:0.6;fill:#FFFFFF;enable-background:new    ;" width="2.174" height="4.832"/>
			
				<rect x="227.971" y="91.581" transform="matrix(-1 -1.224647e-16 1.224647e-16 -1 458.1167 188.9603)" style="opacity:0.6;fill:#FFFFFF;enable-background:new    ;" width="2.174" height="5.799"/>
		</g>
		<g>
			<rect x="373.997" y="93.424" style="opacity:0.6;fill:#FFFFFF;enable-background:new    ;" width="1.288" height="2.898"/>
			
				<rect x="376.172" y="92.366" transform="matrix(-1 -1.224647e-16 1.224647e-16 -1 762.6093 189.7455)" style="opacity:0.6;fill:#FFFFFF;enable-background:new    ;" width="10.266" height="5.014"/>
		</g>
		<path style="opacity:0.4;fill:#FFFFFF;enable-background:new    ;" d="M282.71,158.78c0,9.97-5.33,18.69-13.3,23.47
			c-4.11,2.47-8.92,3.89-14.07,3.89c-4.66,0-9.04-1.16-12.88-3.21c-8.62-4.61-14.49-13.69-14.49-24.15
			c0-15.12,12.25-27.37,27.37-27.37C270.46,131.41,282.71,143.66,282.71,158.78z"/>
		<path style="opacity:0.3;enable-background:new    ;" d="M269.41,182.25c-4.11,2.47-8.92,3.89-14.07,3.89
			c-4.66,0-9.04-1.16-12.88-3.21c0.35-0.06,0.69-0.1,1.03-0.14c0.02,0,0.04,0,0.05-0.01c-0.02-0.01-0.04-0.02-0.06-0.04
			c2.62-2.87,2.5-8.81,1.68-14.07c-0.2-0.33-0.37-0.67-0.52-1c-0.59-0.89-1.61-2.71-2.39-5.55c-1.14-0.93-1.99-2.19-2.41-3.63
			c-0.44-1.55,0.07-3.09,1.21-3.89c-0.07-0.81-0.11-1.64-0.12-2.47h-0.01c0,0-3.3-2.96-1.24-4.55c2.06-1.59,2.52-3.86,3.78-6.53
			c1.27-2.67,6.87-6.13,12.82-2.08c0,0,3.16-1.08,4.56-0.29c1.4,0.79,2.51,2.87,2.51,2.87s1.58-1.79,3.2-0.1
			c1.62,1.68,0.34,7.71,1.72,9.19c1.27,1.36-1.22,3.07-1.65,3.35c-0.16,0.78-0.4,1.59-0.71,2.39c0.06,3.89-0.81,7.9-2.1,10.9
			c-0.16,0.36-0.33,0.71-0.52,1.04c-1.41,2.53-3.71,4.29-6.25,5.09c-0.62,0.2-1.26,0.33-1.9,0.41c-0.06,1.21,0.02,2.39,0.37,3.44
			c0.69,2.06,2.37,3.67,5.81,4.24c0.02,0.02,0.02,0.03,0.03,0.05c0.72,0.01,1.44,0.08,2.15,0.08c1.86,0.11,3.63,0.3,5.16,0.49
			C268.91,182.15,269.17,182.19,269.41,182.25z"/>
		<g>
			<path style="fill:#407BFF;" d="M281.093,185.826h-7.143c-1.309,0-2.37-1.061-2.37-2.369v-7.143c0-1.309,1.061-2.369,2.37-2.369
				h7.143c1.309,0,2.37,1.061,2.37,2.369v7.143C283.462,184.765,282.401,185.826,281.093,185.826z"/>
			<path style="opacity:0.3;enable-background:new    ;" d="M280.463,179.885c0,1.625-1.317,2.941-2.941,2.941
				c-1.624,0-2.941-1.317-2.941-2.941c0-1.624,1.317-2.941,2.941-2.941C279.146,176.944,280.463,178.261,280.463,179.885z"/>
		</g>
		<path style="opacity:0.5;fill:#FFFFFF;enable-background:new    ;" d="M344.747,143.992h-38.134c-2.126,0-3.849-1.723-3.849-3.849
			l0,0c0-2.126,1.723-3.85,3.849-3.85h38.134c2.126,0,3.849,1.723,3.849,3.85l0,0C348.596,142.269,346.873,143.992,344.747,143.992z
			"/>
		<path style="opacity:0.5;fill:#FFFFFF;enable-background:new    ;" d="M365.658,158.775h-60.586c-1.275,0-2.309-1.034-2.309-2.309
			l0,0c0-1.275,1.034-2.309,2.309-2.309h60.586c1.275,0,2.309,1.034,2.309,2.309l0,0
			C367.967,157.741,366.933,158.775,365.658,158.775z"/>
		<path style="opacity:0.5;fill:#FFFFFF;enable-background:new    ;" d="M345.658,168.775h-40.586c-1.275,0-2.309-1.034-2.309-2.309
			l0,0c0-1.275,1.034-2.309,2.309-2.309h40.586c1.275,0,2.309,1.034,2.309,2.309l0,0
			C347.967,167.741,346.933,168.775,345.658,168.775z"/>
		<g>
			<path style="opacity:0.3;enable-background:new    ;" d="M318.203,401.989h-23.365c-1.304,0-2.362-1.057-2.362-2.361v-5.354
				c0-1.304,1.057-2.362,2.362-2.362h23.365c1.304,0,2.362,1.057,2.362,2.362v5.354
				C320.565,400.931,319.507,401.989,318.203,401.989z"/>
			<path style="opacity:0.5;fill:#FFFFFF;enable-background:new    ;" d="M356.813,375.12H256.228c-1.275,0-2.309-1.034-2.309-2.309
				v0c0-1.275,1.034-2.309,2.309-2.309h100.586c1.275,0,2.309,1.034,2.309,2.309v0C359.122,374.086,358.089,375.12,356.813,375.12z"
				/>
			<path style="opacity:0.5;fill:#FFFFFF;enable-background:new    ;" d="M341.813,385.12h-70.586c-1.275,0-2.309-1.034-2.309-2.309
				v0c0-1.275,1.034-2.309,2.309-2.309h70.586c1.275,0,2.309,1.034,2.309,2.309v0C344.122,384.086,343.089,385.12,341.813,385.12z"
				/>
		</g>
		<g>
			<rect x="225.875" y="191.228" style="opacity:0.4;fill:#FFFFFF;enable-background:new    ;" width="161.291" height="51.497"/>
			<path style="opacity:0.5;fill:#FFFFFF;enable-background:new    ;" d="M333.404,200.783h-29.901
				c-1.211,0-2.192-0.982-2.192-2.192l0,0c0-1.211,0.982-2.192,2.192-2.192h29.901c1.211,0,2.192,0.981,2.192,2.192l0,0
				C335.596,199.802,334.615,200.783,333.404,200.783z"/>
			<path style="opacity:0.5;fill:#FFFFFF;enable-background:new    ;" d="M361.404,209.78h-57.901c-1.211,0-2.192-0.981-2.192-2.192
				l0,0c0-1.211,0.982-2.192,2.192-2.192h57.901c1.211,0,2.192,0.982,2.192,2.192l0,0
				C363.596,208.798,362.615,209.78,361.404,209.78z"/>
			<rect x="231.838" y="196.399" style="opacity:0.3;enable-background:new    ;" width="59.512" height="40.729"/>
			<polygon style="opacity:0.3;enable-background:new    ;" points="231.838,227.577 245.946,214.238 257.933,225.917 
				268.339,215.819 291.349,237.128 231.838,237.128 			"/>
			<circle style="opacity:0.5;fill:#FFFFFF;enable-background:new    ;" cx="280.758" cy="206.493" r="3.964"/>
		</g>
		<g>
			<rect x="225.875" y="247.728" style="opacity:0.4;fill:#FFFFFF;enable-background:new    ;" width="161.291" height="51.497"/>
			<path style="opacity:0.5;fill:#FFFFFF;enable-background:new    ;" d="M333.404,257.284h-29.901
				c-1.211,0-2.192-0.982-2.192-2.192l0,0c0-1.211,0.982-2.192,2.192-2.192h29.901c1.211,0,2.192,0.981,2.192,2.192l0,0
				C335.596,256.302,334.615,257.284,333.404,257.284z"/>
			<path style="opacity:0.5;fill:#FFFFFF;enable-background:new    ;" d="M361.404,266.28h-57.901c-1.211,0-2.192-0.982-2.192-2.192
				l0,0c0-1.211,0.982-2.192,2.192-2.192h57.901c1.211,0,2.192,0.981,2.192,2.192l0,0
				C363.596,265.298,362.615,266.28,361.404,266.28z"/>
			<rect x="231.838" y="252.899" style="opacity:0.3;enable-background:new    ;" width="59.512" height="40.729"/>
			<polygon style="opacity:0.3;enable-background:new    ;" points="231.838,284.077 245.946,270.738 257.933,282.417 
				268.339,272.319 291.349,293.628 231.838,293.628 			"/>
			<circle style="opacity:0.5;fill:#FFFFFF;enable-background:new    ;" cx="280.758" cy="262.993" r="3.964"/>
		</g>
		<g>
			<rect x="225.875" y="304.228" style="opacity:0.4;fill:#FFFFFF;enable-background:new    ;" width="161.291" height="51.497"/>
			<path style="opacity:0.5;fill:#FFFFFF;enable-background:new    ;" d="M333.404,313.784h-29.901
				c-1.211,0-2.192-0.982-2.192-2.192l0,0c0-1.211,0.982-2.192,2.192-2.192h29.901c1.211,0,2.192,0.982,2.192,2.192l0,0
				C335.596,312.802,334.615,313.784,333.404,313.784z"/>
			<path style="opacity:0.5;fill:#FFFFFF;enable-background:new    ;" d="M361.404,322.78h-57.901c-1.211,0-2.192-0.982-2.192-2.192
				l0,0c0-1.211,0.982-2.192,2.192-2.192h57.901c1.211,0,2.192,0.981,2.192,2.192l0,0
				C363.596,321.798,362.615,322.78,361.404,322.78z"/>
			<rect x="231.838" y="309.399" style="opacity:0.3;enable-background:new    ;" width="59.512" height="40.729"/>
			<polygon style="opacity:0.3;enable-background:new    ;" points="231.838,340.577 245.946,327.238 257.933,338.917 
				268.339,328.819 291.349,350.128 231.838,350.128 			"/>
			<circle style="opacity:0.5;fill:#FFFFFF;enable-background:new    ;" cx="280.758" cy="319.493" r="3.964"/>
		</g>
		<rect x="218.75" y="104.39" style="opacity:0.3;enable-background:new    ;" width="176" height="23.138"/>
		<g>
			<polygon style="fill:#FFFFFF;" points="235.057,107.677 227.846,111.734 235.057,115.79 242.268,111.734 			"/>
			<polygon style="fill:#FFFFFF;" points="235.057,117.424 230,114.579 227.846,115.79 235.057,119.847 242.268,115.79 
				240.115,114.579 			"/>
			<polygon style="fill:#FFFFFF;" points="235.057,121.481 230,118.635 227.846,119.847 235.057,123.904 242.268,119.847 
				240.115,118.636 			"/>
		</g>
		<path style="fill:#407BFF;" d="M350.012,120.829h-23.365c-1.304,0-2.362-1.057-2.362-2.362v-5.354
			c0-1.304,1.057-2.361,2.362-2.361h23.365c1.304,0,2.362,1.057,2.362,2.361v5.354C352.374,119.772,351.316,120.829,350.012,120.829
			z"/>
		<path style="fill:#407BFF;" d="M384.012,120.829h-23.365c-1.304,0-2.362-1.057-2.362-2.362v-5.354
			c0-1.304,1.057-2.361,2.362-2.361h23.365c1.304,0,2.362,1.057,2.362,2.361v5.354C386.374,119.772,385.316,120.829,384.012,120.829
			z"/>
		<path style="opacity:0.2;fill:#FFFFFF;enable-background:new    ;" d="M350.012,120.829h-23.365c-1.304,0-2.362-1.057-2.362-2.362
			v-5.354c0-1.304,1.057-2.361,2.362-2.361h23.365c1.304,0,2.362,1.057,2.362,2.361v5.354
			C352.374,119.772,351.316,120.829,350.012,120.829z"/>
		<path style="opacity:0.2;fill:#FFFFFF;enable-background:new    ;" d="M384.012,120.829h-23.365c-1.304,0-2.362-1.057-2.362-2.362
			v-5.354c0-1.304,1.057-2.361,2.362-2.361h23.365c1.304,0,2.362,1.057,2.362,2.361v5.354
			C386.374,119.772,385.316,120.829,384.012,120.829z"/>
	</g>
</g>
<g id="Character">
	<g id="_x3C_Group_x3E_">
		<path style="fill:#407BFF;" d="M205.9,203.637c-5.14,2.07-9.49-3.08-9.69-9.21c0,0-4.69-3.03-10-6.26
			c-4.5-2.74-9.45-5.62-12.35-6.92c-0.68-0.3-1.26-0.8-1.75-1.43v-0.01c-4.1-5.32-2.21-20.65-2.21-20.65
			c9.5,1.06,28.48,18.27,36.79,26.57C215,194.037,211.04,201.557,205.9,203.637z"/>
		<path style="opacity:0.2;enable-background:new    ;" d="M186.21,188.167c-4.5-2.74-9.45-5.62-12.35-6.92
			c-0.68-0.3-1.26-0.8-1.75-1.43v-0.01l6.64-5.91C178.75,173.897,184.68,181.617,186.21,188.167z"/>
		<polygon style="fill:#E4897B;" points="174.619,409.551 182.732,410.408 184.255,392.911 176.142,392.054 		"/>
		<polygon style="fill:#E4897B;" points="134.14,408.96 142,408.96 142.65,390.75 134.78,390.75 		"/>
		<path style="fill:#263238;" d="M143.09,408.05h-9.55c-0.322,0.002-0.6,0.226-0.67,0.54l-1.55,7
			c-0.133,0.627,0.268,1.242,0.895,1.375c0.084,0.018,0.17,0.026,0.255,0.025c3.09-0.05,5.34-0.24,9.22-0.24
			c2.39,0,9.6,0.25,12.9,0.25c3.3,0,3.73-3.26,2.38-3.56c-6.06-1.32-10.62-3.15-12.56-4.89
			C144.051,408.22,143.578,408.041,143.09,408.05z"/>
		<path style="fill:#407BFF;" d="M143.63,409.14c-0.075-0.02-0.13-0.083-0.14-0.16c-0.012-0.073,0.024-0.146,0.09-0.18
			c0.28-0.18,2.82-1.74,3.69-1.29c0.2,0.095,0.326,0.299,0.32,0.52c0.053,0.378-0.095,0.757-0.39,1
			c-0.443,0.302-0.976,0.443-1.51,0.4C144.995,409.41,144.304,409.313,143.63,409.14z M144.17,408.88
			c0.917,0.31,1.918,0.26,2.8-0.14c0.188-0.169,0.282-0.419,0.25-0.67c-0.01-0.15-0.07-0.22-0.12-0.22
			c-0.073-0.04-0.157-0.057-0.24-0.05C145.903,407.985,144.99,408.351,144.17,408.88z"/>
		<path style="fill:#407BFF;" d="M143.58,409.18c-0.057-0.038-0.091-0.102-0.09-0.17c0.01-0.11,0.2-2.37,1.11-3.11
			c0.216-0.19,0.504-0.278,0.79-0.24c0.291-0.001,0.543,0.204,0.6,0.49c0.16,0.83-1.41,2.56-2.22,3h-0.09
			C143.651,409.17,143.616,409.181,143.58,409.18z M144.84,406.12c-0.553,0.706-0.877,1.564-0.93,2.46
			c0.81-0.61,1.81-1.92,1.71-2.43c-0.01-0.05-0.03-0.19-0.27-0.19h-0.09C145.105,405.961,144.956,406.018,144.84,406.12z"/>
		<path style="fill:#263238;" d="M183.59,407.8h-9.55c-0.322,0.002-0.6,0.226-0.67,0.54l-1.55,7
			c-0.133,0.627,0.268,1.242,0.895,1.375c0.084,0.018,0.17,0.026,0.255,0.025c3.09-0.05,5.34-0.24,9.22-0.24
			c2.39,0,9.6,0.25,12.9,0.25c3.3,0,3.73-3.26,2.38-3.56c-6.06-1.32-10.62-3.15-12.56-4.89
			C184.551,407.97,184.078,407.791,183.59,407.8z"/>
		<path style="fill:#407BFF;" d="M184.13,408.89c-0.075-0.02-0.13-0.083-0.14-0.16c-0.012-0.073,0.024-0.146,0.09-0.18
			c0.28-0.18,2.82-1.74,3.69-1.29c0.2,0.095,0.326,0.299,0.32,0.52c0.053,0.378-0.095,0.757-0.39,1
			c-0.443,0.302-0.976,0.443-1.51,0.4C185.495,409.16,184.804,409.063,184.13,408.89z M184.67,408.63
			c0.917,0.31,1.918,0.26,2.8-0.14c0.188-0.169,0.282-0.419,0.25-0.67c-0.01-0.15-0.07-0.22-0.12-0.22
			c-0.073-0.04-0.157-0.057-0.24-0.05C186.403,407.735,185.49,408.101,184.67,408.63z"/>
		<path style="fill:#407BFF;" d="M184.08,408.93c-0.057-0.038-0.091-0.102-0.09-0.17c0.01-0.11,0.2-2.37,1.11-3.11
			c0.216-0.19,0.504-0.278,0.79-0.24c0.291-0.001,0.543,0.204,0.6,0.49c0.16,0.83-1.41,2.56-2.22,3h-0.09
			C184.151,408.92,184.116,408.931,184.08,408.93z M185.34,405.87c-0.553,0.706-0.877,1.564-0.93,2.46
			c0.81-0.61,1.81-1.92,1.71-2.43c-0.01-0.05-0.03-0.19-0.27-0.19h-0.09C185.605,405.711,185.456,405.768,185.34,405.87z"/>
		<polygon style="opacity:0.2;enable-background:new    ;" points="176.142,392.054 184.255,392.911 183.462,401.936 
			175.35,401.079 		"/>
		<polygon style="opacity:0.2;enable-background:new    ;" points="134.78,390.76 142.65,390.76 142.31,400.15 134.44,400.15 		"/>
		<g>
			<path style="fill:#263238;" d="M138.026,231.023h41.724c3.967,21.663,16.385,98.323,7.476,166.628L173.1,395.9
				c0,0,1.308-90.677-11.164-124.2c-1.434,17.941-3.137,37.03-4.617,47.187c-3.63,25-11.4,79.636-11.4,79.636h-14.38
				c0,0,2.94-52.297,4.3-76.867C137.327,294.982,137.968,236.501,138.026,231.023z"/>
			<path style="opacity:0.2;fill:#FFFFFF;enable-background:new    ;" d="M131.54,398.523h14.38c0,0,7.77-54.64,11.4-79.64
				c1.48-10.15,3.18-29.24,4.62-47.18c1.84,4.94,3.37,11.11,4.66,18.05c7.45,40.21,6.5,106.15,6.5,106.15l14.12,2
				c8.91-68.31-3.5-145.38-7.47-166.38h-41.72c-0.06,5-0.7,63.71-2.19,90.38C134.48,346.473,131.54,398.523,131.54,398.523z"/>
		</g>
		<polygon style="fill:#407BFF;" points="188.841,400.942 171.359,398.341 171.893,393.499 190.079,395.887 		"/>
		<polygon style="fill:#407BFF;" points="147.65,398.64 130.69,398.64 130.69,393.57 148.29,393.24 		"/>
		<path style="opacity:0.2;enable-background:new    ;" d="M161.94,271.703c1.84,4.94,3.37,11.11,4.66,18.05
			c1.167-15.965-3.5-32.897-3.5-32.897L161.94,271.703z"/>
		<path style="fill:#E4897B;" d="M115.33,211.583c0,0,19.45,18.061,21.285,19.94c1.835,1.879,1.725,15.33,0,15.923
			c-1.725,0.593-7.264,1.582-7.461,0c-0.198-1.582,0.396-10.286,0.396-10.286l1.251-1.78l-21.427-15.408L115.33,211.583z"/>
		<path style="fill:#407BFF;" d="M130.8,162.533c-13.713,2.43-33.425,27.909-30.855,44.66c1.714,11.176,12.989,17.308,12.989,17.308
			l9.121-9.516c0,0-5.771-5.084-6.923-8.308c-3.429-9.591,9.091-24.306,19.37-27.34l2.114-8.565L130.8,162.533z"/>
		<g>
			<path style="fill:#407BFF;" d="M130.8,162.533c2.31,8.48,3.98,17.13,5,25.87c0.33,2.68,0.6,5.31,0.82,7.86
				c0.29,3.24,0.49,6.36,0.65,9.32c0.2,3.75,0.26,8.18,0.25,12.54c-0.02,10.02-0.42,19.65-0.42,19.65c8,2,31.12,0.67,43.75-0.25
				c1.64-12.83,1.78-25.37,1.16-36.41c-0.5-9.26-1.53-17.46-2.65-23.93c-0.98-5.67-2.02-10-2.82-12.52
				c-0.95-2.98-3.54-5.13-6.64-5.51c-1.53-0.19-3.3-0.38-5.16-0.49c-0.72,0-1.44-0.07-2.17-0.08c-5.97,0.07-11.92,0.48-17.84,1.24
				c-1.12,0.13-2.26,0.3-3.36,0.48C135.74,161.163,130.8,162.533,130.8,162.533z"/>
			<path style="opacity:0.7;fill:#FFFFFF;enable-background:new    ;" d="M180.85,237.527c-12.63,0.92-35.75,2.25-43.75,0.25
				c0,0,0.4-9.63,0.42-19.65c0.01-4.36-0.05-8.79-0.25-12.54c-0.16-2.96-0.36-6.08-0.65-9.32c-0.22-2.55-0.49-5.18-0.82-7.86
				c-0.08-0.72-0.17-1.45-0.27-2.17c-0.29-2.31-0.64-4.61-1.03-6.9c0,0,0.01-0.02,0.04-0.06l3.89-5.6l7.73-11.14
				c0,0,12.86,5.2,18.2-2.22c0,0,8.57,6.26,14.39,13.58c0.21,1.04,0.41,2.14,0.61,3.29c1.12,6.47,2.15,14.67,2.65,23.93
				C182.63,212.157,182.49,224.697,180.85,237.527z"/>
		</g>
		<path style="fill:#263238;" d="M168.1,124.94c0,0,1.333,8.917-4.417,13.083s-5.75-16-5.75-16L168.1,124.94z"/>
		<path style="fill:#E4897B;" d="M144.721,159.773c3.83,3.48,13.213,2.193,13.213,2.193s5.857-1.603,4.627-3.433
			c-3.45-0.57-5.12-2.18-5.81-4.24c-0.4-1.2-0.46-2.55-0.35-3.94c0.05-0.73,0.16-1.47,0.29-2.2l-11.6-8.59
			C146.61,145.233,148.471,155.663,144.721,159.773z"/>
		<path style="opacity:0.2;enable-background:new    ;" d="M147.77,145.023c0.46,6.96,6.18,8.88,8.98,9.27
			c-0.4-1.2-0.46-2.55-0.35-3.94L147.77,145.023z"/>
		<path style="fill:#E4897B;" d="M146.99,146.633c2.79,4.01,7.34,5.06,11.29,3.81c2.54-0.8,4.83-2.56,6.25-5.09
			c0.19-0.33,0.36-0.68,0.52-1.04c2.83-6.62,3.73-18.2-3.27-22.54c-4.97-3.13-11.55-1.64-14.68,3.34c-0.9,1.41-1.44,3.02-1.6,4.69
			C144.64,137.543,143.77,142.053,146.99,146.633z"/>
		<path style="fill:#263238;" d="M156.783,133.939c-0.149,0.612,0.133,1.185,0.548,1.255c0.415,0.07,0.825-0.386,0.935-1.007
			c0.11-0.622-0.143-1.188-0.549-1.255C157.313,132.863,156.896,133.307,156.783,133.939z"/>
		<path style="fill:#263238;" d="M163.849,135.145c-0.149,0.612,0.143,1.188,0.549,1.255c0.405,0.068,0.825-0.386,0.935-1.007
			c0.11-0.622-0.143-1.188-0.549-1.255C164.378,134.07,163.952,134.552,163.849,135.145z"/>
		<path style="fill:#DE5753;" d="M161.551,135.069c0.418,2.038,1.115,4.009,2.073,5.857c-0.975,0.473-2.11,0.49-3.099,0.048
			L161.551,135.069z"/>
		<path style="fill:#263238;" d="M154.982,131.277c0.132,0.042,0.277,0.011,0.38-0.082c0.675-0.664,1.623-0.971,2.559-0.828
			c0.198,0.049,0.399-0.072,0.448-0.271c0.049-0.198-0.072-0.399-0.271-0.448c-0.001,0-0.001,0-0.002,0
			c-1.178-0.211-2.386,0.162-3.239,1.002c-0.153,0.136-0.167,0.369-0.032,0.522c0.002,0.002,0.004,0.005,0.006,0.007
			C154.876,131.219,154.927,131.252,154.982,131.277z"/>
		<path style="fill:#263238;" d="M158.957,144.037L158.957,144.037c-1.862-0.035-3.59-0.975-4.63-2.52
			c-0.054-0.094-0.023-0.214,0.07-0.27c0.088-0.057,0.206-0.031,0.262,0.057c0.003,0.004,0.005,0.008,0.008,0.013
			c0.991,1.409,2.588,2.268,4.31,2.32c0.105-0.001,0.191,0.084,0.191,0.189c0,0.007,0,0.014-0.001,0.021
			c0.001,0.105-0.084,0.19-0.189,0.191C158.971,144.038,158.964,144.037,158.957,144.037z"/>
		<path style="fill:#263238;" d="M167.301,133.227c0.064,0.039,0.139,0.058,0.214,0.052c0.197-0.054,0.313-0.258,0.259-0.455
			c-0.001-0.003-0.001-0.005-0.002-0.008c-0.309-1.161-1.163-2.098-2.29-2.513c-0.196-0.059-0.402,0.051-0.461,0.247
			c0,0,0,0.001,0,0.001c-0.054,0.196,0.055,0.399,0.248,0.462l0,0c0.88,0.353,1.541,1.102,1.783,2.019
			C167.101,133.131,167.193,133.202,167.301,133.227z"/>
		<path style="fill:#263238;" d="M156.945,117.367c-0.921-0.125-1.844-0.233-2.772-0.281c-2.67-0.138-5.449,0.195-7.75,1.556
			c-5.351,3.167-4.428,11.287-3.739,16.547c0.917,7,3.667,10.167,3.667,10.167c-1.667-3.333-1.167-9.833-0.083-10
			c1.083-0.167,1,1.083,1,1.083c2.415-1.504,4.583-5.75,3.833-8.75c-0.574-2.298,2-4,4.167-2.917
			c0.217,0.108,0.434,0.215,0.653,0.32c0.319,0.152,0.666,0.314,1.025,0.477V117.367z"/>
		<path style="fill:#E4897B;" d="M141.073,135.524c0.555,1.882,1.833,3.467,3.555,4.408c2.289,1.229,3.999-0.684,3.844-3.142
			c-0.159-2.183-1.517-5.522-4.052-5.714C141.885,130.884,140.421,133.205,141.073,135.524z"/>
		<path style="fill:#263238;" d="M160.044,124.018c-0.509,0.888,0.757,3.758-2.11,3.066c-2.868-0.692-3.076,0.534-5.109,2.506
			c-2.033,1.971-6.165-1.022-6.165-1.022l-4.507,0.593c0,0-3.293-2.959-1.234-4.549c2.059-1.59,2.515-3.857,3.782-6.527
			c1.267-2.67,6.863-6.132,12.818-2.077c0,0,3.158-1.088,4.557-0.297c1.398,0.791,2.509,2.868,2.509,2.868s1.583-1.78,3.203-0.099
			c1.62,1.681,0.334,7.714,1.719,9.198c1.385,1.483-1.719,3.388-1.719,3.388s-2.429-0.583-2.429-2.366
			c0-3.165-0.467-4.303-2.015-4.879c-0.975-0.363-1.617,0.494-1.617,0.494S160.85,122.61,160.044,124.018z"/>
		<path style="opacity:0.2;enable-background:new    ;" d="M135.53,186.237c-0.29-2.31-0.64-4.61-1.03-6.9c0,0,0.01-0.02,0.04-0.06
			c0.34-0.57,3.13-5.24,3.41-8.58c0,0,0.31,1.17,0.48,2.98C138.72,176.867,138.58,182.047,135.53,186.237z"/>
		<path style="fill:#407BFF;" d="M149.832,178.932l0.97,8.043c0.137,1.132,1.119,1.97,2.259,1.926l16.764-0.645
			c1.246-0.048,2.2-1.125,2.099-2.367l-0.664-8.129c-0.096-1.173-1.101-2.06-2.277-2.01l-17.07,0.731
			C150.638,176.536,149.679,177.665,149.832,178.932z"/>
		<polygon style="opacity:0.7;fill:#FFFFFF;enable-background:new    ;" points="157.934,179.484 165.005,181.794 158.293,185.154 
			160.113,182.319 		"/>
		<path style="fill:#263238;" d="M172.214,174.62l4.51-17.953c0.175-0.695,0.8-1.183,1.517-1.183h9.459
			c0.589,0,1.021,0.552,0.881,1.123l-4.41,17.95c-0.172,0.699-0.799,1.191-1.519,1.191h-9.559
			C172.504,175.748,172.071,175.192,172.214,174.62z"/>
		<path style="opacity:0.3;fill:#FFFFFF;enable-background:new    ;" d="M181.325,162.533c-0.881,0-1.817,0.891-2.09,1.991
			s0.22,1.991,1.101,1.991s1.817-0.891,2.09-1.991S182.206,162.533,181.325,162.533z"/>
		<path style="fill:#E4897B;" d="M206.393,192.42c0,0-11.249-18.366-14.376-21.182c-3.127-2.816-14.951-4.864-15.389-4.954
			c-0.439-0.091-2.895,10.431-1.778,11.349c1.117,0.918,11.543,1.93,12.215,1.643c0.673-0.287,1.846-0.722,1.846-0.722
			l10.081,19.812C198.991,198.366,204.798,198.014,206.393,192.42z"/>
	</g>
</g>
</svg>
