<svg width="413" height="426" viewBox="0 0 413 426" fill="none" xmlns="http://www.w3.org/2000/svg">
<g clip-path="url(#clip0_4141_9106)">
<g style="mix-blend-mode:multiply">
<path d="M93.44 342.06C144.974 342.06 186.75 340.408 186.75 338.37C186.75 336.332 144.974 334.68 93.44 334.68C41.9063 334.68 0.130005 336.332 0.130005 338.37C0.130005 340.408 41.9063 342.06 93.44 342.06Z" fill="#E8E8E8"/>
</g>
<g style="mix-blend-mode:multiply">
<path d="M311.16 425.81C367.25 425.81 412.72 423.992 412.72 421.75C412.72 419.508 367.25 417.69 311.16 417.69C255.07 417.69 209.6 419.508 209.6 421.75C209.6 423.992 255.07 425.81 311.16 425.81Z" fill="#E8E8E8"/>
</g>
<g style="mix-blend-mode:multiply">
<path d="M213.08 280.24C315.07 280.24 397.75 279.121 397.75 277.74C397.75 276.359 315.07 275.24 213.08 275.24C111.09 275.24 28.41 276.359 28.41 277.74C28.41 279.121 111.09 280.24 213.08 280.24Z" fill="#E8E8E8"/>
</g>
<path d="M237.62 229.24H183.42V266.51H237.62V229.24Z" fill="#FFD3C1"/>
<path d="M237.62 229.24H183.42V242.75H237.62V229.24Z" fill="#FF8759"/>
<path d="M265.52 265.92H155.52C153.852 265.92 152.252 266.583 151.072 267.762C149.893 268.942 149.23 270.542 149.23 272.21C149.23 273.878 149.893 275.478 151.072 276.658C152.252 277.837 153.852 278.5 155.52 278.5H265.52C267.188 278.5 268.788 277.837 269.968 276.658C271.147 275.478 271.81 273.878 271.81 272.21C271.81 270.542 271.147 268.942 269.968 267.762C268.788 266.583 267.188 265.92 265.52 265.92Z" fill="#FFD3C1"/>
<path d="M271.81 272.22C271.807 273.886 271.143 275.484 269.964 276.661C268.785 277.839 267.187 278.5 265.52 278.5H155.52C153.854 278.5 152.255 277.839 151.076 276.661C149.896 275.484 149.233 273.886 149.23 272.22C149.225 271.703 149.292 271.188 149.43 270.69C149.765 272.052 150.548 273.261 151.652 274.126C152.756 274.991 154.118 275.46 155.52 275.46H265.52C266.922 275.46 268.284 274.991 269.388 274.126C270.492 273.261 271.275 272.052 271.61 270.69C271.748 271.188 271.815 271.703 271.81 272.22Z" fill="#FF8759"/>
<path d="M380.09 2.75H40.95C38.8181 2.75 37.09 4.47818 37.09 6.61V230.57C37.09 232.702 38.8181 234.43 40.95 234.43H380.09C382.222 234.43 383.95 232.702 383.95 230.57V6.61C383.95 4.47818 382.222 2.75 380.09 2.75Z" fill="#FFFAF8"/>
<path d="M380.09 5.51C380.382 5.51 380.662 5.62589 380.868 5.83218C381.074 6.03847 381.19 6.31826 381.19 6.61V230.61C381.19 230.902 381.074 231.182 380.868 231.388C380.662 231.594 380.382 231.71 380.09 231.71H40.9399C40.6482 231.71 40.3684 231.594 40.1621 231.388C39.9558 231.182 39.8398 230.902 39.8398 230.61V6.61C39.8425 6.31907 39.9593 6.04079 40.165 5.83506C40.3708 5.62934 40.649 5.51261 40.9399 5.51H380.09ZM380.09 0H40.9399C39.1869 0 37.5055 0.696408 36.2659 1.93602C35.0263 3.17564 34.3301 4.85692 34.3301 6.61V230.61C34.3301 232.363 35.0263 234.044 36.2659 235.284C37.5055 236.524 39.1869 237.22 40.9399 237.22H380.09C381.843 237.22 383.524 236.524 384.764 235.284C386.004 234.044 386.7 232.363 386.7 230.61V6.61C386.7 4.85692 386.004 3.17564 384.764 1.93602C383.524 0.696408 381.843 0 380.09 0Z" fill="#FFD3C1"/>
<path d="M386.71 230.12V208.23H34.3398V230.12C34.3398 232.099 35.1259 233.996 36.5249 235.395C37.9239 236.794 39.8215 237.58 41.8 237.58H379.25C380.23 237.581 381.201 237.389 382.106 237.015C383.012 236.64 383.835 236.091 384.528 235.398C385.221 234.705 385.77 233.882 386.145 232.976C386.519 232.071 386.711 231.1 386.71 230.12Z" fill="#FFB092"/>
<path d="M210.52 77.71C225.52 77.71 237.68 65.5501 237.68 50.55C237.68 35.55 225.52 23.39 210.52 23.39C195.52 23.39 183.36 35.55 183.36 50.55C183.36 65.5501 195.52 77.71 210.52 77.71Z" fill="#FFD3C1"/>
<mask id="mask0_4141_9106" style="mask-type:luminance" maskUnits="userSpaceOnUse" x="183" y="23" width="55" height="55">
<path d="M210.52 77.72C225.52 77.72 237.68 65.5601 237.68 50.56C237.68 35.56 225.52 23.4 210.52 23.4C195.52 23.4 183.36 35.56 183.36 50.56C183.36 65.5601 195.52 77.72 210.52 77.72Z" fill="white"/>
</mask>
<g mask="url(#mask0_4141_9106)">
<path d="M221.01 44.37C221.01 47.1521 219.905 49.8203 217.938 51.7875C215.97 53.7548 213.302 54.86 210.52 54.86C207.737 54.86 205.068 53.7551 203.099 51.7882C201.13 49.8212 200.023 47.153 200.02 44.37C200.02 41.5852 201.126 38.9145 203.095 36.9454C205.065 34.9762 207.735 33.87 210.52 33.87C213.303 33.8726 215.971 34.9801 217.938 36.9489C219.905 38.9178 221.01 41.587 221.01 44.37ZM226.36 88.64V68.8C226.355 65.765 225.145 62.8563 222.996 60.713C220.847 58.5698 217.935 57.3673 214.9 57.37H206.13C203.101 57.3753 200.198 58.5815 198.057 60.7242C195.916 62.8669 194.713 65.7711 194.71 68.8V88.63C194.71 89.4707 195.044 90.277 195.638 90.8715C196.233 91.466 197.039 91.8 197.88 91.8H223.21C224.046 91.7921 224.846 91.455 225.436 90.8616C226.025 90.2682 226.357 89.4665 226.36 88.63V88.64Z" fill="#FF662A"/>
</g>
<path d="M264.17 108.61H156.86C155.449 108.611 154.051 108.334 152.747 107.795C151.443 107.256 150.258 106.465 149.259 105.468C148.261 104.47 147.469 103.286 146.928 101.982C146.388 100.679 146.11 99.2812 146.11 97.87C146.11 95.0189 147.243 92.2846 149.259 90.2686C151.275 88.2526 154.009 87.12 156.86 87.12H264.17C267.021 87.12 269.755 88.2526 271.771 90.2686C273.787 92.2846 274.92 95.0189 274.92 97.87C274.92 99.2812 274.642 100.679 274.101 101.982C273.561 103.286 272.769 104.47 271.771 105.468C270.772 106.465 269.587 107.256 268.283 107.795C266.979 108.334 265.581 108.611 264.17 108.61Z" fill="#FFD3C1"/>
<path d="M259.71 100.67H161.42C161.051 100.671 160.686 100.6 160.345 100.46C160.005 100.32 159.695 100.114 159.434 99.8535C159.173 99.5934 158.965 99.2842 158.824 98.9439C158.683 98.6035 158.61 98.2386 158.61 97.8701C158.61 97.1248 158.906 96.4101 159.433 95.8831C159.96 95.3561 160.675 95.0601 161.42 95.0601H259.71C260.455 95.0601 261.17 95.3561 261.697 95.8831C262.224 96.4101 262.52 97.1248 262.52 97.8701C262.52 98.2386 262.447 98.6035 262.306 98.9439C262.165 99.2842 261.957 99.5934 261.696 99.8535C261.435 100.114 261.125 100.32 260.785 100.46C260.444 100.6 260.079 100.671 259.71 100.67Z" fill="#FF662A"/>
<path d="M264.28 147.27H156.96C155.549 147.27 154.151 146.992 152.848 146.452C151.544 145.911 150.359 145.119 149.362 144.121C148.365 143.122 147.574 141.937 147.035 140.633C146.496 139.329 146.219 137.931 146.22 136.52C146.22 133.672 147.352 130.94 149.366 128.926C151.38 126.912 154.112 125.78 156.96 125.78H264.28C267.128 125.78 269.86 126.912 271.874 128.926C273.888 130.94 275.02 133.672 275.02 136.52C275.021 137.931 274.744 139.329 274.205 140.633C273.666 141.937 272.875 143.122 271.878 144.121C270.88 145.119 269.696 145.911 268.392 146.452C267.089 146.992 265.691 147.27 264.28 147.27Z" fill="#FFD3C1"/>
<path d="M160.29 139.52C159.545 139.52 158.83 139.224 158.303 138.697C157.776 138.17 157.48 137.455 157.48 136.71C157.48 136.341 157.553 135.976 157.694 135.636C157.835 135.296 158.043 134.987 158.304 134.726C158.565 134.466 158.874 134.26 159.215 134.12C159.556 133.98 159.921 133.909 160.29 133.91C160.659 133.909 161.024 133.98 161.365 134.12C161.705 134.26 162.015 134.466 162.276 134.726C162.537 134.987 162.745 135.296 162.886 135.636C163.027 135.976 163.1 136.341 163.1 136.71C163.1 137.455 162.804 138.17 162.277 138.697C161.75 139.224 161.035 139.52 160.29 139.52ZM171.44 136.71C171.44 136.341 171.367 135.976 171.226 135.636C171.084 135.296 170.877 134.987 170.616 134.726C170.355 134.466 170.045 134.26 169.705 134.12C169.364 133.98 168.998 133.909 168.63 133.91C167.887 133.91 167.175 134.205 166.65 134.73C166.125 135.255 165.83 135.967 165.83 136.71C165.829 137.078 165.9 137.444 166.04 137.785C166.18 138.125 166.386 138.435 166.646 138.696C166.907 138.957 167.216 139.165 167.556 139.306C167.897 139.447 168.261 139.52 168.63 139.52C169.375 139.52 170.09 139.224 170.617 138.697C171.144 138.17 171.44 137.455 171.44 136.71ZM179.79 136.71C179.79 136.341 179.717 135.976 179.576 135.636C179.435 135.296 179.227 134.987 178.966 134.726C178.705 134.466 178.395 134.26 178.054 134.12C177.714 133.98 177.349 133.909 176.98 133.91C176.611 133.909 176.246 133.98 175.905 134.12C175.564 134.26 175.255 134.466 174.994 134.726C174.733 134.987 174.525 135.296 174.384 135.636C174.243 135.976 174.17 136.341 174.17 136.71C174.17 137.455 174.466 138.17 174.993 138.697C175.52 139.224 176.235 139.52 176.98 139.52C177.725 139.52 178.44 139.224 178.967 138.697C179.494 138.17 179.79 137.455 179.79 136.71ZM188.13 136.71C188.13 135.967 187.835 135.255 187.31 134.73C186.785 134.205 186.073 133.91 185.33 133.91C184.962 133.909 184.596 133.98 184.255 134.12C183.915 134.26 183.605 134.466 183.344 134.726C183.082 134.987 182.875 135.296 182.734 135.636C182.593 135.976 182.52 136.341 182.52 136.71C182.52 137.455 182.816 138.17 183.343 138.697C183.87 139.224 184.585 139.52 185.33 139.52C185.699 139.52 186.063 139.447 186.404 139.306C186.744 139.165 187.053 138.957 187.313 138.696C187.574 138.435 187.78 138.125 187.92 137.785C188.06 137.444 188.131 137.078 188.13 136.71ZM196.48 136.71C196.48 136.341 196.407 135.976 196.266 135.636C196.125 135.296 195.917 134.987 195.656 134.726C195.395 134.466 195.085 134.26 194.745 134.12C194.404 133.98 194.038 133.909 193.67 133.91C193.301 133.909 192.936 133.98 192.595 134.12C192.255 134.26 191.945 134.466 191.684 134.726C191.423 134.987 191.215 135.296 191.074 135.636C190.933 135.976 190.86 136.341 190.86 136.71C190.86 137.455 191.156 138.17 191.683 138.697C192.21 139.224 192.925 139.52 193.67 139.52C194.415 139.52 195.13 139.224 195.657 138.697C196.184 138.17 196.48 137.455 196.48 136.71ZM204.82 136.71C204.82 135.967 204.525 135.255 204 134.73C203.475 134.205 202.763 133.91 202.02 133.91C201.651 133.909 201.286 133.98 200.945 134.12C200.604 134.26 200.295 134.466 200.034 134.726C199.773 134.987 199.565 135.296 199.424 135.636C199.283 135.976 199.21 136.341 199.21 136.71C199.21 137.455 199.506 138.17 200.033 138.697C200.56 139.224 201.275 139.52 202.02 139.52C202.389 139.52 202.753 139.447 203.094 139.306C203.434 139.165 203.743 138.957 204.003 138.696C204.264 138.435 204.469 138.125 204.61 137.785C204.75 137.444 204.821 137.078 204.82 136.71ZM213.17 136.71C213.17 136.341 213.097 135.976 212.956 135.636C212.814 135.296 212.607 134.987 212.346 134.726C212.085 134.466 211.775 134.26 211.435 134.12C211.094 133.98 210.728 133.909 210.36 133.91C209.617 133.91 208.905 134.205 208.38 134.73C207.855 135.255 207.56 135.967 207.56 136.71C207.559 137.078 207.63 137.444 207.77 137.785C207.91 138.125 208.116 138.435 208.376 138.696C208.637 138.957 208.946 139.165 209.286 139.306C209.626 139.447 209.991 139.52 210.36 139.52C211.105 139.52 211.82 139.224 212.347 138.697C212.874 138.17 213.17 137.455 213.17 136.71Z" fill="#FF662A"/>
<path d="M228.97 187.77H192.06C189.209 187.77 186.475 186.637 184.458 184.621C182.442 182.605 181.31 179.871 181.31 177.02C181.31 174.169 182.442 171.435 184.458 169.419C186.475 167.403 189.209 166.27 192.06 166.27H228.97C231.819 166.273 234.551 167.406 236.565 169.422C238.579 171.438 239.71 174.171 239.71 177.02C239.71 179.869 238.579 182.602 236.565 184.618C234.551 186.634 231.819 187.767 228.97 187.77Z" fill="#DF4002"/>
<path d="M269.4 282.51C258.432 282.523 247.917 286.886 240.162 294.642C232.406 302.397 228.043 312.912 228.03 323.88V363.67H310.77V323.88C310.757 312.912 306.394 302.397 298.638 294.642C290.883 286.886 280.368 282.523 269.4 282.51ZM241.7 350V323.88C241.711 316.537 244.632 309.497 249.825 304.305C255.017 299.112 262.057 296.191 269.4 296.18C276.743 296.191 283.783 299.112 288.975 304.305C294.168 309.497 297.09 316.537 297.1 323.88V350H241.7Z" fill="#FFB092"/>
<path d="M314.85 339.4H223.95C220.211 339.4 217.18 342.431 217.18 346.17V415.94C217.18 419.679 220.211 422.71 223.95 422.71H314.85C318.589 422.71 321.62 419.679 321.62 415.94V346.17C321.62 342.431 318.589 339.4 314.85 339.4Z" fill="#FF8759"/>
<path d="M284.58 375.29C284.581 373.296 284.19 371.322 283.427 369.479C282.665 367.637 281.547 365.963 280.137 364.553C278.727 363.143 277.053 362.025 275.211 361.263C273.368 360.5 271.394 360.109 269.4 360.11C267.406 360.109 265.432 360.5 263.589 361.263C261.747 362.025 260.073 363.143 258.663 364.553C257.253 365.963 256.135 367.637 255.373 369.479C254.61 371.322 254.219 373.296 254.22 375.29C254.221 378.07 254.985 380.796 256.429 383.172C257.874 385.547 259.942 387.48 262.41 388.76V405.17H276.41V388.76C278.874 387.477 280.939 385.543 282.379 383.168C283.82 380.793 284.581 378.068 284.58 375.29Z" fill="#FF662A"/>
<path d="M279.49 282.53C280.16 284.82 280.82 287.12 281.49 289.41C281.609 290.031 281.9 290.606 282.33 291.07C283.038 291.535 283.896 291.714 284.73 291.57C285.77 291.638 286.801 291.345 287.65 290.74C288.084 290.318 288.381 289.774 288.5 289.18C288.835 287.447 288.476 285.651 287.5 284.18C286.547 282.718 285.403 281.39 284.1 280.23" fill="#FFBE97"/>
<path d="M403.16 203.37C403.962 200.166 405.057 197.043 406.43 194.04C407.018 195.041 407.201 196.229 406.94 197.36C407.649 195.668 408.95 194.292 410.6 193.49C410.789 193.375 411.015 193.339 411.23 193.39C411.332 193.457 411.418 193.545 411.482 193.649C411.546 193.752 411.586 193.869 411.6 193.99C412.215 196.472 411.924 199.093 410.78 201.38C409.607 203.65 407.659 205.424 405.29 206.38" fill="#FFC2D3"/>
<path d="M335.59 417.17C341.44 418.59 346.33 420.31 349.02 422.72H326.49L326.92 417.49L335.59 417.17Z" fill="#263238"/>
<path d="M308.04 417.17C302.2 418.59 297.3 420.31 294.62 422.72H317.15L316.72 417.49L308.04 417.17Z" fill="#263238"/>
<path d="M347.44 285.89L336.82 418.09C335.176 418.506 333.506 418.807 331.82 418.99C330.839 418.92 329.864 418.786 328.9 418.59C327.67 418.34 326.6 418.09 326.6 418.09L322.6 318.16H317.6L316.6 418.09C314.834 418.582 313.013 418.848 311.18 418.88C309.202 418.818 307.235 418.553 305.31 418.09L292.56 282.51L347.44 285.89Z" fill="#3A3B82"/>
<g style="mix-blend-mode:multiply" opacity="0.5">
<path d="M327.08 284.63L308.37 283.48C308.14 307.83 311.8 394.84 312.17 418.85C313.695 418.75 315.206 418.496 316.68 418.09L317.68 318.16H322.68L326.68 418.09C326.68 418.09 327.75 418.34 328.98 418.59L330.08 418.78C330 391.56 327.54 295.82 327.08 284.63Z" fill="#1F216D"/>
</g>
<path d="M311.71 190.94C311.739 190.998 311.762 191.058 311.78 191.12C312.58 195.49 316.78 197.73 321.34 199C325.09 200 325.96 200.49 328.97 198.32C335.21 193.81 340.77 187.82 338.97 179.57C338.902 179.255 338.955 178.927 339.12 178.65C337.35 175.48 334.07 173.95 330.44 170.65C318.23 159.58 303.71 174.96 309.21 181.29C310.11 182.37 311.71 186.8 311.71 190.94Z" fill="#001F64"/>
<path d="M353.38 243.87C353.38 218.74 342.98 203.11 323.06 203.11C303.14 203.11 292.69 224.11 292.69 249.25L289.63 322.45C289.63 322.45 336.07 331.66 353.72 323.04L353.38 243.87Z" fill="#8182BB"/>
<path d="M333.29 187.99C332.55 183.05 328.14 178.09 322.76 180.66C319.31 182.31 315.76 182.49 312.92 180.99C312.83 181.94 312.72 183.33 312.61 184.79C312.02 183.69 311.02 183.53 310.72 184.89C310.42 186.25 310.8 189.07 312.37 189.58C312.37 189.84 312.37 190.09 312.37 190.31C312.44 194.01 313.95 199.89 319.95 201.31C320.236 202.458 320.18 203.664 319.79 204.78C320.12 205.94 324.79 206.69 326.32 205.32C326.192 204.044 326.152 202.761 326.2 201.48C329.75 200.91 332.71 197.41 334.05 192.92C339.4 189.9 335.57 184.42 333.29 187.99Z" fill="#FFBE97"/>
<path d="M310.31 206.56C286.96 217.85 263.88 254.21 266.42 262.23C268.96 270.25 275.42 279.64 279.76 285.91L288.24 284.41C288.24 284.41 278.17 269.35 278.54 260.17C278.77 254.5 301.03 235.85 301.03 235.85L310.31 206.56Z" fill="#8182BB"/>
<path d="M339.07 207.84C342.73 210.47 373.24 228.75 390.01 212.6C402.13 200.95 403.35 198.69 403.35 198.69L407.5 206.05C407.5 206.05 388.5 239.51 365.61 235.64C342.72 231.77 342.09 230.58 342.09 230.58L339.07 207.84Z" fill="#8182BB"/>
<path d="M8.57996 136.48H34.5399V118.2H8.57996L8.57996 136.48Z" fill="#FF8759"/>
<path d="M8.57996 159.11H34.5399V140.83H8.57996L8.57996 159.11Z" fill="#FF8759"/>
<path d="M27.9199 136.48H34.54V118.2H27.9199L27.9199 136.48Z" fill="#FF662A"/>
<path d="M27.9199 159.11H34.54V140.83H27.9199L27.9199 159.11Z" fill="#FF662A"/>
<path d="M30.23 274.58H50.5L50.5 115.73H30.23L30.23 274.58Z" fill="#FF8759"/>
<path d="M39.6301 280.05H41.0901C41.543 280.05 41.9099 279.683 41.9099 279.23L41.9099 122.02C41.9099 121.567 41.543 121.2 41.0901 121.2H39.6301C39.1773 121.2 38.8101 121.567 38.8101 122.02L38.8101 279.23C38.8101 279.683 39.1773 280.05 39.6301 280.05Z" fill="#FF662A"/>
<path d="M3.79004 302.69C3.80063 292.994 7.65678 283.699 14.5127 276.843C21.3686 269.987 30.6641 266.131 40.3599 266.12C50.0548 266.133 59.349 269.99 66.2043 276.846C73.0597 283.701 76.9167 292.995 76.9299 302.69C76.9193 312.387 73.0634 321.683 66.2078 328.541C59.3521 335.398 50.0565 339.257 40.3599 339.27C30.6624 339.259 21.3655 335.402 14.5093 328.544C7.65308 321.686 3.79798 312.387 3.79004 302.69ZM22.6399 302.69C22.6558 307.381 24.529 311.875 27.8499 315.188C31.1707 318.502 35.6688 320.365 40.3599 320.37C45.057 320.365 49.5602 318.496 52.8806 315.173C56.201 311.851 58.0674 307.347 58.0701 302.65C58.0648 297.955 56.1971 293.453 52.877 290.133C49.5568 286.813 45.0552 284.945 40.3599 284.94C35.6567 284.945 31.1481 286.818 27.8252 290.147C24.5023 293.475 22.6372 297.987 22.6399 302.69Z" fill="#FF8759"/>
<path d="M20.9199 302.69C20.9252 307.844 22.9751 312.786 26.6196 316.43C30.2642 320.075 35.2057 322.125 40.3599 322.13C45.5123 322.122 50.4514 320.071 54.0938 316.427C57.7361 312.783 59.7847 307.842 59.79 302.69C59.7821 297.539 57.7324 292.602 54.0903 288.96C50.4482 285.318 45.5106 283.268 40.3599 283.26C35.2074 283.265 30.2676 285.314 26.6233 288.956C22.979 292.599 20.9279 297.538 20.9199 302.69ZM22.6399 302.69C22.6478 297.994 24.5176 293.492 27.8394 290.172C31.1611 286.853 35.6636 284.985 40.3599 284.98C45.0552 284.985 49.5568 286.853 52.877 290.173C56.1971 293.493 58.0648 297.995 58.0701 302.69C58.0568 307.38 56.1857 311.874 52.8665 315.188C49.5472 318.501 45.05 320.365 40.3599 320.37C35.6688 320.365 31.1707 318.502 27.8499 315.188C24.529 311.875 22.6558 307.381 22.6399 302.69Z" fill="#FF662A"/>
<path d="M117.02 125.34L116.04 132.82L123.91 133.69V125.8L117.02 125.34Z" fill="#EFB39C"/>
<path d="M57.8598 178.58C57.8598 178.58 47.4498 173.45 47.1498 178.58C46.5798 188.3 57.8598 182.82 57.8598 182.82V178.58Z" fill="#FFC9B1"/>
<path d="M109.91 113.87C109.91 120.66 116.91 129.12 123.73 129.12C127.73 129.12 134.19 128.52 134.19 113.87C134.19 98.46 129.02 101.56 122.19 101.56C118.93 101.568 115.807 102.868 113.505 105.176C111.203 107.484 109.91 110.61 109.91 113.87Z" fill="#FFC9B1"/>
<path d="M131.59 105.63C130.5 105.79 129.34 105.27 128.31 105.68C126.68 106.34 126.57 108.84 125.06 109.75C123.18 110.9 120.34 108.92 118.69 110.39C117.69 111.25 117.84 112.78 117.94 114.08C118.202 117.527 117.819 120.993 116.81 124.3C116.58 125.07 117.59 126.44 116.99 126.96C115.99 127.83 113.09 127.07 111.99 126.31C110.952 125.468 110.131 124.387 109.6 123.16C107.3 118.69 105.54 113.8 105.6 108.76C105.66 103.72 107.7 98.52 111.77 95.61C116.24 92.4 122.51 93.38 127.27 95.51C129.27 96.39 132.18 98.0099 133.27 99.8799C134.36 101.75 134.22 105.24 131.59 105.63Z" fill="#303030"/>
<path d="M106.52 90.44C104.68 89.2868 102.586 88.6002 100.42 88.44C96.1399 88.36 92.4199 91.67 90.4199 95.5C88.7448 98.6054 88.1504 102.18 88.7299 105.66C89.0335 107.385 89.7334 109.017 90.7746 110.426C91.8157 111.835 93.1697 112.983 94.7299 113.78C95.6346 114.26 96.66 114.465 97.6799 114.37C99.0151 114.073 100.214 113.341 101.09 112.29C103.37 109.89 103.76 107.03 105.44 104.43C106.79 102.34 109.77 103.2 111.76 101.83C116.8 98.37 109.63 92.16 106.52 90.44Z" fill="#303030"/>
<path d="M104.41 333.71C110.26 335.14 115.15 336.86 117.84 339.27H95.3101L95.74 334.04L104.41 333.71Z" fill="#263238"/>
<path d="M124.61 333.71C130.46 335.14 135.35 336.86 138.03 339.27H115.5L115.93 334.04L124.61 333.71Z" fill="#263238"/>
<path d="M183.02 143.55C182.869 143.468 182.712 143.398 182.55 143.34C182.122 143.305 181.692 143.366 181.291 143.518C180.889 143.671 180.527 143.91 180.23 144.22C178.607 145.413 177.079 146.731 175.66 148.16C175.326 148.455 175.03 148.791 174.78 149.16C174.369 149.719 174.125 150.383 174.077 151.076C174.029 151.768 174.18 152.46 174.51 153.07C174.793 153.535 175.187 153.922 175.656 154.198C176.126 154.474 176.656 154.629 177.2 154.65C178.983 154.588 180.675 153.847 181.93 152.58C182.399 152.029 182.673 151.338 182.711 150.615C182.749 149.893 182.548 149.177 182.14 148.58C181.934 148.164 181.642 147.796 181.283 147.502C180.925 147.207 180.508 146.992 180.06 146.87C181.02 146.294 181.921 145.624 182.75 144.87C182.961 144.712 183.126 144.502 183.23 144.26C183.283 144.136 183.291 143.997 183.253 143.867C183.214 143.737 183.132 143.625 183.02 143.55Z" fill="#FFC9B1"/>
<path d="M151.15 167.37C159.5 161.81 166.15 155.85 173.69 149.13C173.803 149.028 173.936 148.95 174.08 148.901C174.224 148.851 174.376 148.831 174.528 148.841C174.68 148.851 174.828 148.892 174.964 148.96C175.1 149.029 175.222 149.124 175.32 149.24C176.71 150.89 178.97 153.35 178.73 154.38C178.552 154.945 178.232 155.455 177.8 155.86L156.6 179.35C155.277 180.956 153.743 182.375 152.04 183.57C151.186 184.165 150.221 184.582 149.202 184.797C148.183 185.012 147.132 185.02 146.11 184.82C142.71 183.98 140.81 180.48 138.95 177.51C129.82 162.85 131.33 157.51 132.44 153.03C133.22 149.89 134.2 146.79 134.77 143.6C134.95 142.6 132.53 136.98 133.91 136.91C138.03 141.73 144.21 156.4 148.43 166.52C148.533 166.772 148.691 166.998 148.891 167.182C149.092 167.366 149.33 167.503 149.59 167.585C149.85 167.666 150.125 167.689 150.394 167.652C150.664 167.614 150.922 167.518 151.15 167.37Z" fill="#C8C9EF"/>
<path d="M85.21 214.25L95.8398 334.71C97.4869 335.094 99.157 335.371 100.84 335.54C101.82 335.478 102.795 335.354 103.76 335.17C104.99 334.94 106.06 334.71 106.06 334.71L106.17 243.65H114.95L115.95 334.71C117.722 335.165 119.541 335.41 121.37 335.44C123.345 335.383 125.311 335.139 127.24 334.71L139.99 211.17L85.21 214.25Z" fill="#585992"/>
<path d="M112.54 223.28C112.6 227.36 112.32 231.04 113.74 234.74C114.27 236.206 115.263 237.46 116.57 238.31C117.877 239.16 119.425 239.56 120.98 239.45C126.24 239.35 129.89 236.45 129.91 231.17C129.91 230.48 130.25 223.28 130.6 223.27L112.54 223.28Z" fill="#568EDB"/>
<path d="M87.5999 223.28C87.6599 227.36 87.48 231.04 88.49 234.75C89.27 237.66 91.04 239.56 93.55 239.5C97.22 239.42 99.26 235.34 99.74 231.25C99.81 230.58 99.9299 223.37 100.17 223.36L87.5999 223.28Z" fill="#568EDB"/>
<path d="M106.15 243.64C106.207 243.628 106.258 243.594 106.292 243.546C106.325 243.498 106.339 243.438 106.33 243.38C104.92 235.2 105.89 219.53 105.9 219.38C105.9 219.318 105.879 219.258 105.84 219.21C105.792 219.171 105.732 219.15 105.67 219.15C105.53 219.15 91.4899 219.81 85.5999 218.32C85.5723 218.313 85.5434 218.311 85.5152 218.315C85.4869 218.319 85.4599 218.329 85.4356 218.344C85.4112 218.359 85.3902 218.379 85.3738 218.402C85.3574 218.426 85.3457 218.452 85.3399 218.48C85.3325 218.508 85.3309 218.536 85.335 218.565C85.3391 218.593 85.3491 218.62 85.364 218.645C85.379 218.669 85.3988 218.69 85.4221 218.706C85.4455 218.723 85.472 218.734 85.5 218.74C91.01 220.14 103.5 219.68 105.5 219.6C105.38 221.6 104.63 235.79 105.95 243.47C105.961 243.516 105.986 243.558 106.022 243.588C106.058 243.619 106.103 243.637 106.15 243.64Z" fill="#5E9CE4"/>
<path d="M107.91 243.64C107.939 243.637 107.967 243.629 107.993 243.616C108.018 243.602 108.041 243.584 108.06 243.562C108.079 243.539 108.092 243.514 108.101 243.486C108.11 243.458 108.113 243.429 108.11 243.4C107.295 235.515 107.191 227.573 107.8 219.67C117.949 219.405 128.059 218.311 138.03 216.4C138.059 216.395 138.086 216.385 138.111 216.369C138.135 216.353 138.156 216.332 138.172 216.308C138.188 216.283 138.199 216.256 138.204 216.227C138.209 216.198 138.207 216.168 138.2 216.14C138.197 216.111 138.187 216.084 138.172 216.06C138.157 216.035 138.137 216.014 138.114 215.998C138.09 215.982 138.063 215.971 138.035 215.966C138.007 215.961 137.978 215.963 137.95 215.97C127.94 217.891 117.789 218.981 107.6 219.23C107.546 219.232 107.496 219.254 107.457 219.29C107.419 219.327 107.395 219.377 107.39 219.43C106.75 227.422 106.843 235.455 107.67 243.43C107.675 243.489 107.703 243.544 107.748 243.583C107.792 243.622 107.85 243.643 107.91 243.64Z" fill="#5E9CE4"/>
<path d="M103.71 335.17C104.94 334.94 106.01 334.71 106.01 334.71L106.12 243.65H106.86C106.827 243.586 106.782 243.528 106.727 243.482C106.672 243.435 106.608 243.4 106.539 243.379C106.47 243.357 106.397 243.35 106.325 243.357C106.253 243.364 106.183 243.385 106.12 243.42C104.4 244.2 103.59 245.42 102.51 246.8C101.652 247.96 101.173 249.357 101.14 250.8C100.48 278.82 102.11 300.19 103.71 335.17Z" fill="#3A3B82"/>
<path d="M126.36 332.18C126.331 332.177 126.303 332.169 126.277 332.156C126.251 332.142 126.229 332.124 126.21 332.102C126.191 332.079 126.177 332.054 126.169 332.026C126.16 331.998 126.157 331.969 126.16 331.94L126.35 330.14C126.352 330.111 126.361 330.083 126.374 330.057C126.387 330.031 126.406 330.009 126.428 329.99C126.451 329.971 126.476 329.957 126.504 329.949C126.532 329.94 126.561 329.937 126.59 329.94C126.618 329.942 126.646 329.951 126.672 329.964C126.697 329.978 126.719 329.996 126.737 330.019C126.755 330.041 126.768 330.067 126.775 330.095C126.783 330.123 126.784 330.152 126.78 330.18L126.6 331.99C126.593 332.044 126.567 332.094 126.527 332.13C126.486 332.167 126.434 332.188 126.38 332.19L126.36 332.18ZM126.9 326.88C126.871 326.878 126.844 326.869 126.818 326.856C126.793 326.842 126.771 326.824 126.753 326.801C126.735 326.779 126.722 326.753 126.715 326.725C126.707 326.697 126.706 326.668 126.71 326.64L127.06 323.14C127.063 323.11 127.071 323.081 127.085 323.055C127.099 323.028 127.118 323.005 127.142 322.986C127.165 322.967 127.192 322.954 127.221 322.946C127.25 322.938 127.28 322.936 127.31 322.94C127.368 322.95 127.419 322.981 127.454 323.028C127.49 323.074 127.506 323.132 127.5 323.19L127.14 326.68C127.137 326.734 127.114 326.785 127.075 326.822C127.036 326.859 126.984 326.88 126.93 326.88H126.9ZM127.62 319.88C127.591 319.877 127.563 319.869 127.537 319.856C127.511 319.842 127.489 319.824 127.47 319.802C127.451 319.779 127.437 319.754 127.429 319.726C127.42 319.698 127.417 319.669 127.42 319.64L127.78 316.14C127.782 316.111 127.791 316.084 127.804 316.058C127.818 316.033 127.836 316.011 127.859 315.993C127.881 315.975 127.907 315.962 127.935 315.955C127.963 315.947 127.992 315.946 128.02 315.95C128.049 315.952 128.077 315.961 128.103 315.974C128.129 315.988 128.151 316.006 128.17 316.028C128.189 316.051 128.203 316.076 128.211 316.104C128.22 316.132 128.223 316.161 128.22 316.19L127.86 319.69C127.853 319.743 127.826 319.792 127.786 319.826C127.745 319.861 127.693 319.88 127.64 319.88H127.62ZM128.33 312.88C128.302 312.878 128.274 312.869 128.248 312.856C128.223 312.842 128.201 312.824 128.183 312.801C128.165 312.779 128.152 312.753 128.145 312.725C128.137 312.697 128.136 312.668 128.14 312.64L128.49 309.14C128.49 309.02 128.62 308.91 128.73 308.95C128.759 308.952 128.787 308.961 128.813 308.974C128.839 308.988 128.861 309.006 128.88 309.028C128.898 309.051 128.913 309.076 128.921 309.104C128.93 309.132 128.933 309.161 128.93 309.19L128.57 312.69C128.565 312.745 128.54 312.796 128.499 312.833C128.458 312.87 128.405 312.89 128.35 312.89L128.33 312.88ZM129.05 305.88C128.993 305.873 128.94 305.844 128.903 305.799C128.866 305.755 128.847 305.698 128.85 305.64L129.21 302.13C129.211 302.101 129.218 302.072 129.231 302.046C129.244 302.02 129.263 301.997 129.286 301.979C129.309 301.961 129.335 301.948 129.364 301.941C129.392 301.935 129.421 301.934 129.45 301.94C129.479 301.942 129.507 301.951 129.533 301.964C129.558 301.978 129.581 301.996 129.6 302.018C129.618 302.041 129.633 302.066 129.641 302.094C129.65 302.122 129.653 302.151 129.65 302.18L129.29 305.68C129.283 305.734 129.257 305.784 129.217 305.82C129.176 305.857 129.124 305.878 129.07 305.88H129.05ZM129.76 298.88C129.731 298.878 129.704 298.869 129.678 298.856C129.653 298.842 129.631 298.824 129.613 298.801C129.595 298.779 129.582 298.753 129.575 298.725C129.567 298.697 129.566 298.668 129.57 298.64L129.92 295.14C129.92 295.02 130.04 294.9 130.16 294.94C130.189 294.942 130.217 294.951 130.243 294.964C130.268 294.978 130.291 294.996 130.31 295.018C130.329 295.041 130.343 295.066 130.351 295.094C130.36 295.122 130.363 295.151 130.36 295.18L130 298.68C129.995 298.733 129.971 298.783 129.933 298.819C129.894 298.856 129.843 298.878 129.79 298.88H129.76ZM130.48 291.88C130.451 291.877 130.423 291.869 130.397 291.856C130.371 291.842 130.349 291.824 130.33 291.802C130.312 291.779 130.297 291.754 130.289 291.726C130.28 291.698 130.277 291.669 130.28 291.64L130.64 288.14C130.641 288.111 130.648 288.082 130.661 288.055C130.674 288.029 130.693 288.005 130.715 287.986C130.738 287.968 130.764 287.954 130.793 287.946C130.821 287.938 130.851 287.936 130.88 287.94C130.937 287.947 130.99 287.976 131.027 288.021C131.064 288.065 131.083 288.122 131.08 288.18L130.72 291.68C130.715 291.735 130.69 291.786 130.649 291.823C130.608 291.86 130.555 291.88 130.5 291.88H130.48ZM131.19 284.88C131.161 284.878 131.134 284.869 131.108 284.856C131.083 284.842 131.061 284.824 131.043 284.801C131.025 284.779 131.012 284.753 131.005 284.725C130.997 284.697 130.996 284.668 131 284.64L131.35 281.14C131.35 281.02 131.48 280.91 131.6 280.95C131.657 280.957 131.708 280.987 131.744 281.031C131.779 281.076 131.796 281.133 131.79 281.19L131.43 284.68C131.427 284.734 131.404 284.785 131.365 284.822C131.326 284.859 131.274 284.88 131.22 284.88H131.19ZM131.91 277.88C131.881 277.877 131.853 277.869 131.827 277.856C131.801 277.842 131.779 277.824 131.76 277.802C131.741 277.779 131.727 277.754 131.719 277.726C131.71 277.698 131.707 277.669 131.71 277.64L132.07 274.14C132.071 274.111 132.078 274.082 132.091 274.056C132.104 274.03 132.123 274.007 132.146 273.989C132.169 273.971 132.195 273.958 132.224 273.951C132.252 273.945 132.282 273.944 132.31 273.95C132.339 273.952 132.367 273.961 132.393 273.974C132.419 273.988 132.441 274.006 132.46 274.028C132.479 274.051 132.493 274.076 132.501 274.104C132.51 274.132 132.513 274.161 132.51 274.19L132.15 277.69C132.143 277.743 132.116 277.792 132.076 277.826C132.035 277.861 131.983 277.88 131.93 277.88H131.91ZM132.62 270.88C132.591 270.878 132.564 270.869 132.538 270.856C132.513 270.842 132.491 270.824 132.473 270.801C132.455 270.779 132.442 270.753 132.435 270.725C132.427 270.697 132.426 270.668 132.43 270.64L132.79 267.14C132.795 267.088 132.819 267.039 132.858 267.004C132.897 266.969 132.948 266.95 133 266.95C133.029 266.952 133.056 266.961 133.082 266.974C133.107 266.988 133.129 267.006 133.147 267.029C133.165 267.051 133.178 267.077 133.185 267.105C133.192 267.133 133.194 267.162 133.19 267.19L132.83 270.69C132.825 270.745 132.8 270.796 132.759 270.833C132.718 270.87 132.665 270.89 132.61 270.89L132.62 270.88ZM133.34 263.88C133.282 263.873 133.23 263.844 133.193 263.799C133.156 263.755 133.137 263.698 133.14 263.64L133.5 260.14C133.501 260.111 133.508 260.082 133.521 260.055C133.534 260.029 133.553 260.005 133.575 259.986C133.598 259.968 133.624 259.954 133.653 259.946C133.681 259.938 133.711 259.936 133.74 259.94C133.769 259.942 133.797 259.951 133.823 259.964C133.849 259.978 133.871 259.996 133.89 260.018C133.909 260.041 133.923 260.066 133.931 260.094C133.94 260.122 133.943 260.151 133.94 260.18L133.58 263.68C133.573 263.734 133.547 263.784 133.507 263.82C133.466 263.857 133.414 263.878 133.36 263.88H133.34ZM134.05 256.88C134.021 256.878 133.994 256.869 133.968 256.856C133.943 256.842 133.921 256.824 133.903 256.801C133.885 256.779 133.872 256.753 133.865 256.725C133.857 256.697 133.856 256.668 133.86 256.64L134.21 253.14C134.212 253.11 134.221 253.081 134.235 253.055C134.249 253.028 134.268 253.005 134.292 252.986C134.315 252.967 134.342 252.954 134.371 252.946C134.4 252.938 134.43 252.936 134.46 252.94C134.517 252.947 134.568 252.977 134.604 253.022C134.639 253.066 134.656 253.123 134.65 253.18L134.29 256.68C134.287 256.734 134.264 256.785 134.225 256.822C134.186 256.859 134.134 256.88 134.08 256.88H134.05ZM134.77 249.88C134.741 249.877 134.713 249.869 134.687 249.856C134.661 249.842 134.638 249.824 134.62 249.802C134.601 249.779 134.587 249.754 134.579 249.726C134.57 249.698 134.567 249.669 134.57 249.64L134.93 246.14C134.931 246.111 134.938 246.082 134.951 246.055C134.964 246.029 134.983 246.005 135.005 245.986C135.028 245.968 135.054 245.954 135.083 245.946C135.111 245.938 135.141 245.936 135.17 245.94C135.229 245.948 135.283 245.978 135.321 246.024C135.358 246.071 135.376 246.13 135.37 246.19L135.01 249.69C135.003 249.743 134.976 249.792 134.936 249.826C134.895 249.861 134.844 249.88 134.79 249.88H134.77ZM135.48 242.88C135.451 242.878 135.424 242.869 135.398 242.856C135.373 242.842 135.351 242.824 135.333 242.801C135.315 242.779 135.302 242.753 135.295 242.725C135.288 242.697 135.286 242.668 135.29 242.64L135.65 239.14C135.652 239.111 135.661 239.084 135.674 239.058C135.688 239.033 135.706 239.011 135.729 238.993C135.751 238.975 135.777 238.962 135.805 238.955C135.833 238.947 135.862 238.946 135.89 238.95C135.918 238.952 135.946 238.961 135.972 238.974C135.997 238.988 136.019 239.006 136.037 239.029C136.055 239.051 136.068 239.077 136.075 239.105C136.083 239.133 136.084 239.162 136.08 239.19L135.72 242.69C135.715 242.742 135.691 242.791 135.652 242.826C135.613 242.861 135.562 242.88 135.51 242.88H135.48ZM136.2 235.88C136.171 235.877 136.143 235.869 136.117 235.856C136.091 235.842 136.069 235.824 136.05 235.802C136.031 235.779 136.017 235.754 136.009 235.726C136 235.698 135.997 235.669 136 235.64L136.36 232.14C136.36 232.02 136.49 231.91 136.6 231.95C136.629 231.952 136.657 231.961 136.683 231.974C136.709 231.988 136.731 232.006 136.75 232.028C136.769 232.051 136.782 232.076 136.791 232.104C136.8 232.132 136.803 232.161 136.8 232.19L136.44 235.69C136.433 235.744 136.407 235.794 136.367 235.83C136.326 235.867 136.274 235.888 136.22 235.89L136.2 235.88ZM136.91 228.88C136.881 228.876 136.853 228.867 136.828 228.852C136.802 228.838 136.78 228.818 136.762 228.795C136.745 228.772 136.732 228.745 136.725 228.717C136.717 228.688 136.716 228.659 136.72 228.63L137.08 225.14C137.081 225.111 137.088 225.082 137.101 225.055C137.114 225.029 137.133 225.005 137.155 224.986C137.178 224.968 137.204 224.954 137.233 224.946C137.261 224.938 137.291 224.936 137.32 224.94C137.349 224.942 137.376 224.951 137.402 224.964C137.427 224.978 137.449 224.996 137.467 225.019C137.485 225.041 137.498 225.067 137.505 225.095C137.513 225.123 137.514 225.152 137.51 225.18L137.15 228.68C137.145 228.735 137.12 228.786 137.079 228.823C137.038 228.86 136.985 228.88 136.93 228.88H136.91ZM137.63 221.88C137.572 221.873 137.52 221.844 137.483 221.799C137.446 221.755 137.427 221.698 137.43 221.64L137.79 218.14C137.79 218.02 137.91 217.9 138.03 217.94C138.059 217.942 138.087 217.951 138.113 217.964C138.139 217.978 138.161 217.996 138.18 218.018C138.199 218.041 138.213 218.066 138.221 218.094C138.23 218.122 138.233 218.151 138.23 218.18L137.87 221.68C137.863 221.734 137.837 221.784 137.797 221.82C137.756 221.857 137.704 221.878 137.65 221.88H137.63Z" fill="#5E9CE4"/>
<path d="M106.98 132.93C89.6 136.93 76.49 179.6 53.24 176.77V184.37C64.12 184.37 78.9799 180.9 91.1599 164.2C108.78 140.05 106.98 132.93 106.98 132.93Z" fill="#C8C9EF"/>
<path d="M133.91 136.92C144.58 149.15 143.69 211.17 144.91 249.68C125.67 253.68 105.05 253.55 83.45 250.43C83.45 250.43 80.09 188.37 90.91 153.22C98.26 129.37 122.65 124.02 133.91 136.92Z" fill="#C8C9EF"/>
</g>
<defs>
<clipPath id="clip0_4141_9106">
<rect width="412.58" height="425.81" fill="white" transform="translate(0.130005)"/>
</clipPath>
</defs>
</svg>
