<svg enable-background="new 0 0 2097.46 842.15" viewBox="0 0 2097.46 842.15" xmlns="http://www.w3.org/2000/svg" xmlns:xlink="http://www.w3.org/1999/xlink"><clipPath id="a"><path d="m1331.22 797.39c2.37-1.24 11.61 2.9 13 2.49 1.38-.41 3.18-2.77 9.26-2.49s6.5 4.98 8.16 7.61c0 0 14.8 14.24 19.08 16.32s9.68 5.25 10.65 9.54-.14 10.23-1.11 10.92-60.75.57-62.04-1.71c-3.4-5.98-.18-30.24-.05-33.83.15-3.59.68-7.6 3.05-8.85z"/></clipPath><clipPath id="b"><path d="m1439.13 797.39c2.37-1.24 11.61 2.9 13 2.49 1.38-.41 3.18-2.77 9.26-2.49s6.5 4.98 8.16 7.61c0 0 14.8 14.24 19.08 16.32s9.68 5.25 10.65 9.54-.14 10.23-1.11 10.92-60.75.57-62.04-1.71c-3.4-5.98-.18-30.24-.05-33.83.15-3.59.68-7.6 3.05-8.85z"/></clipPath><clipPath id="c"><path d="m859.91 831.15c-.11 3.5-.54 6.42-1.44 8.04-1.29 2.29-61.07 2.74-62.02 2.06-.67-.46-1.39-3.31-1.5-6.45-.07-1.5.03-3.08.33-4.47.93-4.28 6.31-7.49 10.59-9.6 4.28-2.1 18.98-16.42 18.98-16.42 1.64-2.64 2.04-7.36 8.12-7.66s7.89 2.03 9.28 2.45c1.37.39 10.6-3.8 12.97-2.58 2.4 1.23 2.95 5.25 3.1 8.83.1 2.64 1.93 16.31 1.59 25.8z"/></clipPath><clipPath id="d"><path d="m755.1 831.76c-.11 3.5-.54 6.42-1.44 8.04-1.29 2.29-61.07 2.74-62.02 2.06-.67-.46-1.39-3.31-1.5-6.45-.08-1.5.03-3.08.33-4.47.93-4.28 6.31-7.49 10.59-9.6 4.28-2.1 18.98-16.42 18.98-16.42 1.64-2.64 2.04-7.36 8.12-7.66s7.89 2.03 9.28 2.45c1.37.39 10.6-3.8 12.97-2.58 2.4 1.23 2.95 5.25 3.1 8.83.1 2.64 1.93 16.3 1.59 25.8z"/></clipPath><path d="m975.11 338.03s-5.39 25.44-6.5 45.96-.97 66.13-.97 66.13l19.79 1.19s16.16-49.23 21.5-71.7 5.93-30.69 5.93-30.69z" fill="#e99a7d"/><path d="m967.64 450.12s-2.26 13.32-1.97 21.08-.07 17.25 6.58 19.59 16.85 1.5 18.41.5 6.03-6.16 3.63-10.13c-3.05-5.05-5.74-11.89-4.94-17.27.81-5.37-1.93-12.59-1.93-12.59l-6.08-12.41z" fill="#e99a7d"/><path d="m1004.64 509.18h-50.34v-23.92c0-6.18 5.02-11.2 11.2-11.2h27.93c6.18 0 11.2 5.02 11.2 11.2v23.92zm-43.7-6.64h37.06v-17.28c0-2.52-2.05-4.56-4.56-4.56h-27.94c-2.52 0-4.56 2.05-4.56 4.56z" fill="#5a3537"/><path d="m1038.93 579.86h-118.92c-3.89 0-7.05-3.16-7.05-7.05v-73.29c0-3.89 3.16-7.05 7.05-7.05h118.92c3.89 0 7.05 3.16 7.05 7.05v73.29c0 3.89-3.16 7.05-7.05 7.05z" fill="#a4583f"/><path d="m980.56 545.3c-.03 0-.06 0-.1 0-6.39-.38-57.67-41.63-63.5-46.34l1.39-1.72c21.79 17.59 57.96 45.6 62.24 45.85h.05c3.96 0 32.75-23.55 57.96-45.82l1.46 1.66c-8.78 7.76-52.81 46.37-59.5 46.37z" fill="#8f452d"/><path d="m963.71 434.27s-.9 9.95.78 11.02c1.67 1.07 11.88 2.75 17.93 3.18 6.05.44 13.53-.26 14.77-1.03 1.25-.77.15-7.47.15-7.47z" fill="#f6dece"/><path d="m1118.48 151.46-39.7 24.95-36.73-24.4s15.56-12.87 16.91-18.24c.28-1.12.43-3.05.49-5.41.11-4.4-.09-10.28-.28-15.06-.24-4.81-.49-8.5-.49-8.5l42.11-2.51s1.17 21.19 1.97 29.24c.81 8.05 15.72 19.93 15.72 19.93z" fill="#e99a7d"/><path d="m1047.68 51.34s.68 44.83 6.85 53.14 18.37 21.24 25.88 21.51c6.99.25 20.42-14.56 25.19-21.51 6.44-9.39 5.3-52.78 5.3-52.78s1.25-25.97-32.55-25.44c-33.8.54-30.67 25.08-30.67 25.08z" fill="#e99a7d"/><path d="m1080.93 132.02c-6.52 1.01-17.96-2.51-21.48-3.65.11-4.4-.38-18.26-.38-18.26s15.38 12.8 20.93 12.92c6.17.13 7.92-1.88 9.79-.8 1.89 1.08-1.07 8.59-8.86 9.79z" fill="#df7f5d"/><path d="m1100.07 70.19c-.2-.75-.59-1.37-1.13-1.58-1.37-.53-1.87 1.21-1.94 2.12-.06.81.15 2.32.92 2.75.99.54 1.97-.24 2.2-1.2.15-.66.12-1.44-.05-2.09z" fill="#3e200d"/><path d="m1063.52 71.06c-.2-.75-.59-1.37-1.13-1.58-1.37-.53-1.87 1.21-1.94 2.12-.06.81.15 2.32.92 2.75.99.54 1.97-.24 2.2-1.2.15-.66.12-1.44-.05-2.09z" fill="#3e200d"/><path d="m1081.13 93.01c-.31 0-.63-.13-.85-.39-.39-.47-.33-1.16.13-1.56.76-.64 2.72-2.68 2.67-4.33-.06-1.76-2.22-8.48-3.66-12.58-.2-.58.1-1.21.68-1.41.57-.2 1.21.1 1.41.68.38 1.08 3.7 10.58 3.78 13.24.1 3.02-3.09 5.79-3.45 6.09-.21.18-.46.26-.71.26z" fill="#df7f5d"/><path d="m1109.64 73.25s5.1-2.41 6.17 6.62-8.31 13.23-8.31 13.23 0-13.23 0-13.77c-.01-.54 2.14-6.08 2.14-6.08z" fill="#e99a7d"/><path d="m1049.37 73.25s-5.1-2.41-6.17 6.62 8.31 13.23 8.31 13.23 0-13.23 0-13.77c.01-.54-2.14-6.08-2.14-6.08z" fill="#e99a7d"/><path d="m1069.33 62.43c-1.35-1.72-6.51-1.62-8.62-1.47-4.09.29-7.04 1.92-7.61 2.34-.99.73-.52 1.95.45 2.43 1.13.57 2.47-.09 3.61-.35 2.72-.61 4.82-.52 7.61-.32 3.77.28 5.88-.96 4.56-2.63z" fill="#7d473d"/><path d="m1090.03 61.98c1.31-1.74 6.47-1.76 8.59-1.66 4.09.2 7.08 1.76 7.66 2.17 1 .71.56 1.93-.39 2.44-1.12.59-2.47-.04-3.61-.27-2.74-.55-4.84-.42-7.61-.15-3.79.37-5.92-.82-4.64-2.53z" fill="#7d473d"/><path d="m1053.35 46.61c-.08-.7-.43-1.33-1.16-1.53-1.83-.49-5.57-.03-7.09 1.18-1.95 1.56-1.94 5.12-2.01 7.38-.07 2.31.64 4.49.81 6.77.19 2.6-.12 5.09.82 7.61.76 2.04 2.01 5.55 4.57 5.79.35.03.82-.23.97-.56 1.86-4.06 1.58-8.77 1.58-13.13-.01-4.54 2.07-8.97 1.51-13.51z" fill="#7d473d"/><path d="m1108.42 46.33c-.31.26-.48.72-.48 1.14-.08.06-.17.09-.23.18-.3.46-.43.82-.53 1.36-.29 1.59.11 3.17.16 4.76.05 1.71-.01 3.39.15 5.11.28 3.04.79 6.06.79 9.12 0 1.81.11 5.23 2.56 5.48.5.05.98-.31 1.23-.7 1.67-2.64 2.39-6.02 2.85-9.05.59-3.81 1.93-8.14 1.78-12s-4.54-8.53-8.28-5.4z" fill="#7d473d"/><path d="m1081.65 102.81c-.04 0-.08 0-.12 0-4.85-.02-8.11-1.28-8.25-1.33-.57-.22-.85-.86-.62-1.43.22-.57.86-.85 1.43-.63.03.01 3.04 1.16 7.45 1.18h.11c5.16 0 7.61-1.18 7.64-1.2.55-.27 1.21-.05 1.48.49s.06 1.2-.48 1.48c-.13.06-2.89 1.44-8.64 1.44z" fill="#df7f5d"/><path d="m1013.89 157.7s-26.55 9.81-34.53 48.49c-3.3 15.99-8.8 72.07-10.57 104.38-.58 10.54-11.14 125.75-11.14 125.75 4.24 6.88 36.55 6.96 44.13 5.23s32.28-155.11 32.28-155.11z" fill="#cf8772"/><path d="m1116.32 764.7 4.34 34.74 14.65 11.76 8.13-9.9-.43-34.33z" fill="#e99a7d"/><path d="m1118.17 797.06c2.31-1.35 11.74 2.35 13.1 1.87s3.05-2.91 9.14-2.92 6.73 4.67 8.51 7.21c0 0 18.7 20.83 19.87 25.07s.34 10.23-.59 10.96c-.93.74-49.61 2.79-51.01.58-3.68-5.81-1.61-30.19-1.64-33.79-.03-3.59.31-7.62 2.62-8.98z" fill="#5e3836"/><path d="m1036.14 764.96-3.63 34.82-14.4 12.07-8.33-9.74-.28-34.32z" fill="#e99a7d"/><path d="m1033.48 796.9c-2.39-1.22-11.58 3.03-12.97 2.63s-3.21-2.73-9.29-2.39-6.45 5.05-8.08 7.69c0 0-14.64 14.4-18.91 16.52-4.26 2.12-9.62 5.36-10.55 9.65-.92 4.3.25 10.23 1.22 10.91.98.68 60.75-.07 62.02-2.36 3.33-6.02-.13-30.24-.31-33.83-.17-3.6-.74-7.6-3.13-8.82z" fill="#5e3836"/><path d="m1150.16 372.53s4.91 45.86 5.12 65.77 1.99 343.02.08 345.81-15.02 7.34-24.7 7.45c-9.68.1-22.43-2.53-23.83-4.73-1.41-2.2-33.84-354.99-33.84-354.99l-46.99-50.16s33.93-34.03 35.6-33.3 43.08-5.97 48.1-1.78c5.01 4.17 40.46 25.93 40.46 25.93z" fill="#713f4d"/><path d="m1003.13 382.74s-7.81 81.58-7.24 135.22c.57 53.65 2.35 265.72 3.49 268.47s20.16 5.69 26.79 5.62c6.64-.07 15.94-1.5 16.49-2.42.54-.93 35.51-310.7 35.51-310.7s.71-71.82-2.98-76.44-32.22-39.9-35.48-40.88c-3.25-.98-36.58 21.13-36.58 21.13z" fill="#713f4d"/><path d="m1106.76 133.3s-2.18-9.48-3.99-10.29-23.17 5.36-24.54 7.45c-1.36 2.09-3.65 8.06-3.65 8.06l15.54 5.09z" fill="#f6dece"/><path d="m1075.4 137.61c-.41 0-1.71-6.49-4.99-7.87-3.69-1.55-8.47-3.21-11.92-2.1-1.4.45-5.52 9.56-5.52 9.56s17.94 6.89 18.35 7.02c.42.13 9.78-3.56 9.78-3.56z" fill="#f6dece"/><path d="m1105.63 131.1 17.43 15.07-55.46 90.97-30.14-89.43 16.46-12.04 22.36 6.29z" fill="#f6dece"/><path d="m1073.08 150.81s-4.25 7.05-4.29 11.34-.55 54.85-.55 54.85l8.43 13.18 8.43-13.18s-1.98-50.29-2.79-54.16-5.51-13.14-5.51-13.14z" fill="#c7514e"/><path d="m995.39 431.64c1.22 1.98 38.65 16.45 82.84 13.7 61.79-3.85 79.39-5.96 82.29-14.53 2-5.91.45-48.1.29-106.02-.2-70.21.55-158.12-1.82-163.1-4.25-8.94-51.91-29.34-51.91-29.34s-26.3 97.33-30.39 95.89c-4.06-1.42-23.71-91.87-23.71-91.87s-40.17 19.39-45.05 26.36c-6.73 9.54-10.89 62.25-12.06 109.8-1.79 72.67-3.28 154.56-.48 159.11z" fill="#cf8772"/><path d="m1134.97 157.72c-9.61 6.33-22.82 31.19-3.54 56.56s74.94 82.41 74.94 82.41 24.7-18.8 26.18-19.56 4.74-23.63.74-32.75-25.07-48.17-74.62-84.58c-8.53-6.27-14.09-8.41-23.7-2.08z" fill="#cf8772"/><path d="m1075.95 483.75c-.29 0-.58-.12-.8-.34l-21.67-22.79c-.42-.44-.4-1.14.04-1.56s1.14-.4 1.56.04l21.67 22.79c.42.44.4 1.14-.04 1.56-.21.2-.49.3-.76.3z" fill="#5d2f3c"/><path d="m1227.25 266.21c10.64 6.23 13.46 20.35 6 30.16-4.52 5.94-9.72 25.69-14.85 31.28-13.9 15.14-46.83 48.46-46.83 48.46l-15.93-14.2s25.38-59.91 37.71-79.44c2.39-3.79 4.52-7.07 6.41-9.91 6.03-9.07 18.08-11.86 27.49-6.35z" fill="#e99a7d"/><path d="m1156.54 361.24s-15.46 8.4-22.79 18.95c-6.04 8.71-3.63 21.14-.09 23.93s13.19 1.41 22.67-6.82 15.58-22.11 15.58-22.11 4.29-15.91 3.07-16.11c-1.21-.21-18.44 2.16-18.44 2.16z" fill="#e99a7d"/><path d="m1156.23 350.26s-4.1 6.88-3.59 8.8 6.87 10.08 11.02 14.5 10.11 8.99 11.56 9.26c1.44.28 5.18-5.39 5.18-5.39z" fill="#f6dece"/><path d="m1191.74 263.39s-39.75 85.84-37.72 88.79 23.51 30.2 26.12 30.07c2.62-.14 18.86-18.39 22.92-23.18s41.04-55.87 44.72-75.41c3.69-19.54-31.19-66.66-31.19-66.66s.96 29.04-.15 29.04-24.7 17.35-24.7 17.35z" fill="#cf8772"/><path d="m1115.51 32.8c-3.8-7.63-12.76-12.37-21.03-12.87-.11-.01-1.24-2.1-1.43-2.34-.68-.85-1.49-1.59-2.37-2.24-1.92-1.41-4.18-2.32-6.47-2.92-7.63-1.99-17.11-1.91-24.37 1.4-6.41 2.93-11.08 6.6-13.3 13.53-1.86 5.81-3.55 16.99 1.06 22.06.78.86 1.89-.08 1.75-1.02-.27-1.78-.52-3.56-.72-5.34 1.99 2.7 7.81.71 6.63-3.43-.09-.32-.08-.71 0-1.16.23-.23.45-.47.62-.76.77-1.26 1.11-2.58 1.6-3.91.22-.33.44-.65.67-.98 4.72 1.22 10.78-.48 15.32-.94 4-.4 8.01-.04 12.01.06 1.08.31 2.17.3 3.3.3.46 0 .78-.01 1.02-.02 1.46-.02 2.61-.78 3.3-1.87.15.03.26.06.32.06.4.19.8.43 1.21.58.74.28 1.56.36 2.28.67.19.08 1.21.86 1.28.69.49 1.02.47 2.95.77 4 .57 2 1.25 3.99 1.94 5.95.89 2.54 4.56 4.21 6.6 1.74.63-.76 1.06-1.51 1.39-2.28-.03 1.8-.2 3.65-.23 5.15-.08 4.03-3.99 15.93 2.43 16.75 1.1.14 2.29-.72 2.82-1.62 4.32-7.3 5.42-21.59 1.6-29.24z" fill="#7d473d"/><path d="m1111.59 46.53c0-.1.02-.19 0-.29-.06-.29-.16-.54-.23-.82-.19-3.26-1.08-6.69-3.32-8.28-.18-.39-.36-.77-.53-1.17.25-.49.24-1.16-.16-1.63-1.35-1.59-3.01-2.76-4.76-3.82-.03-.04-.04-.08-.08-.12-1.34-1.35-2.73-3.03-4.5-3.82-.34-.15-.72-.15-1.08-.06-6-1.36-13.35-2.08-19.36-1.69-3.79.24-12.33.4-15.82 3.32-3.65 1.63-6.98 3.99-9.79 6.88-1.45 1.13-2.85 2.29-4.01 3.67.08-3.59.51-7.27 1.89-9.89.7-1.33-1.16-3-2.2-1.7-3.61 4.52-4.88 11.1-4.74 16.74.12 4.76-.53 15.07 3.49 18.71 1.15 1.05 2.9.29 2.99-1.24.1-1.75.02-3.5-.14-5.26.51.04 1.04-.17 1.32-.65 2.88-5.03 3.84-10.43 9.46-13.58 6.77-3.79 11.8.44 18.7.87 7.97.5 15.16-4.3 22.35 1.23 7.59 5.83 3.72 15.34 9.61 21.38 1.18 1.21 2.85.17 3.03-1.25.79-6.31.29-12.37-2.12-17.53z" fill="#7d473d"/><path d="m1076.97 152.6h-3.72c-2.53 0-4.47-1.94-4.08-4.09l1.3-7.28c.31-1.73 2.04-3.01 4.08-3.01h1.12c2.04 0 3.77 1.28 4.08 3.01l1.3 7.28c.39 2.15-1.54 4.09-4.08 4.09z" fill="#c7514e"/><path d="m1048.06 174.82c-2.75 0-5.09-.12-5.86-.47-.81-.38-2.51-1.16.33-32.22.06-.61.58-1.05 1.2-1 .61.06 1.06.59 1 1.2-1.2 13.11-1.99 27.58-1.34 30.08 1.76.35 9.08.2 15.61-.17.61-.03 1.13.43 1.17 1.04.03.61-.43 1.13-1.04 1.17-2.08.12-7.02.37-11.07.37zm-4.59-2.18h.02z" fill="#bd584c"/><path d="m1074.05 232.53c-.35 0-.69-.16-.91-.47-9.12-12.98-30.34-43.44-30.34-46.13 0-2.84 4.67-9.45 5.6-10.74.36-.5 1.05-.61 1.54-.25.5.36.61 1.05.25 1.54-2.15 2.98-5.18 7.88-5.18 9.45.56 2.43 18.66 28.82 29.94 44.86.35.5.23 1.19-.27 1.54-.19.13-.41.2-.63.2z" fill="#bd584c"/><path d="m1110.45 172.48c-4.05 0-8.99-.25-11.07-.37-.61-.03-1.08-.56-1.04-1.17.03-.61.55-1.08 1.17-1.04 6.51.37 13.8.52 15.6.17.64-2.65-.28-18.2-1.6-32.32-.06-.61.39-1.15 1-1.2.6-.05 1.15.39 1.2 1 3.11 33.3 1.42 34.09.61 34.46-.77.35-3.12.47-5.87.47z" fill="#bd584c"/><path d="m1079.38 232.53c-.24 0-.48-.08-.68-.23-.48-.38-.57-1.07-.19-1.55 13.16-16.88 34.29-44.65 35.01-47.3-.01-1.42-3.05-6.33-5.2-9.31-.36-.49-.25-1.19.25-1.54.49-.36 1.19-.25 1.54.25.94 1.3 5.6 7.9 5.6 10.74 0 2.71-24.8 34.83-35.46 48.52-.22.27-.54.42-.87.42z" fill="#bd584c"/><path d="m1047.09 445.53s7.93.82 14.92 0c2.82-.33 7.21-57.86 7.21-57.86s2.72 54.94 4.94 57.66c1.01 1.24 13.45-.31 13.45-.31s5.17 6.95 2.96 6.65-36.32-1.22-37.79-1.22c-1.49 0-5.69-4.92-5.69-4.92z" fill="#713f4d"/><g fill="#bd584c"><path d="m1070.2 382.29-2.21-.08s1.03-28.96 1.77-52.92c.73-23.7 4.21-91.52 4.24-92.2.03-.61.56-1.1 1.16-1.05.61.03 1.08.55 1.05 1.16-.04.68-3.51 68.47-4.24 92.15-.73 23.97-1.77 52.94-1.77 52.94z"/><path d="m1081.93 247.74c-.61 0-1.11-.49-1.11-1.11v-5.53c0-.61.49-1.11 1.11-1.11.61 0 1.11.49 1.11 1.11v5.53c0 .61-.5 1.11-1.11 1.11z"/><path d="m1077.41 310.8c-.03 0-.06 0-.09 0-.61-.05-1.06-.58-1.01-1.19l.55-6.78c.05-.61.58-1.05 1.19-1.01.61.05 1.06.58 1.01 1.19l-.55 6.78c-.05.57-.53 1.01-1.1 1.01z"/><path d="m1075.11 379.51c-.61 0-1.11-.49-1.11-1.11v-7.61c0-.61.49-1.11 1.11-1.11.61 0 1.11.49 1.11 1.11v7.61c0 .62-.5 1.11-1.11 1.11z"/><path d="m1158.26 242.21c-.6 0-1.09-.48-1.11-1.08l-2.03-79.92c-.02-.61.47-1.12 1.08-1.13.7.01 1.12.47 1.13 1.08l2.03 79.92c.02.61-.47 1.12-1.08 1.13 0 0-.01 0-.02 0z"/><path d="m1189.51 275.94c-.31 0-.61-.13-.83-.38-.4-.46-.36-1.16.1-1.56.19-.16 4.64-4.03 9.49-5.74 4.92-1.73 14.53-.12 14.94-.05.6.1 1.01.67.9 1.28-.1.6-.67 1.01-1.28.9-.09-.02-9.45-1.59-13.83-.05-4.45 1.57-8.72 5.28-8.77 5.32-.2.19-.46.28-.72.28z"/><path d="m1207.76 277.35h-18.25c-.61 0-1.11-.49-1.11-1.11 0-.61.49-1.11 1.11-1.11h18.25c.61 0 1.11.49 1.11 1.11 0 .61-.5 1.11-1.11 1.11z"/><path d="m995.39 432.75c-.27 0-.54-.1-.75-.29-.16-.15-3.9-3.62-4.48-7.28-.34-2.14 4.34-56.17 10.03-121.24 2.28-26.14 4.09-46.79 4.26-49.63.49-8.17 0-85.38 0-86.16 0-.61.49-1.11 1.1-1.11h.01c.61 0 1.1.49 1.11 1.1.02 3.18.5 78.07 0 86.31-.17 2.87-1.98 23.53-4.27 49.69-4.1 46.93-10.3 117.86-10.04 120.73.38 2.38 2.86 5.12 3.79 5.97.45.41.48 1.11.07 1.56-.24.23-.54.35-.83.35z"/><path d="m1035.3 361.8c-.35 0-.79-.08-1.37-.22-4.3-1.03-32.36-10.71-33.57-13.36-1.12-2.47.12-8.99 1.41-10.71.58-.78 1.55-.87 6.05.55 2.55.81 30.21 10.71 30.33 14.46.06 1.99-.45 7.78-1.99 9.01-.24.19-.51.27-.86.27zm-31.96-22.64c-.83 1.65-1.67 6.6-.97 8.14 1.78 1.84 28.47 11.49 32.56 12.24.47-1.06 1.06-4.44 1.02-6.75-2.14-2.53-28.21-13.39-32.61-13.63z"/><path d="m1115.39 362.69c-.35 0-.62-.08-.86-.28-1.54-1.23-2.05-7.02-1.99-9.01.12-3.76 27.79-13.66 30.35-14.46 4.49-1.41 5.45-1.32 6.03-.54 1.29 1.72 2.54 8.23 1.41 10.71-1.21 2.65-29.27 12.34-33.57 13.37-.57.12-1.01.21-1.37.21zm-.64-9.02c-.03 2.29.54 5.64 1.04 6.75 4.13-.77 30.76-10.41 32.63-12.39.61-1.4-.24-6.34-1.07-7.99-4.4.24-30.46 11.11-32.6 13.63z"/></g><path d="m1086.39 148.92c-.12 0-.21-.03-.29-.06-.55-.18-1.31-.43-7.31-14.72-.24-.56.03-1.21.59-1.45.56-.23 1.21.03 1.45.59 2.27 5.42 4.93 11.35 5.98 13.18 2.32-1.33 10.14-6.89 17.05-11.99.49-.36 1.18-.26 1.55.23.36.49.26 1.18-.23 1.55-15.42 11.38-17.97 12.67-18.79 12.67z" fill="#e8c2ad"/><path d="m1065.01 148.38c-.83 0-3.01-.85-10.45-8.23-.43-.43-.44-1.13-.01-1.56s1.13-.44 1.56-.01c3.2 3.17 7.17 6.7 8.6 7.46.93-1.53 2.87-7.47 4.29-12.62.16-.59.77-.94 1.36-.77.59.16.93.77.77 1.36-3.8 13.79-5.2 14.17-5.79 14.33-.08.01-.18.04-.33.04z" fill="#e8c2ad"/><path d="m1013.21 812.31c-.12 0-.24-.02-.36-.06l-10.09-3.46c-.58-.2-.89-.83-.69-1.41s.83-.88 1.41-.69l10.09 3.46c.58.2.89.83.69 1.41-.16.46-.59.75-1.05.75z" fill="#7f4c47"/><path d="m1005.96 819.53c-.12 0-.24-.02-.36-.06l-10.09-3.46c-.58-.2-.89-.83-.69-1.4.2-.58.83-.89 1.41-.69l10.09 3.46c.58.2.89.83.69 1.4-.16.46-.59.75-1.05.75z" fill="#7f4c47"/><path d="m1133.99 806.53c-.54 0-1.01-.39-1.09-.94-.09-.6.33-1.17.93-1.26l10.55-1.58c.62-.07 1.17.33 1.26.93.09.61-.33 1.17-.93 1.26l-10.55 1.58c-.06.01-.12.01-.17.01z" fill="#7f4c47"/><path d="m1139.82 814.94c-.54 0-1.01-.39-1.09-.94-.09-.6.33-1.17.93-1.26l10.55-1.58c.62-.08 1.17.33 1.26.93.09.61-.33 1.17-.93 1.26l-10.55 1.58c-.06 0-.12.01-.17.01z" fill="#7f4c47"/><path d="m1330.9 764.97 2.69 34.91 14.08 12.44 8.59-9.51 1.19-34.3z" fill="#8e5b5b"/><g clip-path="url(#a)"><path d="m1331.22 797.39c2.37-1.24 11.61 2.9 13 2.49 1.38-.41 3.18-2.77 9.26-2.49s6.5 4.98 8.16 7.61c0 0 14.8 14.24 19.08 16.32s9.68 5.25 10.65 9.54-.14 10.23-1.11 10.92-60.75.57-62.04-1.71c-3.4-5.98-.18-30.24-.05-33.83.15-3.59.68-7.6 3.05-8.85z" fill="#21161a"/></g><g clip-path="url(#a)"><path d="m1350.44 814.91c-.37 0-.73-.19-.94-.53-.32-.52-.16-1.2.36-1.52.27-.17 6.67-4.12 10.76-5.8 4.04-1.65 6.76-2.59 6.79-2.6.58-.2 1.21.11 1.41.68.2.58-.11 1.21-.68 1.41-.03.01-2.7.93-6.67 2.56-3.92 1.61-10.37 5.59-10.44 5.63-.19.11-.39.17-.59.17z" fill="#0d0606"/></g><g clip-path="url(#a)"><path d="m1358.72 821.73c-.37 0-.73-.19-.94-.52-.32-.52-.16-1.2.36-1.52.27-.17 6.67-4.12 10.76-5.8 4.04-1.65 6.76-2.59 6.79-2.6.58-.2 1.21.11 1.41.68.2.58-.11 1.21-.68 1.41-.03.01-2.7.93-6.67 2.56-3.92 1.61-10.37 5.59-10.44 5.63-.19.1-.39.16-.59.16z" fill="#0d0606"/></g><path d="m1436.14 765.48 3.99 34.78 14.54 11.92 8.23-9.83-.09-34.32z" fill="#8e5b5b"/><g clip-path="url(#b)"><path d="m1439.13 797.39c2.37-1.24 11.61 2.9 13 2.49 1.38-.41 3.18-2.77 9.26-2.49s6.5 4.98 8.16 7.61c0 0 14.8 14.24 19.08 16.32s9.68 5.25 10.65 9.54-.14 10.23-1.11 10.92-60.75.57-62.04-1.71c-3.4-5.98-.18-30.24-.05-33.83.15-3.59.68-7.6 3.05-8.85z" fill="#21161a"/></g><g clip-path="url(#b)"><path d="m1459.9 814.91c-.37 0-.73-.19-.94-.53-.32-.52-.16-1.2.36-1.52.27-.17 6.67-4.12 10.77-5.8 4.04-1.65 6.76-2.59 6.79-2.6.58-.2 1.21.11 1.41.68.2.58-.11 1.21-.68 1.41-.03.01-2.7.93-6.67 2.56-3.92 1.6-10.37 5.59-10.44 5.63-.2.11-.4.17-.6.17z" fill="#0d0606"/></g><g clip-path="url(#b)"><path d="m1468.18 821.73c-.37 0-.73-.19-.94-.52-.32-.52-.16-1.2.36-1.52.27-.17 6.67-4.12 10.76-5.8 4.04-1.65 6.76-2.59 6.79-2.6.58-.2 1.21.11 1.41.68.2.58-.11 1.21-.68 1.41-.03.01-2.7.93-6.67 2.56-3.93 1.61-10.37 5.59-10.44 5.63-.19.1-.39.16-.59.16z" fill="#0d0606"/></g><path d="m1576.47 294.91s54.77-1.76 56.25-.83c1.47.92-5.36 10.79-19.74 14.84-14.38 4.06-37.43 2.4-37.43 2.4z" fill="#8e5b5b"/><path d="m1439.97 161.82c-10.81 3.94-25.54 18.71-12.64 47.84s44.53 94.88 44.53 94.88 25.33-6.2 26.95-6.61c1.61-.4 10.06-21.9 8.28-31.69-1.79-9.79-33.12-87.57-40.42-95.23-7.3-7.67-15.89-13.13-26.7-9.19z" fill="#f5eae1"/><path d="m1267.48 276.1s-4.06 26.46 0 36.6 20.83 18.07 30.79 20.46c9.96 2.4 24.52 3.69 24.71 3.13.18-.55 1.11-42.22.74-44.62-.38-2.39-56.24-15.57-56.24-15.57z" fill="#f5eae1"/><path d="m1317.99 374.27s-4.42 45.91-4.42 65.82-.18 331.03 1.75 333.79 21.29 9.4 30.97 9.4 22.4-2.77 23.78-4.98 25.72-345.55 25.72-345.55l46.46-50.65s-34.29-33.67-35.95-32.92-43.14-5.52-48.12-1.28c-4.97 4.25-40.19 26.37-40.19 26.37z" fill="#0e080b"/><path d="m1465.12 382.94s8.67 81.49 8.67 135.14 2.03 252.58.92 255.35-20.1 5.9-26.73 5.9c-6.64 0-23.78-1.84-24.34-2.77-.55-.92-32.54-296.64-32.54-296.64s-1.47-71.81 2.17-76.46c3.64-4.66 31.8-40.24 35.05-41.25 3.24-1.03 36.8 20.73 36.8 20.73z" fill="#0e080b"/><path d="m1435.38 37.73c-1.07-3.77-2.97-7.27-5.51-10.04-1.84-2-3.94-2.39-4.95-5.23-1.1-3.09-2.31-5.91-4.3-8.56-2.32-3.08-4.81-4.68-8.31-5.65-1.86-.52-3.78-.64-5.64-1.1-3.21-.79-5.38-2.93-8.15-4.69-5.95-3.78-13-1.85-18.93 1.43-3.69 2.04-7.44 4.44-10.9 6.91-1.43 1.02-3.16 1.95-4.74 3.04-4.56 1.7-8.03 5.96-9.59 11-1.43 4.62-1.12 8.85.32 12.91-1.91 1.12-3.56 3.35-3.93 5.04-1.59 7.29 2.03 15.64 3.77 22.56 1.62 6.42 3.11 12.37 5.89 18.42 1.71 3.73 2.53 9.77 5.4 12.78.54.57 1.63.15 1.59-.66-.42-8.34-5.34-15-7.53-22.8.3-.02.58-.23.61-.62.06-.79.08-1.59.08-2.39.33-.17.55-.54.49-.98-.33-2.23-.69-4.5-1.07-6.77-.3-2.34-.65-4.66-.92-6.91-.3-2.53-.77-5.04-1.06-7.58-.09-.79-.65-3.21-.78-4.84.1.17.18.35.28.52.02.03.04.05.07.08.41.69.91 1.65 1.69 1.85.44.11.62-.22.97-.28 2.04-.36 4.09 1.2 5.94 1.9 2.32.88 4.79 1.42 7.19 2.02 4.3 1.07 8.43 2.76 12.61 4.44 4.17 1.69 7.78 3.32 12.13 4.26 4.19.92 8.69 1.38 12.76 2.81 2.03.72 4.37 1.97 6.18 3.12 1.02.64 1.62 1.69 2.83 1.92.99.18 1.84-.03 2.49-.64.48-.45 2.56-.47 3.3-.82 1.27-.61 2.42-1.52 3.46-2.53 2.27-2.21 4.14-5.08 5.46-8.08 2.16-5 2.26-10.67.8-15.84z" fill="#21161a"/><path d="m1423.43 150.6-42.26 23.5-36.46-27.17s16.73-12.39 18.41-17.83c.35-1.13-.51-36.7-.51-36.7l42.59 6.44s-.04 10.42.07 19.56c.02 4 .11 7.77.22 10.31.02.46.09.95.22 1.46 2.08 8.35 17.72 20.43 17.72 20.43z" fill="#8e5b5b"/><path d="m1360.55 44.83s-1.54 46.39 4.61 55.11 29.85 18.2 37.59 18.66c7.2.43 15.26-9.98 19.42-17.6 6.37-11.65 3.19-55.62 3.19-55.62s-32.56-18.49-33.14-17.68c-.57.83-31.67 17.13-31.67 17.13z" fill="#8e5b5b"/><path d="m1421.23 67.65c-.2-.77-.61-1.42-1.17-1.63-1.41-.54-1.93 1.25-2 2.19-.07.84.15 2.39.95 2.83 1.02.56 2.03-.24 2.26-1.24.17-.68.14-1.48-.04-2.15z"/><path d="m1386.18 68.27c-.2-.77-.61-1.42-1.17-1.63-1.41-.54-1.93 1.25-2 2.19-.07.84.15 2.39.95 2.83 1.02.56 2.03-.24 2.26-1.24.16-.67.13-1.47-.04-2.15z"/><path d="m1406.67 89.98c-.27 0-.54-.1-.75-.29-.45-.41-.48-1.11-.06-1.56 2.24-2.42 4.26-5.18 4.31-5.89-.03-.96-2.32-6.91-4.52-12.1-.24-.56.02-1.21.59-1.45.56-.24 1.21.02 1.45.59 1.1 2.6 4.7 11.22 4.7 12.97 0 1.89-3.43 5.8-4.9 7.39-.22.22-.52.34-.82.34z" fill="#4f2b43"/><path d="m1405.71 130.16c-1.44-.09-3.12-.24-4.85-.49-4.73-.69-10.93-1.9-16.68-4.93-5.75-3.05-5.44-11.01-3.53-10.42 4.98 1.52 18.72 4.89 20.8 4.85s3.78-.8 3.78-.8 0 0 .02.02c.02 4 .11 7.77.22 10.31.04.46.1.95.24 1.46z" fill="#4f2b43"/><path d="m1392.25 58.37c-.25-3.22-11.86-2.22-15.75.47-1.63 1.13.36 2.27 1.18 2.33 1.06.08 3.35-.04 4.4-.21 1.37-.21 10.41.45 10.17-2.59z"/><path d="m1411.88 58.88c.05-3.23 11.7-2.96 15.74-.52 1.7 1.03-.22 2.28-1.03 2.4-1.05.15-3.35.17-4.41.07-1.36-.13-10.34 1.1-10.3-1.95z"/><path d="m1362.05 68.04s-5.25-2.49-6.36 6.82 8.57 13.64 8.57 13.64 0-13.64 0-14.2-2.21-6.26-2.21-6.26z" fill="#8e5b5b"/><path d="m1425.83 45.73c0-.12-.07-.2-.1-.3.12-.61-.07-1.27-.7-1.59-5.24-2.56-8.39-7.6-13.44-10.28-2.34-1.24-5.1-1.75-7.78-2.24-.75-.47-1.54-.85-2.16-1.11-1.42-.59-2.87-.93-4.34-1.22-.45-.22-.91-.43-1.36-.64-1.81-.83-4.31-1.92-6.4-1.36-4.55-1.39-11.86 4.02-15.48 5.92-2.89 1.52-5.91 3.05-8.21 5.33-1.75-1.52-5.24.35-6.89 2.05-.57-.64-1.56-.63-2.05.14-1.23 1.96-.7 5-.76 7.24-.08 3.17-.08 6.45.28 9.6.19 1.67.49 3.88 1.14 5.89.13 1.04.37 2 .8 2.67.25 1.42 1.6 3.09 2.99 3.19 2.85.2 3.64-3.58 4.2-5.63 1.41-5.23 1.7-10.18 1.98-15.58.02-.46.09-1.06.17-1.71 3.51-.85 7.81-3.18 9.44-4.02 3.02-1.57 5.84-3.74 8.54-5.79.51-.39 1.15-.8 1.81-1.24 1.07.9 1.98 1.24 3.79 1.69 1.59.4 3.24.74 4.88.81 2.04.08 4.55-.94 6.5-.55 2.19.44 4.49 3.64 6.16 5.03 1.55 1.3 3.14 2.74 4.88 3.77 3.05 1.8 7.65 2.88 11.14 1.76.56-.18 1.02-.7 1-1.31-.03-.18-.03-.35-.03-.52z"/><path d="m1359.43 134.09s1.52-8.99 3.32-9.82 23.23 5.12 24.61 7.19 3.73 8.02 3.73 8.02l-15.49 5.25z" fill="#f5eae1"/><path d="m1390.26 138.58c.41 0 1.94-7.26 5.39-8.09 3.46-.83 10.51-1.52 11.61-.55 1.11.97 4.15 9.26 4.15 9.26s-16.59 5.81-17.01 5.95c-.41.14-9.82-3.46-9.82-3.46z" fill="#f5eae1"/><path d="m1360.53 131.88-17.83 15.76 56.41 90.39 29.2-89.75-17.86-10.6-21.02 5.26z" fill="#f5eae1"/><path d="m1467.7 385.16c-1.19 1.99-46.33 17.41-48.12 16.22-5.07-3.41-12.54-39.45-16.59-36.5-4.05 2.94-10.53 35.69-16.06 38.27-7.08 3.3-71.97-20.58-73.83-22.79-1.84-2.21-10.38-207.68-6.15-216.81 4.16-8.98 43.96-23.16 43.96-23.16s37.59 66.31 41.66 64.82c4.05-1.46 26.84-60.84 29.78-60.46s30.71 11.33 35.66 18.25c6.84 9.47 8.32 90.88 8.32 106.75 0 4.67.4 16.06.89 30 .04.73.07 1.48.09 2.26.11 2.99.22 6.08.33 9.25.02.73.04 1.46.07 2.21 1.05 31.49 2.02 68.21-.01 71.69z" fill="#191116"/><path d="m1401.33 360.51s-2.77-46.74-4.42-76.61c-1.64-29.52-4.71-75.03-4.74-75.48-.04-.61.42-1.14 1.03-1.18.63-.03 1.14.42 1.18 1.03.03.46 3.1 45.98 4.74 75.51 1.66 29.87 4.42 76.6 4.42 76.6z" fill="#0e080b"/><path d="m1389.16 208.71c-.25 0-.51-.09-.71-.26-8.41-7.11-50.45-42.8-51.95-46.93-1.61-4.44 8.95-17.05 11.08-19.53.4-.46 1.1-.51 1.56-.12.46.4.52 1.1.12 1.56-5.74 6.68-11.45 15.21-10.68 17.34 1.24 2.95 32.12 29.78 51.3 45.99.47.39.53 1.09.13 1.56-.23.26-.54.39-.85.39z" fill="#0e080b"/><path d="m1397.85 207.24c-.27 0-.54-.1-.75-.29-.45-.41-.48-1.11-.07-1.56 14.45-15.71 37.61-41.78 38.22-44.86 0-2.13-5.75-8.21-9.84-11.83-.46-.4-.5-1.1-.1-1.56.41-.45 1.11-.5 1.56-.1 1.77 1.56 10.58 9.57 10.58 13.55 0 3.82-29.7 36.4-38.8 46.29-.21.24-.51.36-.8.36z" fill="#0e080b"/><path d="m1391.45 144.38-1.59.02c-1.01.01-1.84-.79-1.86-1.81l-.03-2.21c-.01-1.01.79-1.84 1.81-1.86l1.59-.02c1.01-.01 1.84.79 1.86 1.81l.03 2.21c.01 1.01-.8 1.84-1.81 1.86z"/><path d="m1389.9 139.65s-8.64-5.34-11.69-5c-2.71.3-2.27 12.57-.23 13.41 2.04.85 12.63-4.37 12.54-4.58-.08-.2-.62-3.83-.62-3.83z"/><path d="m1391.37 139.22s8.42-5.68 11.48-5.46c2.72.19 2.77 12.47.77 13.4s-12.79-3.86-12.71-4.08.46-3.86.46-3.86z"/><path d="m1393.36 201.52c-.58 0-1.07-.45-1.1-1.04l-2.99-52.54c-.03-.61.43-1.13 1.04-1.17.6-.03 1.13.43 1.17 1.04l2.99 52.54c.03.61-.43 1.13-1.04 1.17-.03 0-.05 0-.07 0z" fill="#0f0f0f"/><path d="m1373.99 141.62c-.18 0-.35-.04-.52-.13l-13.62-7.27c-.54-.29-.74-.96-.45-1.5s.96-.74 1.5-.45l13.62 7.27c.54.29.74.96.45 1.5-.2.37-.58.58-.98.58z" fill="#0f0f0f"/><path d="m1314.77 161.33c11.34 1.94 28.48 13.83 21.02 44.8-7.47 30.97-26.79 101.33-26.79 101.33s-26.04-1.56-27.69-1.66c-1.66-.11-13.83-19.74-13.83-29.7s16.87-92.09 22.68-100.94c5.8-8.85 13.27-15.77 24.61-13.83z" fill="#f5eae1"/><path d="m1295.53 322.86c-.29 0-.59-.12-.8-.35-.42-.44-.4-1.14.04-1.56l2.63-2.49c2.57-2.43 8.87-9.28 8.93-9.35.42-.45 1.12-.48 1.56-.07.45.41.48 1.11.07 1.56-.26.28-6.42 6.97-9.04 9.46l-2.63 2.49c-.22.21-.49.31-.76.31z" fill="#0f0f0f"/><path d="m1471.86 304.54s11.58 20.77 20.8 23.35 82.89.66 84.75-2.24c1.6-2.5 3.86-29.73-.2-32.68s-57.34-6.54-61.39-11.06c-4.06-4.52-8.73-15.67-8.73-15.67s-19.85-.19-19.85 2.76-15.38 35.54-15.38 35.54z" fill="#f5eae1"/><path d="m1568.08 325.88c-.61 0-1.11-.49-1.11-1.11v-32.91c0-.61.49-1.11 1.11-1.11.61 0 1.11.49 1.11 1.11v32.91c0 .61-.49 1.11-1.11 1.11z" fill="#0f0f0f"/><path d="m1527.85 294.91h140.76c2.37 0 4.29-1.92 4.29-4.29 0-2.37-1.92-4.29-4.29-4.29h-140.76c-2.37 0-4.29 1.92-4.29 4.29 0 2.37 1.92 4.29 4.29 4.29z" fill="#007367"/><path d="m1564.3 256.76c-4.85 0-8.79-3.94-8.79-8.79v-41.74c0-1.18.95-2.13 2.13-2.13h13.31c1.18 0 2.13.96 2.13 2.13v41.74c.01 4.86-3.92 8.79-8.78 8.79z" fill="#21161a"/><path d="m1562.12 252.79h4.37v28.02h-4.37z" fill="#21161a"/><path d="m1564.3 277.83-10.46 8.5h20.92z" fill="#21161a"/><path d="m1564.4 252.79c-3.08 0-5.59-2.5-5.59-5.59v-24.1h11.17v24.1c0 3.09-2.5 5.59-5.58 5.59z" fill="#c99369"/><path d="m1633.07 212.03h-21.38l4.42-51.19h12.54z" fill="#21161a"/><path d="m1643.95 286.33h-43.14v-67.14c0-10.4 8.43-18.84 18.84-18.84h5.46c10.4 0 18.84 8.43 18.84 18.84z" fill="#21161a"/><path d="m1628.65 160.84h-12.72v-3.79c0-.99.8-1.8 1.8-1.8h9.13c.99 0 1.8.8 1.8 1.8v3.79z" fill="#21161a"/><path d="m1637.43 270.57h-29.31c-1.11 0-2.01-.9-2.01-2v-31.39c0-1.11.9-2.01 2.01-2.01h29.31c1.11 0 2.01.9 2.01 2.01v31.39c-.01 1.1-.9 2-2.01 2z" fill="#b0895d"/><path d="m1632.24 249.13h-18.94c-1.68 0-3.04-1.36-3.04-3.04v-2.35c0-1.68 1.36-3.04 3.04-3.04h18.94c1.68 0 3.04 1.36 3.04 3.04v2.35c.01 1.68-1.36 3.04-3.04 3.04z" fill="#9f346a"/><path d="m1633.86 257.84h-22.17c-.61 0-1.11-.49-1.11-1.11 0-.61.49-1.11 1.11-1.11h22.17c.61 0 1.11.49 1.11 1.11-.01.62-.5 1.11-1.11 1.11z" fill="#9f346a"/><path d="m1633.86 263.84h-22.17c-.61 0-1.11-.49-1.11-1.11 0-.61.49-1.11 1.11-1.11h22.17c.61 0 1.11.49 1.11 1.11-.01.61-.5 1.11-1.11 1.11z" fill="#9f346a"/><path d="m1400.42 223.07c-.57 0-1.05-.43-1.1-1.01l-.39-4.4c-.05-.61.4-1.15 1-1.2.63-.06 1.15.4 1.2 1l.39 4.4c.05.61-.4 1.15-1 1.2-.03.01-.06.01-.1.01z" fill="#0e080b"/><path d="m1404.13 260.07c-.57 0-1.05-.43-1.1-1.01l-.39-4.4c-.05-.61.4-1.15 1-1.2.62-.05 1.15.4 1.2 1l.39 4.4c.05.61-.4 1.15-1 1.2-.03.01-.07.01-.1.01z" fill="#0e080b"/><path d="m1405.55 295.17c-.57 0-1.05-.43-1.1-1.01l-.39-4.4c-.05-.61.4-1.15 1-1.2.63-.05 1.15.4 1.2 1l.39 4.4c.05.61-.4 1.15-1 1.2-.03.01-.06.01-.1.01z" fill="#0e080b"/><path d="m1408.17 335.36c-.57 0-1.05-.43-1.1-1.01l-.39-4.4c-.05-.61.4-1.15 1-1.2.63-.05 1.15.4 1.2 1l.39 4.4c.05.61-.4 1.15-1 1.2-.03 0-.06.01-.1.01z" fill="#0e080b"/><path d="m1365.98 325.25c-6.94 0-33.56-5.19-35.6-5.64-9.23-2.02-9.48-2.84-9.7-3.56-.82-2.63-.05-7.9 2.64-9.51 2.58-1.54 36.93 4.03 43.47 6.52 1.03.39 1.76.8 1.98 1.51.78 2.51-.14 9.25-1.19 10.42-.17.18-.73.26-1.6.26zm-43.25-10.07c3.18 2 38.16 7.98 43.32 8.03.43-1.32 1.12-5.81.66-7.77-3.14-1.97-38.76-7.86-42.32-6.96-1.44.95-2.17 4.64-1.66 6.7zm1.15-7.69h.02z" fill="#0e080b"/><path d="m1467.63 311.24c-12.04 2.35-28.41 5.04-30.86 4.54-1.19-1.77-1.77-5.49-.75-6.88 2.1-1.42 19.42-5.02 31.28-6.9-.02-.77-.04-1.53-.09-2.26-4.09.64-8.85 1.5-13.45 2.43-9.58 1.9-18.5 4.11-19.42 5.29-1.97 2.43-.86 7.65.82 9.85.27.33.55.71 2.59.71 1.48 0 3.87-.2 7.85-.73 1.37-.18 12.48-1.95 22.1-3.83-.03-.76-.05-1.49-.07-2.22z" fill="#0e080b"/><path d="m1393.36 484.71c-.24 0-.47-.07-.67-.23-.48-.37-.57-1.07-.2-1.55l28.94-37.61c.37-.48 1.07-.57 1.55-.2s.57 1.07.2 1.55l-28.94 37.61c-.22.28-.55.43-.88.43z" fill="#070405"/><path d="m1319.74 431.52c-.34 0-.68-.16-.9-.46-.36-.5-.24-1.19.25-1.54.06-.05 6.36-4.6 13.25-12.02 6.76-7.29 9.79-20.78 9.82-20.92.13-.6.72-.97 1.32-.84s.97.72.84 1.32c-.13.58-3.19 14.21-10.36 21.95-7.05 7.6-13.32 12.13-13.58 12.32-.19.12-.41.19-.64.19z" fill="#070405"/><path d="m1404.05 98.18c-.03 0-.07 0-.1 0-7-.02-11.88-3.86-12.08-4.02-.48-.38-.55-1.07-.17-1.55s1.07-.56 1.55-.18c.04.03 4.51 3.52 10.71 3.54h.09c4.81 0 6.9-1.2 6.92-1.22.52-.3 1.2-.14 1.51.38s.16 1.19-.36 1.51c-.1.07-2.54 1.54-8.07 1.54z" fill="#4f2b43"/><path d="m393.84 307.46s-.57 26.86 13.75 38.62 23.85 13.86 23.85 13.86 15.42-38.96 14.96-41.36c-.46-2.39-52.56-11.12-52.56-11.12z" fill="#fac8bc"/><path d="m556.13 134.69c-2.35-4.85-5.29-9.54-6.95-14.69-1.57-4.82-1.81-9.93-2.15-14.93-.32-4.72-.27-9.48-.92-14.17-.97-6.94-3.61-14.94-6.07-21.53-2.69-7.19-6.94-13.76-12.67-18.9-8.14-7.23-18.25-12.23-29.31-10.71-6.11.86-11.59 3.03-16.81 6.24-.93.55-1.73 1.08-2.46 1.62-11.08 2.19-22.01 8.08-28.16 17.92-6.5 10.44-7.17 22.79-4.82 34.54 1.33 6.7 3.43 13.3 5.27 19.89 1.11 3.96 2.06 8.05 1.84 12.19-.24 4.54-2.39 8.3-4.25 12.3-2.21 4.69-3.41 9.47-4 14.62-.77 6.68.49 11.99 2.01 18.32.13.51.42.8.77.95.18.53.44 1.04.69 1.48.04.11.11.24.15.38 1.39 9.89 11.44 14.23 19.23 18.85 5.62 3.32 13.25 5.31 19.54 6.99 6.99 1.88 14.18 2.68 21.39 2.61 14.82-.11 27.92-3.76 39.38-13.34 1.84-1.53 3.65-3.12 5.35-4.8.13 0 .27-.04.38-.13 8.03-5.71 11.24-16.55 11.55-26 .33-10.54-4.51-20.5-8.98-29.7z" fill="#8b4d41"/><path d="m478.39 577.62s22.87 8.34 51.91 5.85-8.49-68.26-8.77-69.09-43.14 63.24-43.14 63.24z" fill="#fac8bc"/><path d="m432.26 183.8c12.61-8.96 37.72 5.4 33.76 41.62-2.41 22.05-12.12 63.14-16.82 86.2-1.98 9.7-10.49 16.67-20.39 16.71-5.37.02-10.09.04-10.77.04-1.66 0-23.22-19.55-23.85-29.49-.64-9.94 17.58-84.69 21.89-94.36 6.19-13.91 8.48-15.25 16.18-20.72z" fill="#fac8bc"/><path d="m551.34 772 3.96 46.56 14.47.88 8.15-2.78 1.37-39.95z" fill="#eb9a7d"/><path d="m590.51 840.68c-3.1 1.24-31.26 1.44-33.61-1.08-.77-.84-1.19-3.47-1.44-6.59-.49-6.24-.18-14.45-.18-14.45s14.4-6.84 14.93-6.64c.55.18 7.68 4.73 7.68 4.73s.42.49 1.26 1.28c.66.6 1.55 1.42 2.65 2.35 1.22 1 2.7 2.12 4.4 3.3.24.18.49.35.71.53 0 0 .02 0 .04.02 8.18 6.16 6.55 15.34 3.56 16.55z" fill="#eb9a7d"/><path d="m555.47 833c.24 3.13.67 5.76 1.45 6.6 2.33 2.52 30.51 2.33 33.59 1.08 3-1.21 4.62-10.4-3.54-16.55-.02-.02-.04-.02-.04-.02s-6.28-1.51-11.84 1.1c-5.59 2.61-7.64 6.99-9.17 7.18-1.07.13-6.94.43-10.45.61z" fill="#5f3835"/><path d="m581.81 820.29c-2.7-.29-6.48-.22-11.5 1.19-9.47 2.68-9.89 12.26-9.89 12.35l-2.21-.07c0-.11.49-11.28 11.5-14.4 3.74-1.04 6.9-1.42 9.45-1.42.66.6 1.55 1.42 2.65 2.35z" fill="#5f3835"/><path d="m478.13 773.76-4.81 41.89-13.26 3.65-9.81-1.41-.85-44.13z" fill="#eb9a7d"/><path d="m473.98 826.92c0 5.64-.62 11.62-3.01 13.21-4.85 3.25-45.93 2.06-50.8 0-2.3-.97-10.35-8.25 14.47-16.55.95-.31 1.86-.62 2.72-.95 4.29-1.55 7.15-3.21 9.03-4.73.66-.53 1.19-1.04 1.64-1.5 2.04-2.19 2.12-3.76 2.12-3.76s10.38-1.62 11.46-1.62 11.73 4.62 11.73 4.62.64 5.46.64 11.28z" fill="#eb9a7d"/><path d="m420.17 840.14c4.88 2.05 45.96 3.24 50.81 0 2.39-1.6 3-7.57 3-13.23-6.58.86-23.24 2.98-26.69 2.98-3.39 0-7.31-5.09-9.92-7.25-.86.32-1.77.63-2.72.95-24.82 8.29-16.77 15.58-14.48 16.55z" fill="#5f3835"/><path d="m458.87 829.62-1.9 1.15c-.02-.04-2.74-4.47-5.31-7.41-1.81-2.08-4.07-4.29-5.27-5.46.66-.53 1.19-1.04 1.64-1.5 1.22 1.22 3.43 3.41 5.29 5.51 2.7 3.09 5.42 7.51 5.55 7.71z" fill="#5f3835"/><path d="m575.19 356.92-140.27-1.72s-6.74 75.76-7.41 105.53c-.68 29.77 7.36 318.3 8.32 323.31.97 5.01 13.48 8.72 27.9 9.85 10.22.8 20.46-2.13 23.84-4.84s15.98-188.42 18.69-199.25 9.47-113.68 10.83-123.83c1.35-10.15 54.13-73.76 54.13-75.79-.01-2.02 3.97-33.26 3.97-33.26z" fill="#71444f"/><path d="m573.03 356.92s20.4 59.12 22.53 118.05 5.82 309.29 1 313.25-17.12 6.99-26.61 7.46-24.06-3.42-27.33-8.9-37.9-313.06-37.9-313.06-.18-54.83 1.99-61.55c2.17-6.71 66.32-55.25 66.32-55.25z" fill="#71444f"/><path d="m462.71 175.15 42.92 22.26 35.66-28.21s-17.08-11.9-18.92-17.29c-.39-1.12-.56-36.7-.56-36.7l-42.38 7.67s.35 10.41.5 19.55c.09 4 .12 7.77.08 10.31-.01.46-.06.95-.18 1.47-1.83 8.41-17.12 20.94-17.12 20.94z" fill="#eb9a7d"/><path d="m519.49 122.83c-5.91 8.89-29.31 19.05-37.04 19.73-7.19.64-15.53-9.54-19.91-17.01-3.76-6.42-4.89-25.22-5.18-40.51 0-1.06-.02-2.08-.04-3.1-.11-10.55 2.37-12.1 2.37-12.1s32.26-12.59 32.85-11.79c.6.8 32.17 16.19 32.17 16.19s.67 39.69-5.22 48.59z" fill="#eb9a7d"/><path d="m463.97 95.05c.18-.77.57-1.43 1.12-1.67 1.4-.58 1.96 1.19 2.07 2.13.09.83-.08 2.4-.87 2.86-1 .59-2.03-.18-2.3-1.17-.18-.67-.18-1.47-.02-2.15z" fill="#3f0f0c"/><path d="m498.22 94.6c.18-.77.57-1.43 1.12-1.67 1.4-.58 1.96 1.19 2.07 2.13.09.83-.08 2.4-.87 2.86-1 .59-2.03-.18-2.3-1.17-.19-.67-.18-1.47-.02-2.15z" fill="#3f0f0c"/><path d="m479.83 154.2c1.43-.13 3.11-.33 4.83-.63 4.71-.82 10.87-2.22 16.53-5.42 5.66-3.22 5.12-11.16 3.22-10.52-4.93 1.66-18.58 5.43-20.66 5.45s-3.8-.69-3.8-.69 0 0-.02.02c.09 4 .12 7.77.08 10.31-.01.48-.06.97-.18 1.48z" fill="#e17f5d"/><path d="m521.67 90.84s5.18-2.64 6.56 6.63-8.17 13.89-8.17 13.89-.4-13.64-.41-14.19c-.03-.55 2.02-6.33 2.02-6.33z" fill="#eb9a7d"/><path d="m561.27 179.94c-10.96 3.49-26.3 17.64-14.62 47.28s40.55 96.65 40.55 96.65 25.57-5.15 27.2-5.48 15.45-23.22 14.07-33.08-40.86-94.39-47.84-102.35c-6.97-7.98-8.4-6.51-19.36-3.02z" fill="#fac8bc"/><path d="m578.81 389.8c-2.26 1.77-18.81 15.95-78.25 20-15.62 1.08-31.7.24-46.68-4.65-6.55-2.12-13.92-4.82-19.82-8.98-1.79-1.26-3.45-2.63-4.91-4.18-.66-.71 7.19-58.45 6.84-70.09-.42-14.78-15.22-112.68-9.89-131.97.38-1.39.86-2.39 1.48-2.9.02-.02.02-.02.02-.02 13.58-10.95 44.76-21.04 44.76-21.04s14.47 4.38 28.65 3.61c20.46-1.11 29.29-8.85 29.29-8.85s35.66 9.92 46.55 22.48c3.52 4.07 1.26 117.83 1.62 122.61 2.57 35.84 7.92 78.03.34 83.98z" fill="#fef8f2"/><path d="m472.33 165.96s17.52 54.59 22.78 56.39c5.25 1.8 35.19-61.63 35.19-61.63s-16.24 6.05-31.73 6.33c-15.49.27-26.24-1.09-26.24-1.09z" fill="#eb9a7d"/><path d="m490.79 118.53c-.5-.77-14.72-.55-15.67.39-.69.69.92 6.52 8.23 6.26 6.35-.23 7.94-5.88 7.44-6.65z" fill="#fff"/><path d="m472.8 286.4c-.12 0-.25-.02-.37-.06-.58-.2-.88-.84-.68-1.41.07-.2 7.08-20.09 10.1-30.99 3.05-11.02 9.85-26.19 9.91-26.34.25-.56.9-.8 1.46-.56.56.25.81.91.56 1.46-.07.15-6.79 15.17-9.8 26.02-3.04 10.97-10.07 30.93-10.14 31.13-.16.47-.58.75-1.04.75z" fill="#ece1d6"/><path d="m472.35 165.97s-25.66 51.11-26.77 87.94c-1.04 34.34-6.59 68.56-10.18 102.7-4.74 44.87-6.75 89.93-7.5 135.02-.24 14.2 1.46 58.12 1.42 72.32 0 0-33.52-11.04-29.09-55.29 2.61-26.15 24.69-159.67 24.69-180.31 0-20.66-6.15-114.31-5.02-121.5 2.01-12.72 5.93-18.47 7.68-19.82.38-.29.58-.44.69-.53.09-.07.09-.07.09-.07 7.3-5.64 19.05-10.97 28.56-14.8 3.5-1.39 6.68-2.59 9.25-3.52 3.76-1.36 6.18-2.14 6.18-2.14z" fill="#fac8bc"/><path d="m598.92 570.97c-16.2-3.32-32.77-20.27-38.67-36.68-23.96-66.64-16.04-248.34-16.92-292.32-.33-16.95-2.35-32.9-4.69-46.11-2.08-11.64-4.4-21.15-6.08-27.32-1.35-5-2.26-7.81-2.26-7.81s.8.2 2.17.58c1.57.44 3.92 1.08 6.68 1.86v.02c9.2 2.63 23.1 6.88 28.85 10.07 13.12 7.28 13.54 8.72 16.04 20.33 2.5 11.62 1.11 113.39 3.32 146.24s16.59 115.93 23.23 159.16c6.62 43.2-2.01 73.97-11.67 71.98z" fill="#fac8bc"/><path d="m538.63 195.86c-.8 15.15-2.52 32.48-6.15 46.75-8.54 33.56-51.77 57.61-53.61 58.61l-3.19-5.82c.42-.22 42.52-23.67 50.38-54.42 6-23.56 6.59-56.73 6.48-72.43 0-3.23-.04-5.71-.09-7.23 1.57.44 3.92 1.08 6.68 1.86v.02c.14 5.98.23 18.35-.5 32.66z" fill="#3f0f0c"/><path d="m437.85 262.56c-1.35 20.55 1.04 37.26 1.06 37.43l-6.57.95c-.09-.71-2.5-17.52-1.11-38.81 1.75-26.5 2.81-36.84 11.99-59.85 5-12.57 10.09-23.36 13.67-30.66 3.5-1.39 6.68-2.59 9.25-3.52-3.1 5.93-9.98 19.65-16.77 36.66-8.79 22.07-9.81 32.1-11.52 57.8z" fill="#3f0f0c"/><path d="m479.83 114.95c-.28 0-.56-.1-.77-.32-.36-.36-3.55-3.55-4.06-6.21-.5-2.62 3.11-10.39 3.84-11.92.26-.55.92-.79 1.47-.52.55.26.79.92.52 1.47-1.99 4.19-3.91 9.28-3.66 10.55.32 1.68 2.65 4.27 3.44 5.04.44.43.44 1.13.01 1.56-.21.24-.5.35-.79.35z" fill="#e17f5d"/><path d="m472.79 86.01c-.58-4.69-11.87-2.54-13.98-.23-.84.92-.95 3.11.83 2.78 2.02-.45 4.26-1 6.33-1.13 1.92-.12 3.83.18 5.75.1.74-.03 1.15-.89 1.07-1.52z" fill="#8b4d41"/><path d="m495.34 85.04c.58-4.69 11.87-2.54 13.98-.23.84.92.95 3.11-.82 2.78-2.02-.45-4.26-1-6.33-1.13-1.92-.12-3.83.18-5.75.1-.74-.03-1.15-.89-1.08-1.52z" fill="#8b4d41"/><path d="m539.25 99.57c-.06-.02-.12-.04-.18-.06-.63-.2-1.11.01-1.42.38-.92.37-1.91.54-2.92.63-.22-.65-.83-1.17-1.69-.97-.94.23-1.95.17-2.96-.08.01-.11 0-.22-.02-.33.34-.23.55-.6.59-1.04.05 0 .09.02.14.02 1-.01 1.73-1.16 1.17-2.04-.94-1.48-2.18-2.23-3.56-3.32-1.37-1.09-2.51-2.33-3.61-3.64.13-.48.24-.92.32-1.26 1.14-4.42 2.36-9.49.28-13.81-1.7-3.52-6.52-4.75-9.93-6.43-8.67-4.27-17.35-10.59-27.08-10.01-.14-.07-.29-.12-.46-.12-1.67-.01-3.28.08-4.86.22-.66-.88-2.28-.78-2.55.29-.63.09-1.26.2-1.88.32-.02-.02-.04-.05-.05-.07-.89-1.17-2.64-.49-2.62.69-.34.09-.69.16-1.03.26-.41-.17-.96-.02-1.2.39-2.15.7-4.27 1.58-6.41 2.69-4.72 2.46-11.25 6.71-11.65 12.62-.05.66.56 1.02 1.12 1 .1.46.83.66 1.12.18.72-1.18 1.56-2.27 2.46-3.3 4.03-3.74 9.15-6.57 14.49-8.32 1.94 3.77 5.81 7.25 9.16 8.57 3.53 1.39 7.49.92 11.1 1.94 5.26 1.49 8.25 5.42 11.36 9.58 2.22 2.98 5.18 5.33 7.54 8.2 2.25 2.72 3.56 5.2 6.84 6.88 5.14 2.62 13.16 5.63 18.75 2.65 1.17-.62.81-2.34-.36-2.71z" fill="#8b4d41"/><path d="m470.78 241.83s3.73 2.78 4.42 4.02.97 30.28 0 31.11-5.04 1.18-5.04 1.18z" fill="#3f0f0c"/><path d="m452.67 275.15h8.43v11.2h-8.43z" fill="#3f0f0c"/><path d="m482.67 297.67s7.57 2.54 8.56 5.01c.99 2.46.83 27.85-.24 28.75s-8.94 2.07-8.94 2.07l-1.83-18.4z" fill="#3f0f0c"/><path d="m445.25 284.85c-2.22 1.01-3.75 7.36-5.47 8.49s-11.78 3.79-14.24 7.28-3.7 30.97 0 32.44c3.7 1.46 56.06 1.8 58.32 0 1.52-1.21 3.47-31.29.97-33.85-3.29-3.37-13.14-4.62-14.13-6.54-.99-1.91-.62-7.34-3.68-8.55-3.08-1.23-19.55-.28-21.77.73z" fill="#57302f"/><path d="m445.27 291.82c-.45-.61 1.48-4.27 2.48-4.52s15.83-.66 16.64 0 1.93 4.24 1.48 4.52c-1.41.88-19.6 1.36-20.6 0z" fill="#3f0f0c"/><path d="m479.77 303.96c0 1.93-1.56 3.49-3.49 3.49s-3.49-1.56-3.49-3.49 1.56-3.49 3.49-3.49c1.92 0 3.49 1.57 3.49 3.49z" fill="#3f0f0c"/><path d="m447.12 298.96c3.28-.06 18.11 3.58 16.86 16.26-1.25 12.69-14.52 13.66-16.86 13.66s-22.04 0-22.04 0v-29.92s15.42.13 22.04 0z" fill="#3f0f0c"/><path d="m425.08 298.96 6.94.03s9.24 3.44 9.22 14.93c-.02 10.64-8.23 14.96-8.23 14.96h-7.93z" fill="#57302f"/><path d="m425.08 298.96s-21.59-8.4-31.9-7.71c-7.36.49-17.85 5.02-17.85 24.43 0 15.94 9.4 22.69 18.5 22.71 8.2.02 31.24-9.5 31.24-9.5s6.36-5.2 6.36-14.96c.01-11.39-6.35-14.97-6.35-14.97z" fill="#3f0f0c"/><path d="m397.27 295.31c-1-.5-3.3-.9-4.28-.36-3.59 1.97-11.04 6.32-11.04 19.56 0 14.63 7.57 17.99 11.31 19.93 1.06.55 3.4.12 4.41-.52 3.56-2.24 8.13-5.42 8.06-19.11-.08-13.73-4.87-17.69-8.46-19.5z" fill="#57302f"/><path d="m470.78 277.89c-.69 1.14-25.86 1.13-27.38 0s-1.01-34.21 0-36.06 25.82-1.14 27.38 0c1.55 1.14.69 34.92 0 36.06z" fill="#57302f"/><path d="m465.52 274.8h-16.72c-1.38 0-2.5-1.12-2.5-2.5v-13.88c0-1.38 1.12-2.5 2.5-2.5h16.72c1.38 0 2.5 1.12 2.5 2.5v13.88c-.01 1.39-1.12 2.5-2.5 2.5z" fill="#3f0f0c"/><path d="m465.71 254.24h-17.42c-1.04 0-1.89-.85-1.89-1.89v-6.27c0-1.04.85-1.89 1.89-1.89h17.42c1.04 0 1.89.85 1.89 1.89v6.27c0 1.04-.85 1.89-1.89 1.89z" fill="#fdeedd"/><path d="m478.13 315.58h-3.71c-.9 0-1.63-.73-1.63-1.63 0-.9.73-1.63 1.63-1.63h3.71c.9 0 1.63.73 1.63 1.63.01.9-.73 1.63-1.63 1.63z" fill="#3f0f0c"/><path d="m478.13 322.22h-3.71c-.9 0-1.63-.73-1.63-1.63 0-.9.73-1.63 1.63-1.63h3.71c.9 0 1.63.73 1.63 1.63.01.9-.73 1.63-1.63 1.63z" fill="#3f0f0c"/><path d="m390.03 336.56c-.15 0-.29-.03-.44-.09-.47-.2-11.54-5.16-11.66-20.3-.13-17.7 9.88-21.89 10.31-22.05.57-.22 1.21.05 1.44.62.22.57-.05 1.21-.61 1.43-.37.15-9.04 3.89-8.92 19.98.1 13.65 9.91 18.1 10.33 18.28.56.24.82.9.57 1.46-.19.42-.6.67-1.02.67z" fill="#57302f"/><path d="m386.75 305.07c-.22 0-.43-.06-.63-.2-.5-.35-.63-1.04-.28-1.54.05-.07 1.16-1.69 2.49-3.13 1.44-1.57 3.88-2.6 3.99-2.64.57-.24 1.21.03 1.45.59s-.03 1.21-.59 1.45c-.02.01-2.1.89-3.21 2.1-1.22 1.33-2.29 2.88-2.3 2.9-.22.3-.56.47-.92.47z" fill="#fdeedd"/><path d="m511.06 321.87s-21.02-13.05-31.52-8.65c-10.5 4.41-19.2 17.43-2.54 23.82 13.14 5.04 27.72 1.35 27.72 1.35z" fill="#eb9a7d"/><path d="m508.85 320.59 67.07-10.07-4.32 37.75-66.88-9.88-4.96-10.01z" fill="#eb9a7d"/><path d="m628.48 285.3s16.53 36.6-13.06 55.41-87.78 14.66-90.68 9.68-6.38-31.83-5.1-33.46c8.72-11.06 37.84-13.57 41.16-14.41 3.32-.85 67.68-17.22 67.68-17.22z" fill="#fac8bc"/><path d="m405.07 336.8c-2.43 2.18 5.04 8.5 13.75 7.69s18.01-7.91 16.69-12.58-10.47-4.02-16.14-1.97-11.88 4.68-14.3 6.86z" fill="#eb9a7d"/><path d="m575.19 290.91c-.56 0-1.03-.42-1.1-.98-.23-2.03-5.54-49.82-3.59-67.66 1.93-17.7 3.57-40.6 3.58-40.83.04-.61.58-1.08 1.18-1.03.61.04 1.07.57 1.03 1.18-.02.23-1.65 23.18-3.59 40.92-1.92 17.6 3.53 66.68 3.59 67.17.07.61-.37 1.15-.98 1.22-.04.01-.08.01-.12.01z" fill="#e9ab97"/><path d="m545.31 305.07c-.44 0-.86-.27-1.03-.7-.22-.57.06-1.21.63-1.43.12-.05 12.43-4.81 28.05-8.11 15.64-3.3 22.42-3.27 22.7-3.26.61.01 1.1.51 1.09 1.12s-.5 1.09-1.11 1.09c-.01 0-.01 0-.03 0-.4 0-7.23.05-22.19 3.21-15.43 3.26-27.58 7.96-27.71 8.01s-.27.07-.4.07z" fill="#e9ab97"/><path d="m578.5 290.91c-.25 0-.49-.08-.7-.25-.47-.39-.54-1.08-.16-1.56.19-.23 4.62-5.61 11.08-9.32 6.42-3.68 9.79-4.56 9.93-4.59.59-.14 1.19.21 1.34.8s-.21 1.19-.8 1.35c-.03.01-3.26.86-9.37 4.37-6.1 3.5-10.43 8.75-10.47 8.8-.21.27-.53.4-.85.4z" fill="#e9ab97"/><path d="m558.19 356.27c-6.6 0-12.65-.73-13.01-.77-.61-.07-1.04-.63-.96-1.23.07-.61.61-1.05 1.23-.96.13.02 12.8 1.54 21.26.2 3.11-.49 6.02-.94 8.6-1.34 4.58-.7 8.2-1.26 9.98-1.63.59-.12 1.18.26 1.31.86.12.6-.26 1.18-.86 1.31-1.85.38-5.49.94-10.1 1.65-2.58.4-5.48.84-8.59 1.33-2.74.43-5.86.58-8.86.58z" fill="#e9ab97"/><path d="m423.21 295.8c-.03 0-.06 0-.1 0-.61-.05-1.06-.59-1.01-1.2.02-.2 1.71-20.13 1.71-44.11 0-19.16 4.2-61.3 4.24-61.72.06-.61.61-1.04 1.21-.99.61.06 1.05.6.99 1.21-.04.42-4.23 42.46-4.23 61.5 0 24.08-1.7 44.1-1.72 44.3-.04.58-.52 1.01-1.09 1.01z" fill="#e9ab97"/><path d="m592.6 428.65c-.19 0-.38-.05-.56-.15-.33-.19-8.2-4.83-14.3-10.66-6.15-5.87-11.88-17.25-12.12-17.73-.27-.55-.05-1.21.49-1.48.55-.27 1.21-.05 1.48.49.06.11 5.81 11.51 11.67 17.12 5.92 5.65 13.81 10.31 13.89 10.35.53.31.7.99.39 1.51-.19.35-.56.55-.94.55z" fill="#e9ab97"/><path d="m511.19 531.81c-.4 0-.78-.21-.98-.59-.16-.29-15.51-29.35-19.26-35.04-3.75-5.7-10.34-14.23-10.41-14.31-.37-.48-.29-1.18.2-1.55s1.18-.29 1.55.2c.07.09 6.71 8.67 10.51 14.45 3.8 5.79 18.73 34.03 19.36 35.23.29.54.08 1.21-.46 1.49-.16.08-.33.12-.51.12z" fill="#5e2f3a"/><path d="m98.16 378.03s-7.45 5.82-16 40.3c-5.17 20.82-10.62 70.43-6.56 73.75s38.54 15.09 105.4 15.12c56.78.03 99.24-11.8 101.83-16.22 2.58-4.42-3.96-66.74-11.06-89.97s-14.75-38.72-14.75-38.72z" fill="#f2c67e"/><path d="m137.65 108.41-22.97 48.49 60.75 26.73 59.64-26.18-23.78-52.72z" fill="#3e200d"/><path d="m133.44 62c0 2.25-1.83 4.08-4.08 4.08s-4.08-1.83-4.08-4.08 1.83-4.08 4.08-4.08 4.08 1.82 4.08 4.08z" fill="#593e2d"/><path d="m224.15 62c0 2.25-1.83 4.08-4.08 4.08s-4.08-1.83-4.08-4.08 1.83-4.08 4.08-4.08 4.08 1.82 4.08 4.08z" fill="#593e2d"/><path d="m181.84 12.86h-17.42v-4.15c0-4.81 3.9-8.71 8.71-8.71 4.81 0 8.71 3.9 8.71 8.71z" fill="#f6eae1"/><path d="m140.31 110.62s-6.82-1.66-8.11-8.3-5-53.38-5.02-57.89c-.04-9.96 7.92-41.49 50.01-39.09 41.89 2.4 43.88 31.9 44.25 38.16.37 6.27-2.4 56.67-3.5 60.55-1.11 3.87-7.74 5.84-7.74 5.84z" fill="#f6eae1"/><path d="m140.31 110.62s-6.88-58.57-5.49-69.97c1.7-13.83 26.14-21.68 39.04-22.26 15.44-.69 33.69 7.09 38.11 16.04 5.39 10.92.69 60.88.69 60.88z" fill="#3e200d"/><path d="m141.97 763.85-2.06 34.95-13.86 12.7-8.75-9.35-1.81-34.28z" fill="#eb9a7d"/><path d="m142.24 796.27c-2.4-1.2-11.56 3.11-12.95 2.72s-3.23-2.71-9.31-2.32-6.41 5.09-8.02 7.75c0 0-20.13 12.36-24.03 15.09-8.25 5.8-8.76 7.07-9.65 11.38-.89 4.3.32 10.23 1.3 10.9s65.17-.62 66.42-2.91c3.29-6.04-.36-30.23-.57-33.83-.2-3.58-.8-7.58-3.19-8.78z" fill="#3e200d"/><path d="m79.89 837.78c-.59 0-1.08-.47-1.11-1.06-.02-.61.45-1.13 1.06-1.15l61.78-2.37h.04c.59 0 1.08.47 1.11 1.06.02.61-.45 1.13-1.06 1.15l-61.78 2.37c-.01 0-.03 0-.04 0z" fill="#593e2d"/><path d="m178.7 497.79c-1.73 28.65-4.58 68.3-7.77 109.58-.42 5.44-.84 10.91-1.28 16.39-3.38 43.14-7.04 86.75-10.04 120.31-.18 1.92-.35 3.83-.51 5.66-.53 5.64-1.02 10.95-1.48 15.91-.22 2.39-.44 4.69-.66 6.9-1.84 19.05-3.19 31.06-3.74 32.01-3.23 5.69-18.89 6.42-28.63 6.11-9.71-.31-26.08-2.52-31.13-6.5-1-.77-2.01-12.3-3.01-30.75-.13-2.57-.27-5.27-.4-8.1-.33-6.59-.64-13.87-.95-21.7-.11-2.63-.2-5.31-.31-8.05-1.19-32.17-2.3-72.08-3.16-111.79-.13-5.93-.27-11.84-.38-17.72-1.26-62.21-1.93-120.97-1.48-145.04.6-33.1 15.42-103.36 23.98-99.73h.02c2.92 1.24 6.15 2.61 9.51 4.09 9.8 4.23 21.11 9.23 30.77 13.89 12.28 5.89 21.97 11.17 22.79 13.54 2.35 6.86 3.16 63.08 3.16 63.08z" fill="#f2c67e"/><path d="m224.13 764.43 2.33 34.94 13.95 12.59 8.68-9.42 1.55-34.29z" fill="#eb9a7d"/><path d="m224.11 796.85c2.39-1.22 11.58 3.03 12.97 2.63s3.21-2.73 9.29-2.39 6.45 5.05 8.08 7.69c0 0 18.42 11.6 23.28 14.9 3.94 2.68 9.67 7.02 10.6 11.31.92 4.3-.25 10.23-1.22 10.91-.98.68-65.18-.13-66.44-2.41-3.33-6.02.14-30.24.31-33.83.17-3.58.75-7.59 3.13-8.81z" fill="#3e200d"/><path d="m286.76 837.9c-.01 0-.02 0-.03 0l-61.79-1.9c-.61-.02-1.09-.53-1.07-1.14s.45-1.08 1.14-1.07l61.79 1.9c.61.02 1.09.53 1.07 1.14-.02.6-.51 1.07-1.11 1.07z" fill="#593e2d"/><path d="m215.32 156.72-40.93 25.73-37.88-25.15s16.04-13.27 17.43-18.81c.29-1.15.44-3.14.51-5.58.11-4.54-.09-10.6-.29-15.53-.24-4.96-.51-8.76-.51-8.76l43.42-2.59s1.21 21.85 2.03 30.14c.85 8.3 16.22 20.55 16.22 20.55z" fill="#eb9a7d"/><path d="m142.33 53.49s-.41 46.41 5.95 54.99c6.36 8.57 20.05 21.71 27.79 21.99 7.21.26 21.91-14.96 26.83-22.12 6.64-9.68 4.61-54.48 4.61-54.48s1.29-26.78-33.56-26.23c-34.85.54-31.62 25.85-31.62 25.85z" fill="#eb9a7d"/><path d="m176.61 136.68c-6.73 1.04-18.52-2.59-22.15-3.76.11-4.54-.4-17.55-.4-17.55s15.86 11.93 21.58 12.06c6.36.14 8.17-1.94 10.09-.83 1.96 1.1-1.09 8.84-9.12 10.08z" fill="#e17f5d"/><path d="m196.34 72.92c-.2-.77-.61-1.42-1.17-1.63-1.41-.54-1.93 1.25-2 2.19-.07.84.15 2.39.95 2.83 1.02.56 2.03-.24 2.26-1.24.17-.68.14-1.48-.04-2.15z" fill="#3e200d"/><path d="m158.66 73.82c-.2-.77-.61-1.42-1.17-1.63-1.41-.54-1.93 1.25-2 2.19-.07.84.15 2.39.95 2.83 1.02.56 2.03-.24 2.26-1.24.17-.68.14-1.48-.04-2.15z" fill="#3e200d"/><path d="m176.81 96.42c-.32 0-.63-.13-.85-.39-.39-.47-.33-1.16.13-1.56.79-.67 2.82-2.77 2.76-4.49-.06-2.03-2.75-10.06-3.78-12.98-.2-.58.1-1.21.68-1.41s1.21.1 1.41.68c.39 1.11 3.81 10.9 3.9 13.64.1 3.09-3.18 5.94-3.55 6.26-.19.16-.45.25-.7.25z" fill="#e17f5d"/><path d="m164.65 64.92c-1.39-1.77-6.71-1.67-8.89-1.51-4.22.3-7.26 1.98-7.85 2.42-1.02.75-.53 2.01.46 2.51 1.17.59 2.55-.1 3.72-.36 2.81-.63 4.97-.54 7.84-.33 3.91.27 6.08-1 4.72-2.73z" fill="#b3612a"/><path d="m186 64.46c1.35-1.8 6.68-1.82 8.86-1.71 4.22.21 7.3 1.81 7.9 2.24 1.04.73.58 1.99-.41 2.52-1.15.61-2.55-.04-3.72-.28-2.82-.57-4.99-.43-7.85-.16-3.91.37-6.11-.85-4.78-2.61z" fill="#b3612a"/><g opacity=".3"><path d="m143.24 62 11.36-16.18 25.37-2.86 25.24 5.37 2.59 13.16v18.16s-7.66 5.72-16.32 5.16c-8.67-.55-10.42-3.32-16.04-3.41s-8.9 4.06-16.62 4.06-15.57-2.86-15.57-2.86v-20.6z" fill="#f6eae1"/><path d="m158.81 86.56c-7.83 0-15.62-2.8-15.95-2.92l-.73-.26v-21.73l11.84-16.88 26.05-2.93.18.04 25.95 5.53 2.73 13.87.02 18.93-.44.33c-.32.24-8.03 5.96-17.06 5.38-4.79-.31-7.51-1.26-9.91-2.1-1.95-.68-3.63-1.27-6.07-1.31-.06 0-.11 0-.17 0-2.31 0-4.21.79-6.4 1.7-2.67 1.1-5.69 2.35-10.04 2.35zm-14.47-4.76c2.1.68 8.37 2.54 14.47 2.54 3.91 0 6.59-1.11 9.18-2.19 2.37-.98 4.62-1.9 7.45-1.87 2.8.05 4.73.72 6.77 1.43 2.27.79 4.84 1.69 9.33 1.98 6.98.45 13.43-3.49 15.15-4.64v-17.56l-2.43-12.22-24.34-5.19-24.7 2.78-10.87 15.49v19.45z" fill="#593e2d"/></g><path d="m158.81 86.56c-7.83 0-15.62-2.8-15.95-2.92l-.73-.26v-21.73l11.84-16.88 26.05-2.93.18.04 25.95 5.53 2.73 13.87.02 18.93-.44.33c-.32.24-8.03 5.96-17.06 5.38-4.79-.31-7.51-1.26-9.91-2.1-1.95-.68-3.63-1.27-6.07-1.31-.06 0-.11 0-.17 0-2.31 0-4.21.79-6.4 1.7-2.67 1.1-5.69 2.35-10.04 2.35zm-14.47-4.76c2.1.68 8.37 2.54 14.47 2.54 3.91 0 6.59-1.11 9.18-2.19 2.37-.98 4.62-1.9 7.45-1.87 2.8.05 4.73.72 6.77 1.43 2.27.79 4.84 1.69 9.33 1.98 6.98.45 13.43-3.49 15.15-4.64v-17.56l-2.43-12.22-24.34-5.19-24.7 2.78-10.87 15.49v19.45z" fill="#593e2d"/><path d="m266.55 274.98c-.11 5.44-.2 10.69-.2 15.66-.02.75-.02 1.48-.02 2.21 0 23.89-6.95 50.89-6.95 50.89l-78.38 7.48-81.7-6.64s-6-29.69-7.48-43.69c-.2-1.88-.53-5.44-.97-10.24-.42-4.56-.93-10.24-1.48-16.61-3.23-37.01-8.14-97.83-7.06-103.56 1.48-7.74 62.83-31.97 62.83-31.97s29.36 31.79 32.3 31.42c4.98-.62 29.73-31.79 29.73-31.79s55.44 24.98 60.24 28.67c4.23 3.21.16 61.93-.86 108.17z" fill="#f2c67e"/><path d="m274.5 795.35c.11 9.6-10.58 13.05-25.16 15.69-14.6 2.61-35.71-1.06-39.11-3.89-1.73-1.39-1.68-7.92-1.97-9.87-1.19-8.14-2.15-16.31-3.1-24.49 0-.09-.02-.15-.02-.24-.29-2.3-.55-4.6-.8-6.9-.62-5.27-1.22-10.53-1.79-15.8-.22-1.88-.42-3.74-.62-5.62-1.68-15.33-3.3-30.64-4.91-45.97-2.61-24.8-4.14-49.69-6.64-74.49-.55-5.55-1.17-11.11-1.84-16.66-.35-2.83-.71-5.69-1.11-8.52-3.87-28.25-9.96-55.91-11.9-84.45-2.15-31.39 1.75-59.89 1.06-65.53-1.04-8.23-34.58-51.04-48.61-69.65-3.74-4.98-6.08-8.21-6.08-8.65 0-1.11-3.43-3.69-6.75-5.97-3.1-2.12-6.08-3.96-6.08-3.96s5.46-.07 14.36-.18c38.58-.46 137.9 11.97 138.43 17.83 1.75 19.23 9.71 51.55 9.96 72.01.15 13.72.69 82.96 1.22 155.91.07 5.91.11 11.86.16 17.81.31 40.29.6 80.42.84 111.75.02 2.77.04 5.49.07 8.1.04 7.99.11 15.29.15 21.7.02 2.9.04 5.62.07 8.14.08 12.68.15 20.62.17 21.9z" fill="#f2c67e"/><path d="m97.65 343.84c1.08-2.77 51.7 2.21 85.44 2.03 29.88-.16 76.14-6.45 77.8-4.24s.74 23.78.55 25.81c-.18 2.03-42.52 9.16-80.44 8.61s-84.42-1.47-84.51-3.31c-.09-1.85.07-26.12 1.16-28.9z" fill="#593e2d"/><path d="m119.29 339.97h4.71v40.19h-4.71z" fill="#f2c67e"/><path d="m225.3 339.97h4.71v40.19h-4.71z" fill="#f2c67e"/><path d="m24.69 286.47c-10.87 5.81-14.24 19.81-7.16 29.91 4.29 6.11 9.24 12.78 14.15 18.57 13.3 15.66 44.92 50.24 44.92 50.24l16.47-13.57s-23.55-47.59-35.12-67.58c-2.24-3.88-4.25-7.24-6.02-10.15-5.69-9.31-17.63-12.56-27.24-7.42z" fill="#f6eae1"/><path d="m87.46 367.74s17.05 4.32 26.76 12.74c8 6.95 10.42 16.83 5.99 23.17-2.58 3.69-12.43 4.62-23.65-1.02-11.23-5.64-20.56-17.58-20.56-17.58s-8.09-14.36-6.95-14.86c1.12-.5 18.41-2.45 18.41-2.45z" fill="#f6eae1"/><path d="m86.98 356.89s7.35 3.4 11.48 4.93c3.96 1.47 23.54 7.75 22.49 13.18-.8 4.18-16.78 2.12-16.78 2.12l-14.84-1.04-5.7-11.65z" fill="#f6eae1"/><path d="m328.52 283.55c11.25 5.03 15.6 18.76 9.25 29.33-3.84 6.4-8.31 13.4-12.8 19.52-12.16 16.56-41.26 53.29-41.26 53.29l-17.38-12.37s20.13-49.13 30.25-69.89c1.96-4.03 3.72-7.52 5.29-10.55 5.02-9.69 16.69-13.78 26.65-9.33z" fill="#f6eae1"/><path d="m271.65 369.05s-16.71 5.52-25.79 14.6c-7.49 7.49-9.21 17.52-4.34 23.53 2.84 3.5 12.73 3.73 23.52-2.68 10.79-6.42 19.26-18.99 19.26-18.99s7.05-14.89 5.89-15.31c-1.17-.42-18.54-1.15-18.54-1.15z" fill="#f6eae1"/><path d="m271.35 358.19s-7.09 3.91-11.1 5.73c-3.85 1.75-22.93 9.39-21.51 14.74 1.1 4.12 16.89.93 16.89.93l14.73-2.09 4.86-12.02z" fill="#f6eae1"/><path d="m175.98 104.71c-.02 0-.04 0-.06 0-5.16-.02-8.61-2.6-8.76-2.71-.48-.37-.58-1.06-.21-1.55.37-.48 1.06-.58 1.55-.22.03.02 3.05 2.24 7.43 2.26h.05c5.21 0 8.15-2.79 8.18-2.81.44-.42 1.14-.41 1.56.02.43.44.42 1.13-.01 1.56-.15.15-3.58 3.45-9.73 3.45z" fill="#e17f5d"/><path d="m147.68 106.03s14.86 13.02 28.24 13.02 26.56-13.64 26.56-13.64l-5.99 14.89s-18.11 7.61-19.36 7.74c-1.24.14-15.35-4.29-16.04-4.84s-14.38-14.24-14.38-14.24z" fill="#3e200d"/><path d="m143.4 63.33c.28-.41 5.02-9.7 12.08-14.1 8.22-5.12 34.56-3.61 40.46-.41 8.43 4.56 13.55 17.13 13.55 17.13s-.63-20.45-1.7-21-17.8-11.75-25.54-12.31c-7.74-.55-12.17-4.01-21.99 0s-13.69 3.6-14.8 6.08c-1.11 2.49-1.94 4.98-2.77 8.85-.81 3.87.71 15.76.71 15.76z" fill="#3e200d"/><path d="m212.66 59.32c.84-17.42-6.07-22.26-12.57-26.96-5.5-3.98-14.48-9.26-31.66-7.61-19.02 1.84-29.45 18.67-29.45 18.67-1.44 2.07-2.53 60.16 1.34 67.2s26.42 23.28 36.72 22.52 27.88-16.25 33.15-23.25c5.27-6.99 1.93-39.51 2.47-50.57zm-9.94 45.41c-.97 4.29-16.5 21.96-27.01 21.41s-25.81-16.29-28.03-20.11c-2.21-3.83-3.63-54.59-1.54-57.5 2.09-2.9 22.79-9.26 28.88-9.26 6.08 0 26.31 3.46 29.91 10.79 3.59 7.32-1.25 50.39-2.21 54.67z" fill="#593e2d"/><path d="m172.95 15.44c-8.43 0-9.31-7.6-9.32-7.68-.06-.61.38-1.15.99-1.21.58-.06 1.15.38 1.21.99.03.28.81 6.16 7.96 5.66 2.51-.17 4.32-.9 5.38-2.2 1.3-1.58 1.06-3.55 1.06-3.57-.08-.6.34-1.16.95-1.24.59-.1 1.16.33 1.24.93.02.12.39 2.9-1.51 5.25-1.46 1.81-3.81 2.83-6.97 3.03-.34.03-.67.04-.99.04z" fill="#e1cebd"/><path d="m147.34 114.63s1.73 10.65 0 15.21-19.02 10.88-20.16 14.34 28.11 34.05 49.68 33.92c21.57-.14 45.71-31.7 44.6-33.92s-16.26-14.06-16.67-18.14-1.45-12.38-1.45-12.38l-25.29 18.53z" fill="#593e2d"/><path d="m176.77 138.02c-14.21 0-26.91-15.42-27.46-16.1-.39-.47-.31-1.17.16-1.56.47-.38 1.17-.32 1.56.16.13.16 13.34 16.2 26.94 15.24 13.56-.96 20.76-13.39 20.83-13.52.3-.53.97-.72 1.51-.42.53.3.72.97.42 1.51-.31.56-7.84 13.59-22.6 14.64-.46.03-.91.05-1.36.05z" fill="#3e200d"/><path d="m71.29 289.42c-.27 1.59 1.24 5.71 3.65 11.08v.02c.49 1.08 1 2.21 1.55 3.36.09.2.18.38.27.58h.02c1.99 4.27 4.34 9.03 6.77 13.87.2.42.4.84.62 1.26.82 1.64 1.61 3.27 2.41 4.89 6.33 12.7 11.99 24.42 11.06 26.73-2.04 5.02-34.03 29.87-41.86 30.09-5.18.15-15.33-11.64-23.69-22.74-1.37-1.81-2.7-3.61-3.92-5.33-.33-.44-.64-.88-.95-1.33-2.26-3.14-4.18-6-5.64-8.16-1.7-2.54-3.76-6.06-5.95-10.07-.49-.91-.97-1.81-1.48-2.77-.77-1.53-1.59-3.1-2.39-4.69-5.86-11.73-11.39-24.93-11.75-30.73-.33-5.46 13.19-33.54 27.83-59.54 3.05-5.42 6.15-10.75 9.18-15.77 7.1-11.73 13.85-21.75 18.76-27.15 17.08-18.81 33.54-28.78 33.54-28.78l21.31 25.66v63.45s-11.5 8.85-22.06 17.96c-4.62 3.96-9.07 7.99-12.3 11.33-2.86 2.96-4.74 5.39-4.98 6.78z" fill="#f2c67e"/><path d="m357.64 295.49c-.35 5.8-5.89 18.98-11.73 30.69-.8 1.59-1.62 3.16-2.41 4.69-.04.09-.11.2-.15.29-2.65 5.04-5.24 9.54-7.28 12.59-1.53 2.28-3.56 5.29-5.97 8.61-.18.27-.4.55-.6.84-1.22 1.73-2.54 3.52-3.89 5.33-8.38 11.13-18.56 22.94-23.76 22.79-2.15-.07-6.13-1.99-10.82-4.87-.71-.4-1.42-.86-2.15-1.33-2.63-1.68-5.4-3.61-8.19-5.64h-.02c-1.86-1.35-3.74-2.77-5.53-4.16-1.44-1.11-2.83-2.21-4.14-3.3-.93-.75-1.79-1.48-2.63-2.21-4.51-3.83-7.79-7.08-8.39-8.58-.93-2.3 4.76-14.07 11.08-26.77.8-1.62 1.61-3.25 2.43-4.89.09-.18.18-.35.27-.53 2.63-5.29 5.24-10.55 7.39-15.15v-.02c.55-1.17 1.08-2.28 1.55-3.36 2.41-5.38 3.92-9.47 3.65-11.06-.29-1.79-3.3-5.24-7.52-9.34-3.58-3.45-8.05-7.37-12.5-11.11-9.71-8.23-19.31-15.62-19.31-15.62v-63.45l20.4-23.12s17.37 7.43 34.42 26.24c4.47 4.91 10.46 13.63 16.86 24 3.03 4.91 6.15 10.22 9.27 15.66 15.33 26.83 30 57.09 29.67 62.78z" fill="#f2c67e"/><path d="m86.58 324.49-54.49 34.07c-1.37-1.81-2.7-3.61-3.92-5.33-.33-.44-.64-.88-.95-1.33-2.26-3.14-4.18-6-5.64-8.16-1.7-2.54-3.76-6.06-5.95-10.07-.49-.91-.97-1.81-1.48-2.77-.77-1.53-1.59-3.1-2.39-4.69 7.72-4.16 22.3-11.81 32.63-15.8 10.58-4.07 23.42-9.18 30.05-11.04.49 1.08 1.49 3.36 2.05 4.51.09.2.18.38.27.58h.02c1.99 4.27 4.34 9.03 6.77 13.87.2.42.4.84.62 1.26.81 1.65 1.61 3.29 2.41 4.9z" fill="#fbe6bb"/><path d="m82.73 316.67-56.61 33.69c-2.26-3.14-3.09-4.46-4.55-6.63-1.7-2.54-3.08-4.83-5.27-8.84 7.08-4.69 18.62-11.29 30.9-17.33 11.88-5.84 30.07-12.03 30.07-12.03s3.03 6.3 5.46 11.14z" fill="#e16f50"/><path d="m159.94 740.49c-.16 1.64-.55 5.88-.75 8.23-.04.42-.07.75-.09 1.02-.44 4.76-.86 9.29-1.26 13.56-.07.8-.15 1.57-.22 2.35-.22 2.39-.44 4.69-.66 6.9l-66.5.86c-.13-2.57-.27-5.27-.4-8.1-.04-.75-.07-1.5-.11-2.26-.27-5.31-.51-11.02-.75-17.08-.02-.8-.07-1.57-.09-2.37-.11-2.63-.2-5.31-.31-8.05 11.64.55 29.85 1.04 39.16 1.73 11.18.82 24.79 1.57 31.98 3.21z" fill="#fbe6bb"/><path d="m159.19 748.72c-.04.42-.07.75-.09 1.02-.44 4.76-.86 9.29-1.26 13.56l-67.9-.24c-.27-5.31-.51-11.02-.75-17.08 11.08.07 27.52.55 38.56.86 12.21.35 26.5 1.48 31.44 1.88z" fill="#e16f50"/><path d="m274.32 773.45-69.18-.91c-.29-2.3-.55-4.6-.8-6.9-.07-.53-.13-1.06-.18-1.59-.55-4.73-1.11-9.47-1.61-14.2-.04-.35-.11-.93-.18-1.64-.33-2.92-.86-7.9-.86-7.9s15.57-1.79 29.96-2.9c9.49-.73 31.08-1.35 42.57-1.9.02 2.77.04 5.49.07 8.1 0 .55 0 1.08.02 1.62.02 6.75.09 12.96.11 18.56.02.51.02 1.02.02 1.53.02 2.89.04 5.61.06 8.13z" fill="#fbe6bb"/><path d="m274.23 763.78-70.07.27c-.55-4.73-1.11-9.47-1.61-14.2-.04-.35-.11-.93-.18-1.64 6.46-.29 21.55-.93 31.53-1.46 11.39-.6 28.67-1.39 40.22-1.53.02 6.75.09 12.97.11 18.56z" fill="#e16f50"/><path d="m345.91 326.17c-.8 1.59-1.62 3.16-2.41 4.69-2.72 5.15-5.35 9.76-7.43 12.88-1.66 2.48-3.92 5.8-6.57 9.45-1.22 1.73-2.54 3.52-3.89 5.33l-13.85-8.65-28.16-17.59-12.52-7.83c.8-1.62 1.61-3.25 2.43-4.89 2.72-5.46 5.44-10.93 7.65-15.69.55-1.17 1.93-4.21 2.39-5.3 3.21.91 14.99 4.25 28.89 10.81 7.73 3.65 14.66 6.5 21.36 9.89 4.78 2.42 8.91 5.18 12.11 6.9z" fill="#fbe6bb"/><path d="m342.56 332.63c-2.65 5.04-4.46 8.05-6.49 11.11-1.53 2.28-2.06 3.19-4.47 6.51-6.77-3.94-54.72-31.73-56.92-33.06 2.63-5.29 3.8-7.59 5.94-12.19 0 0 10.82 3.59 15.75 5.47 17.93 6.87 42.41 20.04 46.19 22.16z" fill="#e16f50"/><path d="m266.55 274.98c-.11 5.44-.2 10.69-.2 15.66h-175.5c-.42-4.56-.93-10.24-1.48-16.61 8.14-.15 58.81-1.15 100.64-1.24 37.94-.09 67.63 1.61 76.54 2.19z" fill="#fbe6bb"/><path d="m327.97 232.7-49.14 47.39c-3.58-3.45-8.05-7.37-12.5-11.11 7.41-7.41 29.62-29.62 52.37-51.95 3.03 4.92 6.15 10.23 9.27 15.67z" fill="#fbe6bb"/><path d="m88.57 271.33c-4.62 3.96-9.07 7.99-12.3 11.33l-48.43-46.7c3.05-5.42 6.15-10.75 9.18-15.77 22.15 21.73 43.72 43.31 51.55 51.14z" fill="#fbe6bb"/><path d="m170.94 607.37c-.42 5.44-.84 10.91-1.28 16.39h-84.03c-.13-5.93-.27-11.84-.38-17.72 7.57-.07 15.15-.11 22.46-.13 26.54-.07 49.04.75 63.23 1.46z" fill="#fbe6bb"/><path d="m273.19 623.76h-82.81c-.55-5.55-1.17-11.11-1.84-16.66 11.55-.22 49.14-.93 84.49-1.15.07 5.91.12 11.86.16 17.81z" fill="#fbe6bb"/><path d="m88.78 265.21c-.61 0-1.11-.49-1.11-1.11 0-.36.01-36.44.59-52.86.58-16.31-2.75-41.6-2.78-41.85-.08-.61.35-1.16.95-1.24.59-.08 1.16.34 1.24.95.03.26 3.38 25.73 2.8 42.22-.58 16.38-.59 52.42-.59 52.78 0 .62-.49 1.11-1.1 1.11z" fill="#deae5e"/><path d="m266.84 265.21c-.01 0-.02 0-.02 0-.61-.01-1.1-.52-1.08-1.13l1.97-92.37c.01-.61.51-1.06 1.13-1.08.61.01 1.1.52 1.08 1.13l-1.97 92.37c-.02.6-.51 1.08-1.11 1.08z" fill="#deae5e"/><path d="m179.16 342.26c-.61 0-1.1-.49-1.11-1.1 0-.73-.23-72.71-.46-81.18s-2.55-77.89-2.57-78.59c-.02-.61.46-1.12 1.07-1.14h.04c.59 0 1.08.47 1.11 1.07.02.7 2.34 70.12 2.57 78.6.23 8.49.46 80.5.46 81.23 0 .62-.5 1.11-1.11 1.11z" fill="#deae5e"/><path d="m178.38 504.42c-.61 0-1.1-.49-1.11-1.1l-.42-123.16c0-.61.56-1.11 1.11-1.11.61 0 1.1.49 1.11 1.1l.42 123.16c0 .62-.5 1.11-1.11 1.11z" fill="#deae5e"/><path d="m166.31 506.41c-3.28 0-7.64-.08-13.33-.33-16.83-.73-66.08-8.4-66.58-8.47-.6-.09-1.02-.66-.92-1.26.09-.6.67-1.01 1.26-.92.49.08 49.62 7.72 66.33 8.45 16.57.72 21.78.02 21.83.01.62-.09 1.17.33 1.25.94.09.6-.33 1.16-.93 1.25-.13.01-2.45.33-8.91.33z" fill="#deae5e"/><path d="m181.83 506.41c-.02 0-.04 0-.04 0-.61 0-1.11-.5-1.1-1.11 0-.61.5-1.1 1.11-1.1.15.01 16.28.02 43.43-1.98 15.34-1.13 28.71-2.98 39.73-5.5 1.11-.25 1.25-.28 1.48-.26.61.06 1.06.59 1 1.2-.05.61-.6 1.06-1.2 1 .06.02-.27.09-.79.21-11.14 2.54-24.62 4.4-40.06 5.54-26.52 1.97-42.62 2-43.56 2z" fill="#deae5e"/><path d="m168.2 190.72-8.43-2.53c-1.43-.43-2.24-1.93-1.81-3.36.43-1.43 1.93-2.24 3.36-1.81l8.43 2.53c1.43.43 2.24 1.93 1.81 3.36-.43 1.43-1.94 2.24-3.36 1.81z" fill="#f6eae1"/><path d="m170.67 402.22-8.43-2.53c-1.43-.43-2.24-1.93-1.81-3.36.43-1.43 1.93-2.24 3.36-1.81l8.43 2.53c1.43.43 2.24 1.93 1.81 3.36-.44 1.43-1.94 2.24-3.36 1.81z" fill="#f6eae1"/><path d="m169.16 231.72h-8.8c-1.49 0-2.7-1.21-2.7-2.7 0-1.49 1.21-2.7 2.7-2.7h8.8c1.49 0 2.7 1.21 2.7 2.7-.01 1.5-1.21 2.7-2.7 2.7z" fill="#f6eae1"/><path d="m171.63 316.37h-8.8c-1.49 0-2.7-1.21-2.7-2.7 0-1.49 1.21-2.7 2.7-2.7h8.8c1.49 0 2.7 1.21 2.7 2.7-.01 1.49-1.22 2.7-2.7 2.7z" fill="#f6eae1"/><path d="m169.55 268.73-8.67 1.47c-1.47.25-2.86-.74-3.11-2.21-.25-1.47.74-2.86 2.21-3.11l8.67-1.47c1.47-.25 2.86.74 3.11 2.21.24 1.47-.75 2.86-2.21 3.11z" fill="#f6eae1"/><path d="m169.55 456.41-8.67 1.47c-1.47.25-2.86-.74-3.11-2.21-.25-1.47.74-2.86 2.21-3.11l8.67-1.47c1.47-.25 2.86.74 3.11 2.21.24 1.47-.75 2.86-2.21 3.11z" fill="#f6eae1"/><path d="m288.72 290.01c-.35 0-.68-.16-.9-.46-.35-.5-.24-1.19.26-1.54.25-.18 6.26-4.44 12.93-7.26 6.75-2.86 13.57-3.07 13.86-3.08h.03c.6 0 1.09.48 1.11 1.08.02.61-.46 1.12-1.08 1.14-.07 0-6.7.22-13.06 2.91-6.44 2.73-12.45 6.99-12.51 7.03-.19.11-.42.18-.64.18z" fill="#deae5e"/><path d="m310.48 296.83c-.05 0-.1 0-.15-.01l-20.16-2.77c-.61-.08-1.03-.64-.94-1.25.08-.61.64-1.04 1.25-.95l20.16 2.77c.6.08 1.03.64.94 1.25-.08.56-.55.96-1.1.96z" fill="#deae5e"/><path d="m68.93 290.19c-.22 0-.44-.06-.63-.2-.08-.05-7.8-5.33-17.33-6.24-9.69-.91-20.74 1.59-20.85 1.62-.6.14-1.19-.24-1.32-.83-.14-.6.24-1.19.83-1.33.46-.11 11.53-2.62 21.55-1.66 10.13.96 18.05 6.39 18.38 6.62.5.35.63 1.04.28 1.54-.21.31-.56.48-.91.48z" fill="#deae5e"/><path d="m46.65 294.25c-.58 0-1.07-.45-1.1-1.04-.03-.61.43-1.13 1.04-1.17 3.24-.19 19.42-1.11 19.97-1.11.61 0 1.11.49 1.11 1.11 0 .61-.49 1.1-1.1 1.11-.56.01-12.18.67-19.85 1.1-.03 0-.05 0-.07 0z" fill="#deae5e"/><path d="m176.13 526.83c-.29 0-.59-.12-.8-.35l-15.45-16.32c-.42-.44-.4-1.14.04-1.56s1.14-.4 1.56.04l15.45 16.32c.42.44.4 1.14-.04 1.56-.22.2-.49.31-.76.31z" fill="#deae5e"/><path d="m194.22 379.51h-32.72c-1.22 0-2.21-.99-2.21-2.21v-32.35c0-1.22.99-2.21 2.21-2.21h32.72c1.22 0 2.21.99 2.21 2.21v32.35c0 1.22-.99 2.21-2.21 2.21zm-30.51-4.42h28.3v-27.92h-28.3z" fill="#f6eae1"/><path d="m1948.61 352.56s14.82 10.2 34.72 15.32 64.65 13.95 64.65 13.95l5.05-19.17s-45.1-25.52-66.07-35.18c-20.98-9.66-28.92-11.85-28.92-11.85z" fill="#cc866d"/><path d="m2012.42 379.25c-4.41-3.86 4.16-40.82 7.68-41.28 5.21-.68 25.92 15.61 27.5 15.61s20.92-2.88 25.31-.93 21.72 3.43 23.88 15.27c3.58 19.56-7.98 24.86-16.9 26.15-11.32 1.65-22.36-2.93-28.8-4.22-6.44-1.28-34.26-6.73-38.67-10.6z" fill="#f3be5e"/><path d="m1908.8 181.3s19.98 8.88 31.92 24.57c9.11 11.97 13.42 35.46 19.78 47 9.61 17.43 17.04 38.99 20.98 51.9 2.08 6.81-39.22 49.55-48.29 39.98s-16.55-38.65-20.65-41.33-6.76-15.75-6.76-15.75l-4.09-103.17z" fill="#ad482d"/><path d="m1976.22 299.33s34.42 23.71 37.1 28.2c5.51 9.21-21.29 47.92-25.06 51.99s-29.45-14.68-49.26-29c-22.45-16.23 7.14-36.96 7.14-36.96z" fill="#ad482d"/><path d="m2084.09 362.07c-3.02 18.26-37.35 227.14-55.51 337.78-1.6 9.77-3.03 18.51-4.23 25.9-.43 2.64-.83 5.13-1.23 7.44-2.06 12.52-3.23 19.72-3.23 19.72l-17.5-2.75s1.09-7.22 2.99-19.77c.35-2.31.73-4.8 1.14-7.44 1.11-7.42 2.43-16.16 3.92-25.96 16.72-110.61 47.93-319 51.03-336.86 3.99-23.1 4.67-46.85 18.51-45.68 14.13 1.23 7.99 24.03 4.11 47.62z" fill="#965444"/><path d="m2068.03 742.88-9.33 59.35c-4.08 25.77-28.25 43.38-54.03 39.34l-18.02-2.84c-25.77-4.07-43.38-28.25-39.31-54.02l9.33-59.35c.28-1.7 1.87-2.87 3.57-2.61l40.09 6.31 1.54.25 21.48 3.37 2 .32 40.09 6.31c1.71.28 2.87 1.87 2.59 3.57z" fill="#e1cdbf"/><path d="m2028.58 699.85c-1.6 9.77-3.03 18.51-4.23 25.9-.43 2.64-.83 5.13-1.23 7.44l-17.74-2.8c.35-2.31.73-4.8 1.14-7.44 1.11-7.42 2.43-16.16 3.92-25.96z" fill="#e1cdbf"/><path d="m2011.07 761.12c-.34 0-.68-.02-1.02-.07-2.31-.3-4.18-1.45-5.56-3.42-5.25-7.47-1.58-24.65-1.42-25.38.13-.6.73-.97 1.32-.84.6.13.97.72.84 1.32-.04.17-3.63 16.96 1.07 23.64 1.02 1.46 2.35 2.28 4.04 2.5 1.51.19 2.89-.21 4.2-1.25 6.35-5.03 8.17-22.14 8.19-22.31.06-.61.61-1.04 1.21-.99.61.06 1.05.61.99 1.21-.08.74-1.93 18.22-9.01 23.82-1.5 1.17-3.12 1.77-4.85 1.77z" fill="#c7b4a5"/><path d="m1634.64 530.15s-12.35-21.2-24.52-27.47-18.81-.18-8.67 5.9 28.21 23.65 28.21 23.65z" fill="#ad9c47"/><path d="m1638.42 534.22s-19.91-44.63-14.75-53.85 14.75 32.08 14.75 32.08.98-35.03 7.12-29.87c6.15 5.16 0 50.15 0 50.15z" fill="#ad9c47"/><path d="m1660.25 530.15s2.86-6.75 10.88-7.47c10.86-.97 14.75 6.82 14.75 6.82z" fill="#e38349"/><path d="m1640.49 530.61s1.11-9.27 7.19-12.63c5.61-3.1 14.01-2.17 17.51 2.58 3.87 5.25 3.87 10.05 3.87 10.05z" fill="#e38349"/><path d="m1619.71 523.88c3.11-2.21 7.82-3.96 15.47-1.75s8.94 9.4 8.94 9.4-15.86.92-18.71.65c-2.86-.28-10.83-2.86-10.65-3.23s3.41-3.98 4.95-5.07z" fill="#e38349"/><path d="m1686.49 347.04s-8.11 24.7-11.43 44.99-8.11 65.63-8.11 65.63l19.54 3.32s21.39-47.2 29.13-68.95 9.22-29.87 9.22-29.87z" fill="#cc866d"/><path d="m1744.41 188.85s-18.81 9.03-29.87 36.7-8.48 54.22-13.64 62.7-23.23 41.67-22.86 52.73-12.91 28.02-10.32 34.66c2.58 6.64 47.57 25.07 53.1 18.44 5.53-6.64 30.24-79.28 30.24-79.28l25.44-128.69z" fill="#ad482d"/><path d="m1863.82 179.91-40.93 25.73-37.88-25.15s16.04-13.27 17.43-18.81c.29-1.15.44-3.14.51-5.58.11-4.54-.09-10.6-.29-15.53-.24-4.96-.51-8.76-.51-8.76l43.42-2.59s1.21 21.85 2.03 30.14c.85 8.31 16.22 20.55 16.22 20.55z" fill="#cc866d"/><path d="m1788.84 76.42s1.57 46.67 7.93 55.24 20.05 21.71 27.79 21.99c7.21.26 21.91-14.96 26.83-22.12 6.64-9.68 7.33-54.18 7.33-54.18s-36.09-19.38-36.64-18.55c-.56.83-33.24 17.62-33.24 17.62z" fill="#cc866d"/><path d="m1825.11 159.87c-6.73 1.04-18.52-2.59-22.15-3.76.11-4.54-.4-17.55-.4-17.55s15.86 11.93 21.58 12.06c6.36.14 8.17-1.94 10.09-.83 1.96 1.1-1.09 8.84-9.12 10.08z" fill="#ab6047"/><path d="m1844.84 96.11c-.2-.77-.61-1.42-1.17-1.63-1.41-.54-1.93 1.25-2 2.19-.07.84.15 2.39.95 2.83 1.02.56 2.03-.24 2.26-1.24.17-.68.14-1.48-.04-2.15z" fill="#5a403a"/><path d="m1804.95 97.01c-.2-.77-.61-1.42-1.17-1.63-1.41-.54-1.93 1.25-2 2.19-.07.84.15 2.39.95 2.83 1.02.56 2.03-.24 2.26-1.24.16-.68.14-1.48-.04-2.15z" fill="#5a403a"/><path d="m1825.31 119.61c-.32 0-.63-.13-.85-.39-.39-.47-.33-1.16.13-1.56.79-.67 2.82-2.78 2.76-4.49-.06-2.03-2.75-10.06-3.78-12.98-.2-.58.1-1.21.68-1.41s1.21.1 1.41.68c.39 1.11 3.81 10.9 3.9 13.64.1 3.09-3.18 5.94-3.55 6.26-.19.16-.45.25-.7.25z" fill="#ab6047"/><path d="m1854.71 99.27s5.25-2.49 6.36 6.82-8.57 13.64-8.57 13.64 0-13.64 0-14.2 2.21-6.26 2.21-6.26z" fill="#cc866d"/><path d="m1792.57 99.27s-5.25-2.49-6.36 6.82 8.57 13.64 8.57 13.64 0-13.64 0-14.2-2.21-6.26-2.21-6.26z" fill="#cc866d"/><path d="m1813.29 88.06c-1.24-2.18-6.59-2.2-8.78-2.06-4.26.26-7.46 2.21-8.1 2.73-1.09.89-.72 2.42.24 3.06 1.12.74 2.57-.05 3.76-.34 2.87-.69 5.04-.53 7.9-.2 3.89.43 6.19-1.06 4.98-3.19z" fill="#ebdacc"/><path d="m1834.71 88.06c1.24-2.18 6.59-2.2 8.79-2.06 4.26.26 7.46 2.21 8.1 2.73 1.09.89.72 2.42-.24 3.06-1.12.74-2.57-.05-3.76-.34-2.87-.69-5.04-.53-7.9-.2-3.9.43-6.2-1.06-4.99-3.19z" fill="#ebdacc"/><path d="m1796.68 71.8c-.09-.72-.45-1.38-1.2-1.58-1.89-.5-5.75-.04-7.32 1.22-2.01 1.61-2 5.28-2.07 7.61-.07 2.38.66 4.63.83 6.98.2 2.69-.12 5.25.85 7.85.78 2.11 2.07 5.72 4.71 5.97.37.03.85-.24 1-.57 1.43-3.11 1.38-6.86 1.41-10.2.01-1.84.07-3.68.12-5.51.62-3.9 2.11-8.09 1.67-11.77z" fill="#ebdacc"/><path d="m1853.45 71.51c-.32.26-.49.74-.49 1.18-.08.06-.18.1-.24.19-.31.47-.45.85-.55 1.4-.3 1.64.12 3.27.17 4.9.06 1.76-.01 3.5.15 5.26.29 3.13.82 6.25.81 9.4 0 1.86.12 5.4 2.64 5.65.51.05 1.01-.32 1.27-.73 1.72-2.73 2.46-6.21 2.94-9.33.6-3.92 1.99-8.39 1.83-12.37-.15-3.96-4.67-8.77-8.53-5.55z" fill="#ebdacc"/><path d="m1798.05 168.21s17.1 6.48 27.55 6.3 25.87-7.07 25.87-7.07l17.58 12.42-46.46 30.42-42.96-27.29z" fill="#f6eae1"/><path d="m1792.81 165.75c2.93-.01 29.31 37.61 32.91 37.33s30.97-37.06 33.74-37.33c2.77-.28 13.27 6.08 17.42 7.47 4.15 1.38 31.8 4.42 35.95 11.34s16.87 193.31 8.02 205.48-178.1 14.93-189.16 1.11c-11.06-13.83 11.06-200.19 12.72-202.28s19.91-8.45 25.44-12.04c5.53-3.61 20.03-11.07 22.96-11.08z" fill="#ad482d"/><path d="m1728.61 382.65h113.05c30.33 0 82.69-5.16 85.64 0s2.77 180.49 4.61 204.83 3.1 113.19-6.52 136.21c-5.83 13.95-42.71 23.08-42.71 23.08s-18.64-4.63-25.86-16c-16.17-25.48-25.83-168.42-26.39-175.37-.55-6.95-8.04-35.4-15.23-55.31s-86.6-103.98-86.6-103.98v-13.46z" fill="#5a403a"/><path d="m1728.61 382.65s-2.45 50.52-4.11 87.02 3 209.81 4.11 216.45-2.8 33.04 17.66 44.66 37.97 13.79 37.97 13.79 24.89 4.24 27.65-26.73c2.77-30.97 10.09-154.17 14.37-171.28s7.2-48.67 7.2-52.54-53.1-93.63-53.1-93.63z" fill="#5a403a"/><path d="m1808.95 730.78s-2.17 82.9-5 99.29c-.24 1.42-.49 2.35-.73 2.68-5.49 7.39-75.62 7.94-80.24 4.62-1.13-.8-2.01-2.19-2.54-3.94-1.59-5.42.4-14.27 10.15-19.54 12.9-6.97 20-15.22 20-18.87 0-3.63-4.31-64.25-4.31-64.25s26.99 3.05 36.9 2.72c9.93-.32 25.77-2.71 25.77-2.71z" fill="#ad915a"/><path d="m1951.89 833.7c-.53 1.62-1.39 2.92-2.46 3.67-4.65 3.32-74.78 2.77-80.27-4.62-.29-.4-.64-1.61-1.04-3.5-3.76-18.16-11.31-98.47-11.31-98.47s15.84 2.39 25.75 2.72c9.93.33 36.92-2.72 36.92-2.72s2.3 60.62 2.3 64.25c0 3.65 7.12 11.9 20.02 18.87 9.96 5.36 11.84 14.4 10.09 19.8z" fill="#ad915a"/><path d="m1728.61 382.65s15.07-107.3 18.02-108.78 150.57-5.03 154.87-2.58c14.86 8.49 25.81 111.36 25.81 111.36l-85.64 4.24s-79.18-1.29-81.76 0c-2.59 1.3-31.3-4.24-31.3-4.24z" fill="#5a403a"/><path d="m1744.81 279.87s11.04-97.8 13.06-99.28c2.03-1.47 14.65-7.55 15.81-6.08s-7.14 102.13-7.14 102.13l-16.22 4.79z" fill="#5a403a"/><path d="m1904.79 279.78s-13.45-103.07-15.48-104.54c-2.03-1.48-15.64-4.53-16.48-3.8s7.82 99.86 7.82 99.86l16.22 4.79z" fill="#5a403a"/><path d="m1744.7 729.83c-2.09 1.74-.82 8.52 0 11 .82 2.49 10.91 6.64 34.69 6.64 21.85 0 30.01-2.21 30.7-3.87s1.11-12.88-.28-13.77c-1.38-.89-17.08 1.13-31.01.95-13.92-.18-32.01-2.69-34.1-.95z" fill="#f6dece"/><path d="m1714.14 485.2c-.72-.06-1.4.29-2 .68s-1.18.85-1.88 1.04c1.21-1.45 3.98-3.86 3.41-5.97-.3-1.13-1.93-1.36-2.51-.33-.22.4-.46.76-.83 1.02-.14-.63.02-1.6-.28-2.32-.33-.8-1.4-1.35-2.1-.84-.53.38-.6 1.14-.58 1.79.06 1.78.42 3.7-.13 5.44-.22-.49-.44-.95-.58-1.34-.16-.45-.36-.93-.62-1.33-.12-.16-.25-.32-.38-.48.21.19.21.12 0-.22-.35-.67-1.25-1.08-1.98-.88-2.04.56-1.18 3.08-.39 4.27.62.93 1.14 2.04 1.88 2.9-.54.53-1.09 1.07-1.51 1.72-1.1 1.71-1.46 4.08-1.61 6.07-.05-.96-.12-1.97-.66-2.77-.54-.79-1.74-1.22-2.49-.61-.66.53-.65 1.54-.42 2.35s.63 1.6.58 2.45c-.47-.46-1.08-.83-1.74-.85s-1.36.4-1.5 1.05c-.14.64.27 1.25.65 1.78 1.93 2.66 3.87 5.33 5.8 7.99.14.2.3.41.54.49.3.11.63-.04.91-.17 2.69-1.3 5.31-2.74 7.86-4.29.57-.35 1.17-.73 1.49-1.32.33-.59.28-1.44-.27-1.81-.61-.41-1.43-.06-2.08.29-1.01.54-2.01 1.09-3.02 1.63 1.34-1.68 2.67-3.35 4.01-5.03.51-.64 1.05-1.46.73-2.21-.44-1.03-2.05-.83-2.84-.04s-1.16 1.93-1.97 2.71c.61-2.06 1.21-4.12 1.82-6.18.15-.52.38-.94.66-1.29 1.05-1.33 2.85-1.73 4.37-2.79.43-.3.89-.67.97-1.19.11-.72-.6-1.35-1.31-1.41z" fill="#ad9c47"/><path d="m1702.88 505.72c-.32-.13-.64-.24-.98-.33-4.25-1.11-8 1.81-10.11 5.26-4.78 7.82-9.14 30.94-9.14 30.94l12 4.31s13.24-23.96 14.01-30.46c.47-3.92-2.1-8.21-5.78-9.72z" fill="#f6eae1"/><path d="m1700.28 511.71c-.17 0-.33-.04-.49-.12l-2.58-1.29c-.55-.27-.77-.94-.49-1.48.27-.55.94-.76 1.48-.49l2.58 1.29c.55.27.77.94.49 1.48-.2.39-.59.61-.99.61z" fill="#e1cebd"/><path d="m1704.33 520.32c-.12 0-.24-.02-.35-.06l-4.06-1.37c-.58-.2-.89-.82-.69-1.4s.83-.89 1.4-.69l4.06 1.37c.58.2.89.82.69 1.4-.16.46-.59.75-1.05.75z" fill="#e1cebd"/><path d="m1696.18 524.58c-.15 0-.3-.03-.44-.09l-4.03-1.75c-.56-.24-.82-.89-.57-1.46.24-.56.9-.82 1.46-.57l4.03 1.75c.56.24.82.89.57 1.46-.19.41-.6.66-1.02.66z" fill="#e1cebd"/><path d="m1731.9 494.52c1.07-.75 2.32-1.27 3.44-1.95 1.41-.85 3.8-2.62 2.97-4.55-.28-.66-.82-.9-1.51-.77-1.53.29-3.05 1.42-4.23 2.38-.76.62-1.57 1.18-2.31 1.82-.08-.45-.18-.88-.29-1.32 1.08-.36 2.1-1.05 3.1-1.53 1.29-.61 3.32-2.34 1.85-3.86-.52-.54-1.51-.65-2.15-.26-.35.19-.39.25-.11.19-.19.06-.39.14-.57.21-.43.21-.85.52-1.22.82-.32.26-.75.55-1.19.85.03-.13.09-.25.13-.37.21-.08.41-.22.54-.49.85-1.74 2.33-3.06 3.39-4.68.55-.85 1.39-2.64.65-3.59-.88-1.13-2.53-.26-3.26.56-.72.81-1.24 1.77-1.52 2.8-.16.26-.32.51-.49.69-.18-.42-.2-.84-.18-1.3.03-1.18-1.49-1.82-2.32-1.01-1.56 1.52-.42 5.01-.13 6.87-.5-.52-.76-1.21-1.08-1.85-.31-.65-.72-1.3-1.37-1.61-.65-.32-1.57-.14-1.85.53-.2.49 0 1.04.22 1.51.76 1.69 2.11 2.96 2.32 4.64.06.45.04.92-.1 1.45-.54 2.08-1.07 4.16-1.61 6.24-.29-1.08-.03-2.25-.3-3.34s-1.56-2.08-2.46-1.42c-.66.48-.62 1.46-.51 2.27.29 2.13.57 4.25.86 6.38-.58-.98-1.17-1.97-1.75-2.95-.38-.63-.9-1.35-1.64-1.31-.67.04-1.15.74-1.16 1.42-.02.67.29 1.3.61 1.9 1.39 2.64 2.9 5.22 4.54 7.72.17.27.38.55.69.62.24.05.49-.05.71-.15 3.03-1.29 6.05-2.59 9.08-3.88.6-.26 1.26-.58 1.47-1.2.21-.63-.17-1.34-.75-1.67-.58-.32-1.29-.32-1.93-.16.38-.75 1.14-1.23 1.75-1.8.61-.58 1.13-1.44.84-2.23-.33-.9-1.58-1.15-2.45-.75s-1.45 1.24-1.99 2.04c.32-.64.63-1.36.91-2.09.88-.52 1.51-1.23 2.36-1.82z" fill="#ad9c47"/><path d="m1721.51 504.19c-.33-.09-.67-.16-1.01-.2-4.36-.56-7.71 2.82-9.36 6.51-3.74 8.36-5.11 31.86-5.11 31.86l12.45 2.74s10.07-25.46 10-32.01c-.03-3.95-3.13-7.87-6.97-8.9z" fill="#f6eae1"/><path d="m1718.79 510.11c-.02 0-.04 0-.06 0l-2.42-.14c-.61-.03-1.08-.56-1.04-1.17.03-.61.54-1.04 1.17-1.04l2.42.14c.61.03 1.08.56 1.04 1.17-.04.59-.53 1.04-1.11 1.04z" fill="#e1cebd"/><path d="m1721.79 519.73c-.08 0-.16-.01-.24-.02l-4.33-.94c-.6-.13-.97-.72-.84-1.32s.71-.97 1.32-.85l4.33.94c.6.13.97.72.84 1.32-.11.51-.57.87-1.08.87z" fill="#e1cebd"/><path d="m1717.73 526.49c-.08 0-.16-.01-.24-.02l-3.69-.8c-.6-.13-.97-.72-.84-1.32s.72-.97 1.32-.85l3.69.8c.6.13.97.72.84 1.32-.12.51-.57.87-1.08.87z" fill="#e1cebd"/><path d="m1920.98 729.35c2.11 1.71.94 8.5.16 11s-10.81 6.8-34.59 7.15c-21.84.32-30.03-1.77-30.75-3.42s-1.3-12.87.07-13.77c1.37-.91 17.1.88 31.02.49 13.93-.38 31.98-3.16 34.09-1.45z" fill="#f6dece"/><path d="m1737.85 534.51c-.51-1.75-13.08-43.07-61.48-43.07-52.29 0-64 40.92-64.11 41.34l-8.54-2.32c.13-.48 13.67-47.87 72.65-47.87 55.2 0 69.85 48.99 69.99 49.48z" fill="#bb6e54"/><path d="m1666.95 457.66s-3.69 13-4.24 20.74-1.94 17.15 4.42 20.19 16.59 3.32 18.25 2.49 6.66-5.48 4.7-9.68c-2.49-5.35-4.42-12.44-3.04-17.7 1.38-5.25-.55-12.72-.55-12.72l-4.7-13z" fill="#cc866d"/><path d="m1706.45 606.29h-66.08c-22.12 0-40.06-17.93-40.06-40.06v-35.1c0-1.77 1.43-3.2 3.2-3.2h141.41c.87 0 1.57.7 1.57 1.57v36.73c.01 22.13-17.92 40.06-40.04 40.06z" fill="#bb6e54"/><path d="m1611.9 529.13h-5.58c-.61 0-1.11-.49-1.11-1.11 0-.61.49-1.11 1.11-1.11h5.58c.61 0 1.11.49 1.11 1.11 0 .61-.5 1.11-1.11 1.11z" fill="#974f3a"/><path d="m1742.84 529.62h-5.58c-.61 0-1.11-.49-1.11-1.11 0-.61.49-1.11 1.11-1.11h5.58c.61 0 1.11.49 1.11 1.11-.01.61-.5 1.11-1.11 1.11z" fill="#974f3a"/><path d="m1739.47 537.15h-133.15c-.61 0-1.11-.49-1.11-1.11s.49-1.11 1.11-1.11h133.15c.61 0 1.11.49 1.11 1.11s-.5 1.11-1.11 1.11z" fill="#974f3a"/><path d="m1761.25 279.78c0-3.32-2.69-6.01-6.01-6.01s-6.01 2.69-6.01 6.01 2.69 6.01 6.01 6.01 6.01-2.68 6.01-6.01z" fill="#cbc3bc"/><path d="m1898.84 278.23c0-3.32-2.69-6.01-6.01-6.01s-6.01 2.69-6.01 6.01 2.69 6.01 6.01 6.01 6.01-2.69 6.01-6.01z" fill="#cbc3bc"/><path d="m1824.36 349.66c-15 0-26.4-4.29-33.9-12.77-12.23-13.82-9.65-33.57-9.54-34.41.07-.53.52-.93 1.06-.95 8.52-.3 83.32-2.9 86.44-2.05 2.28.62 2.97 8.26 2.15 14.73-1.32 10.47-8.34 34.87-44.96 35.45-.41 0-.83 0-1.25 0zm-41.34-45.95c-.34 4.02-1.01 20.31 9.11 31.73 7.26 8.2 18.5 12.26 33.45 12 24.98-.39 35.4-12.34 39.75-22.29 4.68-10.72 3.44-21.85 2.33-23.56-4.12-.47-52.17.98-84.64 2.12z" fill="#4c312c"/><path d="m1826.26 537.27c-.3 0-.6-.12-.82-.36l-33.54-36.91c-.41-.45-.38-1.15.08-1.56.45-.41 1.15-.38 1.56.07l33.54 36.9c.41.45.38 1.15-.08 1.56-.21.2-.48.3-.74.3z" fill="#4c312c"/><path d="m1721.94 385.6c-.17 0-.34-.04-.5-.12-.15-.08-15.09-7.64-24.76-9.14-10.23-1.58-21.21-13.55-21.67-14.06-.41-.45-.38-1.15.08-1.56.45-.41 1.15-.38 1.56.07.11.12 10.92 11.9 20.37 13.36 10.02 1.55 24.8 9.04 25.42 9.35.54.28.76.94.48 1.49-.19.39-.58.61-.98.61z" fill="#912d14"/><path d="m1716.27 389.96c-.12 0-.24-.02-.36-.06l-5.19-1.76c-.58-.2-.89-.82-.69-1.4s.83-.89 1.4-.69l5.19 1.76c.58.2.89.82.69 1.4-.15.46-.58.75-1.04.75z" fill="#912d14"/><path d="m1923.02 315.02c-.59 0-1.09-.47-1.11-1.07-.02-.5-1.59-50.02.9-69.25 2.48-19.08 3.37-49.36 3.38-49.67.02-.61.59-1.04 1.14-1.07.61.02 1.09.53 1.07 1.14-.01.3-.91 30.7-3.4 49.89-2.47 19.05-.9 68.39-.88 68.89.02.61-.46 1.12-1.07 1.14 0 0-.02 0-.03 0z" fill="#912d14"/><path d="m1822.67 204.6c-.2 0-.4-.05-.58-.17l-44.52-27.65c-.52-.32-.68-1-.36-1.52s1.01-.68 1.52-.36l44.52 27.65c.52.32.68 1 .36 1.52-.21.35-.57.53-.94.53z" fill="#912d14"/><path d="m1829.17 204.6c-.38 0-.75-.2-.95-.55-.31-.53-.13-1.2.4-1.51l41.07-23.92c.52-.3 1.2-.13 1.51.4s.13 1.2-.4 1.51l-41.07 23.92c-.17.1-.37.15-.56.15z" fill="#912d14"/><path d="m1827.38 269.04c-.6 0-1.09-.48-1.11-1.08l-1.59-62.29c-.02-.61.47-1.12 1.08-1.13h.03c.6 0 1.09.48 1.11 1.08l1.59 62.29c.02.61-.47 1.12-1.08 1.13-.01 0-.03 0-.03 0z" fill="#912d14"/><path d="m1832.02 218.76c-.58 0-1.07-.45-1.1-1.04l-.5-8.58c-.04-.61.43-1.13 1.04-1.17.6-.03 1.13.43 1.17 1.04l.5 8.58c.04.61-.43 1.13-1.04 1.17-.02 0-.05 0-.07 0z" fill="#912d14"/><path d="m1833.28 259.87c-.58 0-1.07-.45-1.1-1.04l-.5-8.58c-.04-.61.43-1.13 1.04-1.17.62-.04 1.13.43 1.17 1.04l.5 8.58c.04.61-.43 1.13-1.04 1.17-.03 0-.05 0-.07 0z" fill="#912d14"/><path d="m1825.38 156.99c-.81 0-12.75-.28-27.03-16.1-14.41-15.97-16.54-60.32-16.63-62.2l2.21-.1c.02.45 2.18 45.44 16.06 60.82 13.74 15.23 25.16 15.37 25.39 15.37l.02 2.21s-.01 0-.02 0z" fill="#5a403a"/><path d="m1824.64 156.99c-.01 0-.02 0-.03 0l.02-2.21c.14 0 11.67-.16 25.4-15.37 13.87-15.38 16.04-60.37 16.06-60.82l2.21.1c-.08 1.88-2.21 46.23-16.62 62.2-14.29 15.82-26.23 16.1-27.04 16.1z" fill="#5a403a"/><path d="m1851.86 131.5c-.17-.38-.46-.69-.91-.87-1.13-.44-1.9-.42-2.95.3-1.72 1.18-3.25 2.76-5.09 3.92-1.49.94-2.95 1.48-4.48 2.28-1.68.87-3.46-.26-5.03-.84-.71-.26-1.49-.4-2.23-.58-.31-.08-.87-.1-1.13-.28-.61-.42-.57-1.59-.78-2.25-.26-.86-.61-1.77-1.21-2.46-1.21-1.38-3.04-1.45-4.4-.28-1.55 1.34-.46 5.09-1.95 5.69-1.5.6-4.2 2.34-5.64 2.4-1.6.07-4.66-1.84-6.19-2.48-2.79-1.18-5.31-3.19-8.06-4.51-1.26-.6-2.72-1.5-4.19-1.59-1.39-.09-2.39 1.04-1.99 2.42.15.5.43.96.68 1.41.77 1.38 1.13 2.85 1.73 4.29.55 1.31 1.33 2.54 2.27 3.61 2.5 2.84 5.33 5.67 8.67 7.59 2.43 1.39 5.01 2.29 7.58 3.31 4.85 1.93 9.15 3.31 14.35 1.64 4.71-1.52 8.62-4.74 12.33-7.9 1.78-1.52 3.58-3.05 5.09-4.85.79-.94 1.58-1.97 2.05-3.12.68-1.63 2.23-5.13 1.48-6.85z" fill="#ebdacc"/><path d="m1762.25 77.23s20.33 6.15 61.64 6.24c39.3.09 60.3-7.17 60.3-7.17s-8.55-8.37-55.32-10.07c-46.77-1.71-66.62 11-66.62 11z" fill="#bb6e54"/><path d="m1793.82 64.83c.14 0-23 4.03-28.72 7.29-5.71 3.25-2.86 5.11-2.86 5.11l43.04-7.93s-11.6-4.47-11.46-4.47z" fill="#bb6e54"/><path d="m1852.61 63.9c-.15 0 23 4.03 28.72 7.28 5.71 3.26 2.86 5.12 2.86 5.12l-43.04-7.93s11.6-4.47 11.46-4.47z" fill="#bb6e54"/><path d="m1778.33 70.1c2.94-7.13 5.95-14.23 9.06-21.29 2.77-6.29 5.83-13.05 11.27-17.5 9.28-7.58 27.97-7.38 39.04-5.23 19.98 3.88 25.54 28.74 31.05 45.52 0 0-44.23 2.24-45.58 2.46-1.34.23-44.84-3.96-44.84-3.96z" fill="#bb6e54"/><path d="m1779.29 67.79s17.99 4.31 45.46 4.49 42.3-5.44 42.3-5.44l-3.04-7.61s-12.17 5.21-39.26 5.21-42.03-4.84-42.03-4.84z" fill="#974f3a"/><path d="m1820.5 167.88c-.53 0-1.06-.09-1.56-.27-1.64-.6-2.63-2.1-2.7-4.12-.16-4.61 6.83-7.99 7.62-8.36.38-.18.83-.12 1.14.13.06-.05.12-.08.19-.12.39-.19.85-.14 1.18.13l9.57 7.73c.48.38.55 1.08.16 1.56-.38.48-1.08.55-1.56.17l-7.81-6.31c-.13 2.36-.59 5.88-2.11 7.57-1.06 1.21-2.62 1.89-4.12 1.89zm4.08-10.63c-1.84.91-6.21 3.61-6.12 6.17.04 1.12.46 1.83 1.24 2.11 1.03.36 2.44-.06 3.29-1.01 1.1-1.23 1.53-4.74 1.59-7.27z" fill="#5a403a"/><path d="m1815.63 122.48c.52-.87 17.93-.87 19.27-.27s-1.12 7.07-9.9 7.01c-7.88-.06-9.89-5.87-9.37-6.74z" fill="#fff"/><path d="m1840.04 122.93c-1.63-1.86-4.96-2.69-7.27-3.17-2.26-.46-4.61-1.36-6.9-.56-.23.08-.47.18-.72.16-.19-.02-.36-.1-.53-.17-2.2-.9-4.43.12-6.6.57-2.31.47-5.63 1.3-7.27 3.17-.57.65-.54 1.72.28 2.18 2.16 1.2 4.46.32 6.69-.2 2.68-.62 5.4-1.57 7.69-3.14.02-.01 1.43.87 1.54.93.64.34 1.3.64 1.97.91 1.35.55 2.74.97 4.15 1.3 2.23.52 4.53 1.41 6.69.2.82-.46.85-1.53.28-2.18z" fill="#ebdacc"/><path d="m1976.66 374.29c-.21 0-.43-.06-.62-.19-.51-.34-.64-1.03-.3-1.54.09-.13 8.72-12.96 11.76-20.37 3.12-7.58 14.65-27.87 15.14-28.73.3-.53.97-.72 1.51-.41.53.3.72.98.41 1.51-.12.21-11.95 21.02-15.02 28.47-3.13 7.62-11.62 20.24-11.98 20.77-.2.31-.55.49-.9.49z" fill="#912d14"/><path d="m1985.93 375.09c-.2 0-.4-.05-.58-.16-.52-.32-.68-1-.36-1.52l3.73-6.07c.32-.52 1-.68 1.52-.36s.68 1 .36 1.52l-3.73 6.07c-.21.33-.57.52-.94.52z" fill="#912d14"/><path d="m1663.24 437.24c3.35-2.96 33.41 3.32 35.23 9.22.73 2.36-3.8 12.22-4.53 16.6s-5.83 14.78-1.65 21.67c2 3.31 8.14 28.92-16.07 24.41-24.2-4.5-21.32-9.89-20.15-25.8 1.18-15.9 3.82-43.14 7.17-46.1z" fill="#f3be5e"/><path d="m1803.95 830.07c-.24 1.42-.49 2.35-.73 2.68-5.49 7.39-75.62 7.94-80.24 4.62-1.13-.8-2.01-2.19-2.54-3.94 11.06.13 37.9.4 51.75-.07 11.4-.37 24.17-2.11 31.76-3.29z" fill="#f6dece"/><path d="m1951.89 833.7c-.53 1.62-1.39 2.92-2.46 3.67-4.65 3.32-74.78 2.77-80.27-4.62-.29-.4-.64-1.61-1.04-3.5 7.94 1.22 26.35 3.81 40.66 4.36 14.83.58 35.19.25 43.11.09z" fill="#f6dece"/><path d="m2047.6 353.59s5.67-4.62 12.05-5.63c6.39-1 22.35.64 23.61 6.87 1.25 6.24-12.32 8.29-17.9 8.81s-7.83.8-7.83.8z" fill="#f3be5e"/><path d="m855.84 764.11-2.49 34.92-14.01 12.53-8.64-9.47-1.39-34.29z" fill="#704a3b"/><path d="m821.55 780.03s2.06 10.26 5.43 11.47c7.18 2.57 25.32 2.65 31.79-.87 2.88-1.57 4.67-16.31 4.67-16.31z" fill="#95b2ce"/><g clip-path="url(#c)"><path d="m859.91 831.15c-.11 3.5-.54 6.42-1.44 8.04-1.29 2.29-61.07 2.74-62.02 2.06-.67-.46-1.39-3.31-1.5-6.45-.07-1.5.03-3.08.33-4.47.93-4.28 6.31-7.49 10.59-9.6 4.28-2.1 18.98-16.42 18.98-16.42 1.64-2.64 2.04-7.36 8.12-7.66s7.89 2.03 9.28 2.45c1.37.39 10.6-3.8 12.97-2.58 2.4 1.23 2.95 5.25 3.1 8.83.1 2.64 1.93 16.31 1.59 25.8z" fill="#ede2d6"/></g><g clip-path="url(#c)"><path d="m859.91 831.15c-.11 3.5-.54 6.42-1.44 8.04-1.29 2.29-61.07 2.74-62.02 2.06-.67-.46-1.39-3.31-1.5-6.45z" fill="#e0cebe"/></g><g clip-path="url(#c)"><path d="m819.16 824.13c-2.58 0-10.78-2.76-14.35-4.01-.58-.2-.88-.83-.68-1.41.2-.57.83-.89 1.41-.68 5.69 1.99 12.51 4.03 13.61 3.89 1.87-.63 15.49-11.48 18.47-14.61-2.19-.91-8.26-2.71-13.78-4.19-.59-.16-.94-.76-.78-1.35s.77-.93 1.35-.78c14.95 4 15.5 5 15.74 5.42l.27.49-.26.7c-.99 2.15-18.3 16.02-20.57 16.49-.12.03-.26.04-.43.04z" fill="#e0cebe"/></g><path d="m751.03 764.71-2.49 34.93-14.01 12.52-8.64-9.46-1.39-34.3z" fill="#704a3b"/><path d="m716.74 780.64s2.06 10.26 5.43 11.47c7.18 2.57 25.32 2.65 31.79-.87 2.88-1.57 4.67-16.31 4.67-16.31z" fill="#95b2ce"/><path d="m784.1 469.32s7.32 141.38 14.77 201.05c6.18 49.53 9.86 91.22 20.26 108.66 4.43 7.42 36.71 15.64 47.22-7.28s10.19-209.42 8.57-244.71-5.9-96.1-5.9-96.1-63.37-6.46-69.11-2.21-26.59 11.4-26.29 17.11c.3 5.73 10.48 23.48 10.48 23.48z" fill="#afc7de"/><path d="m703.73 440.1s-1.79 72.47-2.1 115.06-.12 208.52 12.33 225.6c8.01 10.99 40.69 9.27 47.6-1.65 13.29-21.01 23.26-220 23.11-246.55s9.76-92.98 9.76-92.98z" fill="#afc7de"/><g clip-path="url(#d)"><path d="m755.1 831.76c-.11 3.5-.54 6.42-1.44 8.04-1.29 2.29-61.07 2.74-62.02 2.06-.67-.46-1.39-3.31-1.5-6.45-.08-1.5.03-3.08.33-4.47.93-4.28 6.31-7.49 10.59-9.6 4.28-2.1 18.98-16.42 18.98-16.42 1.64-2.64 2.04-7.36 8.12-7.66s7.89 2.03 9.28 2.45c1.37.39 10.6-3.8 12.97-2.58 2.4 1.23 2.95 5.25 3.1 8.83.1 2.64 1.93 16.3 1.59 25.8z" fill="#ede2d6"/></g><g clip-path="url(#d)"><path d="m755.1 831.76c-.11 3.5-.54 6.42-1.44 8.04-1.29 2.29-61.07 2.74-62.02 2.06-.67-.46-1.39-3.31-1.5-6.45z" fill="#e0cebe"/></g><g clip-path="url(#d)"><path d="m714.36 824.74c-2.58 0-10.78-2.76-14.35-4.01-.58-.2-.88-.83-.68-1.41s.83-.89 1.41-.68c5.7 1.99 12.59 4.1 13.61 3.89 1.86-.63 15.49-11.47 18.47-14.6-2.19-.91-8.26-2.71-13.78-4.19-.59-.16-.94-.76-.78-1.35s.77-.94 1.35-.78c14.95 4 15.5 5 15.74 5.42l.27.49-.26.7c-.99 2.15-18.29 16.02-20.57 16.49-.12.02-.27.03-.43.03z" fill="#e0cebe"/></g><path d="m867.42 474.14c-.21 0-.41-.06-.6-.18-.34-.22-8.47-5.46-13.77-10.42-5.33-4.99-8.82-10.73-8.96-10.97-.32-.52-.15-1.2.38-1.52.51-.31 1.2-.15 1.52.38.03.06 3.48 5.72 8.58 10.5 5.15 4.82 13.37 10.12 13.45 10.17.51.33.66 1.01.33 1.53-.21.33-.56.51-.93.51z" fill="#9eb5cc"/><path d="m784.31 497.16c-.37 0-.74-.19-.94-.53l-16.19-26.63c-.32-.52-.15-1.2.37-1.52s1.2-.15 1.52.37l16.19 26.63c.32.52.15 1.2-.37 1.52-.18.11-.38.16-.58.16z" fill="#9eb5cc"/><path d="m707.28 470.22c-.24 0-.48-.08-.69-.24-.48-.38-.56-1.07-.18-1.55l4.39-5.56c4.27-5.4 7.24-11.55 7.27-11.61.27-.55.93-.78 1.48-.52s.78.92.52 1.48c-.13.26-3.11 6.44-7.53 12.03l-4.39 5.56c-.22.27-.55.41-.87.41z" fill="#9eb5cc"/><path d="m780.41 106.31c.13-2.71-1.1-6.34-3.74-7.61-.46-3.73-2.17-7.39-5.36-9.61-.82-.57-1.62-.99-2.4-1.28-.84-.95-1.72-1.86-2.69-2.72-.65-.58-1.81-.52-2.47 0-.14.11-.26.23-.4.34-5.5 1.26-10.22 5.4-11.36 10-.32 1.28-.22 1.83-.98 2.67-.98 1.08-3.22 1.83-4.46 2.79-1.65 1.28-3.18 2.82-4.05 4.58-2.2 4.4-1.2 9.11 2.51 12.78.03.03.07.06.1.09-.86 2.02-1.22 3.81.14 6.23 1.72 3.06 4.67 5.65 8.84 6.28 5.54.84 9.05-1.38 11.65-4.5 1.26.06 2.49-.04 3.54-.33.18-.05.36-.11.55-.17 9.65-1.65 12.42-12.34 10.58-19.54z" fill="#3e200d"/><path d="m771.66 58.93c-5.31 1.65-14.51 5.22-14.99 11.89-.29 3.92 1.97 7.41 2.81 11.07.63 2.74.43 3.28 1.93 5.65 1.45 2.3 3.26 5.18 2.87 8.09-.08.59.86.8 1.11.3.67-1.31.72-2.97.48-4.52.51-.22.94-.7 1.05-1.27.37-.46.5-1.13.14-1.65.01-.48 0-.97-.03-1.48.18-1.27.17-2.87 0-4.52 1.57-2.35 1.36-6.94 1.63-9.35.11-1.01-.76-1.52-1.61-1.49.04-.85.07-1.69.09-2.55 2.28-1.33 4.22-3.36 4.21-5.33.86-.71 1.61-1.49 2.17-2.43.72-1.2-.47-2.84-1.86-2.41z" fill="#3e200d"/><path d="m832.13 82.19c-.76-2.26-1.86-4.08-2.39-6.44-.44-1.98-.74-3.86-1.77-5.65-1.43-2.5-4.4-5.06-7.32-6.43-.85-.75-1.74-1.47-2.7-2.19-1.14-.85-2.68.31-2.69 1.54-.05 3.8 3.54 6.74 6.36 9.78.12 3.79.86 7.59 1.36 11.33.57 4.22-.02 6.72-1.62 10.56-.05.13-.05.25-.07.37-.45.65-.91 1.31-1.36 2.02-.69 1.06.2 2.71 1.5 2.61 2.97-.21 6.2-3.42 8.1-5.54 2.92-3.23 3.99-7.82 2.6-11.96z" fill="#3e200d"/><path d="m822.41 156.31-38.68 42.47-32.11-41.25s14.56-13.01 16.04-17.74c.31-.97-.44-31.97-.44-31.97l37.1 5.6s-.04 9.09.04 17.04v.49c.02 3.32.11 6.39.2 8.5 0 .04 0 .09.02.13.02.38.09.75.18 1.15 1.81 7.26 17.65 15.58 17.65 15.58z" fill="#704a3b"/><path d="m817.47 119.43c-4.26 6.27-12.16 13.25-18.36 12.29-6.68-1.05-26.39-9.88-31-17.95-4.6-8.09.6-48.2.6-48.2s28.34-11.54 28.91-12.2c.57-.64 27.27 18.1 27.27 18.1s-.1 4.06-.45 9.87c-.07 1.1-.14 2.25-.22 3.46-.9 12.05-2.78 28.76-6.75 34.63z" fill="#704a3b"/><path d="m819.53 91.81c.27-.64.33-1.3.06-1.75-.69-1.12-2-.16-2.54.45-.49.54-1.16 1.74-.84 2.46.41.93 1.53.91 2.22.34.47-.38.87-.95 1.1-1.5z" fill="#3e200d"/><path d="m786.38 87.95c.19-.67.18-1.33-.14-1.74-.81-1.04-2 .07-2.48.74-.42.6-.96 1.86-.56 2.54.51.87 1.62.73 2.25.09.42-.44.76-1.05.93-1.63z" fill="#3e200d"/><path d="m768.08 85.82s-4.35-2.6-6.09 5.38 6.3 12.55 6.3 12.55 1.14-11.83 1.19-12.31c.04-.48-1.4-5.62-1.4-5.62z" fill="#704a3b"/><path d="m776.33 59.4c-.14-.44-.7-.82-1.11-.41-.17.17-.3.38-.44.59-.04-.05-.06-.1-.1-.14-.35-.41-.9-.52-1.39-.32-4.24 1.73-6.02 6.91-6.38 11.06-.26 2.98-2.75 9.82-1.74 13.23-.06.15-.09.32-.03.48 2.53 6.47 7.29-3.35 7.93-5.41.95-3.04 1.62-6.32 2.13-9.45.46-2.77 1.98-6.92 1.13-9.63z" fill="#3e200d"/><path d="m805.27 107.78c-.28 0-.56-.1-.77-.31-.44-.43-.45-1.13-.02-1.56 1.54-1.58 3-3.41 3.13-3.91.07-.81-1.24-6.24-2.52-10.77-.16-.59.18-1.2.77-1.36s1.2.18 1.36.77c1.34 4.76 2.86 10.69 2.52 11.94-.37 1.39-2.92 4.09-3.69 4.88-.2.21-.49.32-.78.32z" fill="#4f2d21"/><path d="m792.82 79.49c-.1-1.16-1.91-1.75-2.79-1.99-1.48-.41-3.05-.41-4.57-.31-1.85.12-5.01.13-5.97 2.08-.22.44 0 1.09.47 1.27 1.01.39 2.12.01 3.17.03 1.99.04 4 .03 5.99.13.92.05 3.63.34 3.7-1.06 0-.05 0-.1 0-.15z" fill="#3e200d"/><path d="m813.72 82.27c.28-1.13 2.16-1.42 3.08-1.52 1.53-.16 3.08.09 4.56.43 1.81.42 4.92.94 5.55 3.01.14.47-.17 1.08-.67 1.18-1.06.22-2.09-.33-3.14-.48-1.97-.29-3.95-.61-5.93-.83-.92-.1-3.64-.24-3.48-1.64.01-.05.02-.1.03-.15z" fill="#3e200d"/><path d="m805.75 115.47c-.98 0-2.51-.11-4.8-.53-4.33-.79-7.82-3.39-7.97-3.5-.49-.37-.59-1.06-.22-1.55.36-.48 1.06-.59 1.55-.22.03.02 3.24 2.4 7.04 3.09 3.98.72 5.31.43 5.32.43.6-.13 1.18.21 1.34.79.15.58-.16 1.17-.74 1.34-.13.04-.57.15-1.52.15z" fill="#4f2d21"/><path d="m804.58 139.56c-.84-.07-1.81-.15-2.92-.24-4.69-.42-9.54-1.53-14.03-3.81-4.51-2.28-5.95-8.43-3.81-8.56 2.15-.15 8.56 3.45 13.32 4.34 4.42.82 6.9-.2 7.21-.35.02 3.32.11 6.39.2 8.5 0 .04 0 .08.03.12z" fill="#4f2d21"/><path d="m797.93 56.28c-.68.36-1.39.78-2.1 1.22-.44-.44-1.1-.64-1.8-.23-1.14.66-2.3 1.33-3.48 1.97.26-.74.4-1.47.37-2.19-.02-.49-.45-.83-.89-.84-.06-.79-.6-1.54-1.54-1.47-3.5.25-7.69 2.53-10.82 4.05-.78.38-1.97.86-3.03 1.49-.32-.04-.65.02-.95.24-6.04 4.34-7.9 13.95-5.57 20.79.15.45.53.72.93.83.05.11.14.2.27.24.03.01.06.02.1.03.17.05.37 0 .49-.13 1.45-1.5 2.46-3.33 3.91-4.84 2.67-2.78 5.69-5.23 8.39-8 .37-.37.79-.79 1.24-1.23 1.78-.44 3.51-1.01 4.89-1.48 4.16-1.4 8.22-5.17 11.46-8.02 1.38-1.2-.37-3.21-1.87-2.43z" fill="#3e200d"/><path d="m830.88 61.89c0 .49-.13 2.08-.31 4-.38 3.98-.93 9.38-.93 9.38s-17.61-9.93-36.81-7.94c-13.89 1.46-33.34 14.56-33.34 14.56s-2.54-2.88-5.18-6.73c-2.65-3.89-5.4-8.76-5.75-12.72-.69-7.88 7.54-17.46 12.3-23.36 6.28-7.79 21.46-11.66 39.45-11.68 10.2 0 26.97 14.4 28.74 17.9 1.74 3.49 1.83 15.11 1.83 16.59z" fill="#afc7de"/><path d="m830.57 65.89c-.38 3.98-.93 9.38-.93 9.38s-17.61-9.93-36.81-7.94c-13.89 1.46-33.34 14.56-33.34 14.56s-2.54-2.88-5.18-6.73c3.72-3.87 12.88-12.32 23.85-14.85 14.38-3.32 27.72-2.85 38.19 0 5.37 1.47 10.5 3.72 14.22 5.58z" fill="#95b2ce"/><path d="m754.31 151.63c4.51.47 25.91 40.79 28.89 39.13 2.97-1.66 33.26-40.1 36.37-40.1s42.66 18.81 44.32 22.95c1.66 4.15 5.52 32.59 4.15 65.45-1.25 29.92 5.6 149.21 6.33 159.9.74 10.69 4.57 40.11.23 45.75s-71.55 8.87-94.78 9.88c-23.23 1-75.73-6.76-79.96-12.43-3.6-4.82 3.73-185.76 5.94-200.51s-2.58-60.1 3.32-67.85c5.88-7.75 40.68-22.65 45.19-22.17z" fill="#95b2ce"/><path d="m781.78 202.49c-8.73 0-32.42-41.69-35.1-46.45-.3-.53-.11-1.21.42-1.51s1.21-.11 1.51.42c9.86 17.54 27.56 45.32 33.15 45.32h.02c5.65-.08 28.35-27.24 41.33-44.34.37-.49 1.07-.58 1.55-.21.49.37.58 1.06.21 1.55-3.5 4.62-34.48 45.1-43.07 45.21 0 .01-.01.01-.02.01z" fill="#7c9cbd"/><path d="m684.46 307.89 4.97-68.6 36.51-4.01-1.57 52.9z" fill="#704a3b"/><path d="m715.29 169.16s-10.86 3.15-21.41 28.06c-7.6 17.95-20.36 40.37-19.64 45.24 2.19 14.68 57.99 21.31 57.99 21.31l-3.26-85.45z" fill="#95b2ce"/><path d="m839.59 205.25c-.1-1.88-.31-3.74-.64-5.55-.27-1.46-1.39-4.51-2.43-4.42-1.26.11-3.4 2.83-4.42 4.08-.67.88-1.53 1.93-1.98 3.07-3.05-2.16-6.65-3.1-10.36-2.63-.66-2.05-1.3-3.27-2.8-5.39-1.28-1.81-3.78-3.94-4.59-2.88-1.13 1.47-2.08 3.36-3.2 6.39-.35.96-.63 2.37-.59 3.34-2.23 1.48-4.4 3.76-5.58 5.66-1.37 2.23-1.78 4.88-1.9 7.45-.17 3.68 1.64 6.44 4.13 9.01 2.86 2.94 5.9 6.07 9.53 8.05 4.85 2.65 11.92 4.28 16.43.37.23.5.94.8 1.49.52 3.52-1.77 4.48-6.56 5.4-10.06 1.45-5.51 1.82-11.33 1.51-17.01z" fill="#fff"/><path d="m835.82 229.09s-4.77 20.45-20.91 34.9c-16.13 14.44-21.9 18.34-43.39 20.91-15.51 1.86-25.97-1.89-29.59-13.91-.84-2.79-3.52-14.25 4.05-20.26 20.4-16.19 18.76-16.91 35.78-21.79 9.96-2.86 22.1-6.24 22.1-6.24s12.55-5.57 12.94-4.57c.38.99 19.02 10.96 19.02 10.96z" fill="#fff"/><path d="m767.09 246.42c.02-1.77-.29-3.14-.9-4.28.14-.75-.23-1.61-.98-1.82 2.36-5.23-7.47-7.42-11.21-6.77-4.18.73-8.77 4.02-12.01 6.66-1.96 1.6-4.52 3.63-5.94 6.03-.56-2.88-2.51-5.79-3.84-8.08-1.26-2.16-4.2-8.26-7.66-6.65-3.17 1.47-1.84 6.1-1 8.48 1.24 3.49 2.75 7.19 4.44 10.6.36.88.73 1.73 1 2.46 1.01 2.79 2.04 6.64 4.25 8.73.15.14.32.2.48.22.54.52 1.31.79 2.45.64.91-.13 2.03-.78 3.09-1.1 1.19-.36 2.73-.4 3.37-1.65.03-.06.03-.14.05-.21 2.27-1.19 4.52-2.61 6.79-3.53.1.7.64 1.39 1.46 1.42 1.92.05 3.62-.5 5.22-1.35 2.46.53 5.57-2.62 7.11-4.04.85-.78 2-1.7 2.51-2.85.45-.46.85-.94 1.14-1.45.22-.39.23-.79.13-1.16.01-.1.05-.18.05-.3z" fill="#fff"/><path d="m806.68 226.67c.19-.49.18-1.06-.11-1.45-.24-.33-.53-.59-.82-.87.27-.23.39-.59.12-.94-3.18-4.05-8.62-5.49-11.92-9.41-3.28-3.89-3.16-9.51-3.37-14.37-.14-3.11 1.12-7.27-.79-10.11-2.27-3.37-8.26-2.99-8.92 1.45-.36 2.45.23 5.25 1.56 7.51-4.97 10.79-2.5 22.42 4.11 31.78.84 1.19 3.28 6.02 5.46 5.11.15-.06.25-.17.38-.26.17.14.33.33.51.45.62.44 1.46.16 1.92-.39.79.85 1.68 1.58 2.73 1.89 1.4.42 2.2-1.16 1.68-2.27-.05-.12-.12-.23-.18-.35.51.42 1.04.81 1.65 1.11.82.42 2.05-.34 1.66-1.33-.53-1.36-1.32-2.52-2.25-3.56.01-.17.01-.35-.04-.53-.17-.65-.41-1.27-.7-1.89.51-.03.98-.24 1.29-.61 1.46 1.23 2.99 2.29 4.59 2.81 1.02.33 2.25-.63 2.15-1.7-.05-.69-.32-1.38-.71-2.07z" fill="#fff"/><path d="m743.13 268.05s-10 5.64-19.46-.25-19.8-21.06-27.14-25.74c-7.34-4.69-18.88-7.19-20.74-2.24-1.86 4.94 13.26 7.86 18.73 12.61s16.95 19.34 24.26 23.89c7.31 4.54 20.96 4.21 24.5 3.62s8.8-3.13 8.8-3.13z" fill="#fff"/><path d="m766.42 248.65c-.08 0-.15-.01-.23-.02-.6-.12-.98-.71-.86-1.31 0-.01.31-1.66-.1-4.74-.4-2.98-1.22-4.27-1.22-4.28-.33-.51-.19-1.19.31-1.53.51-.33 1.18-.21 1.53.29.11.17 1.12 1.72 1.59 5.23.47 3.5.09 5.4.07 5.48-.12.52-.58.88-1.09.88z" fill="#ede2d6"/><path d="m788.29 233.17c-.33 0-.67-.15-.88-.44l-2.09-2.78c-.37-.49-.27-1.18.22-1.55s1.18-.27 1.55.22l2.09 2.78c.37.49.27 1.18-.22 1.55-.2.14-.44.22-.67.22z" fill="#ede2d6"/><path d="m783.04 191.59c-.46 0-.89-.29-1.05-.76l-.22-.65c-.19-.58.12-1.21.7-1.4s1.21.12 1.4.7l.22.65c.19.58-.12 1.21-.7 1.4-.12.04-.24.06-.35.06z" fill="#ede2d6"/><path d="m787.67 191.26c-.04 0-.08 0-.13-.01-.61-.07-1.04-.62-.97-1.22l.08-.72c.07-.61.63-1.05 1.22-.97.61.07 1.04.62.97 1.22l-.08.72c-.06.56-.54.98-1.09.98z" fill="#ede2d6"/><path d="m806.28 209.03c-.22 0-.45-.07-.64-.2l-6.99-4.95c-.5-.35-.62-1.04-.26-1.54.35-.5 1.05-.61 1.54-.26l6.99 4.95c.5.35.62 1.04.26 1.54-.21.29-.55.46-.9.46z" fill="#fff"/><path d="m804.31 214.69c-.04 0-.08 0-.11-.01l-8.53-.85c-.61-.06-1.05-.6-.99-1.21s.6-1.05 1.21-.99l8.53.85c.61.06 1.05.6.99 1.21-.06.58-.54 1-1.1 1z" fill="#fff"/><path d="m803.27 211.87c-.15 0-.3-.03-.45-.09l-7-3.09c-.56-.25-.81-.9-.57-1.46.25-.56.9-.81 1.46-.57l7 3.09c.56.25.81.9.57 1.46-.18.41-.59.66-1.01.66z" fill="#fff"/><path d="m730.02 306.17s-15.97-18.91-27.31-17.96c-11.35.95-23.93 11.02-9.77 21.87s27.84 12.09 27.84 12.09z" fill="#704a3b"/><path d="m720.88 304.63s77.14-21.8 96.16-19.58c12.43 1.45 25.98 13.23 12.05 27.99s-112.01 9.78-112.01 9.78l-5.24-9.27z" fill="#704a3b"/><path d="m786.32 272.44s9.5-22.85 20.6-25.38 26.15 3.27 15.93 17.89c-10.22 14.63-25.54 21.23-25.54 21.23z" fill="#704a3b"/><path d="m789.06 269.64s-78.94 13.93-95.09 24.21c-10.56 6.72-16.05 23.66 2.91 30.89s100.44-38.56 100.44-38.56l3.78-12.45z" fill="#704a3b"/><path d="m803.9 285.66 24.51-37.04 30.56 18.83-26.03 40.44-23.83-12.82z" fill="#704a3b"/><path d="m860.84 170.85s21.69 11.05 22.92 40.06c.82 19.48-2.52 53.28-4.34 60.67-1.97 7.98-54-9.62-54.54-19.93-.34-6.55 33.39-67.12 34.73-71.06 1.33-3.94 1.23-9.74 1.23-9.74z" fill="#95b2ce"/><path d="m727.57 230.39c-.06 0-.11 0-.17-.01-.6-.09-1.02-.65-.93-1.26.04-.25 3.63-24.83-1.58-39.31-5.19-14.44-8.64-18.71-8.67-18.75-.39-.47-.33-1.17.14-1.56s1.16-.33 1.55.14c.15.18 3.69 4.49 9.06 19.42 5.4 15.01 1.84 39.36 1.68 40.39-.07.55-.54.94-1.08.94z" fill="#7c9cbd"/><path d="m846.48 195.91c-.11 0-.22-.02-.33-.05-.58-.18-.91-.8-.72-1.39.02-.08 2.45-7.77 4.63-13.12 3.08-7.57 6.45-10.2 6.59-10.31.49-.37 1.18-.28 1.55.21.37.48.28 1.18-.2 1.55-.03.02-3.07 2.45-5.89 9.39-2.14 5.26-4.54 12.87-4.57 12.95-.16.47-.59.77-1.06.77z" fill="#7c9cbd"/><path d="m853.42 449.53s7.75-28.64 9.96-27.95 5.59 25.44 5.59 25.44l-4.71 6.31z" fill="#afc7de"/><path d="m752.76 70.46c-.13 0-.25-.02-.38-.07-.57-.21-.87-.84-.66-1.42.13-.37 3.38-9.06 14.02-14.04 10.49-4.91 17.77-4.41 18.07-4.39.61.05 1.06.58 1.02 1.19-.05.61-.62 1.06-1.18 1.02-.08-.01-7.06-.45-16.97 4.19-9.81 4.59-12.84 12.71-12.87 12.79-.17.45-.6.73-1.05.73z" fill="#9eb5cc"/><path d="m705.2 289.41c-.49 0-.94-.33-1.07-.83-.15-.59.21-1.19.79-1.35l17.35-4.46c.59-.15 1.19.21 1.35.8.15.59-.21 1.19-.79 1.35l-17.35 4.46c-.1.02-.19.03-.28.03z" fill="#4f2d21"/><path d="m723.58 321.87c-.45 0-.86-.27-1.03-.71-.22-.57.06-1.21.64-1.43.17-.06 16.67-6.41 27.99-11.39 11.31-4.97 42.82-20.87 43.13-21.03.54-.28 1.21-.06 1.49.49.27.54.06 1.21-.49 1.49-.32.16-31.87 16.08-43.24 21.07-11.36 5-27.92 11.36-28.08 11.43-.15.06-.28.08-.41.08z" fill="#4f2d21"/><path d="m809.59 279.95c-.33 0-.66-.15-.88-.44-.37-.49-.27-1.18.21-1.55.08-.06 8.54-6.49 12.66-11.06 3.88-4.3 3.56-10.05 3.56-10.11-.04-.61.42-1.14 1.03-1.18.54-.01 1.13.42 1.18 1.03.02.27.38 6.75-4.12 11.74-4.27 4.72-12.62 11.07-12.97 11.34-.2.15-.43.23-.67.23z" fill="#4f2d21"/><path d="m759.2 221.34-23.69-1.08c-1.21-.06-2.14-1.08-2.09-2.29l.5-10.98c.05-1.21 1.08-2.14 2.29-2.09l23.69 1.08c1.21.05 2.14 1.08 2.09 2.29l-.5 10.98c-.06 1.21-1.09 2.15-2.29 2.09z" fill="#f8decb"/><path d="m757.57 211.58c-.01 0-.02 0-.03 0l-19.91-.63c-.61-.02-1.09-.53-1.07-1.14s.53-1.07 1.14-1.07l19.91.63c.61.02 1.09.53 1.07 1.14-.02.6-.51 1.07-1.11 1.07z" fill="#66574e"/><path d="m751.61 216.74c-.01 0-.02 0-.03 0l-14.13-.44c-.61-.02-1.09-.53-1.07-1.14s.59-1.12 1.14-1.07l14.13.44c.61.02 1.09.53 1.07 1.14-.02.59-.51 1.07-1.11 1.07z" fill="#66574e"/></svg>