<svg enable-background="new 0 0 2110.45 855.86" viewBox="0 0 2110.45 855.86" xmlns="http://www.w3.org/2000/svg" xmlns:xlink="http://www.w3.org/1999/xlink"><clipPath id="a"><path d="m2053.61 304.85s-37.24 84.05-35.21 87 17.19 30.16 23.62 31.85c6.43 1.7 18.6-14.52 22.66-19.32 4.06-4.79 41.3-59.73 44.99-79.28 3.69-19.54-6.61-37.61-6.61-37.61s-23.63 0-24.74 0-24.71 17.36-24.71 17.36z"/></clipPath><clipPath id="b"><path d="m1856.8 168.65s-19.45 7.49-27.43 46.17c-3.3 15.99-8.8 72.07-10.57 104.38-.58 10.54-11.14 125.75-11.14 125.75 4.24 6.88 36.55 6.96 44.13 5.23s32.28-155.11 32.28-155.11z"/></clipPath><clipPath id="c"><path d="m157.62 790.02s-.22 43.27-3.19 57.88c-.51 2.5-1.08 4.16-1.77 4.62-6.64 4.42-65 3.32-70.53 2.21-3.01-.6-4.45-2.74-4.89-5.64-.38-2.46-.02-5.44.73-8.47 1.68-6.64 40.11-21.55 40.11-22.94s.82-30.42.82-30.42z"/></clipPath><path d="m1824.93 449.44s-1.96 13.37-1.5 21.12.32 17.25 7.02 19.44 16.88 1.13 18.42.09 5.89-6.3 3.4-10.21c-3.16-4.98-14.05-2.89-14.26-4.54-.22-1.65 8.26-7.22 8.94-12.61.69-5.39-2.21-12.54-2.21-12.54l-6.36-12.27z" fill="#eb9a7d"/><path d="m1838.78 469.93c.91-.12 5.99 3.12 9.31 7.14 3.32 4.03 10.53 10.8 7.48-2.47-1.89-8.25-10.83-24.42-10.83-24.42s-5.86 6.35-6.7 7.02c-.84.66.74 12.73.74 12.73z" fill="#eb9a7d"/><path d="m1981.71 778.82 2.12 38.82 16.4 7.88 8.23-9.83-.09-34.32z" fill="#eb9a7d"/><path d="m1992.12 812.48c1.38-.41 4.42-3.5 10.51-3.23 6.08.28 10.05 9.17 11.71 11.8 0 0 14.06 18.85 15.02 23.14s-.03 10.42-1.11 10.92c-2.67 1.24-44.51.99-45.8-1.29-3.4-5.98-.94-30.66-.8-34.25s9.09-6.67 10.47-7.09z" fill="#3e200d"/><path d="m1920.01 778.31-2.7 34.91-14.08 12.44-8.59-9.51-1.18-34.31z" fill="#eb9a7d"/><path d="m1919.68 810.73c-2.37-1.24-11.61 2.9-13 2.49-1.38-.41-3.18-2.77-9.26-2.49s-6.5 4.98-8.16 7.61c0 0-14.8 14.24-19.08 16.32s-9.68 5.25-10.65 9.54.14 10.23 1.11 10.92 60.75.57 62.04-1.71c3.4-5.98.18-30.24.05-33.83-.14-3.6-.67-7.61-3.05-8.85z" fill="#3e200d"/><path d="m1905.81 36.29s-9.82-14.52-9.83-16.17c-.01-2.03 18.83-16.17 48.68-16.17 30.73 0 46.09 12.17 47.19 14.2 1.11 2.03-8.64 16.96-8.64 16.96s-30.45 0-31.55 0-45.85 1.18-45.85 1.18z" fill="#f3e9e3"/><path d="m1984.92 153.18-40.93 25.73-37.88-25.15s16.04-13.27 17.43-18.81c.29-1.15.44-3.14.51-5.58.11-4.54-.09-10.6-.29-15.53-.24-4.96-.51-8.76-.51-8.76l43.42-2.59s1.21 21.85 2.03 30.14c.85 8.3 16.22 20.55 16.22 20.55z" fill="#eb9a7d"/><path d="m1975.32 96.42c-.4 2.1-.89 3.96-1.44 5.51v.02c-.42 1.15-.88 2.1-1.39 2.85-2.48 3.61-7.46 9.27-12.72 13.98-2.32 2.08-4.69 3.96-6.9 5.38-2.72 1.75-5.22 2.83-7.19 2.77-3.5-.13-8.19-2.88-12.9-6.66-1.66-1.31-3.3-2.77-4.89-4.27-.02 0-.02-.02-.04-.04-3.92-3.65-7.5-7.68-9.98-11.02-1.26-1.7-2.26-4.93-3.05-8.98-3.16-16.26-2.9-46.02-2.9-46.02s30.66-13.25 31.22-14.09c.55-.82 33.96 14.47 33.96 14.47s1.34 29.88-1.78 46.1z" fill="#eb9a7d"/><path d="m1946.21 133.13c-6.73 1.04-18.52-2.59-22.15-3.76.11-4.54-.4-17.55-.4-17.55s15.86 11.93 21.58 12.06c6.36.14 8.17-1.94 10.09-.83 1.96 1.1-1.09 8.84-9.12 10.08z" fill="#e17f5d"/><path d="m1964.71 69.37c-.2-.77-.61-1.42-1.17-1.63-1.41-.54-1.93 1.25-2 2.19-.07.84.15 2.39.95 2.83 1.02.56 2.03-.24 2.26-1.24.16-.67.14-1.47-.04-2.15z" fill="#3e200d"/><path d="m1927.1 70.27c-.2-.77-.61-1.42-1.17-1.63-1.41-.54-1.93 1.25-2 2.19-.07.84.15 2.39.95 2.83 1.02.56 2.03-.24 2.26-1.24.16-.67.14-1.47-.04-2.15z" fill="#3e200d"/><path d="m1945.52 93.06c-.16 0-.33-.04-.49-.11-1.08-.53-6.45-3.34-6.35-6.53.09-2.73 3.77-13.35 4.19-14.55.2-.58.84-.88 1.41-.68.58.2.88.83.68 1.41-1.6 4.59-4.01 12.08-4.07 13.89-.04 1.26 2.94 3.41 5.12 4.48.55.27.77.93.5 1.48-.19.38-.58.61-.99.61z" fill="#e17f5d"/><path d="m1936.74 97.65c.52-.87 17.93-.87 19.27-.27s-1.12 7.07-9.9 7.01c-7.88-.06-9.89-5.87-9.37-6.74z" fill="#fff"/><path d="m1975.81 72.53s5.25-2.49 6.36 6.82-8.57 13.64-8.57 13.64 0-13.64 0-14.2c-.01-.55 2.21-6.26 2.21-6.26z" fill="#eb9a7d"/><path d="m1913.67 72.53s-5.25-2.49-6.36 6.82 8.57 13.64 8.57 13.64 0-13.64 0-14.2c0-.55-2.21-6.26-2.21-6.26z" fill="#eb9a7d"/><path d="m1917.78 45.06c-.09-.72-.45-1.38-1.2-1.58-1.89-.5-5.75-.04-7.32 1.22-2.01 1.61-2 5.28-2.07 7.61-.07 2.38.66 4.63.83 6.98.2 2.69-.12 5.25.85 7.85.78 2.11 2.07 5.72 4.71 5.97.37.03.85-.24 1-.57 1.43-3.11 1.38-6.86 1.41-10.2.01-1.84.07-3.68.12-5.51.62-3.9 2.11-8.09 1.67-11.77z" fill="#8b4233"/><path d="m1974.55 44.77c-.32.26-.49.74-.49 1.18-.08.06-.18.1-.24.19-.31.47-.45.85-.55 1.4-.3 1.64.12 3.27.17 4.9.06 1.76-.01 3.5.15 5.26.29 3.13.82 6.25.81 9.4 0 1.86.12 5.4 2.64 5.65.51.05 1.01-.32 1.27-.73 1.72-2.73 2.46-6.21 2.94-9.33.6-3.92 1.99-8.39 1.83-12.37-.15-3.96-4.67-8.77-8.53-5.55z" fill="#8b4233"/><path d="m2036.82 164.86s8.96 1.51 21.12 19.21c11.56 16.82 48.4 106.25 49.64 114.24 4.72 30.63-37.85 38.04-50.11 28.54-6.15-4.76-34.55-45.27-34.55-45.27l.33-106.84z" fill="#54322a"/><path d="m1871.7 335.7s155.87-4.05 156.56.11 4.65 92.29 5.35 122.82c.69 30.53-8.58 336.71-9.5 339.94s-13.08 5.58-23.78 6.71c-18.62 1.96-26.58-2-30.05-4.77-3.47-2.78-16.48-216.53-17.6-227.92-3.51-35.53-11.14-114.65-12.53-125.06s-55.51-75.63-55.51-77.71c-.01-2.1-12.94-34.12-12.94-34.12z" fill="#54322a"/><path d="m1859.46 328.98s2.48 67.66 2.68 130.53c.2 61.69 9.16 336.12 14.1 340.26 4.95 4.14 13.83 5.32 23.55 5.82 9.73.5 23.98.1 27.33-5.64s23.51-342.03 23.51-342.03.16-57.36-2.07-64.39c-2.21-7.03-89.1-64.55-89.1-64.55z" fill="#54322a"/><path d="m2089.12 307.67c10.64 6.23 13.46 20.35 6 30.16-4.52 5.94-9.72 25.69-14.85 31.28-13.9 15.14-46.83 48.46-46.83 48.46l-15.93-14.2s25.38-59.91 37.71-79.44c2.39-3.79 4.52-7.07 6.41-9.91 6.03-9.07 18.09-11.86 27.49-6.35z" fill="#eb9a7d"/><path d="m2018.41 402.7s-15.46 8.4-22.79 18.95c-6.04 8.7-3.63 21.13-.09 23.93 3.54 2.79 13.19 1.41 22.67-6.82s15.58-22.11 15.58-22.11 4.29-15.91 3.07-16.11c-1.21-.21-18.44 2.16-18.44 2.16z" fill="#eb9a7d"/><path d="m1904.52 46.56 1.28-10.27s26.57-2.36 39.71-2.24 37.69 1.06 37.69 1.06l.7 10.74s-44.79 2.17-45.9 2.72c-1.09.54-33.48-2.01-33.48-2.01z" fill="#54322a"/><path d="m1902.56 52.66c2.31 1.39 15.54 3.81 44.24 3.65 28.7-.15 39.7-3.65 41.08-4.58 1.39-.93-.82-3.14-3.96-5.89-3.61-3.16-72.87-4.72-79.39.71-4.29 3.58-4.29 4.72-1.97 6.11z" fill="#694840"/><path d="m1932.29 59.59c-3.89-1.58-10.28-.44-13.84 1.61-2.54 1.47-.31 4.99 2.25 3.85 3.34-1.48 7.45-1.15 10.99-1.07 2.71.06 2.79-3.5.6-4.39z" fill="#8b4233"/><path d="m1956.48 59.59c3.89-1.58 10.28-.44 13.84 1.61 2.54 1.47.31 4.99-2.25 3.85-3.34-1.48-7.45-1.15-10.99-1.07-2.71.06-2.78-3.5-.6-4.39z" fill="#8b4233"/><path d="m1944.32 92.67c-1.56-.19-3.35.01-4.42.18-1.98.32-3.61 1-5.29 2.12-.62.42-4.05 2.55-3.58 3.61.34.78 5.48.13 7.11-.08 1.64-.21 3.26-.31 4.89-.52 1.5-.19 3.61-.08 4.14-1.78.75-2.4-.86-3.29-2.85-3.53z" fill="#8b4233"/><path d="m1947.69 92.67c1.56-.19 3.35.01 4.42.18 1.98.32 3.61 1 5.29 2.12.62.42 4.05 2.55 3.58 3.61-.34.78-5.48.13-7.11-.08-1.64-.21-3.26-.31-4.89-.52-1.5-.19-3.61-.08-4.14-1.78-.75-2.4.86-3.29 2.85-3.53z" fill="#8b4233"/><path d="m1975.39 95.42c-1.04 2.19-1.83 4.36-2.85 6.51-4.02 4.42-8.38 8.51-13.05 12.23-4.08 3.25-8.49 7.78-14.04 7.88-4.97.09-9.15-3.55-13.19-6.03-4.39-2.7-8.61-5.68-11.85-9.73-2.32-2.88-3.94-6.68-5.2-10.22-.07-.2-.29-.24-.4-.11.8 4.27 1.79 7.68 3.05 9.47 2.48 3.52 6.06 7.77 10.02 11.66 1.59 1.13 3.23 2.17 4.89 3.19 2.1 1.31 4.25 2.57 6.42 3.89 4.6 2.81 9.27 2.06 13.67 0 2.21-1.42 4.58-3.3 6.9-5.38 5.27-4.71 10.24-10.38 12.72-13.98.51-.75.97-1.7 1.39-2.88.55-1.55 1.04-3.41 1.44-5.51.05-.3.08-.64.08-.99z" fill="#8b4233"/><path d="m1954.51 34.04c0 4.99-4.72 9.03-10.55 9.03s-10.55-4.04-10.55-9.03 4.72-9.03 10.55-9.03 10.55 4.04 10.55 9.03z" fill="#54322a"/><path d="m1950.57 34.04c0 3.13-2.96 5.66-6.62 5.66-3.65 0-6.62-2.54-6.62-5.66 0-3.13 2.96-5.66 6.62-5.66 3.66-.01 6.62 2.53 6.62 5.66z" fill="#f8bb53"/><path d="m1943.92 36.05c-1.57 0-5.15-2.26-7.95-4.21l1.26-1.81c2.58 1.8 5.86 3.76 6.63 3.82.63-.16 3.94-2.42 6.59-4.42l1.33 1.77c-1.83 1.38-6.25 4.61-7.66 4.84-.05 0-.12.01-.2.01z" fill="#3e200d"/><path d="m1951.21 22.38c-.37 0-.75 0-1.13 0-22.88-.09-50.9-.73-51.18-.74-.61-.01-1.09-.52-1.08-1.13s.48-1.11 1.13-1.08c.28.01 28.28.65 51.14.74 22.78.07 39.1-2.63 39.27-2.66.6-.09 1.17.3 1.28.91.1.6-.3 1.17-.91 1.28-.16.02-16.14 2.68-38.52 2.68z" fill="#dfd5c9"/><path d="m1853.02 417.57s83.7 6.18 88.12 0 3.22-41.21 4.37-38.26c1.16 2.95 2.09 35.96 7.15 38.26 5.07 2.3 57.2-21.04 61.84-26.37s32.74-14.69 24.31-36.15c-8.44-21.46-14.7-32.16-14.7-32.16l-66.74-17.7s-69.78 9.54-73.29 10.32-15.2-.74-18.15 4.42-20.05 25.07-18.87 31.71c1.17 6.66 5.96 65.93 5.96 65.93z" fill="#54322a"/><path d="m1997.38 416s2.21 5.71 12.35 13.46 15.86 11.06 15.86 11.06-21.76 18.25-23.23 18.44c-1.48.18-11.61 0-14.2-3.5-2.58-3.5-8.67-22.31-7.93-25.63s17.15-13.83 17.15-13.83z" fill="#54322a"/><path d="m1913.86 141.48s2.03-8.02 6.54-8.85c4.52-.83 20.64 10.49 25.39 10.49s23.79-11.22 27.06-10.12c3.27 1.11 5.07 9.4 5.07 9.4s-7.83 6.64-8.2 7.19-22.4 6.64-25.86 6.82-11.94 4.06-17.47 0c-5.52-4.05-12.53-14.93-12.53-14.93z" fill="#f3e9e3"/><path d="m1913.86 141.48s14.01 8.85 32.45 9.22 31.43-8.52 31.43-8.52 59.34 21.51 64.13 25.19c4.79 3.69-5.96 98-9.65 121.6s-4.42 49.41-4.42 54.2-157.45 4.79-157.45 4.79-4.06-56.42-5.53-70.43-14.38-96.24-12.91-103.98c1.48-7.73 61.95-32.07 61.95-32.07z" fill="#54322a"/><path d="m1977.73 142.17s-6.9 31.22-10.77 47.06c-1.75 7.15-6.24 20.31-10.73 32.59-5.44 14.96-10.84 28.63-11.13 28.63-.44 0-4.98-7.57-10.84-25.04-1.06-3.12-2.15-6.57-3.27-10.35-7.41-24.89-17.12-73.56-17.12-73.56s38.72 2.21 41.11 1.84c2.4-.38 22.75-1.17 22.75-1.17z" fill="#f3e9e3"/><g clip-path="url(#a)"><path d="m2053.61 304.85s-37.24 84.05-35.21 87 17.19 30.16 23.62 31.85c6.43 1.7 18.6-14.52 22.66-19.32 4.06-4.79 41.3-59.73 44.99-79.28 3.69-19.54-6.61-37.61-6.61-37.61s-23.63 0-24.74 0-24.71 17.36-24.71 17.36z" fill="#54322a"/></g><g clip-path="url(#a)" fill="#f8bb53"><path d="m2072.56 413.51c-.07-.13-7.36-13.42-21.37-29.38-9.88-11.26-17.25-18.43-21.21-22.28-2.33-2.27-2.89-2.82-3.16-3.33l2.92-1.57c.15.18 1.32 1.32 2.55 2.52 3.99 3.88 11.43 11.12 21.39 22.47 14.27 16.26 21.72 29.85 21.79 29.99z"/><path d="m2067.18 419.01c-.07-.13-7.36-13.42-21.37-29.38-9.88-11.26-17.25-18.43-21.21-22.28-2.33-2.27-2.89-2.82-3.16-3.33l2.92-1.57c.15.18 1.32 1.32 2.55 2.52 3.99 3.88 11.43 11.11 21.39 22.47 14.27 16.26 21.72 29.85 21.79 29.99z"/><path d="m2061.79 424.5c-.07-.13-7.36-13.42-21.37-29.38-9.88-11.26-17.25-18.43-21.21-22.28-2.33-2.27-2.89-2.82-3.16-3.33l2.92-1.57c.15.18 1.32 1.32 2.55 2.52 3.99 3.88 11.43 11.11 21.39 22.47 14.27 16.26 21.72 29.85 21.79 29.99z"/></g><g clip-path="url(#b)"><path d="m1856.8 168.65s-19.45 7.49-27.43 46.17c-3.3 15.99-8.8 72.07-10.57 104.38-.58 10.54-11.14 125.75-11.14 125.75 4.24 6.88 36.55 6.96 44.13 5.23s32.28-155.11 32.28-155.11z" fill="#54322a"/></g><g clip-path="url(#b)" fill="#f8bb53"><path d="m1871.35 436.6c-.23-.02-1.86-.02-3.59-.01-5.57.02-15.94.06-31.01-1.07-21.58-1.62-36.41-6.11-36.55-6.15l.97-3.17c.14.04 14.65 4.43 35.83 6.02 14.93 1.12 25.21 1.07 30.74 1.06 3.25-.01 4.04-.01 4.59.16z"/><path d="m1871.35 428.91c-.23-.02-1.86-.02-3.59-.01-5.57.02-15.94.06-31.01-1.07-21.58-1.62-36.41-6.11-36.55-6.15l.97-3.17c.14.04 14.65 4.43 35.83 6.02 14.93 1.12 25.22 1.08 30.74 1.06 3.25-.02 4.04-.01 4.59.16z"/><path d="m1871.35 421.21c-.23-.02-1.86-.02-3.59-.01-5.57.02-15.94.06-31.01-1.07-21.58-1.62-36.41-6.11-36.55-6.15l.97-3.17c.14.04 14.65 4.43 35.83 6.02 14.93 1.12 25.22 1.08 30.74 1.06 3.25-.01 4.04-.01 4.59.16z"/></g><path d="m1949.99 160.43h-8.95c-2.01 0-3.55-1.78-3.26-3.77l1.24-8.43c.24-1.61 1.62-2.81 3.26-2.81h6.46c1.63 0 3.02 1.2 3.26 2.81l1.24 8.43c.3 1.98-1.24 3.77-3.25 3.77z" fill="#526071"/><path d="m1956.23 221.81c-5.44 14.96-10.84 28.63-11.13 28.63-.44 0-4.98-7.57-10.84-25.04.42-16.75 1.06-40.49 1.46-46.57.44-7.06 3.92-14.76 5.77-18.41.69-1.37 1.15-2.17 1.15-2.17h6.04s.4.82 1 2.17c1.73 3.78 5.13 11.73 5.66 16.64.47 4.11.73 27.12.89 44.75z" fill="#526071"/><path d="m1929.67 161.55c-4.53 0-12.37-12.57-14.74-16.53-.31-.52-.14-1.2.38-1.52.53-.31 1.2-.14 1.52.38 4.64 7.78 10.88 15.87 12.84 15.45 2.33-.48 5.51-7.14 7.03-11.71.19-.58.82-.89 1.4-.7s.89.82.7 1.4c-.68 2.04-4.27 12.27-8.68 13.18-.14.04-.29.05-.45.05z" fill="#dfd5c9"/><path d="m1961.37 161.55c-.16 0-.31-.02-.45-.05-4.41-.91-8.01-11.14-8.68-13.18-.19-.58.12-1.21.7-1.4s1.21.12 1.4.7c1.51 4.57 4.7 11.23 7.03 11.71 1.95.41 8.2-7.67 12.84-15.45.31-.53.99-.7 1.52-.38.53.31.7.99.38 1.52-2.37 3.96-10.21 16.53-14.74 16.53z" fill="#dfd5c9"/><path d="m1954.34 259.11c0 2.04-1.65 3.69-3.69 3.69s-3.69-1.65-3.69-3.69 1.65-3.69 3.69-3.69 3.69 1.65 3.69 3.69z" fill="#f8bb53"/><circle cx="1953.27" cy="333.93" fill="#f8bb53" r="3.69"/><path d="m2000.3 233.57c0 2.04-1.65 3.69-3.69 3.69s-3.69-1.65-3.69-3.69 1.65-3.69 3.69-3.69 3.69 1.66 3.69 3.69z" fill="#f8bb53"/><path d="m1996.62 232.1s3.25-5.44 8.5-5.81 10.69.46 10.97 1.11-10.79 5.72-14.84 6.18c-4.06.46-3.41.46-3.41.46z" fill="#f8bb53"/><path d="m1996.62 232.1s-3.25-5.44-8.5-5.81-10.69.46-10.97 1.11 10.79 5.72 14.84 6.18c4.06.46 3.41.46 3.41.46z" fill="#f8bb53"/><g fill="#694840"><path d="m1864.19 407.15c-.02 0-.05 0-.07 0-.61-.04-1.07-.56-1.04-1.17.06-1.07 6.52-107.14 5.8-116.18-.73-9.09-13.54-114.12-13.67-115.18-.07-.61.36-1.16.96-1.23.61-.08 1.16.36 1.23.96.13 1.06 12.95 106.14 13.68 115.27.74 9.19-5.53 112.11-5.79 116.49-.04.59-.52 1.04-1.1 1.04z"/><path d="m2032.22 290.08c-.03 0-.06 0-.09 0-.61-.05-1.06-.59-1.01-1.19l9.79-116.15c.05-.61.61-1.06 1.19-1.01.61.05 1.06.59 1.01 1.19l-9.79 116.15c-.04.57-.53 1.01-1.1 1.01z"/><path d="m1904.15 186.93c-2.27 0-3.9-.42-4.39-1.47-1.34-2.86-.32-29.96-.1-35.36.02-.61.52-1.11 1.15-1.06.61.02 1.09.54 1.06 1.15-.62 15.33-.86 32.58-.1 34.34 1.03.85 9.25-.32 17.88-2.63.6-.16 1.2.19 1.35.78.16.59-.19 1.2-.78 1.35-5.54 1.49-11.9 2.9-16.07 2.9z"/><path d="m1943.75 254.13c-.31 0-.61-.13-.83-.37-9.45-10.67-40.3-45.75-40.49-49.35-.19-3.58 3.33-15.76 3.73-17.14.17-.59.78-.93 1.37-.75.59.17.92.79.75 1.37-1.06 3.64-3.79 13.69-3.64 16.41.72 2.93 24.88 31.01 39.94 48 .4.46.36 1.16-.09 1.56-.22.18-.48.27-.74.27z"/><path d="m1986.41 186.93c-4.17 0-10.53-1.41-16.08-2.9-.59-.16-.94-.76-.78-1.35s.77-.94 1.35-.78c8.64 2.31 16.86 3.48 17.94 2.55.71-1.67.46-18.92-.16-34.25-.02-.61.45-1.12 1.06-1.15.61-.05 1.12.45 1.15 1.06.22 5.4 1.23 32.49-.1 35.36-.48 1.04-2.11 1.46-4.38 1.46z"/><path d="m1946.82 254.13c-.26 0-.52-.09-.73-.28-.46-.41-.5-1.1-.09-1.56 15.06-16.99 39.22-45.07 39.95-48.07.13-2.65-2.59-12.7-3.65-16.34-.17-.59.17-1.2.75-1.37.59-.18 1.2.17 1.37.75.4 1.38 3.92 13.56 3.73 17.14-.19 3.6-31.04 38.69-40.49 49.35-.23.25-.54.38-.84.38z"/><path d="m1938.14 424.84c-8.46 0-53.21-7.73-73.14-11.25-.6-.11-1-.68-.9-1.28.11-.6.68-1.01 1.28-.9 27.75 4.9 70.15 11.96 73.18 11.26 1.57-1.18 4.92-16.65 7.16-33.73 1.39-10.56.39-77.02-.01-91.46-.36-13.11-1.56-41.73-1.57-42.02-.03-.61.45-1.13 1.06-1.15.62-.01 1.13.45 1.15 1.06.01.29 1.21 28.92 1.57 42.05.3 10.8 1.49 80.4-.01 91.8-.74 5.59-4.6 33.6-8.5 35.47-.19.11-.63.15-1.27.15z"/><path d="m1961.98 422.05c-1.99 0-3.48-.27-4.22-.88-4.05-3.39-8.75-25.98-9.27-28.54-.12-.6.26-1.18.86-1.3s1.18.26 1.3.86c1.91 9.39 5.92 25.11 8.52 27.29 3.12 2.61 36.26-6.24 40.34-9 6.76-4.56 17.12-14.31 17.23-14.41.44-.42 1.15-.4 1.56.05.42.44.4 1.14-.05 1.56-.43.41-10.6 9.97-17.51 14.63-3.3 2.24-28.17 9.74-38.76 9.74z"/><path d="m1908.3 366.76c-3.37 0-14.72-2.22-19.8-3.24-18.77-3.8-19.2-4.63-19.45-5.13-.18-.36-.74-1.46 2.24-15.53.12-.59.7-.97 1.29-.86 39.67 7.71 40.45 9.27 40.74 9.86.93 1.85-.48 8.82-1.85 11.97-.73 1.68-1.5 2.59-2.42 2.86-.16.04-.41.07-.75.07zm-37.23-9.57c4.25 1.67 34.95 7.77 37.41 7.37 1.4-.67 3.37-9.46 2.92-11.54-2.7-1.39-24.19-5.91-38.16-8.64-1.13 5.41-2.14 11.14-2.17 12.81zm.01.35h.02z"/><path d="m1987.02 363.84c-.34 0-.59-.02-.76-.07-.92-.27-1.69-1.18-2.42-2.86-1.37-3.15-2.78-10.12-1.85-11.97.29-.59 1.07-2.15 40.74-9.86.59-.12 1.17.27 1.29.86 2.98 14.07 2.43 15.17 2.24 15.53-.25.5-.68 1.33-19.45 5.13-5.07 1.03-16.43 3.24-19.79 3.24zm-3.11-13.73c-.45 2.04 1.53 10.87 2.98 11.55 2.39.4 33.34-5.75 37.4-7.4-.03-1.38-1.07-7.25-2.22-12.79-13.97 2.73-35.47 7.25-38.16 8.64z"/><path d="m2050.2 316.26c-.28 0-.57-.11-.78-.32-.43-.43-.43-1.13 0-1.56.23-.23 5.77-5.72 12.8-8.67 7.05-2.96 15.72-2.73 16.09-2.71.61.02 1.09.53 1.07 1.14s-.51 1.16-1.14 1.07c-.09 0-8.56-.23-15.16 2.54-6.64 2.79-12.04 8.14-12.09 8.2-.23.2-.51.31-.79.31z"/><path d="m2049.37 311.56c-.27 0-.53-.1-.75-.29-.45-.41-.48-1.11-.07-1.56l15.02-16.45c.41-.45 1.11-.49 1.56-.07.45.41.48 1.11.07 1.56l-15.02 16.45c-.21.24-.51.36-.81.36z"/><path d="m1866.38 442.55c-.22 0-.44-.06-.64-.2-.5-.35-.62-1.04-.27-1.54l14.37-20.45c.35-.5 1.04-.62 1.54-.27s.62 1.04.27 1.54l-14.37 20.45c-.2.31-.55.47-.9.47z"/><path d="m2029.18 444.44c-.22 0-.44-.07-.64-.2l-7.72-5.43c-.5-.35-.62-1.04-.27-1.54s1.04-.62 1.54-.27l7.72 5.43c.5.35.62 1.04.27 1.54-.21.31-.55.47-.9.47z"/><path d="m1943.69 504.13c-.17 0-.34-.04-.5-.12l-37.32-18.81c-.55-.27-.76-.94-.49-1.49s.94-.77 1.49-.49l37.32 18.81c.55.27.76.94.49 1.49-.2.39-.59.61-.99.61z"/><path d="m1861.04 851.11c-.6 0-1.09-.48-1.11-1.08-.01-.61.47-1.12 1.08-1.13l57.38-1.24c.63-.02 1.12.47 1.13 1.08s-.47 1.12-1.08 1.13l-57.38 1.24s-.01 0-.02 0z"/><path d="m1881.58 836.72c-4.16 0-6.58-1.44-6.74-1.54-.52-.32-.68-1-.36-1.52s1-.68 1.52-.36c.24.14 6.15 3.57 15.9-1.72 9.98-5.41 13.74-16.78 13.78-16.9.19-.58.81-.9 1.39-.71s.9.81.71 1.39c-.16.5-4.05 12.32-14.83 18.16-4.55 2.47-8.4 3.2-11.37 3.2z"/><path d="m2027.15 850.55h-.01l-43.14-.55c-.61-.01-1.1-.51-1.09-1.12s.5-1.09 1.11-1.09h.01l43.14.55c.61.01 1.1.51 1.09 1.12s-.5 1.09-1.11 1.09z"/><path d="m2012.88 836.56c-2.05 0-4.41-.53-7.06-1.58-11.85-4.71-15.97-19.07-16.14-19.67-.16-.59.18-1.2.77-1.36.6-.17 1.2.18 1.36.77.04.14 4.01 13.91 14.83 18.21 3.98 1.58 7.22 1.84 9.38.75 1.93-.97 2.4-2.69 2.42-2.76.16-.59.76-.94 1.34-.8.59.15.95.74.8 1.33-.03.11-.7 2.72-3.51 4.17-1.21.63-2.61.94-4.19.94z"/></g><g clip-path="url(#c)"><path d="m157.62 790.02s-.22 43.27-3.19 57.88c-.51 2.5-1.08 4.16-1.77 4.62-6.64 4.42-65 3.32-70.53 2.21-3.01-.6-4.45-2.74-4.89-5.64-.38-2.46-.02-5.44.73-8.47 1.68-6.64 40.11-21.55 40.11-22.94s.82-30.42.82-30.42z" fill="#69403c"/></g><g clip-path="url(#c)"><path d="m154.44 847.89c-.51 2.5-1.08 4.16-1.77 4.62-6.64 4.42-65 3.32-70.53 2.21-3.01-.6-4.45-2.74-4.89-5.64z" fill="#472925"/></g><g clip-path="url(#c)"><path d="m126.8 803.01c-.03 0-.06 0-.09 0l-16.32-1.24c-.61-.05-1.07-.58-1.02-1.19s.56-1.06 1.19-1.02l16.32 1.24c.61.05 1.07.58 1.02 1.19-.04.58-.53 1.02-1.1 1.02z" fill="#472925"/></g><g clip-path="url(#c)"><path d="m126.38 812.97c-.01 0-.03 0-.04 0l-15.49-.55c-.61-.02-1.09-.53-1.07-1.15.02-.61.56-1.1 1.15-1.07l15.49.55c.61.02 1.09.53 1.07 1.15-.02.6-.51 1.07-1.11 1.07z" fill="#472925"/></g><path d="m284.1 848.62c-.73 3.14-1.99 6.02-3.52 6.33-1.39.27-4.34.55-8.1.73h-.15c-11.11.49-29 .13-33.94-3.16-.69-.46-1.26-2.12-1.77-4.62-2.96-14.6-3.19-57.88-3.19-57.88l38.72-2.77s.82 29.03.82 30.42 10.09 16.53 11.77 23.16c.38 1.49.12 4.76-.64 7.79z" fill="#69403c"/><path d="m284.1 848.62c-.73 3.14-1.99 6.02-3.52 6.33-1.39.27-4.34.55-8.1.73h-.15c-15.51-.18-30.73-1.02-33.94-3.16-.69-.46-1.26-2.12-1.77-4.62z" fill="#472925"/><path d="m251.02 803.64c-.59 0-1.08-.47-1.1-1.06-.02-.61.45-1.12 1.06-1.15l15.9-.62c.63-.04 1.13.45 1.15 1.06s-.45 1.12-1.06 1.15l-15.9.62c-.02 0-.04 0-.05 0z" fill="#472925"/><path d="m251.43 813.59c-.59 0-1.08-.47-1.1-1.07-.02-.61.45-1.12 1.07-1.15l15.49-.55c.62-.04 1.12.45 1.14 1.07.02.61-.45 1.12-1.07 1.15l-15.49.55c-.01 0-.02 0-.04 0z" fill="#472925"/><path d="m62.22 328.18s-8.11 24.71-11.43 44.99-8.11 65.63-8.11 65.63l19.54 3.32s21.39-47.2 29.13-68.95c7.74-21.76 9.22-29.87 9.22-29.87z" fill="#a16955"/><path d="m231.74 159.57-40.93 25.73-37.88-25.15s16.04-13.27 17.43-18.81c.29-1.15.44-3.14.51-5.58.11-4.54-.09-10.6-.29-15.53-.24-4.96-.51-8.76-.51-8.76l43.42-2.59s1.21 21.85 2.03 30.14c.84 8.3 16.22 20.55 16.22 20.55z" fill="#a16955"/><path d="m158.74 56.33s-.41 46.41 5.95 54.99c6.36 8.57 20.05 21.71 27.79 21.99 7.21.26 21.91-14.96 26.83-22.12 6.64-9.68 4.61-54.48 4.61-54.48s-33.37-19.08-33.92-18.25c-.56.82-31.26 17.87-31.26 17.87z" fill="#a16955"/><path d="m193.02 139.52c-6.73 1.04-18.52-2.59-22.15-3.76.11-4.54-.4-17.55-.4-17.55s15.86 11.93 21.58 12.06c6.36.14 8.17-1.94 10.09-.83 1.96 1.1-1.09 8.84-9.12 10.08z" fill="#573124"/><path d="m212.75 75.76c-.2-.77-.61-1.42-1.17-1.63-1.41-.54-1.93 1.25-2 2.19-.07.84.15 2.39.95 2.83 1.02.56 2.03-.24 2.26-1.24.17-.68.14-1.48-.04-2.15z" fill="#3e200d"/><path d="m175.07 76.66c-.2-.77-.61-1.42-1.17-1.63-1.41-.54-1.93 1.25-2 2.19-.07.84.15 2.39.95 2.83 1.02.56 2.03-.24 2.26-1.24.17-.68.14-1.48-.04-2.15z" fill="#3e200d"/><path d="m193.22 99.26c-.31 0-.63-.13-.85-.39-.39-.47-.33-1.16.13-1.56.79-.67 2.82-2.78 2.77-4.5-.07-2.03-2.75-10.06-3.78-12.98-.2-.58.1-1.21.68-1.41s1.21.1 1.41.68c.39 1.11 3.81 10.9 3.9 13.64.1 3.09-3.18 5.94-3.55 6.26-.2.17-.45.26-.71.26z" fill="#573124"/><path d="m183.56 104.96c.52-.87 17.93-.87 19.27-.27s-1.12 7.07-9.9 7.01c-7.88-.06-9.89-5.87-9.37-6.74z" fill="#fff"/><path d="m222.62 78.92s5.25-2.49 6.36 6.82-8.57 13.64-8.57 13.64 0-13.64 0-14.2 2.21-6.26 2.21-6.26z" fill="#a16955"/><path d="m160.49 78.92s-5.25-2.49-6.36 6.82 8.57 13.64 8.57 13.64 0-13.64 0-14.2-2.21-6.26-2.21-6.26z" fill="#a16955"/><path d="m181.06 67.76c-1.39-1.77-6.72-1.67-8.89-1.51-4.22.3-7.26 1.98-7.85 2.42-1.02.75-.53 2.01.46 2.51 1.17.59 2.55-.1 3.72-.36 2.81-.63 4.97-.54 7.84-.33 3.91.27 6.08-1 4.72-2.73z" fill="#331812"/><path d="m202.41 67.3c1.35-1.8 6.68-1.82 8.86-1.71 4.22.21 7.3 1.81 7.9 2.24 1.04.73.58 1.99-.41 2.52-1.15.61-2.55-.04-3.72-.28-2.82-.57-4.99-.43-7.85-.16-3.9.38-6.1-.85-4.78-2.61z" fill="#331812"/><path d="m164.59 51.45c-.09-.72-.45-1.38-1.2-1.58-1.89-.5-5.75-.04-7.32 1.22-2.01 1.61-2 5.28-2.07 7.61-.07 2.38.66 4.63.83 6.98.2 2.68-.12 5.25.85 7.85.78 2.11 2.07 5.72 4.71 5.97.37.03.85-.24 1-.57 1.43-3.11 1.38-6.86 1.41-10.2.01-1.84.07-3.68.12-5.51.62-3.9 2.12-8.09 1.67-11.77z" fill="#331812"/><path d="m221.36 51.16c-.32.26-.49.74-.49 1.18-.08.06-.18.1-.24.19-.31.47-.45.85-.55 1.4-.3 1.63.12 3.27.17 4.9.06 1.76-.01 3.5.15 5.26.29 3.13.82 6.25.81 9.4 0 1.86.12 5.4 2.64 5.65.51.05 1.01-.32 1.26-.73 1.72-2.73 2.46-6.21 2.94-9.33.6-3.92 1.99-8.39 1.83-12.37-.13-3.96-4.65-8.77-8.52-5.55z" fill="#331812"/><path d="m149.37 59.04c2.31 1.39 15.54 3.81 44.24 3.65 28.7-.15 39.7-3.65 41.08-4.58 1.39-.93 1.7-5.09-1.23-5.71s-81.15-1.54-84.08 1.08c-2.29 2.05-2.32 4.18-.01 5.56z" fill="#f8bb53"/><path d="m150.45 54.26s-.58-45.14 39.96-45.45c40.78-.31 41.97 45.1 41.97 45.1z" fill="#f8bb53"/><ellipse cx="190.67" cy="15.63" fill="#f8bb53" rx="5.46" ry="10"/><ellipse cx="173.32" cy="20.52" fill="#f8bb53" rx="5.46" ry="10"/><path d="m201.86 20.52c0-5.52 2.44-10 5.46-10 3.01 0 5.46 4.48 5.46 10s-2.44 10-5.46 10-5.46-4.47-5.46-10z" fill="#f8bb53"/><path d="m190.84 56.71c-14.89 0-37.64-2.06-37.87-2.08-.61-.06-1.06-.59-1-1.2s.59-1.07 1.2-1c.24.02 24.26 2.2 39.02 2.07 14.71-.14 36.74-2.19 36.96-2.21.62-.05 1.15.39 1.21 1s-.39 1.15-1 1.21c-.22.02-22.34 2.08-37.15 2.22-.45-.02-.91-.01-1.37-.01z" fill="#f3a72b"/><path d="m171.73 35.05c-.33 0-.59-.09-.74-.16-2.74-1.24-3.25-12.04-3.31-18.38-.01-.61.49-1.11 1.1-1.12h.01c.61 0 1.1.49 1.11 1.1.06 6.81.82 14.62 1.87 16.2 2.17-2.34 3.22-12.5 3.38-18.53.02-.61.51-1.08 1.14-1.07.61.02 1.09.53 1.07 1.14-.05 1.74-.58 17.08-4.25 20.26-.51.44-.99.56-1.38.56z" fill="#f3a72b"/><path d="m190.41 43.66c-.49 0-.96-.16-1.38-.48-4.22-3.2-4.24-27.54-4.2-32.39.01-.61.5-1.1 1.11-1.1h.01c.61.01 1.1.5 1.1 1.12-.13 15.99 1.42 30.02 3.38 30.65 2.54-.74 3.78-16.29 3.35-30.34-.02-.61.46-1.12 1.07-1.14.57.01 1.12.46 1.14 1.07.22 7.23.52 30.94-4.95 32.53-.21.05-.42.08-.63.08z" fill="#f3a72b"/><path d="m208.67 35.13c-.04 0-.07 0-.11 0-4.37-.2-5.02-13.83-5.02-21.94 0-.61.49-1.11 1.11-1.11.61 0 1.11.49 1.11 1.11 0 11.03 1.56 19.67 2.91 19.73 1.8-1.78 1.94-11.09 1.52-17.16-.04-.61.42-1.14 1.03-1.18.59-.02 1.14.42 1.18 1.03.18 2.61.94 15.77-1.98 18.76-.62.62-1.28.76-1.75.76z" fill="#f3a72b"/><path d="m160.67 152.29s14.01 8.85 32.45 9.22 28.02-7.37 30.97-8.48 54.94 23.97 59.73 27.65c4.79 3.69-1.11 95.5-4.79 119.1-3.69 23.6-4.42 49.41-4.42 54.2s-157.45 4.79-157.45 4.79-4.06-56.42-5.53-70.43-14.38-96.24-12.91-103.98c1.48-7.73 61.95-32.07 61.95-32.07z" fill="#f2eae3"/><path d="m100.8 181.61s-11.29 7.93-17.19 28.58c-4.48 15.7-19.54 92.55-23.97 102.14-4.42 9.59-11.06 19.54-7.74 26.92 3.32 7.37 41.3 21.39 49.04 20.65s26.55-63.05 26.55-63.05l-18.44-109.14z" fill="#f2eae3"/><path d="m283.83 180.69s10.97 6.48 17.9 26.8c5.27 15.45 24.16 91.45 29.06 100.81 4.9 9.35 11.74 19.54 12.03 27.63 1.11 30.97-42.03 33.36-53.1 22.49-5.55-5.45-27.47-62.18-27.47-62.18l12.94-109.93z" fill="#f2eae3"/><path d="m137.44 160.04c-3.69-2.58-15.86 3.32-15.86 6.27s13.64 79.65 17.7 80.01c4.06.37 15.49-2.95 16.59-5.53 1.12-2.58-14.74-78.17-18.43-80.75z" fill="#4b6f90"/><path d="m247.93 160.04c3.69-2.58 15.86 3.32 15.86 6.27s-13.64 79.65-17.7 80.01c-4.06.37-15.49-2.95-16.59-5.53-1.11-2.58 14.75-78.17 18.43-80.75z" fill="#4b6f90"/><path d="m118.51 346.51s155.87-4.05 156.56.11 11.01 79.9 11.71 110.43-.6 315.96 1.48 324.28c2.08 8.33-10.41 13.18-24.98 15.96s-42.33-.69-45.8-3.47-16.65-197.41-19.43-208.51-9.71-116.57-11.1-126.98-55.51-75.63-55.51-77.71-12.93-34.11-12.93-34.11z" fill="#4b6f90"/><path d="m118.51 346.51s-12.07 60.63-14.25 121.05c-2.18 60.43-7.32 316.99-2.37 321.05 4.94 4.06 23.75 7.13 33.48 7.61 9.73.49 33.31-.02 36.66-5.64s25.39-324.31 25.39-324.31.19-56.22-2.04-63.11c-2.24-6.89-76.87-56.65-76.87-56.65z" fill="#4b6f90"/><path d="m118.51 346.51s4.09-88.36 7.21-90.44 130.1-4.16 136.34-2.08 13.01 92.63 13.01 92.63-71.29 22.38-72.85 22.38-83.71-22.49-83.71-22.49z" fill="#4b6f90"/><path d="m152.43 262.91c-1.67.47-3.4-.51-3.86-2.18l-5.06-18.11c-.47-1.67.51-3.4 2.18-3.86 1.67-.47 3.4.51 3.86 2.18l5.06 18.11c.46 1.67-.51 3.4-2.18 3.86z" fill="#c3b5a6"/><path d="m157.72 259.78c0-3.36-2.72-6.08-6.08-6.08s-6.08 2.72-6.08 6.08 2.72 6.08 6.08 6.08 6.08-2.72 6.08-6.08z" fill="#c3b5a6"/><path d="m247.94 398.8c-2.39 4.04-70.8 22.29-74.66 19.09s-30.12-96.96-25.94-101.46c4.18-4.49 70.9-20.41 74.66-19.09 3.77 1.32 28.33 97.42 25.94 101.46z" fill="#fff"/><path d="m192.58 304.57c0 1.22-.2 2.39-.6 3.5l-17.08 4.62c-2.28-1.97-3.72-4.87-3.72-8.12 0-.42.02-.82.07-1.22.62-5.33 5.13-9.47 10.62-9.47 3.52 0 6.64 1.68 8.54 4.29 1.37 1.8 2.17 4.01 2.17 6.4z" fill="#c3b5a6"/><path d="m208.66 303.55-16.68 4.51-17.08 4.62-14.82 4c-1.86.51-3.78-.6-4.29-2.48l-.77-2.83c-.51-1.88.6-3.81 2.48-4.29l13.76-3.74 19.16-5.18 15.66-4.25c1.86-.49 3.78.6 4.29 2.48l.77 2.85c.51 1.88-.6 3.81-2.48 4.31z" fill="#98674e"/><path d="m171.91 365.5c-.41 0-.74-.09-1.01-.36-1.61-1.61-10.47-38.75-10.46-39.07.04-.39.26-.72.65-1.01 3.21-2.35 38.61-11.27 40.68-10.83.66.13 1.04.74 1.35 1.37 1.89 3.87 10.6 37.03 9.75 38.74-.93 1.86-39.51 10.98-39.88 11.04-.42.07-.77.12-1.08.12zm-9.21-38.83c.68 4.17 8.08 32.03 9.7 36.58 4.67-.67 33.54-8.25 38.32-10.07-.72-5.18-7.79-33.39-9.66-36.76-3.9.37-34.41 8.17-38.36 10.25zm-1.15-.47h.02z" fill="#c3b5a6"/><path d="m188 397.54c-.15 0-.27-.01-.35-.03-.8-.2-2.14-.53-9.66-34.29l-.23-1.01 24.57-7.15.29 1.09c9.11 33.83 8.94 34.49 8.85 34.85l-.11.44-.52.35c-1.79 1.08-19.63 5.75-22.84 5.75zm-7.63-33.79c3.12 13.92 6.86 29.03 8.1 31.61 2.69-.24 17.46-3.96 20.72-5.23-.76-3.6-5.21-20.42-8.41-32.32z" fill="#c3b5a6"/><path d="m207.17 382.46-6.91-26.27 10.34-3.11-2.39-11.82.93-.31c7.76-2.59 12.3-3.53 13.5-2.8 2.32 1.39 10.39 36.35 10.32 36.61-.2.79-.44 1.76-24.74 7.45zm-4.22-24.77 5.82 22.12c8.36-1.97 19.68-4.85 22.02-5.89-.58-3.78-7.73-30.83-9.39-33.88-1.12-.06-6.15 1.26-10.62 2.71l2.4 11.87z" fill="#c3b5a6"/><path d="m172.98 331.36c-.12 0-.24-.02-.36-.06-.58-.2-.88-.83-.68-1.41l3.18-9.13c.2-.58.83-.88 1.41-.68s.88.83.68 1.41l-3.18 9.13c-.16.45-.59.74-1.05.74z" fill="#c3b5a6"/><path d="m205.34 326.66c-.16 0-.32-.03-.47-.1-.55-.26-.79-.92-.53-1.47l4.01-8.57c.26-.55.92-.79 1.47-.53s.79.92.53 1.47l-4.01 8.57c-.19.39-.59.63-1 .63z" fill="#c3b5a6"/><path d="m198.56 395.1c-.2 0-.41-.06-.6-.17-.51-.33-.66-1.01-.33-1.53l5.95-9.26c.33-.52 1.01-.67 1.53-.33.51.33.66 1.01.33 1.53l-5.95 9.26c-.21.32-.57.5-.93.5z" fill="#c3b5a6"/><path d="m218.57 387.08c-.48 0-.92-.31-1.06-.8-.17-.59.17-1.2.76-1.37l16.22-4.7c.59-.16 1.2.17 1.37.76s-.17 1.2-.76 1.37l-16.22 4.7c-.11.03-.21.04-.31.04z" fill="#c3b5a6"/><path d="m220.59 394.09c-.48 0-.93-.32-1.07-.81-.16-.59.18-1.2.77-1.36l16.27-4.52c.59-.16 1.2.18 1.36.77s-.18 1.2-.77 1.36l-16.27 4.52c-.09.03-.19.04-.29.04z" fill="#c3b5a6"/><path d="m233.91 262.91c1.67.47 3.4-.51 3.86-2.18l5.06-18.11c.47-1.67-.51-3.4-2.18-3.86-1.67-.47-3.4.51-3.86 2.18l-5.06 18.11c-.46 1.67.51 3.4 2.18 3.86z" fill="#c3b5a6"/><path d="m240.51 259.78c0-3.36-2.72-6.08-6.08-6.08s-6.08 2.72-6.08 6.08 2.72 6.08 6.08 6.08c3.35 0 6.08-2.72 6.08-6.08z" fill="#c3b5a6"/><path d="m42.68 438.8s-3.69 13-4.24 20.74-1.94 17.15 4.42 20.19 16.59 3.32 18.25 2.49 6.66-5.48 4.7-9.68c-2.49-5.35-13.55-4.7-13.55-6.36s9.13-6.08 10.51-11.34c1.38-5.25-.55-12.72-.55-12.72l-4.7-13z" fill="#a16955"/><path d="m60.84 497.98h-10.23v-29.73c0-2.37 1.92-4.29 4.29-4.29h1.66c2.37 0 4.29 1.92 4.29 4.29v29.73z" fill="#40200c"/><path d="m53.74 460.92c.92 0 5.53 3.87 8.3 8.3 2.77 4.42 9.03 12.08 7.74-1.48-.8-8.42-7.56-25.63-7.56-25.63s-6.64 5.53-7.56 6.08c-.92.56-.92 12.73-.92 12.73z" fill="#a16955"/><path d="m99.12 589.98h-86.79c-3.73 0-6.75-3.02-6.75-6.75v-80.53c0-3.73 3.02-6.75 6.75-6.75h86.79c3.73 0 6.75 3.02 6.75 6.75v80.52c0 3.74-3.02 6.76-6.75 6.76z" fill="#c3b5a6"/><path d="m105.36 554.21h-99.28c-3.36 0-6.08-2.72-6.08-6.08v-10.33c0-3.36 2.72-6.08 6.08-6.08h99.28c3.36 0 6.08 2.72 6.08 6.08v10.32c.01 3.37-2.71 6.09-6.08 6.09z" fill="#c3b5a6"/><path d="m106.19 543.61h-103.42c-.61 0-1.11-.49-1.11-1.11 0-.61.49-1.11 1.11-1.11h103.43c.61 0 1.11.49 1.11 1.11-.01.62-.5 1.11-1.12 1.11z" fill="#9e8a77"/><path d="m334.1 332.6c3.77 11.73-3.55 24.14-15.65 26.47-7.33 1.41-15.53 2.77-23.08 3.51-20.45 2-67.22 4.87-67.22 4.87l-2.4-21.2s50.02-17.82 72.23-24.14c4.31-1.23 8.09-2.25 11.38-3.11 10.56-2.74 21.4 3.23 24.74 13.6z" fill="#a16955"/><path d="m226.88 346.34s-17.12-4.06-29.62-1.08c-10.31 2.45-16.8 13.33-16.03 17.77s8.88 9.85 21.44 10.04c12.55.19 26.36-6.08 26.36-6.08s13.81-8.99 13.04-9.95c-.77-.97-15.19-10.7-15.19-10.7z" fill="#a16955"/><path d="m192.2 525.63c-.41 0-.8-.23-.99-.62l-26-52.54c-.27-.55-.05-1.21.5-1.48s1.21-.05 1.48.5l26 52.54c.27.55.05 1.21-.5 1.48-.16.09-.32.12-.49.12z" fill="#31577a"/><path d="m109.51 463.41c-.33 0-.67-.15-.88-.44-.37-.49-.27-1.18.21-1.55.09-.07 9.04-6.91 14.93-16.56 5.96-9.75 9.82-20.17 9.86-20.27.21-.57.85-.86 1.42-.66.57.21.87.85.66 1.42-.04.11-3.98 10.73-10.05 20.66-6.12 10.02-15.11 16.89-15.49 17.17-.19.16-.42.23-.66.23z" fill="#31577a"/><path d="m281.53 463.41c-.23 0-.47-.07-.67-.22-.38-.29-9.36-7.15-15.49-17.17-6.07-9.93-10.01-20.55-10.05-20.66-.21-.57.08-1.21.66-1.42.57-.21 1.21.08 1.42.66.04.1 3.91 10.53 9.86 20.27 5.91 9.67 14.84 16.5 14.93 16.56.49.37.58 1.06.21 1.55-.21.28-.54.43-.87.43z" fill="#31577a"/><path d="m140.9 782.75c-1.81 0-3.66-.03-5.53-.11-18.81-.74-33.84-7.78-33.99-7.85-.55-.26-.79-.92-.53-1.47s.92-.79 1.47-.52c.15.07 14.78 6.92 33.12 7.64 18.45.72 34.42-2.53 34.58-2.56.58-.12 1.18.26 1.31.86.12.6-.26 1.18-.86 1.31-.13.02-13.29 2.7-29.57 2.7z" fill="#31577a"/><path d="m244.32 782.7c-13.11 0-27.07-2.35-27.79-2.48-.6-.1-1.01-.67-.9-1.28.1-.6.67-1.01 1.28-.9.21.03 21.59 3.64 36.01 2.02 14.47-1.63 29.87-6.54 30.02-6.59.58-.18 1.2.13 1.39.72.19.58-.13 1.2-.72 1.39-.16.05-15.76 5.03-30.45 6.68-2.78.32-5.78.44-8.84.44z" fill="#31577a"/><path d="m122.51 255.45c-.54 0-1.01-.4-1.09-.95-.23-1.55-10.22-44.94-15.47-67.66-.14-.6.23-1.19.83-1.33.6-.13 1.19.23 1.33.83.62 2.69 15.22 65.89 15.5 67.85.09.6-.33 1.16-.94 1.25-.05 0-.11.01-.16.01z" fill="#e7ddd5"/><path d="m264.66 252.96c-.1 0-.2-.01-.3-.04-.59-.16-.93-.77-.77-1.36l18.81-67.48c.16-.59.77-.94 1.36-.77.59.16.93.77.77 1.36l-18.81 67.48c-.13.49-.58.81-1.06.81z" fill="#e7ddd5"/><path d="m192.47 170c-22.05 0-38.34-10.52-39.04-10.97-.51-.33-.65-1.02-.32-1.53s1.02-.65 1.53-.32c.17.11 16.93 10.86 38.65 10.61 21.82-.27 35.77-9.4 35.9-9.49.51-.34 1.19-.2 1.53.31s.2 1.19-.31 1.53c-.59.39-14.63 9.59-37.1 9.87-.27-.01-.56-.01-.84-.01z" fill="#e7ddd5"/><path d="m104.82 349.02c-2.44 0-12.12-.33-25.81-5.05-16.46-5.67-24.9-17.42-25.25-17.92s-.23-1.19.27-1.54 1.19-.23 1.54.26c.08.12 8.4 11.68 24.16 17.11 15.14 5.22 25.49 4.92 25.59 4.92.62-.04 1.12.46 1.15 1.07.02.61-.45 1.12-1.07 1.15-.05-.01-.25 0-.58 0z" fill="#e7ddd5"/><path d="m101.49 342.93c-.15 0-.3-.03-.45-.1l-35.58-15.86c-.56-.25-.81-.9-.56-1.46s.9-.81 1.46-.56l35.58 15.86c.56.25.81.9.56 1.46-.18.41-.58.66-1.01.66z" fill="#e7ddd5"/><path d="m277.19 326.89c-.22 0-.45-.07-.64-.21-.5-.35-.61-1.05-.26-1.54.37-.52 9.14-12.68 18.82-15.71 18.43-5.77 29.25-1.44 29.7-1.26.56.23.83.88.6 1.44s-.88.84-1.44.6c-.1-.04-10.6-4.19-28.2 1.32-8.98 2.81-17.6 14.77-17.68 14.89-.21.31-.55.47-.9.47z" fill="#e7ddd5"/><path d="m276.13 322.51c-.16 0-.33-.04-.49-.11-.55-.27-.77-.93-.5-1.48.29-.58 7.03-14.16 11.91-19.73 4.84-5.53 8.66-8.82 8.82-8.96.47-.4 1.16-.34 1.56.12s.34 1.16-.12 1.56c-.04.03-3.88 3.34-8.6 8.74-4.69 5.36-11.53 19.12-11.59 19.26-.19.37-.58.6-.99.6z" fill="#e7ddd5"/><path d="m24.24 513.1c-.61 0-1.11-.49-1.11-1.11v-12.35c0-.61.49-1.11 1.11-1.11s1.11.49 1.11 1.11v12.35c0 .61-.49 1.11-1.11 1.11z" fill="#9e8a77"/><path d="m42.68 513.1c-.61 0-1.11-.49-1.11-1.11v-12.35c0-.61.49-1.11 1.11-1.11.61 0 1.11.49 1.11 1.11v12.35c0 .61-.5 1.11-1.11 1.11z" fill="#9e8a77"/><path d="m67.75 513.1c-.61 0-1.11-.49-1.11-1.11v-12.35c0-.61.49-1.11 1.11-1.11.61 0 1.11.49 1.11 1.11v12.35c0 .61-.49 1.11-1.11 1.11z" fill="#9e8a77"/><path d="m86.19 513.1c-.61 0-1.11-.49-1.11-1.11v-12.35c0-.61.49-1.11 1.11-1.11.61 0 1.11.49 1.11 1.11v12.35c0 .61-.5 1.11-1.11 1.11z" fill="#9e8a77"/><path d="m24.24 585.37c-.61 0-1.11-.49-1.11-1.11v-12.35c0-.61.49-1.11 1.11-1.11s1.11.49 1.11 1.11v12.35c0 .61-.49 1.11-1.11 1.11z" fill="#9e8a77"/><path d="m42.68 585.37c-.61 0-1.11-.49-1.11-1.11v-12.35c0-.61.49-1.11 1.11-1.11.61 0 1.11.49 1.11 1.11v12.35c0 .61-.5 1.11-1.11 1.11z" fill="#9e8a77"/><path d="m67.75 585.37c-.61 0-1.11-.49-1.11-1.11v-12.35c0-.61.49-1.11 1.11-1.11.61 0 1.11.49 1.11 1.11v12.35c0 .61-.49 1.11-1.11 1.11z" fill="#9e8a77"/><path d="m86.19 585.37c-.61 0-1.11-.49-1.11-1.11v-12.35c0-.61.49-1.11 1.11-1.11.61 0 1.11.49 1.11 1.11v12.35c0 .61-.5 1.11-1.11 1.11z" fill="#9e8a77"/><path d="m1082.43 449.01s3.6 13.02 4.1 20.77 1.82 17.16-4.56 20.16-16.62 3.2-18.27 2.36-6.62-5.52-4.63-9.71c2.53-5.33 13.58-4.61 13.59-6.27s-9.08-6.15-10.43-11.41.64-12.72.64-12.72l4.79-12.97z" fill="#eb9a7d"/><path d="m1026.99 535.18-6.59-.77c.28-2.42 7.4-59.35 47.64-59.85 40.06-.42 52.17 53.97 52.66 56.29l-6.49 1.39c-.11-.52-11.5-51.45-46.09-51.05-34.41.42-41.06 53.45-41.13 53.99z" fill="#5a3536"/><path d="m1065.2 453.24 17.23-4.23-2.02-26s-25.28 4.05-25.47 5.14c-.2 1.09 10.26 25.09 10.26 25.09z" fill="#eb9a7d"/><path d="m1110.94 655.59h-76.3c-4.68 0-8.56-3.62-8.88-8.29l-7.63-111.3c-.35-5.14 3.72-9.51 8.88-9.51h91.56c5.16 0 9.23 4.37 8.88 9.51l-7.63 111.3c-.32 4.67-4.2 8.29-8.88 8.29z" fill="#f8bb53"/><path d="m1119.71 537.23h-99.56c-.61 0-1.11-.49-1.11-1.11s.49-1.11 1.11-1.11h99.56c.61 0 1.11.49 1.11 1.11s-.5 1.11-1.11 1.11z" fill="#e0911f"/><path d="m790.09 759.23s-21.23-3.16-31.92 21.91-34.29 49.04-43.51 51.25-32.45 12.17-34.29 14.75 9.59 7.01 30.6 7.74c21.02.74 33.19-.37 51.99 0 18.81.37 42.04 5.16 52.36-10.69 10.32-15.86 9.59-48.67 3.32-64.16s-16.99-20.8-16.99-20.8l-5.78-4.64z" fill="#f6dece"/><path d="m791.35 202.24-14.38 10.88 4.79 21.57s24.15-8.48 24.15-9.59c.01-1.11-14.56-22.86-14.56-22.86z" fill="#eb9a7d"/><path d="m936.92 40.14c-.31-.14-.67-.24-1.05-.31-.16-.32-.45-.59-.9-.62-4.76-.32-12.28 3.75-15.2 7.41-2.44 3.05-1.77 6.99-1.26 10.59 1.54 10.99 4.21 22.26 7.76 32.76.11.33.48.5.82.48.04.15.1.3.13.46.11.46.76.53 1.01.19.58.03 1.2-.32 1.23-1.07.04-1.04.06-2.07.08-3.1.27-.21.45-.54.43-1.02-.01-.15-.02-.32-.03-.48.43-.22.76-.64.77-1.22.03-1.85.28-3.84.3-5.79.01-.16.02-.33.03-.49.01-.09-.02-.15-.03-.23-.01-.66-.08-1.31-.18-1.95.14-2.05.52-4.33.56-5.98.08-3.27.18-6.63.89-9.83.88-4.02 2.87-7.73 4.23-11.62 1.81-3.28 3.06-6.96.41-8.18z" fill="#ac622f"/><path d="m923.35 773.06-2.39 37.12-14.39 10.24-8.59-9.52-1.18-34.3z" fill="#eb9a7d"/><path d="m922.81 809.91c-2.37-1.24-15.96-4.7-22.04-4.42s-6.5 4.98-8.16 7.61c0 0-5.95 14.24-10.23 16.32-4.29 2.07-9.68 5.25-10.65 9.54s.14 10.23 1.11 10.92 51.9.57 53.19-1.71c3.4-5.98.15-24.61.01-28.21-.15-3.6-.86-8.81-3.23-10.05z" fill="#3e200d"/><path d="m1002.75 773.57 3.99 34.79 14.53 11.91 8.23-9.82-.09-34.33z" fill="#eb9a7d"/><path d="m1005.74 805.48c2.37-1.24 11.61 2.9 13 2.49 1.38-.41 3.18-2.77 9.26-2.49s6.5 4.98 8.16 7.61c0 0 14.8 14.24 19.08 16.32s9.68 5.25 10.65 9.54-.14 10.23-1.11 10.92-60.75.57-62.04-1.71c-3.4-5.98-.18-30.24-.05-33.83.15-3.59.68-7.6 3.05-8.85z" fill="#3e200d"/><path d="m880.17 382.36c-4.43 46.01-4.42 45.66-4.42 65.82 0 19.91 4.24 331.03 6.18 333.79 1.94 2.77 21.29 9.4 30.97 9.4s22.4-2.77 23.78-4.98 25.72-345.55 25.72-345.55l46.46-50.65s-34.29-33.67-35.95-32.92-43.14-5.52-48.12-1.28c-4.98 4.25-44.62 26.37-44.62 26.37z" fill="#526071"/><path d="m1033.93 391.03s6.45 81.49 6.45 135.14 2.03 252.58.92 255.35-20.1 5.9-26.73 5.9c-6.64 0-23.78-1.84-24.34-2.77-.54-.92-32.53-296.65-32.53-296.65s-1.47-71.81 2.17-76.46c3.64-4.66 31.8-40.24 35.05-41.25 3.25-1.02 39.01 20.74 39.01 20.74z" fill="#526071"/><path d="m990.03 158.69-42.26 23.5-36.46-27.17s16.73-12.39 18.41-17.83c.35-1.13-.51-36.7-.51-36.7l42.59 6.44s-.04 10.42.07 19.56c.02 4 .11 7.77.22 10.31.02.46.09.95.22 1.46 2.08 8.35 17.72 20.43 17.72 20.43z" fill="#eb9a7d"/><path d="m988.78 109.09c-4.18 7.63-12.23 18.03-19.42 17.61-7.74-.46-31.44-9.93-37.59-18.65-6.15-8.74-4.62-55.13-4.62-55.13s31.11-16.31 31.68-17.12c.58-.8 33.14 17.68 33.14 17.68s.33 4.65.58 11.33c.04 1.26.09 2.59.13 3.98.3 13.86-.01 33.15-3.9 40.3z" fill="#eb9a7d"/><path d="m987.84 75.74c-.2-.77-.61-1.42-1.17-1.63-1.41-.54-1.93 1.25-2 2.19-.07.84.15 2.39.95 2.83 1.02.56 2.03-.24 2.26-1.24.17-.67.14-1.47-.04-2.15z" fill="#3e200d"/><path d="m952.59 76.37c-.2-.77-.61-1.42-1.17-1.63-1.41-.54-1.93 1.25-2 2.19-.07.84.15 2.39.95 2.83 1.02.56 2.03-.24 2.26-1.24.16-.68.14-1.48-.04-2.15z" fill="#3e200d"/><path d="m973.28 98.07c-.27 0-.54-.1-.75-.29-.45-.41-.48-1.11-.06-1.56 2.24-2.42 4.26-5.18 4.31-5.89-.03-.96-2.32-6.91-4.52-12.1-.24-.56.02-1.21.59-1.45.56-.24 1.21.02 1.45.59 1.1 2.6 4.7 11.22 4.7 12.97 0 1.89-3.43 5.8-4.9 7.39-.23.22-.52.34-.82.34z" fill="#e17f5d"/><path d="m972.31 138.25c-1.44-.09-3.12-.24-4.85-.49-4.73-.69-10.93-1.9-16.68-4.93-5.75-3.05-5.44-11.01-3.53-10.42 4.98 1.52 18.73 4.89 20.8 4.85 2.08-.04 3.78-.8 3.78-.8s0 0 .02.02c.02 4 .11 7.77.22 10.31.04.46.11.95.24 1.46z" fill="#e17f5d"/><path d="m928.66 76.13s-5.25-2.49-6.36 6.82 8.57 13.64 8.57 13.64 0-13.64 0-14.2-2.21-6.26-2.21-6.26z" fill="#eb9a7d"/><path d="m928.14 139.93-18.84 15.8 56.42 90.39 29.2-89.75-18.55-10.96s-8.8 5.76-20.32 5.62c-11.54-.14-27.91-11.1-27.91-11.1z" fill="#f3e9e3"/><path d="m1035.84 417.58-158.72 1.49s-7.79-238.3-3.57-247.43c4.16-8.98 54.59-31.7 54.59-31.7s26.96 74.84 31.03 73.36c4.05-1.46 17.19-67.89 17.19-67.89s43.29 18.75 48.25 25.67c6.84 9.47 8.32 90.88 8.32 106.75 0 4.67.4 16.06.89 30 .04.73.07 1.48.09 2.26.11 2.99.22 6.08.33 9.25.02.73.04 1.46.07 2.21 1.05 31.5 1.53 96.03 1.53 96.03z" fill="#526071"/><path d="m894.21 166.98c10.72 4.17 25.14 19.25 11.62 48.1s-43 90.68-43 90.68-42.1 20.26-43.71 19.82c-1.6-.43 3.78-45.87 5.78-55.62 1.99-9.75 38.65-89.92 46.05-97.49 8.53-8.72 12.54-9.66 23.26-5.49z" fill="#526071"/><path d="m961.39 102.57c.52-.87 16.18-1.18 17.26-.18.79.73-.76 7.21-8.81 7.21-7 0-8.98-6.16-8.45-7.03z" fill="#fff"/><path d="m958.42 66.33c.12-1.53-1.83-2.66-3.03-2.99-3.2-.88-7.79-.02-10.63 1.66-.96.57-1.78 1.3-1.83 2.49-.08 2.33 2.47 1.69 3.9 1.34 2.45-.61 5.11-.87 7.63-.73 1.19.07 3.5.04 3.9-1.43.03-.11.05-.23.06-.34z" fill="#ac622f"/><path d="m992.67 68.78c-.75.09-1.66-.09-2.32-.2-2.48-.44-5.13-.55-7.65-.24-1.17.13-3.5.27-3.98-1.19-.04-.11-.07-.22-.09-.33-.2-1.5 1.66-2.77 2.85-3.16 3.14-1.08 7.77-.51 10.71.97.11.07.24.13.35.18.04 1.25.09 2.58.13 3.97z" fill="#ac622f"/><path d="m935.18 45.04c-.2-.48-.89-.86-1.31-.35-.17.21-.3.47-.44.72-.05-.05-.08-.11-.13-.15-.45-.43-1.08-.49-1.62-.21-4.65 2.45-6.12 8.56-6.07 13.34.03 3.43-2.07 11.52-.53 15.3-.05.18-.06.37.02.55 3.6 7.12 7.96-4.63 8.46-7.05.75-3.58 1.15-7.4 1.39-11.04.21-3.19 1.49-8.11.23-11.11z" fill="#ac622f"/><path d="m920.29 67.57s19.97-10.7 38.89-12.51c20.33-1.94 32.79-1.6 32.79-1.6s-6.32-31.03-9.45-33.61c-5.62-4.63-27.91-4.62-38-2.96-7.19 1.18-31.11 13.69-32.36 20.64-.5 2.82 3.71 23.17 8.13 30.04z" fill="#526071"/><path d="m939.35 59.55s86.18-5.79 87.08-9.48c.9-3.7-4.6-4.57-20.61-3.47-16.01 1.09-25.09 1.49-25.09 1.49s-17.27-2.99-18.45-2.21-17.56 2.74-18.51 4.22c-.95 1.47-4.42 9.45-4.42 9.45z" fill="#526071"/><path d="m928.14 139.93s-2.16-1.48-9.35.73-11.26 9.14-11.26 9.14l16.97 15.05z" fill="#526071"/><path d="m976.36 145.41s6-.88 9.96.78 8.59 7.67 8.59 7.67l-10.26 5.74z" fill="#526071"/><path d="m804.44 209.52c-8.48 0-24.71 20.28-30.6 23.23-5.9 2.95-4.06 14.01 1.47 23.6s33.19 86.28 52.36 85.73 35.16-36.32 35.16-36.32-11.93-15.85-25.94-42.4-23.97-53.84-32.45-53.84z" fill="#526071"/><path d="m774.19 248.18-1.27-1.81s11.26-7.88 20.11-13.97c8.65-5.95 16.06-13.74 16.13-13.81.42-.44 1.12-.46 1.56-.04s.46 1.12.04 1.56c-.08.08-7.65 8.04-16.49 14.12-8.83 6.07-20.08 13.94-20.08 13.95z" fill="#3c495e"/><path d="m774.3 239.66c-.38 0-.74-.19-.95-.54-.31-.53-.14-1.2.38-1.52l5.11-3.05c.52-.31 1.2-.14 1.52.38.31.52.14 1.2-.38 1.52l-5.11 3.05c-.18.11-.38.16-.57.16z" fill="#3c495e"/><path d="m1022.4 168.94s20.43 16.52 27.62 48.6 38.53 204.46 35.95 210.73c-1.28 3.11-27.1 13.83-36.5 8.3s-24.85-54.2-24.85-54.2-26.36-166.48-25.09-168.69c1.26-2.22 22.87-44.74 22.87-44.74z" fill="#526071"/><path d="m795.87 764.28c-3.19 0-5.78-2.59-5.78-5.78v-565.18c0-3.19 2.59-5.78 5.78-5.78 3.19 0 5.78 2.59 5.78 5.78v565.18c0 3.19-2.59 5.78-5.78 5.78z" fill="#a05a49"/><path d="m777.33 214.74s-4.48-11.14-3.68-19.54c1.33-13.88 13.95-27.97 22.35-24.8 8.4 3.16 9.14 12.64 8 21.06-1.13 8.42-9.51 17.03-9.51 17.03l-8.33 6.26h-8.83z" fill="#eb9a7d"/><path d="m790.09 847.7c-.5 0-.95-.34-1.07-.85-.14-.59.22-1.19.81-1.34.72-.17 17.73-4.58 21.08-27.29 3.41-23.15-10.1-50.14-10.24-50.41-.28-.54-.06-1.21.49-1.49.54-.28 1.21-.06 1.49.48.57 1.13 13.97 27.88 10.46 51.73-3.57 24.24-22.56 29.08-22.75 29.12-.1.04-.19.05-.27.05z" fill="#e8c3ae"/><path d="m710.69 847.7c-.54 0-1.01-.39-1.09-.94-.09-.61.32-1.17.93-1.26.18-.03 18.07-2.75 32.37-2.93 8.48-.11 29.64-1.29 42.88-9.81 18.62-11.99 14.37-37.88 14.33-38.14-.1-.6.3-1.17.9-1.28.6-.1 1.18.3 1.28.9.05.27 4.53 27.6-15.31 40.38-13.72 8.83-35.38 10.05-44.05 10.16-14.14.18-31.88 2.88-32.06 2.91-.07.01-.12.01-.18.01z" fill="#e8c3ae"/><path d="m754.67 818.34c-.34 0-.68-.16-.9-.46-.36-.5-.24-1.19.26-1.54.06-.04 5.73-4.13 10.13-10.04 4.42-5.94 6.76-11.42 6.78-11.48.24-.56.89-.83 1.45-.59s.83.89.59 1.45c-.1.23-2.46 5.77-7.05 11.94-4.61 6.2-10.37 10.35-10.61 10.52-.21.13-.43.2-.65.2z" fill="#e8c3ae"/><path d="m1071.21 471.06c-.92-.01-5.56 3.83-8.35 8.24-2.8 4.41-9.12 12.01-7.73-1.53.86-8.42 7.74-25.57 7.74-25.57s6.6 5.58 7.52 6.14c.91.55.82 12.72.82 12.72z" fill="#eb9a7d"/><path d="m1020.14 229.6-26.42 1.27c-1.58.08-2.92-1.14-2.99-2.72l-.69-14.36c-.08-1.58 1.14-2.92 2.72-2.99l26.42-1.27c1.58-.08 2.92 1.14 2.99 2.72l.69 14.36c.07 1.57-1.14 2.91-2.72 2.99z" fill="#f6eae1"/><path d="m999.18 226.91c-3.51 0-6.36-2.85-6.36-6.36s2.85-6.36 6.36-6.36 6.36 2.85 6.36 6.36c0 3.5-2.85 6.36-6.36 6.36zm0-10.51c-2.29 0-4.15 1.86-4.15 4.15s1.86 4.15 4.15 4.15 4.15-1.86 4.15-4.15-1.86-4.15-4.15-4.15z" fill="#e1cebd"/><path d="m875.75 276.91c-.13 0-.26-.02-.38-.07-.57-.21-.87-.85-.65-1.42.12-.33 12.41-33.77 11.87-60.1-.54-26.39-6.26-45.86-6.31-46.06-.17-.59.16-1.2.74-1.38.59-.18 1.2.16 1.38.74.06.2 5.86 19.94 6.41 46.64.55 26.76-11.88 60.58-12.01 60.92-.18.45-.6.73-1.05.73z" fill="#3c495e"/><path d="m838.46 314.06c-.05 0-.11 0-.16-.01-.6-.09-1.02-.65-.93-1.26.02-.15 2.19-14.98 1.65-27.72-.54-12.65-7.4-29.56-7.47-29.73-.23-.57.04-1.21.6-1.44.57-.23 1.21.04 1.44.6.29.71 7.08 17.43 7.63 30.47.55 12.95-1.65 27.99-1.67 28.14-.08.55-.55.95-1.09.95z" fill="#3c495e"/><path d="m1035.24 393.61c-.6 0-1.09-.48-1.11-1.08-.02-.89-2.39-89.73-3.75-132.65-1.37-42.87-6.3-83.02-6.35-83.42-.08-.61.36-1.16.96-1.23.6-.09 1.16.35 1.23.96.05.4 5 40.65 6.37 83.62 1.37 42.92 3.73 131.77 3.75 132.66.02.61-.47 1.12-1.08 1.14 0 0-.01 0-.02 0z" fill="#3c495e"/><path d="m952.11 215.84c-.4 0-.79-.22-.99-.61-6.97-13.79-25.89-50.34-29.67-53.85-4.53-4.22-14.22-7.92-14.31-7.96-.57-.22-.86-.86-.64-1.43s.86-.86 1.43-.64c.41.16 10.19 3.89 15.04 8.41 4.83 4.51 29.1 52.44 30.14 54.47.28.55.06 1.21-.49 1.49-.17.08-.34.12-.51.12z" fill="#3c495e"/><path d="m964.84 215.84c-.13 0-.26-.02-.38-.07-.57-.21-.87-.85-.66-1.42.16-.42 15.52-42.08 18.11-48.66 2.77-7.04 12.26-10.25 12.66-10.38.58-.19 1.2.12 1.4.7.19.58-.12 1.21-.7 1.4-.09.03-8.91 3.02-11.3 9.09-2.58 6.55-17.93 48.19-18.09 48.61-.17.46-.59.73-1.04.73z" fill="#3c495e"/><path d="m876.54 400.78s55.67.94 84.43.39 74.67-2.58 74.67-2.58l-.16 13.7s-28.39 2.29-78.07 3.59c-44.79 1.18-80.39 0-80.39 0z" fill="#3e200d"/><path d="m959.86 489.94c-.61 0-1.11-.49-1.11-1.11v-70.22c0-.61.49-1.11 1.11-1.11s1.11.49 1.11 1.11v70.22c0 .62-.5 1.11-1.11 1.11z" fill="#3c495e"/><path d="m959.86 483.86c-.51 0-.96-.35-1.08-.86-.13-.6.24-1.19.84-1.32.07-.02 6.95-1.63 9.45-7.64 2.19-5.27 1.88-41.77 1.57-55.39-.01-.61.47-1.12 1.08-1.13.66-.02 1.12.47 1.13 1.08.05 2.02 1.08 49.52-1.74 56.29-2.95 7.09-10.68 8.88-11.01 8.95-.08.01-.16.02-.24.02z" fill="#3c495e"/><path d="m881.88 458.88c-.3 0-.59-.12-.81-.36-.41-.45-.39-1.15.06-1.56.05-.04 4.74-4.46 10.09-14.81 5.34-10.32 5.04-22.02 5.04-22.14-.02-.61.46-1.12 1.07-1.14.59-.01 1.12.46 1.14 1.07.02.5.31 12.39-5.29 23.22-5.56 10.74-10.36 15.24-10.56 15.42-.21.2-.47.3-.74.3z" fill="#3c495e"/><path d="m1033.05 445.97c-.24 0-.49-.08-.69-.24-.16-.13-3.92-3.19-8.22-11.41-4.28-8.19-5.84-17.39-5.84-17.91 0-.61.49-1.11 1.11-1.11.59 0 1.07.46 1.1 1.04.12 1.09 1.73 9.58 5.59 16.96 4.05 7.76 7.61 10.68 7.64 10.71.47.38.55 1.08.17 1.55-.21.27-.53.41-.86.41zm-12.53-29.57h.02z" fill="#3c495e"/><path d="m1044.62 429.1c-.52 0-.98-.37-1.08-.89-.12-.6.27-1.18.87-1.3.1-.02 9.91-1.96 20-4.41s18.39-4.92 18.47-4.94c.59-.17 1.2.16 1.38.75.17.59-.16 1.2-.75 1.38-.08.02-8.44 2.5-18.58 4.97s-20 4.42-20.1 4.44c-.06-.01-.13 0-.21 0z" fill="#3c495e"/><path d="m1051.12 434.22c-.51 0-.96-.35-1.08-.86-.13-.6.24-1.19.84-1.32l5.56-1.24c.6-.14 1.19.24 1.32.84s-.24 1.19-.84 1.32l-5.56 1.24c-.08.01-.16.02-.24.02z" fill="#3c495e"/><path d="m965.92 398.4c-.6 0-1.09-.48-1.11-1.08-.01-.67-1.35-67.55-1.08-96.55.27-28.92-4.92-81.67-4.97-82.2-.06-.61.38-1.15.99-1.21.6-.05 1.15.38 1.21.99.05.53 5.26 53.4 4.98 82.44-.27 28.96 1.06 95.81 1.08 96.48.01.61-.47 1.12-1.08 1.13-.01 0-.01 0-.02 0z" fill="#3c495e"/><path d="m966.78 231.09c-.54 0-1.02-.4-1.09-.95l-.86-6.08c-.09-.6.34-1.16.94-1.25.61-.09 1.16.34 1.25.94l.86 6.08c.09.6-.34 1.16-.94 1.25-.06.01-.11.01-.16.01z" fill="#3c495e"/><path d="m970.1 268.15c-.61 0-1.11-.49-1.11-1.11v-6.64c0-.61.49-1.11 1.11-1.11s1.11.49 1.11 1.11v6.64c-.01.61-.5 1.11-1.11 1.11z" fill="#3c495e"/><path d="m971.75 313.5c-.61 0-1.11-.49-1.11-1.11v-7.19c0-.61.49-1.11 1.11-1.11s1.11.49 1.11 1.11v7.19c0 .62-.49 1.11-1.11 1.11z" fill="#3c495e"/><path d="m971.97 362.62c-.61 0-1.11-.49-1.11-1.11v-7c0-.61.49-1.11 1.11-1.11.61 0 1.11.49 1.11 1.11v7c0 .61-.5 1.11-1.11 1.11z" fill="#3c495e"/><path d="m919.38 266.85c-4.5 0-18.51-10.98-19.87-13.24-.2-.34-.75-1.23-.65-15.17.09-14.13.44-14.35 1.02-14.7 1.4-.87 34.8-1.67 36.93.09 2.36 1.95 1.38 27.85.27 29.92-1.52 2.82-13.48 12.57-17.39 13.08-.1.02-.2.02-.31.02zm-17.96-41.28c-.39 3.95-.6 25.06.04 27.01 1.26 2.06 15.39 12.35 17.94 12.06 2.86-.37 14.38-9.42 15.73-11.93 1.14-2.12 1.26-24.33.18-27.2-2.57-.72-29.28-.7-33.89.06zm-.96-.88h.02z" fill="#3c495e"/><path d="m936.32 234.13h-35.64c-.61 0-1.11-.49-1.11-1.11 0-.61.49-1.11 1.11-1.11h35.64c.61 0 1.11.49 1.11 1.11 0 .61-.5 1.11-1.11 1.11z" fill="#3c495e"/><path d="m955.62 158.54c-13.35 0-21.69-7.17-22.04-7.48-.46-.4-.5-1.1-.1-1.56s1.1-.5 1.56-.11c.08.07 8.1 6.93 20.58 6.93 10.44 0 15.43-3.15 15.47-3.18.52-.33 1.2-.19 1.53.32s.19 1.19-.32 1.53c-.21.15-5.5 3.55-16.68 3.55z" fill="#dfd4c9"/><path d="m939.35 58.25c-.47 0-.9-.3-1.05-.77-.19-.58.13-1.2.71-1.39.18-.06 17.78-5.72 27.92-7.68 10.18-1.97 21.66-1.84 21.78-1.84.61.01 1.1.51 1.09 1.12-.01.6-.5 1.09-1.11 1.09-.02 0-.07 0-.51 0-2.28 0-12.07.1-20.84 1.8-10.01 1.94-27.49 7.56-27.66 7.62-.1.03-.21.05-.33.05z" fill="#3c495e"/><path d="m926.54 61.93c-.47 0-.91-.3-1.06-.78-.17-.53-4.05-13.18-5.06-20.92-1.05-8.03 1.25-11.98 1.35-12.14.32-.52.99-.69 1.52-.38.52.31.69.99.38 1.51-.02.03-2 3.54-1.06 10.72.99 7.56 4.95 20.43 4.98 20.56.18.58-.15 1.2-.73 1.38-.1.04-.21.05-.32.05z" fill="#3c495e"/><path d="m568.46 138.3c-.2-3.24-1.72-6.48-3.9-8.64-2.11-2.14-2.29-2.09-2.05-5.2.15-1.96.04-4.36-.39-6.26-.63-2.8-2.31-4.79-4.55-6.21.09-.47-.06-.99-.6-1.34-2.76-1.75-6.06-1.75-9.3-2.42-4.83-.99-9.73-1.47-14.59-2.35-4.96-.91-10.12-1.94-15.21-1.49-4.25.37-8.5 1.94-12.54 3.28-3.84 1.29-8.78 2.91-11.07 6.65-.31.5-.48 1.02-.63 1.54-3.03 1.28-5.43 6.76-5.77 9.24-.19 1.34-.26 3.36-.09 5.48-3.61 5.12-4.94 13.1-2.59 18.16 1.23 2.65 3.25 4.59 5.67 5.95.29 4.19 2.03 7.7 6.8 10.04 5.32 2.6 11.82 4.11 17.13.91 1.01-.61.49-1.96-.56-2.07-1.57-.16-2.96.75-4.53.91-1.47.15-3.03-.04-4.55-.37.27-.46.34-1 .27-1.57.38.09.76.15 1.11.11.32-.03.58-.11.8-.21.53.15 1.03.05 1.48-.33.5-.42.72-1.03.76-1.73.28.11.55.22.81.33 1.02.42 1.52-1.13.71-1.68-.36-.25-1.19-.76-2.06-1.37-.02-.06-.05-.12-.07-.18.67.07 1.36.14 1.97.2 1.25.13 1.92.26 3.19 0 2.14-.43 2.72-.45 4.75.28 3.21 1.16 6.47.22 9.67-.91 4.27-1.53 7.42.19 11.68.77-.67 2.36-.75 4.89.17 6.97 1.22 2.75 5.5 3.4 8.2 3.02 3.42-.49 8.26-2.49 9.88-5.67.77-1.51 1.23-3.33 1.35-5.17 1.76-.92 3.43-2.16 4.86-3.15 2.74-1.88 4.23-4.27 4.56-7.6.22-2.27-.05-5.12-.77-7.92z" fill="#9f4c39"/><path d="m553.15 5.75c-2.44-.9-17.36-5.75-28.19-5.75-14.32 0-29.81 5.75-31.87 7.01s-2.95 60.95-2.95 60.95h.93l67.24-1.62s-2.72-59.69-5.16-60.59z" fill="#f6eae1"/><path d="m494.99 785.71-3.95 46.56-14.47.89-8.15-2.79-1.38-39.95z" fill="#eb9a7d"/><path d="m490.86 846.71c-.24 3.13-.67 5.76-1.45 6.6-2.33 2.52-30.51 2.33-33.59 1.08-3-1.21-4.62-10.4 3.54-16.55.02-.02.04-.02.04-.02.22-.17.47-.35.71-.52 5.26-3.58 8.31-6.93 8.31-6.93s7.14-4.57 7.68-4.75c.54-.19 14.93 6.65 14.93 6.65s.33 8.2-.17 14.44z" fill="#eb9a7d"/><path d="m490.86 846.71c-.24 3.13-.67 5.76-1.45 6.6-2.33 2.52-30.51 2.33-33.59 1.08-3-1.21-4.62-10.4 3.54-16.55.02-.02.04-.02.04-.02s6.28-1.51 11.84 1.1c5.59 2.61 7.64 6.99 9.17 7.18 1.07.13 6.94.43 10.45.61z" fill="#3e200d"/><path d="m568.21 787.47 4.8 41.89 13.26 3.65 9.81-1.41.86-44.13z" fill="#eb9a7d"/><path d="m626.16 853.85c-4.88 2.05-45.96 3.24-50.81 0-2.4-1.6-3-7.57-3-13.23 0-5.8.65-11.26.65-11.26s10.64-4.64 11.72-4.64 11.47 1.62 11.47 1.62.31 5.48 12.78 10.01c.86.32 1.77.63 2.72.95 24.81 8.29 16.76 15.58 14.47 16.55z" fill="#eb9a7d"/><path d="m626.16 853.85c-4.88 2.05-45.96 3.24-50.81 0-2.4-1.6-3-7.57-3-13.23 6.58.86 23.24 2.98 26.69 2.98 3.39 0 7.31-5.09 9.92-7.25.86.32 1.77.63 2.72.95 24.82 8.29 16.77 15.58 14.48 16.55z" fill="#3e200d"/><path d="m564.08 188.32-39.91 25.09-36.94-24.53s15.64-12.95 17-18.34c.28-1.12.43-3.06.5-5.44.11-4.42-.09-10.33-.28-15.15-.24-4.83-.5-8.54-.5-8.54l42.34-2.53s1.18 21.31 1.98 29.4c.82 8.1 15.81 20.04 15.81 20.04z" fill="#eb9a7d"/><path d="m493.1 102.81s-.62 30.1 5.59 38.46c6.2 8.36 20.15 16.19 27.7 16.46 7.03.25 20.78-9.61 25.56-16.6 6.47-9.44 4.78-38.22 4.78-38.22s-32.83-33.52-33.37-32.71c-.53.82-30.26 32.61-30.26 32.61z" fill="#eb9a7d"/><path d="m526.32 168.78c-6.56 1.01-18.06-2.52-21.6-3.67.11-4.42-.36-16.66-.36-16.66s16.44 10.9 22.02 11.03c6.2.13 8.28-3.26 10.16-2.18 2.57 1.48-2.38 10.27-10.22 11.48z" fill="#e17f5d"/><path d="m546.69 110.83c-.2-.75-.59-1.38-1.14-1.59-1.38-.53-1.88 1.22-1.95 2.13-.06.82.15 2.34.93 2.76.99.55 1.98-.24 2.21-1.21.16-.66.13-1.44-.05-2.09z" fill="#3e200d"/><path d="m507.02 111.61c-.2-.75-.59-1.38-1.14-1.59-1.38-.53-1.88 1.22-1.95 2.13-.06.82.15 2.34.93 2.76.99.55 1.98-.24 2.21-1.21.15-.65.12-1.43-.05-2.09z" fill="#3e200d"/><path d="m555.19 109.68s5.12-2.43 6.2 6.65-8.36 13.3-8.36 13.3 0-13.3 0-13.84 2.16-6.11 2.16-6.11z" fill="#eb9a7d"/><path d="m494.6 109.68s-5.12-2.43-6.2 6.65 8.36 13.3 8.36 13.3 0-13.3 0-13.84-2.16-6.11-2.16-6.11z" fill="#eb9a7d"/><path d="m495.58 181.39s12.87 8.47 30.84 8.83c17.98.36 30.21-8.73 30.21-8.73s43 18.06 47.68 21.66c4.67 3.6 6.44 67.34 5.12 102.95-.86 23.28-7.85 67.15-7.85 71.83 0 4.67-140.6 4.67-140.6 4.67s-12.59-55.02-14.02-68.68c-1.44-13.66.6-102.21 2.04-109.76s46.58-22.77 46.58-22.77z" fill="#f6eae1"/><path d="m556.63 181.49s36.68 7.93 52.98 21.07c12.39 9.99 51.38 44.02 65.09 58.8 7 7.55 23.33 22.85 27.78 29.36 17.05 24.96-3.87 67.18-31.19 56.37-7.05-2.79-71.83-52.59-71.83-52.59l-22.76-95.57z" fill="#f6eae1"/><path d="m462.29 370.63 140.27-1.72s14.52 79.75 15.19 109.53c.68 29.77-6.28 314.31-7.25 319.32s-13.48 8.72-27.9 9.85c-10.22.8-20.46-2.13-23.84-4.84s-24.83-188.42-27.54-199.25-9.47-113.68-10.83-123.83c-1.35-10.15-54.13-73.76-54.13-75.79.02-2.03-3.97-33.27-3.97-33.27z" fill="#56392f"/><path d="m464.45 370.63s-20.4 59.12-22.53 118.05 3.03 309.29 7.85 313.25 17.12 6.99 26.61 7.46 24.06-3.42 27.33-8.9 29.05-313.06 29.05-313.06.18-54.83-1.99-61.55c-2.17-6.71-66.32-55.25-66.32-55.25z" fill="#56392f"/><path d="m408.56 354.13s-1.61 26.32-1.66 46.36-.61 63.17-.61 63.17l16.75-2.12s12.4-47.45 16.49-69.59c4.09-22.15 8.62-46.74 8.62-46.74z" fill="#eb9a7d"/><path d="m406.34 461.9s-1.36 11.58-.77 18.25.7 14.87 6.54 16.59 14.59.55 15.89-.38 4.92-5.58 2.68-8.89c-2.85-4.21-12.19-2.15-12.42-3.56s6.94-6.43 7.4-11.1-2.21-10.76-2.21-10.76l-5.79-10.43z" fill="#eb9a7d"/><path d="m418.8 479.23c.79-.13 5.24 2.54 8.21 5.93 2.96 3.39 9.35 9.05 6.39-2.32-1.84-7.07-9.95-20.8-9.95-20.8s-4.9 5.62-5.61 6.22c-.71.61.96 10.97.96 10.97z" fill="#eb9a7d"/><path d="m513.18 103.92c-.53-2.42-4.61-2.37-6.47-2.19-2.5.24-5.08.98-7.29 2.2-.09.05-.18.1-.26.15-.61.36-.84 1.36-.27 1.74 1.2.8 4.22.16 6.18-.11 2.4-.33 5.26.47 7.54-.26.6-.19.71-.89.57-1.53z" fill="#9f4c39"/><path d="m538.82 103.79c.45-2.43 4.5-2.52 6.36-2.41 2.49.15 5.05.79 7.29 1.9.13.06.25.13.37.19.62.34.86 1.29.32 1.73-1.08.89-4.05.58-6.02.38-2.41-.25-5.4.38-7.7-.28-.6-.17-.74-.87-.62-1.51z" fill="#9f4c39"/><path d="m534.02 136.58c-.53-.71-15.8-.61-16.83.25-.75.63.88 6.01 8.74 5.82 6.82-.16 8.62-5.35 8.09-6.07z" fill="#fff"/><path d="m502.5 92.24s-3.85 1.82-3.8 2.16c.2 1.53-1.21-.3-1.94 1.01-.37-.46-.2 2.56-.81 2.84-2.02.94-2.84 4.56-2.84 4.56s-2.18 4.47-1.93 6.57c.13 1.15 1.37 5.45 2.65 6.05.55.26 1.04.18 1.51-.19 3.08-2.52 1.54-9.29 2.77-12.66.52-1.44 4.39-10.34 4.39-10.34z" fill="#9f4c39"/><path d="m556.74 102.92s-.68-4.38-2.77-6.9c-.5-.6-8.49-7.7-8.52-7.28-.31 4.17 3.96 7.14 6.43 16.99.55 2.19 1.02 6.6 3.31 8.06.34.22.98.33 1.25 0 4.04-5 .3-10.87.3-10.87z" fill="#9f4c39"/><path d="m491.46 107.15c1.13.1 4.22-17.52 35.07-17.83 26.81-.27 30.08 16.22 31.49 16.81 2.44 1.03 2.92-37.84 2.3-39.19s-21.94-5.66-35.41-5.8-35.08 5.8-35.87 7.55 1.28 38.36 2.42 38.46z" fill="#f6eae1"/><path d="m532.78 88.45c-.03-.8-.32-1.64-.77-2.33-1.17-1.79-3.73-2.63-5.68-3.16-1.86-.5-4.21-.52-6.1-.2-2.79.47-3.86.75-6.64.02-4.83-1.27-9.75-1.27-13.94 1.72-1.35.96-2.45 2.22-3.38 3.61-2.19.43-4.4.77-6.33 1.54-4.06 1.63-8.08 4.86-9.88 8.94-2.88 6.5.57 13.08 6.51 15.08.58 2.5 2.31 4.57 5.19 5.4 1.01.29 2.32.01 3.03-.8 2.91-3.32 2.7-9.52 1.46-13.82 1.41-1.05 2.6-3.26 3.56-3.97 1.24-.91 2.72-.96 4.16-1.29 1.57-.36 2.7-1.03 4.1-1.76 3.4-1.75 7.32-1.96 10.8-3.49.78-.34 1.4-.57 2.01-.76.99-.18 1.98-.36 2.94-.48 2.28-.29 5.38-.84 7.49-1.78 1.09-.48 1.5-1.44 1.47-2.47z" fill="#9f4c39"/><path d="m492.52 67.25c-.4 0-.79-.22-.98-.6-.28-.54-.07-1.21.47-1.49.4-.21 9.95-5.05 30.47-5.59 20.49-.53 33.26 4.52 33.8 4.73.57.23.84.87.61 1.44s-.88.83-1.44.61c-.13-.05-12.88-5.11-32.92-4.57-19.94.52-29.41 5.3-29.51 5.34-.16.09-.33.13-.5.13z" fill="#e1cebd"/><path d="m496.76 61.75c-.02 0-.03 0-.05 0-.61-.03-1.08-.54-1.05-1.15l2.27-50.03c.03-.61.49-1.09 1.15-1.06.61.03 1.08.54 1.05 1.15l-2.27 50.03c-.03.59-.52 1.06-1.1 1.06z" fill="#e1cebd"/><path d="m402.58 366.42s-2.16 12.41-1.26 14.02c.9 1.62 9.35 5.67 21.76 7.6s22.69 3.01 23.39 2.11 4.48-12.8 4.48-12.8z" fill="#56392f"/><path d="m493.09 183.74s5.5-11.27 6.71-11.41 24.2 2.38 25.85 3.82c1.66 1.44 0 16.41 0 16.41s-27.5-2.02-28.9-2.16c-1.4-.13-3.66-6.66-3.66-6.66z" fill="#f6eae1"/><path d="m558.89 182.44s-6.81-9.98-8.03-10.11c-1.21-.14-24.2 2.38-25.85 3.82-1.66 1.44 0 16.41 0 16.41s27.5-2.02 28.9-2.16c1.4-.13 4.98-7.96 4.98-7.96z" fill="#f6eae1"/><path d="m509.02 55.76c-.61 0-1.11-.49-1.11-1.11v-39.55c0-.61.49-1.11 1.11-1.11.61 0 1.11.49 1.11 1.11v39.56c-.01.61-.5 1.1-1.11 1.1z" fill="#e1cebd"/><path d="m537.65 56.48c-.56 0-1.04-.43-1.1-.99l-4.87-48.36c-.06-.61.38-1.15.99-1.21.57-.06 1.15.38 1.21.99l4.87 48.36c.06.61-.38 1.15-.99 1.21-.03 0-.07 0-.11 0z" fill="#e1cebd"/><path d="m550.37 59.18c-.56 0-1.04-.43-1.1-1l-3.6-36.14c-.06-.61.38-1.15.99-1.21.65-.04 1.15.38 1.21.99l3.6 36.14c.06.61-.38 1.15-.99 1.21-.04.01-.08.01-.11.01z" fill="#e1cebd"/><path d="m451.02 201.46s-11.01 7.73-16.77 27.87c-4.37 15.31-33.69 98.62-38 107.97-4.32 9.35-6.08 17.79.39 29.13 3.91 6.85 34.11 21.44 53.22 13.3s12.55-57.53 12.55-57.53l-3.35-114.8z" fill="#f6eae1"/><path d="m458.16 383.88s-26.76 84.85-30.21 249.72c-.18 8.68 73.19 15.83 102.66 15.83s96.38-8.75 96.27-16.18c-2.66-183.39-22.23-252.56-22.23-252.56z" fill="#f6eae1"/><path d="m458.16 370.06s47.26 4.1 74.77 3.83 69.64-4.98 69.64-4.98l2.08 11.77s-11.31 4.26-72.35 4.98c-63.65.75-74.14-1.79-74.14-1.79z" fill="#56392f"/><path d="m503.98 365.73c-.57 0-1.05-.43-1.1-1.01-.02-.24-2.12-24.95-1.86-80.47.27-55.5 2.19-90.06 2.21-90.4.03-.61.49-1.05 1.17-1.04.61.03 1.08.56 1.04 1.17-.02.34-1.94 34.86-2.21 90.29-.26 55.42 1.83 80.03 1.85 80.27.05.61-.4 1.15-1 1.2-.03-.01-.06-.01-.1-.01z" fill="#e1cebd"/><path d="m553.8 365.73c-.02 0-.04 0-.05 0-.61-.03-1.08-.55-1.05-1.16.02-.41 2.03-41.15 2.82-78.99.8-37.78-5.65-96.36-5.71-96.94-.07-.61.37-1.15.98-1.22.62-.06 1.16.37 1.22.98.06.59 6.53 59.3 5.73 97.23-.8 37.87-2.81 78.64-2.83 79.05-.03.59-.52 1.05-1.11 1.05z" fill="#e1cebd"/><path d="m460.29 367.53c-.55 0-1.03-.41-1.1-.97-.08-.65-7.99-65.01-8.64-78.83-1.6-34.35-.02-78.4 0-78.84.02-.6.51-1.07 1.11-1.07h.04c.61.02 1.09.53 1.07 1.15-.02.44-1.6 44.4 0 78.66.64 13.74 8.54 78.02 8.62 78.67.08.61-.36 1.16-.96 1.23-.05 0-.09 0-.14 0z" fill="#e1cebd"/><path d="m607.54 295.61c-.58 0-1.06-.45-1.1-1.03l-6.11-93.04c-.04-.61.42-1.14 1.03-1.18.62-.01 1.14.42 1.18 1.03l6.11 93.04c.04.61-.42 1.14-1.03 1.18-.03 0-.05 0-.08 0z" fill="#e1cebd"/><path d="m515.59 193.55c0-1.84-1.49-3.33-3.33-3.33s-3.33 1.49-3.33 3.33 1.49 3.33 3.33 3.33c1.83 0 3.33-1.49 3.33-3.33z" fill="#56392f"/><path d="m513.33 227.62c0-1.84-1.49-3.33-3.33-3.33s-3.33 1.49-3.33 3.33 1.49 3.33 3.33 3.33 3.33-1.49 3.33-3.33z" fill="#56392f"/><path d="m513.33 264.7c0-1.84-1.49-3.33-3.33-3.33s-3.33 1.49-3.33 3.33 1.49 3.33 3.33 3.33 3.33-1.49 3.33-3.33z" fill="#56392f"/><path d="m513.33 304.21c0-1.84-1.49-3.33-3.33-3.33s-3.33 1.49-3.33 3.33 1.49 3.33 3.33 3.33c1.84.01 3.33-1.49 3.33-3.33z" fill="#56392f"/><path d="m513.33 346.11c0-1.84-1.49-3.33-3.33-3.33s-3.33 1.49-3.33 3.33 1.49 3.33 3.33 3.33 3.33-1.49 3.33-3.33z" fill="#56392f"/><path d="m547.59 192.56c0-1.84-1.49-3.33-3.33-3.33s-3.33 1.49-3.33 3.33 1.49 3.33 3.33 3.33 3.33-1.49 3.33-3.33z" fill="#56392f"/><path d="m550.92 227.62c0-1.84-1.49-3.33-3.33-3.33s-3.33 1.49-3.33 3.33 1.49 3.33 3.33 3.33 3.33-1.49 3.33-3.33z" fill="#56392f"/><path d="m552.72 264.7c0-1.84-1.49-3.33-3.33-3.33s-3.33 1.49-3.33 3.33 1.49 3.33 3.33 3.33 3.33-1.49 3.33-3.33z" fill="#56392f"/><path d="m550.92 304.21c0-1.84-1.49-3.33-3.33-3.33s-3.33 1.49-3.33 3.33 1.49 3.33 3.33 3.33c1.84.01 3.33-1.49 3.33-3.33z" fill="#56392f"/><path d="m550.92 346.11c0-1.84-1.49-3.33-3.33-3.33s-3.33 1.49-3.33 3.33 1.49 3.33 3.33 3.33 3.33-1.49 3.33-3.33z" fill="#56392f"/><path d="m655.23 324.53s-2.16-13.16 4.49-20.78 24.81-9.24 33.08-4.39 12.41 14.63 12.95 21.22c.53 6.59-3.47 15.14-6.87 18.72-3.39 3.58-7.11 8.58-15.04 9.13s-15.49-3.95-15.49-3.95z" fill="#56392f"/><path d="m689.75 306.99c10.08 6.55 8.03 21.99.32 31.21-4.67 5.58-58.96 60.39-58.96 60.39l-12.79-12.52s41.44-69.99 43.41-72.66c6.29-8.57 19.11-12.22 28.02-6.42z" fill="#eb9a7d"/><path d="m624.56 381.89s-16.13 4.31-24.9 11.73c-7.24 6.11-6.07 15.03-3.66 18.26s12.57 2.66 22.66-2.24c10.09-4.91 13.45-12.45 13.45-12.45s7.4-12.74 6.39-13.2c-1.01-.47-13.94-2.1-13.94-2.1z" fill="#eb9a7d"/><path d="m647.55 323.66c-.6 0-1.09-.48-1.11-1.07l-.03-.23c-.83-6.86.77-14.08 4.5-20.33 6.27-10.51 19.52-14.19 20.08-14.35.6-.16 1.2.19 1.36.78s-.19 1.2-.78 1.36c-.13.04-12.95 3.61-18.76 13.34-3.48 5.83-4.97 12.55-4.2 18.93.03.24.04.39.04.46.01.61-.49 1.11-1.1 1.11z" fill="#e1cebd"/><path d="m643.42 320.05c-.01 0-.03 0-.04 0-.59-.02-1.07-.5-1.07-1.09 0-.55 4.03-32.97 5.76-46.88.07-.61.64-1.04 1.23-.96.61.08 1.04.63.96 1.23-1.96 15.7-5.67 45.66-5.75 46.67-.03.58-.52 1.03-1.09 1.03z" fill="#e1cebd"/><path d="m524.41 405.63c-31.2 0-64.33-18.68-64.66-18.87-.53-.3-.72-.98-.41-1.51.3-.53.97-.72 1.51-.41.33.19 32.97 18.58 63.57 18.58h.08c46.29-.05 73.05-18.34 73.31-18.52.5-.35 1.19-.23 1.54.27s.23 1.19-.27 1.54c-.27.19-27.54 18.87-74.58 18.92-.04 0-.07 0-.09 0z" fill="#e1cebd"/><path d="m522.51 639.41c-55.31 0-88.38-11.48-88.71-11.6-.57-.2-.88-.84-.67-1.41.21-.58.84-.87 1.41-.67.34.12 35.02 12.16 92.87 11.44 57.87-.71 91.79-11.35 92.13-11.45.58-.18 1.2.13 1.39.72.19.58-.14 1.2-.72 1.39-.34.11-34.54 10.85-92.77 11.56-1.67.01-3.31.02-4.93.02z" fill="#e1cebd"/><path d="m515.08 443.08c-1.14 0-1.78-.03-1.81-.03-.61-.03-1.08-.56-1.04-1.17.03-.61.55-1.07 1.17-1.04.24.01 25.34 1.24 50.27-12.98 24.85-14.17 31.43-35.99 31.49-36.21.17-.59.77-.93 1.37-.75.59.17.92.78.75 1.37-.27.93-6.89 22.9-32.52 37.52-21.61 12.31-43.37 13.29-49.68 13.29z" fill="#e1cebd"/><path d="m458.23 251.71c1.39-1.03 34.62.49 36.21 2.16 1.59 1.66 1.33 6.72 0 7.49-1.33.78-36.23-1.25-37.34-2.32-1.12-1.08-.27-6.29 1.13-7.33z" fill="#56392f"/><path d="m525.87 188.11c-12.75 0-30.87-4.01-31.65-4.18-.6-.13-.97-.72-.84-1.32.13-.59.72-.98 1.32-.84.19.04 19.49 4.24 31.95 4.12 12.53-.17 29.56-4.08 29.74-4.12.58-.13 1.19.23 1.33.83s-.23 1.19-.83 1.33c-.17.04-17.44 4-30.2 4.18-.28 0-.55 0-.82 0z" fill="#e1cebd"/><path d="m525.65 132.18c-.24 0-.49-.08-.69-.24-.32-.26-3.13-2.59-3.55-5.09-.39-2.31 2.5-11.04 3.08-12.76.19-.58.82-.89 1.4-.69s.89.82.69 1.4c-1.63 4.82-3.19 10.51-3 11.69.24 1.42 2.07 3.17 2.75 3.73.48.38.55 1.08.17 1.56-.2.26-.52.4-.85.4z" fill="#e17f5d"/><path d="m1618.79 162.28s1.99-8.16 4.06-9.13 25.17-5.39 31.8-5.81c6.64-.41 35.72 2.63 37.08 4.56 1.36 1.94 3.16 9.26 3.16 9.26s-49.36 18.89-51.3 18.36c-1.93-.51-24.8-17.24-24.8-17.24z" fill="#593e2d"/><path d="m1759.8 351.84h5.7v31.3h-5.7z" fill="#593e2d"/><path d="m1732.46 378.73s29.5-2.77 32.45 0 3.69 88.77 0 90.71-18.07 1.94-18.62 0-3.56-40.38-4.82-43.97c-1.26-3.6-9.01-5.81-9.01-5.81z" fill="#593e2d"/><path d="m1624.07 778.68-2.69 34.91-14.09 12.44-8.58-9.51-1.19-34.31z" fill="#eb9a7d"/><path d="m1623.75 811.1c-2.37-1.24-11.61 2.9-13 2.49-1.38-.41-3.18-2.77-9.26-2.49s-6.5 4.98-8.16 7.61c0 0-14.8 14.24-19.08 16.32s-9.68 5.25-10.65 9.54.14 10.23 1.11 10.92 60.75.57 62.04-1.71c3.4-5.98.18-30.24.05-33.83s-.68-7.61-3.05-8.85z" fill="#3e200d"/><path d="m1565.1 851.48c-.6 0-1.09-.48-1.11-1.08-.01-.61.47-1.12 1.08-1.13l57.38-1.24h.02c.6 0 1.09.48 1.11 1.08.01.61-.47 1.12-1.08 1.13l-57.38 1.24s-.01 0-.02 0z" fill="#593e2d"/><path d="m1602.98 824.56c-.17 0-.34-.04-.5-.12l-8.02-4.06c-.54-.28-.76-.94-.49-1.49s.94-.76 1.49-.49l8.02 4.06c.54.28.76.94.49 1.49-.19.39-.58.61-.99.61z" fill="#593e2d"/><path d="m1596.26 832.12c-.19 0-.38-.05-.55-.14l-7.74-4.43c-.53-.3-.72-.98-.41-1.51s.99-.72 1.51-.41l7.74 4.42c.53.3.72.98.41 1.51-.21.36-.58.56-.96.56z" fill="#593e2d"/><path d="m1661.7 471.32s-1.97 25.71-4.85 62.65v.03c-7.28 93.12-20.42 257.59-22.81 261.61-3.34 5.62-19 6.08-28.74 5.6-9.71-.49-26.04-3.01-31-7.08-4.96-4.05-5.13-258.89-2.94-319.31 1.19-33.08 4.49-61.57 7.26-80.58.82-5.73 1.61-10.6 2.26-14.47 1.15-6.79 1.92-10.53 1.92-10.53s5.86 2.52 14.36 6.31h.02c2.9 1.28 6.08 2.72 9.42 4.25 9.73 4.4 20.93 9.62 30.53 14.45 12.17 6.11 21.75 11.57 22.52 13.96 2.25 6.89 2.05 63.11 2.05 63.11z" fill="#3e200d"/><path d="m1702.16 778.68 2.7 34.91 14.08 12.44 8.59-9.51 1.18-34.31z" fill="#eb9a7d"/><path d="m1702.49 811.1c2.37-1.24 11.61 2.9 13 2.49 1.38-.41 3.18-2.77 9.26-2.49s6.5 4.98 8.16 7.61c0 0 14.8 14.24 19.08 16.32s9.68 5.25 10.65 9.54-.14 10.23-1.11 10.92-60.75.57-62.04-1.71c-3.4-5.98-.18-30.24-.05-33.83.14-3.6.67-7.61 3.05-8.85z" fill="#3e200d"/><path d="m1761.13 851.48h-.02l-57.39-1.24c-.61-.01-1.1-.52-1.08-1.13.01-.61.49-1.03 1.13-1.08l57.38 1.24c.61.01 1.1.52 1.08 1.13-.01.6-.5 1.08-1.1 1.08z" fill="#593e2d"/><path d="m1723.74 826.71c-.36 0-.71-.17-.92-.49-.34-.51-.2-1.19.31-1.53l8.07-5.38c.5-.34 1.19-.2 1.53.31s.2 1.19-.31 1.53l-8.07 5.38c-.19.12-.4.18-.61.18z" fill="#593e2d"/><path d="m1730.47 833.84c-.31 0-.62-.13-.84-.39-.4-.47-.34-1.16.12-1.56l6.97-5.96c.47-.39 1.16-.34 1.56.12s.34 1.16-.12 1.56l-6.97 5.95c-.21.19-.46.28-.72.28z" fill="#593e2d"/><path d="m1696.04 171.25-40.93 25.73-37.88-25.15s16.04-13.27 17.43-18.81c.29-1.15.44-3.14.51-5.58.11-4.54-.09-10.6-.29-15.53-.24-4.96-.51-8.76-.51-8.76l43.42-2.59s1.21 21.85 2.03 30.14c.84 8.3 16.22 20.55 16.22 20.55z" fill="#eb9a7d"/><path d="m1623.04 68.01s-.41 46.41 5.95 54.99c6.36 8.57 20.05 21.71 27.79 21.99 7.21.26 21.91-14.96 26.83-22.12 6.64-9.68 4.61-54.48 4.61-54.48s1.29-26.78-33.56-26.23-31.62 25.85-31.62 25.85z" fill="#eb9a7d"/><path d="m1631.03 158.67s13.18 3.65 27.73 3.37c14.56-.28 24.61-3.69 24.61-3.69s12.07 12.92 11.52 13.61-33.6 18.19-37.47 18.37-6.3 1.84-11.65-1.75c-5.36-3.6-22.17-13.14-23.1-16.59s8.36-13.32 8.36-13.32z" fill="#fff"/><path d="m1657.32 151.2c-6.73 1.04-18.52-2.59-22.15-3.76.11-4.54-.4-17.55-.4-17.55s15.86 11.93 21.58 12.06c6.36.14 8.17-1.94 10.09-.83 1.96 1.1-1.09 8.84-9.12 10.08z" fill="#e17f5d"/><path d="m1677.05 87.44c-.2-.77-.61-1.42-1.17-1.63-1.41-.54-1.93 1.25-2 2.19-.07.84.15 2.39.95 2.83 1.02.56 2.03-.24 2.26-1.24.17-.67.14-1.47-.04-2.15z" fill="#3e200d"/><path d="m1639.37 88.34c-.2-.77-.61-1.42-1.17-1.63-1.41-.54-1.93 1.25-2 2.19-.07.84.15 2.39.95 2.83 1.02.56 2.03-.24 2.26-1.24.17-.67.14-1.47-.04-2.15z" fill="#3e200d"/><path d="m1657.53 110.94c-.32 0-.63-.13-.85-.39-.39-.47-.33-1.16.13-1.56.79-.67 2.82-2.78 2.76-4.49-.06-2.03-2.75-10.06-3.78-12.98-.2-.58.1-1.21.68-1.41s1.21.1 1.41.68c.39 1.11 3.81 10.9 3.9 13.64.1 3.09-3.18 5.94-3.55 6.26-.2.17-.45.25-.7.25z" fill="#e17f5d"/><path d="m1686.92 90.6s5.25-2.49 6.36 6.82-8.57 13.64-8.57 13.64 0-13.64 0-14.2 2.21-6.26 2.21-6.26z" fill="#eb9a7d"/><path d="m1624.79 90.6s-5.25-2.49-6.36 6.82 8.57 13.64 8.57 13.64 0-13.64 0-14.2-2.21-6.26-2.21-6.26z" fill="#eb9a7d"/><path d="m1645.36 79.44c-1.39-1.77-6.72-1.67-8.89-1.51-4.22.3-7.26 1.98-7.85 2.42-1.02.75-.53 2.01.46 2.51 1.17.59 2.55-.1 3.72-.36 2.81-.63 4.97-.54 7.84-.33 3.91.27 6.08-1 4.72-2.73z" fill="#904d32"/><path d="m1666.71 78.98c1.35-1.8 6.68-1.82 8.86-1.71 4.22.21 7.3 1.81 7.9 2.24 1.04.73.58 1.99-.41 2.52-1.15.61-2.55-.04-3.72-.28-2.82-.57-4.99-.43-7.85-.16-3.9.38-6.11-.85-4.78-2.61z" fill="#904d32"/><path d="m1628.89 63.13c-.09-.72-.45-1.38-1.2-1.58-1.89-.5-5.75-.04-7.31 1.22-2.01 1.61-2 5.28-2.07 7.61-.07 2.38.66 4.63.83 6.98.2 2.69-.12 5.25.85 7.85.78 2.11 2.07 5.72 4.71 5.97.37.03.85-.24 1-.57 1.43-3.11 1.38-6.86 1.41-10.2.01-1.84.07-3.68.12-5.51.61-3.9 2.11-8.09 1.66-11.77z" fill="#904d32"/><path d="m1685.66 62.84c-.32.26-.49.74-.49 1.18-.08.06-.18.1-.24.19-.31.47-.45.85-.55 1.4-.3 1.63.12 3.27.17 4.9.06 1.76-.01 3.5.15 5.26.29 3.13.82 6.25.81 9.4 0 1.86.12 5.4 2.64 5.65.51.05 1.01-.32 1.27-.73 1.72-2.73 2.46-6.21 2.94-9.33.6-3.92 1.99-8.39 1.83-12.37-.14-3.96-4.66-8.77-8.53-5.55z" fill="#904d32"/><path d="m1625.85 157.44s29.36 27.37 32.29 27c4.99-.63 29.74-27.36 29.74-27.36s55.45 24.97 60.24 28.65c4.79 3.69-1.11 95.5-4.79 119.1-3.69 23.6-3.44 71.82-3.44 76.61s-158.43-2.13-158.43-2.13-4.06-71.9-5.53-85.91c-1.48-14.01-14.38-96.24-12.91-103.98 1.48-7.75 62.83-31.98 62.83-31.98z" fill="#593e2d"/><path d="m1748.14 786.39c.22 9.6-10.42 13.16-24.98 15.95-14.58 2.77-35.71-.69-39.16-3.47-3.47-2.77-18.87-197.41-21.66-208.52-1.28-5.09-3.41-29.91-5.49-56.37-2.48-31.35-4.85-64.96-5.6-70.6-1.11-8.23-35.11-50.66-49.34-69.14-3.78-4.93-6.17-8.14-6.17-8.58 0-1.08-3.47-3.65-6.81-5.88-3.12-2.1-6.13-3.89-6.13-3.89s5.46-.13 14.36-.33c38.58-.88 141.64-2.94 142.21.46.09.53.24 1.81.46 3.72.38 3.12.91 7.92 1.5 13.78 1.97 19.2 4.69 49.82 5.15 70.29.73 30.52 1.44 313.99 1.66 322.58z" fill="#3e200d"/><path d="m1678.34 198.41c-3.06 0-12.69-6.93-18.33-11.2-.49-.37-.58-1.06-.21-1.55s1.07-.58 1.55-.21c6.7 5.07 14.83 10.51 16.71 10.77 1.96-2.07 9.53-20.47 14.39-33.18.22-.57.86-.86 1.43-.64s.86.86.64 1.43c-5.88 15.37-13.39 33.84-15.77 34.54-.12.03-.25.04-.41.04z" fill="#3e200d"/><path d="m1659.31 174c-5.06 2.56-6.88 8.93-4.45 14.06l4.33 9.11c1.28 2.7 9.77 6.01 9.77 6.01 4.21 1.67 5.99.82 7.36-3.49 0 0 2.8-8.67 1.52-11.37l-4.53-9.54c-2.5-5.24-8.81-7.42-14-4.78z" fill="#3e200d"/><path d="m1662.02 192.5c-.41 0-.81-.23-1-.63l-3.2-6.73c-.26-.55-.03-1.21.53-1.47.54-.26 1.21-.03 1.47.52l3.2 6.73c.26.55.03 1.21-.53 1.47-.15.07-.31.11-.47.11z" fill="#593e2d"/><path d="m1666.79 190.23c-.41 0-.81-.23-1-.63l-3.2-6.73c-.26-.55-.03-1.21.53-1.47.54-.26 1.21-.03 1.47.52l3.2 6.73c.26.55.03 1.21-.53 1.47-.15.08-.31.11-.47.11z" fill="#593e2d"/><path d="m1671.56 187.97c-.41 0-.81-.23-1-.63l-3.2-6.73c-.26-.55-.03-1.21.53-1.47.55-.26 1.21-.03 1.48.53l3.2 6.73c.26.55.03 1.21-.53 1.47-.16.06-.32.1-.48.1z" fill="#593e2d"/><path d="m1716.47 361.86c-2.11-1.07-4.61-3.01-5.9-4.83-1.47-2.08-.05-3.06-1.64-5.78-.36-.62-2.33-1.2-3.05-3.09-.4-1.06-.04-1.89-.08-2.95-.04-1.08.06-2.24-.2-3.3-.3-1.21-1.37-1.56-2.03-2.5-.38-.55-.62-1.2-.75-1.85-.28-1.33-.15-2.71-.24-4.06-.07-1.13-.36-2.21-1.02-3.14-.64-.88-1.57-1.37-2.44-1.99-1.02-.73-2.36-2.06-2.36-3.42 0-.73.18-1.48.22-2.2.17-2.95-.59-3.89-2.05-6.09-1.27-1.91-1.54-3.75-1.49-6.08.03-1.24.4-2.83-.09-4.03-1.21-2.9-5.64-2.03-6.53-4.58-.98-2.82 2.4-5.5.95-8.62-.58-1.24-1.81-1.61-2.41-2.62-1.29-2.19-.65-3.36-.49-5.55.22-2.92.13-4.31-1.48-6.49-1.63-2.22-3.31-.53-3.35-3.93-.03-2.01 2.02-3.56 1.47-5.79-.77-3.14-4.88-2.99-4.05-7.05.28-1.36 1.07-2.47 1.45-3.78.4-1.38-.09-2.94-1.13-3.91-.37-.34-.87-.52-1.21-.88-.41-.45-.75-1.07-1.02-1.61-.37-.73-.62-1.53-.49-2.35.25-1.57 1.37-2.89 1.68-4.48.81-4.07-4.87-5.16-3.28-9.21 1.19-3.03 3.96-3.67 2.03-7.52-.84-1.69-3.05-2.74-3.29-4.79-.27-2.29 1.94-3.71 2.45-5.72.88-3.43-2.37-5.06-1.77-8.07.34-1.74 1.56-2.75 1.77-4.55.22-1.93-.5-3.51-1.49-5.11-.75-1.21-2.66-.1-1.91 1.12 2.96 4.78-2.35 6.78-.93 11.23.28.89 1.38 1.33 1.76 2.16 1.27 2.76-1.03 4.06-1.81 6.36-.69 2.02-.3 4.17.97 5.87 1.14 1.54 2.72 1.9 2.7 4.04-.01 1.19-1.48 2.5-2.04 3.42-.75 1.23-1.19 1.49-1.4 3.01-.46 3.42 2.53 4.06 3.15 6.88.38 1.76-.29 3.44-.79 5.1-.26.85-.47 1.73-.46 2.63.01.88-.01 1.8.74 2.42.55.46 1.29.61 1.8 1.13.6.61 1 1.45 1.34 2.23.25.55-.44 2.62-.75 3.03-.5.67-.84 1.42-1.03 2.23-.33 1.4-.53 1.39.09 2.6.6 1.17 1.16.78 2.47 2.43 3.73 4.71-.68 5.46.45 9.89.85 3.34 5.25 1.87 5.24 6.24 0 2.28-2.42 4.62-.82 6.97.47.69 1.26 1.5 1.75 1.99 2.77 2.76 1.69 4.09 1.05 7.34-.6 3.05.19 4.07 1.25 4.74.39.24 1.3.63 1.67.85 2.62 1.52 3.48 2.25 3.47 4.58-.01 1.85-.79 3.53-.17 5.4 1.03 3.09 4.2 3.47 3.66 7.74-.38 3.03-.38 3.7 1.28 5.66 1.34 1.58 3.82 2.94 4.21 5.31.23 1.39-.54 2.88-.23 4.23.28 1.21.72 2.07 1.85 2.6.98.46 1.56 1.51 1.72 2.55.17 1.15-.03 2.36-.2 3.49-.14.91-.36 2.04.16 2.88.47.75 1.06.69 1.66 1.12 2.59 1.86 1.19 2.79 2.01 5.45 1 3.25 5.35 5.49 8.24 6.95 1.31.6 2.43-1.31 1.16-1.95z" fill="#3e200d"/><path d="m1741.35 393.51c-14.14.35-39.31.75-80.8.73h-81.92c.82-5.73 1.61-10.6 2.26-14.47h8.05c5.35.02 11.33.02 17.68.02 16.99 0 36.64 0 53.94-.04 26.97-.07 59.78-.04 79.29-.02.37 3.12.9 7.92 1.5 13.78z" fill="#593e2d"/><path d="m1758.89 367.89c-5.91 4.58-12.59 9.47-19 13.54-13.1 8.34-39.38 23.92-51.44 31.04-3.89 2.28-6.31 3.69-6.31 3.69l-.04-.07-11.68-17.77s.07-.07.2-.2c.55-.6 2.23-2.35 4.71-4.93 10.51-11 35.46-36.88 48.61-49.05 3.3-3.03 6.19-5.66 8.76-7.92 8.16-7.21 20.53-6.79 28.21.97 8.65 8.78 7.74 23.16-2.02 30.7z" fill="#eb9a7d"/><path d="m1686.2 409.15c-1.77 3.27-3.47 6.22-3.47 6.22s-.22.27-.62.73c-.04.07-.13.15-.22.27-2.54 2.94-10.62 11.79-19.93 16.33-11.28 5.51-20.97 4.34-23.65.73-2.7-3.61-1.84-16.24 6.26-23.1 8.25-6.99 21.68-11.02 25.73-12.1.11-.04.22-.07.33-.09.55-.15.84-.22.84-.22s3.72.46 7.79 1.02c4.76.64 10 1.39 10.6 1.66.61.28-1.56 4.64-3.66 8.55z" fill="#eb9a7d"/><path d="m1555.15 332.46c-8.77 8.66-8.02 23.04 1.63 30.71 5.85 4.65 12.49 9.64 18.84 13.78 17.2 11.24 57.34 35.42 57.34 35.42l11.93-17.69s-36.1-38.94-52.86-54.82c-3.25-3.08-6.13-5.74-8.65-8.02-8.1-7.3-20.47-7.03-28.23.62z" fill="#eb9a7d"/><path d="m1643.84 394.25s17.05 4.32 26.76 12.74c8 6.95 8.73 19.59 5.99 23.17s-12.43 4.62-23.65-1.02-20.56-17.58-20.56-17.58-8.09-14.36-6.95-14.86c1.13-.49 18.41-2.45 18.41-2.45z" fill="#eb9a7d"/><path d="m1658.06 121.04c-.04 0-.08 0-.12 0-4.99-.02-8.35-1.31-8.49-1.37-.57-.22-.85-.86-.62-1.43.22-.57.86-.85 1.43-.63.03.01 3.14 1.2 7.7 1.22 5.5-.05 7.97-1.22 8-1.24.54-.27 1.21-.05 1.48.49s.06 1.2-.48 1.48c-.13.07-2.97 1.48-8.9 1.48z" fill="#e17f5d"/><path d="m1617.58 53.78s-8.15-7.2-9.11-11.63c-.81-3.71 12.33-13.33 21.89-19.58 2.07-1.35 8.2-.46 14.84-2.49 4.67-1.43 9.55-5.62 11.23-5.62s7.9 4.84 12.74 6.27c5.62 1.66 9.86.18 14.22 2.73 5.94 3.47 21.71 15.38 20.4 18.69-1.51 3.81-8.81 10.45-8.81 10.45s-30.45 0-31.55 0c-1.11-.01-45.85 1.18-45.85 1.18z" fill="#593e2d"/><path d="m1616.3 64.05 1.28-10.27s26.57-2.36 39.71-2.24 37.69 1.06 37.69 1.06l.7 10.74s-44.79 2.17-45.9 2.72-33.48-2.01-33.48-2.01z" fill="#3e200d"/><path d="m1614.33 70.15c2.31 1.39 15.54 3.81 44.24 3.65 28.7-.15 39.7-3.65 41.08-4.58 1.39-.93-.82-3.14-3.97-5.89-3.61-3.16-72.87-4.72-79.39.71-4.27 3.58-4.27 4.72-1.96 6.11z" fill="#593e2d"/><path d="m1544.08 276.81 4.95 71.53 37.08 3.5-2.74-20-3.16-42.5z" fill="#eb9a7d"/><path d="m1771.59 276.81-4.74 75.63-38.22-.62 6.82-62.48z" fill="#eb9a7d"/><path d="m1565.48 186.33s-9.69 5.85-14.12 19.41-23.78 69.69-21.85 72.18c1.94 2.49 51.56 17.98 53.3 17.98s9.76-83.24 9.76-83.24z" fill="#593e2d"/><path d="m1786.57 276.12c-1.86 2.54-51 19.49-52.74 19.54-1.73 0-12.19-82.92-12.19-82.92l26.28-27.1s9.85 5.55 14.67 18.92c0 .02.02.04.02.07.04.09.07.2.11.29.4 1.08.89 2.43 1.44 3.96.38 1.02.77 2.1 1.22 3.3 1.31 3.56 2.9 7.83 4.58 12.46.51 1.37 1.02 2.79 1.53 4.2.35.97.71 1.95 1.08 2.94.51 1.44 1.04 2.88 1.55 4.34 6.77 18.76 13.56 38.5 12.45 40z" fill="#593e2d"/><path d="m1720.02 229.93c.22-1.53 2.94-7.41 2.94-7.85s-3.27-3.27-4.25-4.14-3.38-.76-5.99-1.85c-1.81-.75-4.09-1.98-5.33-2.66-.56-.31-1.22-.31-1.77 0-1.23.68-3.51 1.91-5.33 2.66-2.62 1.09-5.01.98-5.99 1.85s-4.25 3.71-4.25 4.14c0 .44 2.72 6.32 2.94 7.85s-1.42 10.46-.76 15.15c.65 4.69 4.69 7.09 7.63 8.28 2.09.85 4.56 2.08 5.82 2.73.53.27 1.13.27 1.66 0 1.26-.65 3.73-1.88 5.82-2.73 2.94-1.2 6.98-3.6 7.63-8.28.65-4.69-.99-13.63-.77-15.15z" fill="#f6eae1"/><path d="m1706.51 250.77-.54-.3c-.02-.01-2.34-1.31-4.14-2.09-3.25-1.4-5.16-3.64-5.53-6.49-.28-2.15.05-5.4.29-7.77.11-1.04.22-2.21.19-2.49-.06-.49-.8-2.36-1.19-3.37-.62-1.57-.69-1.78-.69-2.09 0-.61.24-.97 2.82-3.39l.24-.22c.55-.52 1.29-.68 2.14-.87.61-.13 1.3-.29 2-.59 1.58-.7 3.82-2.06 3.84-2.08l.58-.35.58.35c.02.01 2.26 1.38 3.84 2.07.69.31 1.39.46 2 .59.85.19 1.59.35 2.14.87l.24.22c2.58 2.42 2.82 2.78 2.82 3.39 0 .31-.08.53-.69 2.09-.39 1-1.13 2.87-1.19 3.37-.03.28.09 1.46.19 2.49.24 2.38.57 5.63.29 7.77-.38 2.84-2.29 5.08-5.53 6.49-1.81.78-4.12 2.08-4.14 2.09zm-9.31-24.41c.1.23.26.63.44 1.08.72 1.83 1.23 3.18 1.33 3.88.06.49-.02 1.32-.19 3.01-.23 2.27-.55 5.37-.3 7.26.27 2.05 1.69 3.65 4.21 4.74 1.38.6 2.99 1.45 3.81 1.89.82-.45 2.43-1.3 3.81-1.89 2.53-1.09 3.94-2.69 4.21-4.74.25-1.89-.07-4.99-.3-7.26-.17-1.69-.25-2.52-.19-3.01.1-.7.61-2.05 1.33-3.88.17-.43.32-.81.43-1.1-.34-.37-1.02-1.03-2.01-1.96l-.24-.23c-.13-.1-.69-.23-1.1-.32-.68-.15-1.52-.33-2.42-.73-1.21-.54-2.71-1.39-3.52-1.86-.81.47-2.31 1.33-3.52 1.87-.89.4-1.74.58-2.42.73-.41.09-.97.21-1.1.32l-.24.22c-1 .94-1.68 1.61-2.02 1.98z" fill="#e1cdbf"/><path d="m1625.77 241.62-34.08 1.78c-1.68.09-3.11-1.2-3.2-2.88l-.29-5.52c-.09-1.68 1.2-3.11 2.88-3.2l34.08-1.78c1.68-.09 3.11 1.2 3.2 2.88l.29 5.52c.09 1.68-1.2 3.11-2.88 3.2z" fill="#f6eae1"/><path d="m1581.78 290.91c-.6 0-1.1-.49-1.11-1.09 0-.43-.48-42.92-.83-53.07-.34-10.01-12.48-46.97-12.6-47.34-.19-.58.12-1.21.7-1.4s1.2.12 1.4.71c.51 1.53 12.36 37.64 12.71 47.95.35 10.17.83 52.69.83 53.12.01.61-.48 1.11-1.09 1.12z" fill="#3e200d"/><path d="m1734.16 290.91c-.01 0-.02 0-.03 0-.61-.02-1.09-.53-1.08-1.14.02-.49 1.39-49.58 1.66-55.09.28-5.63 11.87-44.3 12.36-45.94.18-.59.8-.91 1.38-.74.59.18.92.79.74 1.38-4.15 13.83-12.06 41.13-12.27 45.42-.27 5.48-1.64 54.54-1.66 55.04-.01.6-.5 1.07-1.1 1.07z" fill="#3e200d"/><path d="m1639.53 197.72c-.15 0-.29-.02-.4-.05-2.32-.68-12.15-19.18-19.99-34.57-.28-.54-.06-1.21.48-1.49.54-.27 1.21-.06 1.49.48 7.66 15.05 16.69 31.65 18.68 33.43 1.75-.25 8.89-5.68 14.69-10.72.46-.4 1.16-.35 1.56.11s.35 1.16-.11 1.56c-4.93 4.29-13.4 11.25-16.4 11.25z" fill="#3e200d"/><path d="m1660.68 370.36c-.59 0-1.07-.46-1.1-1.05-.02-.37-1.93-37.29-2.53-50.78-.6-13.52-.01-128.94 0-130.1 0-.61.5-1.1 1.11-1.1h.01c.61 0 1.1.5 1.1 1.11-.01 1.16-.6 116.53 0 129.99.6 13.48 2.51 50.4 2.53 50.77.03.61-.44 1.13-1.05 1.16-.03 0-.05 0-.07 0z" fill="#3e200d"/><path d="m1663.09 204.21c-.61 0-1.11-.49-1.11-1.11v-5.78c0-.61.49-1.11 1.11-1.11.61 0 1.11.49 1.11 1.11v5.78c-.01.62-.5 1.11-1.11 1.11z" fill="#3e200d"/><path d="m1663.09 245.13c-.61 0-1.11-.49-1.11-1.11v-5.78c0-.61.49-1.11 1.11-1.11.61 0 1.11.49 1.11 1.11v5.78c-.01.62-.5 1.11-1.11 1.11z" fill="#3e200d"/><path d="m1664.19 292.01c-.61 0-1.11-.49-1.11-1.11v-5.78c0-.61.49-1.11 1.11-1.11.61 0 1.11.49 1.11 1.11v5.78c0 .61-.5 1.11-1.11 1.11z" fill="#3e200d"/><path d="m1665.47 342.41c-.61 0-1.11-.49-1.11-1.11v-5.78c0-.61.49-1.11 1.11-1.11.61 0 1.11.49 1.11 1.11v5.78c0 .61-.49 1.11-1.11 1.11z" fill="#3e200d"/><path d="m1572.93 194.67c-.42 0-.82-.24-1.01-.65-.25-.56-.01-1.21.55-1.46l47.2-21.48c.56-.25 1.21-.01 1.46.55s.01 1.21-.55 1.46l-47.2 21.48c-.14.07-.3.1-.45.1z" fill="#3e200d"/><path d="m1741.15 195.64c-.17 0-.35-.04-.51-.12l-45.11-23.29c-.54-.28-.76-.95-.48-1.49s.95-.76 1.49-.48l45.11 23.29c.54.28.76.95.48 1.49-.19.38-.58.6-.98.6z" fill="#3e200d"/><path d="m1774.12 236.1c-5.75 1.19-12.23-5.07-14.56-14.09-1.9-7.28-.55-14.23 3.03-17.46 0 .02.02.04.02.07.04.09.07.2.11.29.4 1.08.89 2.43 1.44 3.96.38 1.02.77 2.1 1.22 3.3 1.31 3.56 2.9 7.83 4.58 12.46.51 1.37 1.02 2.79 1.53 4.2.35.97.71 1.95 1.08 2.94.51 1.43 1.04 2.87 1.55 4.33z" fill="#f6eae1"/><path d="m1780.07 231.18h.02zm0 0h.02zm-8.59-2.36c-2.59-1.57-4.78-4.36-5.89-8.65-.8-3.05-.77-5.75-.22-8.01-.44-1.19-.84-2.28-1.22-3.3-1.42 3.08-1.95 7.08-.69 11.86 1.53 5.95 5.09 9.54 9.09 11.04-.36-.99-.71-1.97-1.07-2.94z" fill="#e1cdbf"/><path d="m1660.31 38.84c.07-.52 1-2.51 1-2.66s-1.11-1.11-1.44-1.4c-.33-.3-1.14-.26-2.03-.63-.61-.26-1.39-.67-1.8-.9-.19-.1-.41-.1-.6 0-.42.23-1.19.65-1.8.9-.89.37-1.7.33-2.03.63s-1.44 1.26-1.44 1.4c0 .15.92 2.14 1 2.66.07.52-.48 3.54-.26 5.13s1.59 2.4 2.58 2.81c.71.29 1.54.71 1.97.92.18.09.38.09.56 0 .43-.22 1.26-.64 1.97-.92 1-.41 2.36-1.22 2.58-2.81s-.33-4.62-.26-5.13z" fill="#f6eae1"/><path d="m1613.31 44.88c-.32 0-.64-.14-.86-.41-.39-.47-.31-1.17.16-1.56 7.05-5.73 19.06-15.4 20.29-15.78.6-.18 2.02-.23 4.91-.29 3.17-.07 7.52-.18 9.44-.64 2-.49 4.72-2.47 6.53-3.78 1.63-1.19 2.08-1.5 2.66-1.5.46 0 .83.19 3.18 1.51 2.8 1.57 8.01 4.49 10.02 4.49 1.31 0 3.18-.07 4.98-.14 5.3-.2 5.8-.17 6.28.11.46.27 9.72 8.54 17.41 15.43.45.41.49 1.11.08 1.56-.41.46-1.11.49-1.56.09-6.21-5.57-15.53-13.88-16.98-15.09-.77-.05-3.27.04-5.15.11-1.84.07-3.74.14-5.07.14-2.38 0-6.61-2.25-11.1-4.77-.77-.43-1.61-.9-2.07-1.13-.34.22-.91.63-1.39.98-1.94 1.42-4.88 3.56-7.31 4.15-2.15.52-6.46.63-9.91.71-1.83.04-3.9.09-4.32.2-1.12.56-12.59 9.73-19.53 15.38-.2.14-.45.23-.69.23z" fill="#3e200d"/><path d="m1579.45 384.95c0 .2 0 .38-.02.58l-3.32 44.29-.93 12.59-9.45 126.28c-.31 4.12-3.89 7.19-8.01 6.88-4.11-.31-7.19-3.89-6.88-7.99l9.27-123.85.84-11.31 3.58-48.01c.31-4.12 3.89-7.19 8.01-6.9 3.92.29 6.91 3.57 6.91 7.44z" fill="#593e2d"/><path d="m1518.62 419.94c.31-4.11 3.89-7.2 8-6.89l43.02 3.22c4.11.31 7.2 3.89 6.89 8-.31 4.11-3.89 7.2-8 6.89l-43.02-3.22c-4.11-.31-7.2-3.89-6.89-8z" fill="#593e2d"/><path d="m1582.81 441.25s-3.41.55-7.63 1.15c-5.62.8-12.65 1.64-15.07 1.33l.84-11.31c3.92-1.44 10.64-2.23 15.15-2.61 2.74-.27 4.67-.35 4.67-.35z" fill="#3e200d"/><path d="m1764.4 414.79h-18.07c-.61 0-1.11-.49-1.11-1.11 0-.61.49-1.11 1.11-1.11h18.07c.61 0 1.11.49 1.11 1.11-.01.61-.5 1.11-1.11 1.11z" fill="#3e200d"/><path d="m1741.72 392.77c-.58 0-1.07-.45-1.1-1.04l-.55-9.02c-.04-.61.43-1.13 1.04-1.17.63-.02 1.13.43 1.17 1.04l.55 9.02c.04.61-.43 1.13-1.04 1.17-.03 0-.05 0-.07 0z" fill="#3e200d"/><path d="m1592.57 238.46c-.59 0-1.08-.46-1.11-1.06-.03-.61.45-1.13 1.06-1.15l31.44-1.38c.56-.05 1.12.45 1.15 1.06s-.45 1.13-1.06 1.15l-31.43 1.38c-.02 0-.04 0-.05 0z" fill="#e1cdbf"/><path d="m1691.51 410.68c-3.89 2.28-9.36 5.48-9.36 5.48l-.04-.07c-.04.07-.13.15-.22.27l-11.59-18.14c.11-.04.22-.07.33-.09.55-.6 4.51-4.73 6.99-7.32z" fill="#593e2d"/><path d="m1685.84 403.59c0 3.27-2.65 5.93-5.93 5.93-3.27 0-5.93-2.65-5.93-5.93 0-3.27 2.65-5.93 5.93-5.93 3.27 0 5.93 2.66 5.93 5.93z" fill="#3e200d"/><path d="m1684.1 403.59c0 2.31-1.88 4.19-4.19 4.19s-4.19-1.88-4.19-4.19 1.88-4.19 4.19-4.19 4.19 1.88 4.19 4.19z" fill="#593e2d"/><path d="m1640.32 418.3c-.22 0-.45-.07-.64-.21-.5-.36-.61-1.05-.26-1.54.15-.21 3.78-5.25 8.54-9.19 3.83-3.17 10.91-6.43 11.21-6.56.55-.26 1.21-.01 1.47.55.25.56.01 1.21-.55 1.47-.07.03-7.11 3.27-10.72 6.26-4.53 3.75-8.11 8.72-8.15 8.77-.22.29-.56.45-.9.45z" fill="#e17f5d"/><path d="m1664.93 431.49c-.37 0-.73-.18-.94-.52-.33-.52-.17-1.2.35-1.53.04-.03 4.24-2.68 6.86-4.57 2.58-1.87 4.66-3.85 4.68-3.87.44-.42 1.14-.41 1.56.03s.41 1.14-.03 1.56c-.09.08-2.21 2.1-4.91 4.06-2.67 1.93-6.8 4.54-6.97 4.65-.19.13-.4.19-.6.19z" fill="#e17f5d"/><path d="m1656.42 529.48c-.4 0-.79-.22-.98-.6l-25.41-49.13c-.28-.54-.07-1.21.48-1.49.54-.28 1.21-.07 1.49.48l25.41 49.13c.28.54.07 1.21-.48 1.49-.16.08-.34.12-.51.12z" fill="#593e2d"/><path d="m1582.81 428.36c-.24 0-.49-.08-.69-.24-.48-.38-.55-1.08-.17-1.55 8.31-10.38 20.87-26.17 21.78-27.6.17-.39.56-.66 1.01-.66.61 0 1.11.49 1.11 1.11 0 .52 0 .86-22.17 28.54-.22.25-.55.4-.87.4z" fill="#593e2d"/><path d="m1738.31 425.31c-.33 0-.65-.14-.87-.42l-19.67-24.8c-.38-.48-.3-1.17.18-1.55s1.17-.3 1.55.18l19.67 24.8c.38.48.3 1.17-.18 1.55-.2.16-.44.24-.68.24z" fill="#593e2d"/><path d="m1268.05 147.74c-.03-8.24-.37-14.08-6.58-19.76-.4-.37-.87-.55-1.35-.59-.09-.09-.16-.19-.27-.27-.07-.04-.13-.09-.18-.13-.77-.58-1.62-.4-2.23.11-11.06 2.54-16.88 9.82-16.61 21.46.13 5.15 1.46 7.06-.62 12.06-1.79 4.34-2.46 6.19-2.72 10.97-.73 13.25-10.86 24.65-7.52 38.81 2.19 9.31 7.52 14.05 16.68 15.66 8.85 1.55 10.55-2.37 12.57-10.04.58-2.19 2.57-6.08 2.41-9.47-.09-2.35-1.26-4.58-1.5-6.86-.44-3.89 1.24-5.4 1.77-8.54.8-4.54 1.06-9.58.22-14.14-.06-.35-.08-.65-.12-.98.39-.11.78-.32 1.1-.69 6.08-6.92 4.98-19.13 4.95-27.6z" fill="#3e200d"/><path d="m1264.33 118.78c-.01-1.23-.31-2.39-1.2-3.72-.15-.22-.32-.44-.51-.65-1.31-4.35-2.63-11.14-7.14-12.75-.59 1.25-1.14 2.53-1.49 3.9-.84 3.22-.58 6.45-.77 9.73-.14 2.45.62 4.57 1.33 6.85.53 1.71.43 3.92 1.64 5.35.67.79 2.69 1.56 2.63 1.51 2.55 1.96 3.95 6.82 6.5 9.62 1.78 1.95 4.38.21 4.66-1.93.74-5.84-3.07-12.27-5.65-17.91z" fill="#3e200d"/><path d="m1326.37 778.39 2.49 34.92 14.01 12.52 8.64-9.46 1.38-34.3z" fill="#825545"/><path d="m1325.42 846.98c.28 3.49.85 6.39 1.82 7.96 1.4 2.22 61.13-.19 62.05-.92.64-.49 1.23-3.37 1.19-6.52 0-1.51-.17-3.07-.54-4.45-1.13-4.23-6.66-7.18-11.04-9.08s-19.74-15.48-19.74-15.48c-1.77-2.56-2.39-7.25-8.48-7.26s-19.92-.4-22.24.94c-2.33 1.34-2.7 5.38-2.68 8.97.03 2.64-1.14 16.37-.34 25.84z" fill="#f6eae1"/><path d="m1325.42 846.98c.28 3.49.85 6.39 1.82 7.96 1.4 2.22 61.13-.19 62.05-.92.64-.49 1.23-3.37 1.19-6.52z" fill="#e1cdbf"/><path d="m1226.65 778.51 2.23 34.94 13.91 12.64 8.71-9.4 1.65-34.29z" fill="#825545"/><path d="m1223.4 846.04c.19 3.49.69 6.41 1.62 8 1.34 2.26 50.06 1.59 51 .89.66-.48 1.31-3.34 1.35-6.48.04-1.51-.1-3.07-.43-4.46-1.02-4.25-19.09-25.58-19.09-25.58-1.7-2.6-2.21-7.31-8.29-7.47-6.09-.16-19.91-.9-22.25.38-2.37 1.28-2.83 5.31-2.9 8.9-.06 2.63-1.57 16.33-1.01 25.82z" fill="#f6eae1"/><path d="m1223.4 846.04c.19 3.49.69 6.41 1.62 8 1.34 2.26 50.06 1.59 51 .89.66-.48 1.31-3.34 1.35-6.48z" fill="#e1cdbf"/><path d="m1327.98 186.55-42.16 23.68-36.58-27.01s16.67-12.46 18.33-17.91c.35-1.13-.67-36.7-.67-36.7l42.62 6.26s0 10.42.15 19.56c.04 4 .14 7.76.27 10.31.02.46.09.95.23 1.46 2.12 8.33 17.81 20.35 17.81 20.35z" fill="#825545"/><path d="m1326.49 136.98c-4.11 7.61-12.12 18.05-19.31 17.65-7.74-.42-31.48-9.8-37.68-18.5-6.19-8.69-4.85-55.09-4.85-55.09s31.04-16.44 31.62-17.26c.55-.82 31.19 10.75 31.19 10.75s2.57 8.12 2.81 18.67c0 1.02.02 2.04.04 3.1v1c.02.82.02 1.64.02 2.48.12 14.56-.55 31.13-3.84 37.2z" fill="#825545"/><path d="m1256.21 174.34s7.87-7.94 9.96-8.18 15.74 4.31 22.99 4.4 20.98-4.71 22.09-4.38 10.85 12.4 10.85 12.4-29.85 17.61-31.28 17.24-34.61-21.48-34.61-21.48z" fill="#f6eae1"/><path d="m1325.5 109.43c.07-.79-.08-1.54-.53-1.94-1.14-1-2.24.51-2.63 1.36-.35.76-.68 2.3-.08 2.99.76.88 1.99.47 2.55-.38.38-.58.63-1.34.69-2.03z" fill="#3e200d"/><path d="m1291.99 108.61c.02-.8-.18-1.53-.66-1.89-1.2-.92-2.2.66-2.54 1.54-.3.78-.52 2.34.12 2.99.82.82 2.01.33 2.52-.56.35-.61.55-1.39.56-2.08z" fill="#3e200d"/><path d="m1310.17 166.18c-1.44-.08-3.12-.23-4.85-.47-4.74-.67-10.94-1.86-16.7-4.86-5.76-3.03-5.49-10.98-3.57-10.41 4.98 1.5 18.75 4.81 20.83 4.76s3.78-.81 3.78-.81 0 0 .02.02c.04 4 .14 7.76.27 10.31.02.46.09.95.22 1.46z" fill="#573124"/><path d="m1266.25 104.25s-5.26-2.47-6.33 6.85 8.63 13.61 8.63 13.61-.06-13.64-.06-14.2c0-.55-2.24-6.26-2.24-6.26z" fill="#825545"/><path d="m1343.31 197.17c-10.35 5.02-31.14 30.74-15.33 58.4 11.01 19.26 38.57 48.39 50.83 68.47 5.16 8.45 17.49 9.46 26.81 6.13 5.05-1.8 9.5-3.39 10.14-3.62 1.56-.56 15.18-26.28 12.4-35.84s-50.02-79.51-57.36-87.13c-10.56-10.98-17.14-11.43-27.49-6.41z" fill="#9cb9d5"/><path d="m1212.11 789.72c2.12 5.46 14.65 7.72 24.31 7.99 9.69.29 23.54-1.72 24.58-5 2.35-7.43 40.93-342.92 40.93-342.92l37.37-45.49 4.69-4.82-24.71-10.91-10.31-4.54-90.6-1.86s-.13 1.57-.33 4.29c-.29 3.65-.73 9.4-1.22 16.11-1.24 16.7-2.81 39.42-3.14 51.13-.58 19.91-5.4 326.24-1.57 336.02z" fill="#49668b"/><path d="m1290 495.76s21.97 288.98 25.15 295.44c2.26 4.56 16.37 5.31 23.01 5.51 6.64.18 18.36-1.9 22.54-4.78 7.3-5.02 9.29-201.99 10.84-255.62 1.13-38.25-1.5-100.35-3.1-132.83-.35-7.43-.66-13.32-.86-17.01-.15-2.77-.24-4.29-.24-4.29l-58.39 1.86s-.64 1.84-1.68 4.67c-1.44 4.05-3.69 10.15-5.95 15.88-2.68 6.73-5.4 12.96-6.92 14.8-3.78 4.55-4.4 76.37-4.4 76.37z" fill="#49668b"/><path d="m1234.47 193.94c10.11 5.49 34.19 25.4 17.13 52.31s-69.76 84.13-69.76 84.13-24.14-9.88-25.67-10.52c-1.54-.64-14.89-32.41-11.68-41.84 3.21-9.42 59.34-74.15 67.69-80.65 8.35-6.49 12.18-8.92 22.29-3.43z" fill="#9cb9d5"/><path d="m1400.14 291.28s4.75-12.57 22.91-21.17c18.16-8.61 22.33-18.86 27.39-21.1 8.76-3.87 30.4 17.62 33.11 21.59s-28.56 62.19-52.91 72.42c-27.65 11.62-49.36-15.71-49.36-15.71s11.46-14.39 11.39-16.6 7.47-19.43 7.47-19.43z" fill="#9cb9d5"/><path d="m1368.75 402.14c-6.06 6.86-15.85 10.93-24.29 14-14.79 5.38-30.85 6.74-46.48 6.2-59.57-2.07-76.56-15.69-78.89-17.4-7.79-5.69-11.19-202.58-7.81-206.76 10.45-12.92 38.5-26.15 45.1-24.96 6.59 1.19 34.44 17.68 39.83 17.68 5.4 0 16.52-12.71 22.59-13.31 9.65-.95 30.73 9.15 44.68 19.63 9.34 7.02 4.71 106.56 4.78 122.42.04 11.64 1.14 81.78.49 82.5z" fill="#9cb9d5"/><path d="m1368.63 301.46s17.93 253.42 17.93 267.43-42.57 20.56-95.74 21.07c-51.82.5-95.27-10.01-99.69-15.17s19.15-307.09 19.15-307.09 104.18 17.57 107.78 24.05c3.6 6.49 50.57 9.71 50.57 9.71z" fill="#9cb9d5"/><path d="m1206.46 375.59s25.81-.68 32.94 8.81c7.13 9.5 8.02 26.29-10.26 22.79s-31.09-15.28-31.09-15.28z" fill="#f6eae1"/><path d="m1208.65 290.61s-12.21 14.49-5.35 27.54c13.85 26.37 14.45 39.62 14.75 47.57s-12.49 33.54-27.58 29.95c-26.5-6.31-55.42-87.57-53.65-100.91s23.81-39.18 23.81-39.18l18.44 30.62z" fill="#9cb9d5"/><path d="m1265.35 166.47s-.91-11.48 0-12.68 18.23 1.01 25.47 1.38 19.22.18 19.96.46 1.2 12.26 1.2 12.26-32.72 9.96-34.66 9.49c-1.94-.45-11.97-10.91-11.97-10.91z" fill="#f6eae1"/><path d="m1313.45 129.7c-.24 0-.48-.08-.68-.24-.48-.38-.56-1.07-.18-1.55 1.38-1.75 2.61-3.78 2.63-4.34-.11-.77-2.24-6.77-3.72-10.77-.21-.57.08-1.21.65-1.42s1.21.08 1.42.65c.61 1.65 3.65 9.92 3.84 11.26.22 1.53-1.84 4.41-3.09 5.98-.22.29-.54.43-.87.43z" fill="#573124"/><path d="m1308.39 138.19c-.62 0-1.29-.04-2-.15-4.79-.7-7.26-4.35-7.36-4.5-.34-.51-.2-1.19.31-1.53.5-.34 1.19-.2 1.53.3.02.03 2.05 2.99 5.84 3.54 3.79.54 5.91-.88 6-.94.5-.35 1.19-.23 1.54.26s.24 1.18-.25 1.53c-.11.07-2.11 1.49-5.61 1.49z" fill="#573124"/><path d="m1291.09 95.45c-2.01-.21-4.15-.01-6.15.54-1.03.28-2.03.65-3.01 1.07-.47.2-2.14 1.24-.8 1.73 3.14 1.15 6.61.88 9.89.7.94-.05 4.73.57 5.14-.44.94-2.33-3.65-3.45-5.07-3.6z" fill="#3e200d"/><path d="m1330.34 99.79c-2.74.58-5.62.31-8.39.13-.93-.07-4.73.49-5.13-.53-.88-2.37 3.72-3.41 5.13-3.52 2.01-.18 4.16.04 6.15.64.75.22 1.48.49 2.21.8.03.82.03 1.64.03 2.48z" fill="#3e200d"/><path d="m1441.66 253.03-9.72-4.47 18.75-40.8c.54-1.18 1.95-1.7 3.13-1.16l5.43 2.49c1.18.54 1.7 1.95 1.16 3.13z" fill="#d7e9f0"/><path d="m1450.43 265.29c4.25-9.25 2.87-26.01-6.38-30.26s-22.87 5.62-27.12 14.87 1.92 15.58 11.17 19.83c9.26 4.25 18.08 4.81 22.33-4.44z" fill="#d7e9f0"/><path d="m1420.33 249.11s8.63 1.53 13.98 3.79 16.03 1.99 16.03 1.99-.29 20.61-19.29 13.05c-18.49-7.37-10.72-18.83-10.72-18.83z" fill="#8953da"/><path d="m1476.4 263.02s13.49-22.3 10.62-30.97-17.51-14.43-24.53-14.44c-10.66-.01-14.24 3.75-14.68 7.08-1.01 7.59 10.03 17.55 10.47 19.27s.44 6.13.44 6.13z" fill="#f6eae1"/><path d="m1268.55 113.69 7.47-18.31s21.56-2.06 21.41-2.43 21.27.8 21.27.8l12.35 2.06s.92 5.98.83 12.16-1.55 12.54-1.55 12.54l-8.42-.6-7.6-2.55-7.68.49s-6.28 1.45-6.42 1.45-9.21-.91-9.97-1.01-11.86-2.17-12.38-2.3c-.52-.11-9.31-2.3-9.31-2.3z" fill="#f6eae1" opacity=".5"/><path d="m1275.56 96.08c-.5 0-.95-.34-1.07-.84-.15-.59.21-1.19.81-1.34.48-.12 11.88-2.89 29.79-2.43 17.88.46 26.24 2.35 26.58 2.43.6.14.97.73.83 1.33-.14.59-.73.97-1.33.83-.08-.02-8.52-1.92-26.14-2.37s-29.09 2.34-29.21 2.36c-.08.02-.17.03-.26.03z" fill="#3c495e"/><path d="m1329.62 122.16c-1.18 0-3.03-.11-5.66-.55-1.48-.25-2.74-.75-4.09-1.28-3.25-1.28-6.94-2.74-15.32-.95-12.22 2.61-34.73-4.34-35.68-4.63-.58-.18-.91-.8-.73-1.39.18-.58.81-.91 1.39-.73.23.07 22.91 7.07 34.56 4.58 9.03-1.93 13.22-.28 16.59 1.05 1.28.51 2.39.94 3.64 1.15 4.56.77 6.52.46 6.54.46.61-.09 1.17.3 1.28.9.1.6-.29 1.17-.89 1.28-.04.02-.55.11-1.63.11z" fill="#3c495e"/><path d="m1256.21 124.71c7.5 4.23 12.6.08 13.85-8.44 4.49-30.42 18.61-30.92 26.93-31.9 28.52-3.33 32.88 2.85 32.88 2.85s4.04-6.63 4.96-12.53c.49-3.15-1.01-14.47-4.47-19.08-10.05-13.39-25.51-13.09-41.9-14.56-16.4-1.47-32.07 7.56-34.84 13.46s-10.88 6.64-11.25 19.73-4.48 23.95-2.4 29.72c4.3 11.88 15.22 20.17 16.24 20.75z" fill="#49668b"/><path d="m1212.6 295.47c-.2 0-.41-.06-.59-.17-.52-.33-.67-1.01-.35-1.53.25-.39 24.81-39.64 28.32-64.61 3.51-24.87-5.09-45.61-5.18-45.82-.24-.56.03-1.21.59-1.45s1.21.02 1.45.59c.09.21 8.93 21.49 5.33 46.99-3.59 25.44-27.62 63.85-28.64 65.48-.2.34-.56.52-.93.52z" fill="#7b98ba"/><path d="m1367.75 305.43c-.54 0-1.02-.4-1.09-.96l-14.93-109.79c-.08-.6.34-1.16.95-1.25.59-.09 1.16.34 1.24.95l14.93 109.79c.08.6-.34 1.16-.95 1.25-.05 0-.1.01-.15.01z" fill="#7b98ba"/><path d="m1394.94 310.59c-.07 0-.13-.01-.2-.02-.6-.11-1-.69-.89-1.29.09-.46 2.13-11.47 6.75-19.96 6.93-12.73 14.22-15.89 14.53-16.02.56-.23 1.21.03 1.45.59s-.03 1.21-.59 1.45c-.07.03-6.92 3.06-13.44 15.04-4.46 8.19-6.5 19.2-6.52 19.31-.1.53-.56.9-1.09.9z" fill="#7b98ba"/><path d="m1405.71 312.89c-.1 0-.19-.01-.29-.04-.59-.16-.94-.76-.78-1.35l8.41-31.34c.16-.59.76-.94 1.36-.78.59.16.94.76.78 1.35l-8.41 31.34c-.14.5-.58.82-1.07.82z" fill="#7b98ba"/><path d="m1198.06 308.75c-.13 0-.26-.02-.39-.07-.54-.2-.83-.79-.68-1.34.02-.21.11-3.37-9.38-10.33-10.81-7.93-18.51-11.27-18.59-11.31-.56-.24-.82-.89-.58-1.45s.89-.82 1.45-.58c.32.14 7.99 3.46 19.02 11.55 11.17 8.19 10.43 12.1 10.17 12.8-.15.45-.58.73-1.02.73z" fill="#7b98ba"/><path d="m1218.05 373.64c-.17 0-.34-.04-.51-.12-.54-.28-.76-.95-.48-1.49.03-.06 3-5.88 2.93-9.24-.05-2.55-7.94-22.41-13.22-35.14-.23-.57.03-1.21.6-1.45.56-.23 1.21.03 1.45.6 1.36 3.28 13.31 32.16 13.39 35.94.08 3.92-3.04 10.04-3.17 10.3-.2.38-.59.6-.99.6z" fill="#7b98ba"/><path d="m1295.93 204.79c-10.68 0-45.82-25.4-47.33-26.5-.49-.36-.6-1.05-.24-1.54.36-.5 1.05-.6 1.54-.25 10.26 7.45 38.55 26.66 46.31 26.06 11.75-.88 28.3-20.18 28.47-20.37.4-.47 1.1-.52 1.56-.13.46.4.52 1.09.13 1.56-.7.82-17.33 20.2-29.99 21.14-.15.03-.3.03-.45.03z" fill="#7b98ba"/><path d="m1217.88 345.47c-.02 0-.04 0-.06 0-.61-.03-1.08-.55-1.04-1.16l3.21-58.57c.03-.61.51-1.11 1.16-1.04.61.03 1.08.55 1.04 1.16l-3.21 58.57c-.02.58-.51 1.04-1.1 1.04z" fill="#7b98ba"/><path d="m1207.32 575.64c-.02 0-.03 0-.05 0-.61-.03-1.08-.54-1.06-1.15l7.26-169.81c.03-.61.46-1.12 1.15-1.06.61.03 1.08.54 1.06 1.15l-7.26 169.81c-.02.59-.51 1.06-1.1 1.06z" fill="#7b98ba"/><path d="m1353.35 253.17-29.01 1.25c-1.6.07-2.96-1.17-3.03-2.78l-.58-13.44c-.07-1.6 1.17-2.96 2.78-3.03l29.01-1.25c1.6-.07 2.96 1.17 3.03 2.78l.58 13.44c.07 1.61-1.17 2.96-2.78 3.03z" fill="#f6eae1"/><path d="m1292.34 173.14c-.43 0-.87-.01-1.31-.02-14.88-.38-23.58-5.36-23.94-5.57-.53-.31-.7-.98-.4-1.51.31-.53.99-.71 1.51-.4.08.05 8.61 4.91 22.88 5.27 11.01.28 17.93-3.24 17.99-3.28.54-.28 1.21-.07 1.49.47s.07 1.21-.47 1.49c-.28.15-6.93 3.55-17.75 3.55z" fill="#e1cdbf"/></svg>